<svg xmlns="http://www.w3.org/2000/svg" xmlns:xlink="http://www.w3.org/1999/xlink" width="72.346" height="72.346" viewBox="0 0 72.346 72.346">
  <defs>
    <clipPath id="clip-path">
      <path id="path8448" d="M0-682.665H72.346v72.346H0Z" transform="translate(0 682.665)"/>
    </clipPath>
  </defs>
  <g id="Grupo_1076232" data-name="Grupo 1076232" transform="translate(-209.616 -6590)">
    <g id="g8442" transform="translate(209.616 7272.665)">
      <g id="g8444" transform="translate(0 -682.665)">
        <g id="g8446" clip-path="url(#clip-path)">
          <g id="g8452" transform="translate(1.06 1.06)">
            <path id="path8454" d="M-592.439-296.219a35.113,35.113,0,0,1-35.113,35.113,35.113,35.113,0,0,1-35.113-35.113,35.113,35.113,0,0,1,35.113-35.113,35.113,35.113,0,0,1,35.113,35.113" transform="translate(662.665 331.333)" fill="#fe0364"/>
          </g>
          <g id="g8456" transform="translate(17.728 3.463)">
            <path id="path8458" d="M-263.543,0a35.091,35.091,0,0,1,16.667,29.883A35.113,35.113,0,0,1-281.99,65a35.027,35.027,0,0,1-12.794-2.4,34.95,34.95,0,0,0,18.446,5.23,35.113,35.113,0,0,0,35.113-35.113A35.125,35.125,0,0,0-263.543,0" transform="translate(294.783)" fill="#e30256"/>
          </g>
          <g id="g8460" transform="translate(7.013 30.952)">
            <path id="path8462" d="M-24.685,0a2.926,2.926,0,0,1,2.926,2.926,2.926,2.926,0,0,1-2.926,2.926,2.926,2.926,0,0,1-2.926-2.926A2.926,2.926,0,0,1-24.685,0" transform="translate(27.611 0)" fill="#f2fbff"/>
          </g>
          <g id="g8464" transform="translate(59.481 30.952)">
            <path id="path8466" d="M-24.685,0a2.926,2.926,0,0,0-2.926,2.926,2.926,2.926,0,0,0,2.926,2.926,2.926,2.926,0,0,0,2.926-2.926A2.926,2.926,0,0,0-24.685,0" transform="translate(27.611 0)" fill="#f2fbff"/>
          </g>
          <g id="g8468" transform="translate(18.617 18.616)">
            <path id="path8470" d="M-148.11,0a17.557,17.557,0,0,0-17.557,17.557,17.564,17.564,0,0,0,12.79,16.9l-.127-.036c-.606-.922,10.394-.922,9.788,0l-.127.036a17.564,17.564,0,0,0,12.79-16.9A17.557,17.557,0,0,0-148.11,0" transform="translate(165.666)" fill="#025f80"/>
          </g>
          <g id="g8472" transform="translate(40.941 53.044)">
            <path id="path8474" d="M-.9,0-1,.03-.9,0" transform="translate(1.004)" fill="#024c67"/>
          </g>
          <g id="g8476" transform="translate(41.047 53.038)">
            <path id="path8478" d="M-.174,0h0L-.195,0-.174,0" transform="translate(0.195 0.001)" fill="#024c67"/>
          </g>
          <g id="g8480" transform="translate(31.314 53.048)">
            <path id="path8482" d="M0,0,.011,0,0,0" fill="#024c67"/>
          </g>
          <g id="g8484" transform="translate(31.326 53.052)">
            <path id="path8486" d="M0,0,.081.023,0,0" fill="#024c67"/>
          </g>
          <g id="g8488" transform="translate(25.632 19.306)">
            <path id="path8490" d="M-237.041-142.289a17.564,17.564,0,0,0-12.667-16.867,17.53,17.53,0,0,1,7.015,14.04,17.556,17.556,0,0,1-17.557,17.557,17.563,17.563,0,0,1-4.889-.69,17.493,17.493,0,0,0,5.648,2.825c-.6-.921,10.393-.922,9.788,0a17.564,17.564,0,0,0,12.663-16.865" transform="translate(265.139 159.156)" fill="#024c67"/>
          </g>
          <g id="g8492" transform="translate(31.28 53.038)">
            <path id="path8494" d="M-.293-.085l-.035-.01h0Z" transform="translate(0.328 0.095)" fill="#024c67"/>
          </g>
          <g id="g8496" transform="translate(30.655 6.912)">
            <path id="path8498" d="M-46.552-279.762h0a4.138,4.138,0,0,1-4.13-3.895l-1.378-23.426a5.518,5.518,0,0,1,5.508-5.842,5.518,5.518,0,0,1,5.508,5.842l-1.378,23.426a4.138,4.138,0,0,1-4.13,3.895" transform="translate(52.07 312.925)" fill="#fed402"/>
          </g>
          <g id="g8500" transform="translate(30.321 43.976)">
            <path id="path8502" d="M-49.37,0a5.852,5.852,0,0,0-5.852,5.852,5.826,5.826,0,0,0,.958,3.21,17.568,17.568,0,0,0,4.894.691,17.568,17.568,0,0,0,4.894-.691,5.826,5.826,0,0,0,.958-3.21A5.852,5.852,0,0,0-49.37,0" transform="translate(55.223 0)" fill="#fed402"/>
          </g>
          <g id="g8504" transform="translate(30.42 47.146)">
            <path id="path8506" d="M0-31.694a5.819,5.819,0,0,0,.86,2.135,17.563,17.563,0,0,0,4.894.691,17.564,17.564,0,0,0,4.894-.691,5.826,5.826,0,0,0,.958-3.21,5.827,5.827,0,0,0-.649-2.682A17.482,17.482,0,0,1,.1-31.693H0" transform="translate(0 35.451)" fill="#fac600"/>
          </g>
          <g id="g8508" transform="translate(1.06 1.06)">
            <path id="path8510" d="M-119.053-58.8a34.958,34.958,0,0,1,21-6.97A35.113,35.113,0,0,1-62.939-30.655,35.113,35.113,0,0,1-98.052,4.458a35.113,35.113,0,0,1-35.113-35.113A35,35,0,0,1-122.854-55.51" transform="translate(133.165 65.768)" fill="none" stroke="#000" stroke-linecap="round" stroke-linejoin="round" stroke-miterlimit="10" stroke-width="1"/>
          </g>
          <g id="g8512" transform="translate(48.107 53.703)">
            <path id="path8514" d="M-45.744-19.178a26.5,26.5,0,0,1-4.172,2.995l-.859-1.484a2.929,2.929,0,0,1-.355-1.914,2.207,2.207,0,0,1,.875-1.481h0a1.857,1.857,0,0,1,.795-.344,3.139,3.139,0,0,1,.438-.045,2.469,2.469,0,0,1,.45.034,2.941,2.941,0,0,1,1.7.949Z" transform="translate(51.166 21.452)" fill="none" stroke="#000" stroke-linecap="round" stroke-linejoin="round" stroke-miterlimit="10" stroke-width="1"/>
          </g>
          <g id="g8516" transform="translate(49.358 55.977)">
            <path id="path8518" d="M-18.126-56.55l-2.149-3.709,1.1-.672c.354-.242.711-.479,1.062-.724s.688-.511,1.026-.775.663-.543.987-.824l2.824,3.224" transform="translate(20.275 63.253)" fill="none" stroke="#000" stroke-linecap="round" stroke-linejoin="round" stroke-miterlimit="10" stroke-width="1"/>
          </g>
          <g id="g8520" transform="translate(7.91 44.646)">
            <path id="path8522" d="M0-27.865l7.91-3.3c-.515.6-1.032,1.247-1.5,1.9S5.476-27.906,5.06-27.2c.836.038,1.647.049,2.472.012s1.611-.091,2.414-.2L2.825-22.608" transform="translate(0 31.168)" fill="none" stroke="#000" stroke-linecap="round" stroke-linejoin="round" stroke-miterlimit="10" stroke-width="1"/>
          </g>
          <g id="g8524" transform="translate(53.04 46.831)">
            <path id="path8526" d="M-20.551,0l7.5,4.147a29.442,29.442,0,0,1-9.939-.608l6.552,5.527" transform="translate(22.987)" fill="none" stroke="#000" stroke-linecap="round" stroke-linejoin="round" stroke-miterlimit="10" stroke-width="1"/>
          </g>
          <g id="g8528" transform="translate(22.877 56.462)">
            <path id="path8530" d="M-45.063-55.724a2.344,2.344,0,0,1-1.331,1.5,2.682,2.682,0,0,1-1.063.212,2.851,2.851,0,0,1-1.157-.225h0a3.149,3.149,0,0,1-.99-.638,2.877,2.877,0,0,1-.612-.9,2.307,2.307,0,0,1,.082-2l1.593-3.037a2.938,2.938,0,0,1,1.426-1.316,2.312,2.312,0,0,1,.864-.2,1.961,1.961,0,0,1,.854.14h0a2.216,2.216,0,0,1,.713.488,2.528,2.528,0,0,1,.48.753,2.884,2.884,0,0,1,.11,1.933Z" transform="translate(50.405 62.329)" fill="none" stroke="#000" stroke-linecap="round" stroke-linejoin="round" stroke-miterlimit="10" stroke-width="1"/>
          </g>
          <g id="g8532" transform="translate(32.596 58.009)">
            <path id="path8534" d="M-25.21-37.876a26.972,26.972,0,0,1-2.988-.243l.581-4.246c.179.022.355.06.535.071l.538.049c.179.015.358.038.538.047l.539.021.359.016a2.365,2.365,0,0,1,.361.048,1.579,1.579,0,0,1,.339.121,1.97,1.97,0,0,1,.59.455,2.377,2.377,0,0,1,.627,1.48,2.118,2.118,0,0,1-.524,1.549,1.993,1.993,0,0,1-.661.465,2.087,2.087,0,0,1-.4.128A1.565,1.565,0,0,1-25.21-37.876Z" transform="translate(28.199 42.365)" fill="none" stroke="#000" stroke-linecap="round" stroke-linejoin="round" stroke-miterlimit="10" stroke-width="1"/>
          </g>
          <g id="g8536" transform="translate(35.584 62.499)">
            <path id="path8538" d="M0,0A3.432,3.432,0,0,1,.432.049a2.149,2.149,0,0,1,.4.121,2.317,2.317,0,0,1,.7.453A2.156,2.156,0,0,1,2.266,2.1L2.39,4.238" fill="none" stroke="#000" stroke-linecap="round" stroke-linejoin="round" stroke-miterlimit="10" stroke-width="1"/>
          </g>
          <g id="g8540" transform="translate(32.014 62.256)">
            <path id="path8542" d="M0-35.825l.581-4.247" transform="translate(0 40.072)" fill="none" stroke="#000" stroke-linecap="round" stroke-linejoin="round" stroke-miterlimit="10" stroke-width="1"/>
          </g>
          <g id="g8544" transform="translate(6.453 41.486)">
            <path id="path8546" d="M-70.183,0-78.5,2.067" transform="translate(78.502)" fill="none" stroke="#000" stroke-linecap="round" stroke-linejoin="round" stroke-miterlimit="10" stroke-width="1"/>
          </g>
          <g id="g8548" transform="translate(16.754 51.058)">
            <path id="path8550" d="M-18.074-42.1a26.731,26.731,0,0,1-2.142-2.1l3.163-2.893c.122.132.24.267.364.4l.382.38c.128.126.252.256.383.379l.4.361.266.242a1.658,1.658,0,0,1,.431.577,2.113,2.113,0,0,1,.165.725,2.39,2.39,0,0,1-.465,1.542,2.107,2.107,0,0,1-1.391.854,1.872,1.872,0,0,1-.808-.062A1.971,1.971,0,0,1-18.074-42.1Z" transform="translate(20.216 47.091)" fill="none" stroke="#000" stroke-linecap="round" stroke-linejoin="round" stroke-miterlimit="10" stroke-width="1"/>
          </g>
          <g id="g8552" transform="translate(13.591 53.95)">
            <path id="path8554" d="M0-24.4,3.163-27.3" transform="translate(0 27.297)" fill="none" stroke="#000" stroke-linecap="round" stroke-linejoin="round" stroke-miterlimit="10" stroke-width="1"/>
          </g>
          <g id="g8556" transform="translate(42.853 57.184)">
            <path id="path8558" d="M0,0,2.6,8.168" fill="none" stroke="#000" stroke-linecap="round" stroke-linejoin="round" stroke-miterlimit="10" stroke-width="1"/>
          </g>
          <g id="g8560" transform="translate(40.776 56.432)">
            <path id="path8562" d="M0-11a21.9,21.9,0,0,0,4.091-1.3" transform="translate(0 12.3)" fill="none" stroke="#000" stroke-linecap="round" stroke-linejoin="round" stroke-miterlimit="10" stroke-width="1"/>
          </g>
          <g id="g8564" transform="translate(57.501 41.752)">
            <path id="path8566" d="M0,0,8.3,2.157" fill="none" stroke="#000" stroke-linecap="round" stroke-linejoin="round" stroke-miterlimit="10" stroke-width="1"/>
          </g>
          <g id="g8568" transform="translate(56.858 39.643)">
            <path id="path8570" d="M0-35.1a22.141,22.141,0,0,0,1.084-4.16" transform="translate(0 39.259)" fill="none" stroke="#000" stroke-linecap="round" stroke-linejoin="round" stroke-miterlimit="10" stroke-width="1"/>
          </g>
          <g id="g8572" transform="translate(7.013 30.952)">
            <path id="path8574" d="M-24.685,0a2.926,2.926,0,0,1,2.926,2.926,2.926,2.926,0,0,1-2.926,2.926,2.926,2.926,0,0,1-2.926-2.926A2.926,2.926,0,0,1-24.685,0Z" transform="translate(27.611 0)" fill="none" stroke="#000" stroke-linecap="round" stroke-linejoin="round" stroke-miterlimit="10" stroke-width="1"/>
          </g>
          <g id="g8576" transform="translate(59.481 30.952)">
            <path id="path8578" d="M-24.685,0a2.926,2.926,0,0,0-2.926,2.926,2.926,2.926,0,0,0,2.926,2.926,2.926,2.926,0,0,0,2.926-2.926A2.926,2.926,0,0,0-24.685,0Z" transform="translate(27.611 0)" fill="none" stroke="#000" stroke-linecap="round" stroke-linejoin="round" stroke-miterlimit="10" stroke-width="1"/>
          </g>
          <g id="g8580" transform="translate(30.655 6.912)">
            <path id="path8582" d="M-46.552-279.762h0a4.138,4.138,0,0,1-4.13-3.895l-1.378-23.426a5.518,5.518,0,0,1,5.508-5.842,5.518,5.518,0,0,1,5.508,5.842l-1.378,23.426A4.138,4.138,0,0,1-46.552-279.762Z" transform="translate(52.07 312.925)" fill="none" stroke="#000" stroke-linecap="round" stroke-linejoin="round" stroke-miterlimit="10" stroke-width="1"/>
          </g>
          <g id="g8584" transform="translate(30.321 43.976)">
            <path id="path8586" d="M-1.217-38.426a5.873,5.873,0,0,0-.144,1.3A5.826,5.826,0,0,0-.4-33.919a17.563,17.563,0,0,0,4.894.691,17.562,17.562,0,0,0,4.894-.691,5.826,5.826,0,0,0,.958-3.21,5.852,5.852,0,0,0-5.852-5.852,5.828,5.828,0,0,0-2.778.7" transform="translate(1.361 42.981)" fill="none" stroke="#000" stroke-linecap="round" stroke-linejoin="round" stroke-miterlimit="10" stroke-width="1"/>
          </g>
          <g id="g8588" transform="translate(41.293 19.375)">
            <path id="path8590" d="M-46.017-23.469a17.5,17.5,0,0,0-5.455-2.782" transform="translate(51.472 26.251)" fill="none" stroke="#000" stroke-linecap="round" stroke-linejoin="round" stroke-miterlimit="10" stroke-width="1"/>
          </g>
          <g id="g8592" transform="translate(40.941 25.747)">
            <path id="path8594" d="M0-230.537a17.564,17.564,0,0,0,12.79-16.9A17.478,17.478,0,0,0,9.36-257.865" transform="translate(0 257.865)" fill="none" stroke="#000" stroke-linecap="round" stroke-linejoin="round" stroke-miterlimit="10" stroke-width="1"/>
          </g>
          <g id="g8596" transform="translate(18.617 19.374)">
            <path id="path8598" d="M-104.924,0a17.564,17.564,0,0,0-12.437,16.8,17.564,17.564,0,0,0,12.79,16.9" transform="translate(117.361)" fill="none" stroke="#000" stroke-linecap="round" stroke-linejoin="round" stroke-miterlimit="10" stroke-width="1"/>
          </g>
        </g>
      </g>
    </g>
  </g>
</svg>
