<svg id="Grupo_155228" data-name="Grupo 155228" xmlns="http://www.w3.org/2000/svg" width="71.318" height="61.197" viewBox="0 0 71.318 61.197">
  <path id="Trazado_197037" data-name="Trazado 197037" d="M3536.728,2584.654v-1.68h9.754c0-.314,0-.593,0-.872q.012-9.768.024-19.535c0-.845-.01-1.691-.007-2.537a4.631,4.631,0,0,1,4.183-4.814,47.028,47.028,0,0,1,4.978-.033v1.685c-1.478,0-2.942-.009-4.4,0a2.94,2.94,0,0,0-2.641,1.539,2.469,2.469,0,0,0-.371,1.124c-.04,1.6-.017,3.2-.017,4.84h32.79c0-1.672.12-3.326-.035-4.953a2.892,2.892,0,0,0-3.035-2.548c-1.649-.013-3.3,0-4.949-.005-.152,0-.3-.02-.5-.033v-1.685c.32,0,.625,0,.93,0a51.184,51.184,0,0,1,5.474.139,4.576,4.576,0,0,1,3.869,4.612q.019,11.835.009,23.672c0,.8-.294,1.118-1.071,1.118q-22.314,0-44.628,0C3536.994,2584.689,3536.906,2584.672,3536.728,2584.654Zm44.314-18.489H3548.23v7.49h32.812Zm-32.806,9.288v7.469h32.791v-7.469Z" transform="translate(-3529.087 -2523.494)" fill="#12263f"/>
  <path id="Trazado_197038" data-name="Trazado 197038" d="M3494.135,2363.227v1.671a13.141,13.141,0,0,1-8.113-1.656,13.6,13.6,0,0,1-5.718-15.8,13.038,13.038,0,0,1,8.847-9.007,8.587,8.587,0,0,1,1.832-.349.731.731,0,0,0,.786-.667c1.41-5.374,4.623-9.1,10.019-10.762a11.622,11.622,0,0,1,5.883-.251.9.9,0,0,0,1.086-.431,16.161,16.161,0,0,1,13.473-7.239c5.781-.057,10.328,2.518,13.748,7.121a18.258,18.258,0,0,1,3.15,7.162.912.912,0,0,0,.454.611c6.072,1.854,9.608,6.09,10.922,12.116a15.545,15.545,0,0,1-4.975,15.639,13.683,13.683,0,0,1-8.876,3.558,2.032,2.032,0,0,1-.267,0,1.086,1.086,0,0,1-.176-.054v-1.587a20.66,20.66,0,0,0,2.22-.271c5.81-1.331,9.2-5.087,10.476-10.781a14.77,14.77,0,0,0-6.35-15.413,16.526,16.526,0,0,0-3.662-1.559c-1.142-.378-1.145-.3-1.385-1.542a16.166,16.166,0,0,0-6.9-10.723,14.592,14.592,0,0,0-19.909,3.205c-.34.439-.656.9-.964,1.363-.577.871-.632.889-1.633.649a11.107,11.107,0,0,0-8.048.937,12.863,12.863,0,0,0-6.816,9.612c-.107.592-.347.936-.988.936-5.041,0-8.831,3.774-10.2,7.884a12.014,12.014,0,0,0,4.057,13.648,9.827,9.827,0,0,0,5.85,1.988C3492.654,2363.236,3493.363,2363.227,3494.135,2363.227Z" transform="translate(-3479.626 -2318.733)" fill="#12263f"/>
  <path id="Trazado_197039" data-name="Trazado 197039" d="M3698.625,2370.951c.474,0,.781,0,1.087,0,.8.01,1.084.288,1.086,1.089.007,2.5,0,4.994.005,7.491v4.54c.574,0,1.08.008,1.586,0,.464-.01,1,0,1.114.509a1.713,1.713,0,0,1-.205,1.227c-1.712,2.5-3.468,4.969-5.227,7.436-1.177,1.65-1.4,1.63-2.578-.036-1.667-2.367-3.35-4.723-5.025-7.085a5.29,5.29,0,0,1-.375-.552.956.956,0,0,1,.86-1.493c.29-.011.58,0,.87,0h.94v-3.72h1.726c0,1.553.023,3.085-.013,4.615a.834.834,0,0,1-.891.822c-.37.017-.742,0-1.252,0l4.453,6.3,4.46-6.3c-.434,0-.733,0-1.032,0-.82-.014-1.132-.315-1.135-1.134-.007-2.519,0-5.039,0-7.558,0-1.446,0-2.893,0-4.442a11.864,11.864,0,0,1-1.676-.021c-.356-.052-.879-.223-.979-.478a1.513,1.513,0,0,1,.151-1.217c1.517-2.228,3.091-4.416,4.647-6.617.373-.528.732-1.066,1.123-1.58a.851.851,0,0,1,1.532.008c1.952,2.74,3.9,5.482,5.8,8.254a1.359,1.359,0,0,1,.1,1.164c-.128.26-.633.412-.993.465a11.936,11.936,0,0,1-1.659.02v3.75h-1.737v-2.567c0-.6-.008-1.2,0-1.806.013-.782.315-1.073,1.1-1.083.306,0,.613,0,1.079,0l-4.464-6.324Z" transform="translate(-3661.795 -2356.445)" fill="#12263f"/>
  <path id="Trazado_197040" data-name="Trazado 197040" d="M3910.04,2763.5v1.625h-6.894V2763.5Z" transform="translate(-3846.471 -2703.981)" fill="#12263f"/>
  <path id="Trazado_197041" data-name="Trazado 197041" d="M3807.256,2483.53h-1.625v-1.917h1.625Z" transform="translate(-3762.006 -2459.816)" fill="#12263f"/>
  <path id="Trazado_197042" data-name="Trazado 197042" d="M3711.443,2443.482v-1.919h1.641v1.919Z" transform="translate(-3680.421 -2425.126)" fill="#12263f"/>
  <path id="Trazado_197043" data-name="Trazado 197043" d="M3711.439,2469.161h1.63v1.911h-1.63Z" transform="translate(-3680.419 -2449.031)" fill="#12263f"/>
  <path id="Trazado_197044" data-name="Trazado 197044" d="M3807.234,2511.093H3805.6v-1.9h1.639Z" transform="translate(-3761.975 -2483.705)" fill="#12263f"/>
  <path id="Trazado_197045" data-name="Trazado 197045" d="M3766.363,2659.489h2.047v1.64h-2.047Z" transform="translate(-3727.993 -2613.89)" fill="#12263f"/>
  <path id="Trazado_197046" data-name="Trazado 197046" d="M3739.605,2659.667v1.626h-2.055v-1.626Z" transform="translate(-3703.035 -2614.044)" fill="#12263f"/>
  <path id="Trazado_197047" data-name="Trazado 197047" d="M3710.914,2659.512v1.638h-2.059v-1.638Z" transform="translate(-3678.18 -2613.91)" fill="#12263f"/>
  <path id="Trazado_197048" data-name="Trazado 197048" d="M3710.913,2728.931v1.611h-2.055v-1.611Z" transform="translate(-3678.182 -2674.039)" fill="#12263f"/>
  <path id="Trazado_197049" data-name="Trazado 197049" d="M3768.386,2729.13v1.588h-2.053v-1.588Z" transform="translate(-3727.967 -2674.212)" fill="#12263f"/>
  <path id="Trazado_197050" data-name="Trazado 197050" d="M3739.571,2728.873v1.6H3737.5v-1.6Z" transform="translate(-3702.995 -2673.989)" fill="#12263f"/>
</svg>
