<svg xmlns="http://www.w3.org/2000/svg" width="86" height="75" viewBox="0 0 86 75">
  <g id="Grupo_1076295" data-name="Grupo 1076295" transform="translate(-210 -5945.23)">
    <g id="Grupo_1070112" data-name="Grupo 1070112" transform="translate(210 5945.23)">
      <g id="www" transform="translate(5.386 0.272)">
        <circle id="Elipse_4836" data-name="Elipse 4836" cx="37.364" cy="37.364" r="37.364" transform="translate(0 0)" fill="#94bfdb"/>
        <circle id="Elipse_4837" data-name="Elipse 4837" cx="30.209" cy="30.209" r="30.209" transform="translate(7.155 7.155)" fill="#abd9e6"/>
      </g>
      <g id="Grupo_1070063" data-name="Grupo 1070063">
        <g id="Grupo_1067616" data-name="Grupo 1067616">
          <path id="Trazado_781016" data-name="Trazado 781016" d="M24.5,0A24.254,24.254,0,0,1,49,24,24.254,24.254,0,0,1,24.5,48,24.254,24.254,0,0,1,0,24,24.254,24.254,0,0,1,24.5,0Z" transform="translate(37 27)" fill="#d4fef3"/>
          <path id="Trazado_781015" data-name="Trazado 781015" d="M17.5,0A17.255,17.255,0,0,1,35,17,17.255,17.255,0,0,1,17.5,34,17.255,17.255,0,0,1,0,17,17.255,17.255,0,0,1,17.5,0Z" fill="#d4fef3"/>
          <g id="Grupo_1044222" data-name="Grupo 1044222" transform="translate(54.379 42.557)">
            <g id="Trazado_145978" data-name="Trazado 145978" fill="none">
              <path d="M3.472,0A3.472,3.472,0,1,1,0,3.472,3.472,3.472,0,0,1,3.472,0Z" stroke="none"/>
              <path d="M 3.471655368804932 0.999995231628418 C 2.10877513885498 0.999995231628418 0.999995231628418 2.10877513885498 0.999995231628418 3.471655368804932 C 0.999995231628418 4.834535598754883 2.10877513885498 5.943315505981445 3.471655368804932 5.943315505981445 C 4.834535598754883 5.943315505981445 5.943315505981445 4.834535598754883 5.943315505981445 3.471655368804932 C 5.943315505981445 2.10877513885498 4.834535598754883 0.999995231628418 3.471655368804932 0.999995231628418 M 3.471655368804932 -4.76837158203125e-06 C 5.388995170593262 -4.76837158203125e-06 6.943315505981445 1.554315567016602 6.943315505981445 3.471655368804932 C 6.943315505981445 5.388995170593262 5.388995170593262 6.943315505981445 3.471655368804932 6.943315505981445 C 1.554315567016602 6.943315505981445 -4.76837158203125e-06 5.388995170593262 -4.76837158203125e-06 3.471655368804932 C -4.76837158203125e-06 1.554315567016602 1.554315567016602 -4.76837158203125e-06 3.471655368804932 -4.76837158203125e-06 Z" stroke="none" fill="#fff"/>
            </g>
          </g>
        </g>
        <g id="Grupo_1074456" data-name="Grupo 1074456" transform="translate(-312 -2534)">
          <g id="layer1" transform="translate(324.471 2261.404)">
            <path id="path15777-4" d="M58.793,284.035h-58v44a2,2,0,0,0,2,2h54a2,2,0,0,0,2-2Z" transform="translate(0.736 9.559)" fill="#dbe9ee"/>
            <path id="rect2181-6" d="M2.794,280.86a2,2,0,0,0-2,2v10h58v-10a2,2,0,0,0-2-2Z" transform="translate(0.735 0.734)" fill="#33658a"/>
            <g id="Grupo_80233" data-name="Grupo 80233" transform="translate(5.529 285.595)">
              <path id="path2185-5" d="M5.852,283.919a2,2,0,1,1-2-2A2,2,0,0,1,5.852,283.919Z" transform="translate(-1.852 -281.919)" fill="#5b91b8"/>
              <path id="circle2187-5" d="M7.969,283.919a2,2,0,1,1-2-2,2,2,0,0,1,2,2Z" transform="translate(4.031 -281.919)" fill="#5b91b8"/>
              <path id="circle2189-2" d="M10.085,283.919a2,2,0,1,1-2-2,2,2,0,0,1,2,2Z" transform="translate(9.914 -281.919)" fill="#5b91b8"/>
            </g>
            <path id="rect2197-2" d="M9.79,281.919h20v4h-20Z" transform="translate(25.739 3.677)" fill="#dbe9ee"/>
            <path id="rect2118" d="M2.381,285.623h46v26h-46Z" transform="translate(5.148 13.973)" fill="#ff6b6b"/>
            <path id="path2126" d="M7.408,297.739l8-5-8-5Z" transform="translate(19.121 19.855)" fill="#dbe9ee"/>
            <path id="path13073-4" d="M3.527,280.6a3.011,3.011,0,0,0-3,3v54a3.019,3.019,0,0,0,3,3.006H57.533a3.017,3.017,0,0,0,3-3.006v-54a3.009,3.009,0,0,0-3-3Zm0,2H57.533a.97.97,0,0,1,1,1v9h-56v-9a.97.97,0,0,1,1-1Zm4,2a3,3,0,1,0,3.006,3A3.01,3.01,0,0,0,7.527,284.6Zm8,0a3,3,0,1,0,3,3A3.01,3.01,0,0,0,15.529,284.6Zm8,0a3,3,0,1,0,3,3A3.017,3.017,0,0,0,23.531,284.6Zm11.949,0a1.007,1.007,0,0,0-.949,1v4a1,1,0,0,0,1,1H55.533a1,1,0,0,0,1-1v-4a1,1,0,0,0-1-1Zm-27.953,2a1,1,0,1,1-1,1A.985.985,0,0,1,7.527,286.6Zm8,0a1,1,0,0,1,0,2,1,1,0,1,1,0-2Zm8,0a1,1,0,0,1,0,2,1,1,0,1,1,0-2Zm13,0h18v2h-18Zm-34,7.994h56v43a.978.978,0,0,1-1,1.006H3.527a.978.978,0,0,1-1-1.006Zm5,4a1,1,0,0,0-1,1V325.6a1,1,0,0,0,1,1h46a1,1,0,0,0,1-1V299.592a1,1,0,0,0-1-1Zm1,2h44v24h-44Zm17.961,6a1,1,0,0,0-.961,1v10a1,1,0,0,0,1.529.848l8-5a1,1,0,0,0,0-1.691l-8-5a1,1,0,0,0-.568-.149Zm1.039,2.8,5.123,3.2-5.123,3.2ZM17.512,328.582a1,1,0,0,0-.982,1.01V330.6H7.478a1,1,0,1,0,0,2h9.051v1a1,1,0,1,0,2,0v-4A1,1,0,0,0,17.512,328.582Zm4.016,4.016h32a1,1,0,1,0,0-2H21.479a1,1,0,0,0,.048,2Z" transform="translate(0)"/>
          </g>
        </g>
      </g>
    </g>
  </g>
</svg>
