<svg xmlns="http://www.w3.org/2000/svg" xmlns:xlink="http://www.w3.org/1999/xlink" width="65.654" height="65.654" viewBox="0 0 65.654 65.654">
  <defs>
    <clipPath id="clip-path">
      <path id="path8448" d="M0-682.665H65.654v65.654H0Z" transform="translate(0 682.665)"/>
    </clipPath>
  </defs>
  <g id="Grupo_1076313" data-name="Grupo 1076313" transform="translate(-203.231 -8204.23)">
    <g id="g8442" transform="translate(203.231 8886.896)">
      <g id="g8444" transform="translate(0 -682.665)">
        <g id="g8446" clip-path="url(#clip-path)">
          <g id="g8452" transform="translate(0.962 0.962)">
            <path id="path8454" d="M-598.934-299.467A31.866,31.866,0,0,1-630.8-267.6a31.865,31.865,0,0,1-31.865-31.865A31.865,31.865,0,0,1-630.8-331.333a31.866,31.866,0,0,1,31.866,31.866" transform="translate(662.665 331.333)" fill="#fe0364"/>
          </g>
          <g id="g8456" transform="translate(16.088 3.143)">
            <path id="path8458" d="M-266.433,0a31.845,31.845,0,0,1,15.126,27.119,31.865,31.865,0,0,1-31.866,31.866,31.787,31.787,0,0,1-11.61-2.181,31.718,31.718,0,0,0,16.74,4.746,31.865,31.865,0,0,0,31.866-31.866A31.877,31.877,0,0,0-266.433,0" transform="translate(294.783)" fill="#e30256"/>
          </g>
          <g id="g8460" transform="translate(6.364 28.089)">
            <path id="path8462" d="M-24.955,0A2.655,2.655,0,0,1-22.3,2.655a2.655,2.655,0,0,1-2.656,2.656,2.655,2.655,0,0,1-2.655-2.656A2.655,2.655,0,0,1-24.955,0" transform="translate(27.611 0)" fill="#f2fbff"/>
          </g>
          <g id="g8464" transform="translate(53.979 28.089)">
            <path id="path8466" d="M-24.955,0a2.655,2.655,0,0,0-2.655,2.655,2.655,2.655,0,0,0,2.655,2.656A2.655,2.655,0,0,0-22.3,2.655,2.655,2.655,0,0,0-24.955,0" transform="translate(27.611 0)" fill="#f2fbff"/>
          </g>
          <g id="g8468" transform="translate(16.895 16.895)">
            <path id="path8470" d="M-149.734,0a15.933,15.933,0,0,0-15.933,15.933,15.939,15.939,0,0,0,11.607,15.338l-.116-.033c-.55-.836,9.432-.836,8.883,0l-.115.033A15.939,15.939,0,0,0-133.8,15.933,15.933,15.933,0,0,0-149.734,0" transform="translate(165.666)" fill="#025f80"/>
          </g>
          <g id="g8472" transform="translate(37.154 48.138)">
            <path id="path8474" d="M-.907,0-1,.028-.907,0" transform="translate(1.004)" fill="#024c67"/>
          </g>
          <g id="g8476" transform="translate(37.25 48.133)">
            <path id="path8478" d="M-.176,0h0L-.195,0-.176,0" transform="translate(0.195 0.001)" fill="#024c67"/>
          </g>
          <g id="g8480" transform="translate(28.418 48.142)">
            <path id="path8482" d="M0,0,.01,0,0,0" fill="#024c67"/>
          </g>
          <g id="g8484" transform="translate(28.429 48.145)">
            <path id="path8486" d="M0,0,.074.021,0,0" fill="#024c67"/>
          </g>
          <g id="g8488" transform="translate(23.261 17.521)">
            <path id="path8490" d="M-239.64-143.849a15.94,15.94,0,0,0-11.5-15.307,15.908,15.908,0,0,1,6.366,12.742A15.933,15.933,0,0,1-260.7-130.481a15.938,15.938,0,0,1-4.437-.626,15.875,15.875,0,0,0,5.125,2.563c-.549-.836,9.432-.836,8.883,0a15.94,15.94,0,0,0,11.491-15.305" transform="translate(265.139 159.156)" fill="#024c67"/>
          </g>
          <g id="g8492" transform="translate(28.387 48.133)">
            <path id="path8494" d="M-.3-.086-.328-.095h0Z" transform="translate(0.328 0.095)" fill="#024c67"/>
          </g>
          <g id="g8496" transform="translate(27.82 6.273)">
            <path id="path8498" d="M-47.063-282.829h0a3.755,3.755,0,0,1-3.748-3.534l-1.251-21.259a5.007,5.007,0,0,1,5-5.3,5.007,5.007,0,0,1,5,5.3l-1.251,21.259a3.755,3.755,0,0,1-3.748,3.534" transform="translate(52.07 312.925)" fill="#fed402"/>
          </g>
          <g id="g8500" transform="translate(27.517 39.909)">
            <path id="path8502" d="M-49.912,0a5.311,5.311,0,0,0-5.311,5.311,5.287,5.287,0,0,0,.87,2.913,15.943,15.943,0,0,0,4.441.627,15.943,15.943,0,0,0,4.441-.627,5.287,5.287,0,0,0,.87-2.913A5.311,5.311,0,0,0-49.912,0" transform="translate(55.223 0)" fill="#fed402"/>
          </g>
          <g id="g8504" transform="translate(27.606 42.786)">
            <path id="path8506" d="M0-32.041A5.281,5.281,0,0,0,.78-30.1a15.938,15.938,0,0,0,4.441.627A15.94,15.94,0,0,0,9.663-30.1a5.287,5.287,0,0,0,.87-2.913,5.288,5.288,0,0,0-.589-2.434,15.865,15.865,0,0,1-9.851,3.41H0" transform="translate(0 35.451)" fill="#fac600"/>
          </g>
          <g id="g8508" transform="translate(0.962 0.962)">
            <path id="path8510" d="M-120.358-59.443A31.725,31.725,0,0,1-101.3-65.768,31.865,31.865,0,0,1-69.434-33.9,31.865,31.865,0,0,1-101.3-2.037,31.865,31.865,0,0,1-133.165-33.9a31.767,31.767,0,0,1,9.357-22.556" transform="translate(133.165 65.768)" fill="none" stroke="#000" stroke-linecap="round" stroke-linejoin="round" stroke-miterlimit="10" stroke-width="1"/>
          </g>
          <g id="g8512" transform="translate(43.658 48.736)">
            <path id="path8514" d="M-46.245-19.388a24.05,24.05,0,0,1-3.786,2.718l-.78-1.346a2.658,2.658,0,0,1-.322-1.737,2,2,0,0,1,.794-1.344h0a1.685,1.685,0,0,1,.721-.312,2.849,2.849,0,0,1,.4-.04,2.241,2.241,0,0,1,.409.031,2.669,2.669,0,0,1,1.541.861Z" transform="translate(51.166 21.452)" fill="none" stroke="#000" stroke-linecap="round" stroke-linejoin="round" stroke-miterlimit="10" stroke-width="1"/>
          </g>
          <g id="g8516" transform="translate(44.793 50.799)">
            <path id="path8518" d="M-18.325-57.17l-1.95-3.366.995-.61c.321-.219.645-.435.964-.657s.624-.464.931-.7.6-.493.9-.747l2.563,2.926" transform="translate(20.275 63.253)" fill="none" stroke="#000" stroke-linecap="round" stroke-linejoin="round" stroke-miterlimit="10" stroke-width="1"/>
          </g>
          <g id="g8520" transform="translate(7.178 40.516)">
            <path id="path8522" d="M0-28.17l7.179-3c-.468.548-.936,1.131-1.358,1.728s-.852,1.232-1.229,1.877c.758.034,1.495.044,2.244.011s1.462-.082,2.191-.178L2.564-23.4" transform="translate(0 31.168)" fill="none" stroke="#000" stroke-linecap="round" stroke-linejoin="round" stroke-miterlimit="10" stroke-width="1"/>
          </g>
          <g id="g8524" transform="translate(48.135 42.499)">
            <path id="path8526" d="M-20.776,0l6.809,3.763a26.719,26.719,0,0,1-9.019-.552l5.946,5.016" transform="translate(22.987)" fill="none" stroke="#000" stroke-linecap="round" stroke-linejoin="round" stroke-miterlimit="10" stroke-width="1"/>
          </g>
          <g id="g8528" transform="translate(20.761 51.24)">
            <path id="path8530" d="M-45.557-56.335a2.127,2.127,0,0,1-1.208,1.357,2.434,2.434,0,0,1-.964.192,2.587,2.587,0,0,1-1.05-.2h0a2.858,2.858,0,0,1-.9-.579,2.611,2.611,0,0,1-.555-.817,2.094,2.094,0,0,1,.075-1.812l1.446-2.756a2.666,2.666,0,0,1,1.294-1.194,2.1,2.1,0,0,1,.784-.18,1.779,1.779,0,0,1,.775.127h0a2.011,2.011,0,0,1,.647.443,2.294,2.294,0,0,1,.435.683,2.617,2.617,0,0,1,.1,1.754Z" transform="translate(50.405 62.329)" fill="none" stroke="#000" stroke-linecap="round" stroke-linejoin="round" stroke-miterlimit="10" stroke-width="1"/>
          </g>
          <g id="g8532" transform="translate(29.581 52.644)">
            <path id="path8534" d="M-25.487-38.291a24.478,24.478,0,0,1-2.712-.221l.527-3.854c.162.02.323.054.486.064l.488.044c.163.014.325.035.488.043l.489.019.326.014a2.146,2.146,0,0,1,.328.044,1.433,1.433,0,0,1,.307.11,1.788,1.788,0,0,1,.536.413,2.157,2.157,0,0,1,.569,1.343,1.922,1.922,0,0,1-.476,1.406,1.809,1.809,0,0,1-.6.422,1.894,1.894,0,0,1-.364.116A1.42,1.42,0,0,1-25.487-38.291Z" transform="translate(28.199 42.365)" fill="none" stroke="#000" stroke-linecap="round" stroke-linejoin="round" stroke-miterlimit="10" stroke-width="1"/>
          </g>
          <g id="g8536" transform="translate(32.293 56.718)">
            <path id="path8538" d="M0,0A3.115,3.115,0,0,1,.392.045a1.95,1.95,0,0,1,.366.11,2.1,2.1,0,0,1,.636.411A1.957,1.957,0,0,1,2.056,1.9l.112,1.942" fill="none" stroke="#000" stroke-linecap="round" stroke-linejoin="round" stroke-miterlimit="10" stroke-width="1"/>
          </g>
          <g id="g8540" transform="translate(29.053 56.498)">
            <path id="path8542" d="M0-36.218l.527-3.854" transform="translate(0 40.072)" fill="none" stroke="#000" stroke-linecap="round" stroke-linejoin="round" stroke-miterlimit="10" stroke-width="1"/>
          </g>
          <g id="g8544" transform="translate(5.856 37.649)">
            <path id="path8546" d="M-70.953,0-78.5,1.876" transform="translate(78.502)" fill="none" stroke="#000" stroke-linecap="round" stroke-linejoin="round" stroke-miterlimit="10" stroke-width="1"/>
          </g>
          <g id="g8548" transform="translate(15.204 46.335)">
            <path id="path8550" d="M-18.272-42.562a24.258,24.258,0,0,1-1.944-1.9l2.87-2.625c.11.12.217.243.33.36l.347.345c.116.114.228.233.348.344l.363.328.241.219a1.5,1.5,0,0,1,.391.524,1.918,1.918,0,0,1,.15.658,2.169,2.169,0,0,1-.422,1.4,1.912,1.912,0,0,1-1.262.775,1.7,1.7,0,0,1-.733-.056A1.789,1.789,0,0,1-18.272-42.562Z" transform="translate(20.216 47.091)" fill="none" stroke="#000" stroke-linecap="round" stroke-linejoin="round" stroke-miterlimit="10" stroke-width="1"/>
          </g>
          <g id="g8552" transform="translate(12.334 48.96)">
            <path id="path8554" d="M0-24.672,2.87-27.3" transform="translate(0 27.297)" fill="none" stroke="#000" stroke-linecap="round" stroke-linejoin="round" stroke-miterlimit="10" stroke-width="1"/>
          </g>
          <g id="g8556" transform="translate(38.89 51.895)">
            <path id="path8558" d="M0,0,2.362,7.412" fill="none" stroke="#000" stroke-linecap="round" stroke-linejoin="round" stroke-miterlimit="10" stroke-width="1"/>
          </g>
          <g id="g8560" transform="translate(37.005 51.212)">
            <path id="path8562" d="M0-11.117A19.878,19.878,0,0,0,3.713-12.3" transform="translate(0 12.3)" fill="none" stroke="#000" stroke-linecap="round" stroke-linejoin="round" stroke-miterlimit="10" stroke-width="1"/>
          </g>
          <g id="g8564" transform="translate(52.183 37.891)">
            <path id="path8566" d="M0,0,7.529,1.958" fill="none" stroke="#000" stroke-linecap="round" stroke-linejoin="round" stroke-miterlimit="10" stroke-width="1"/>
          </g>
          <g id="g8568" transform="translate(51.599 35.977)">
            <path id="path8570" d="M0-35.483a20.094,20.094,0,0,0,.984-3.776" transform="translate(0 39.259)" fill="none" stroke="#000" stroke-linecap="round" stroke-linejoin="round" stroke-miterlimit="10" stroke-width="1"/>
          </g>
          <g id="g8572" transform="translate(6.364 28.089)">
            <path id="path8574" d="M-24.955,0A2.655,2.655,0,0,1-22.3,2.655a2.655,2.655,0,0,1-2.656,2.656,2.655,2.655,0,0,1-2.655-2.656A2.655,2.655,0,0,1-24.955,0Z" transform="translate(27.611 0)" fill="none" stroke="#000" stroke-linecap="round" stroke-linejoin="round" stroke-miterlimit="10" stroke-width="1"/>
          </g>
          <g id="g8576" transform="translate(53.979 28.089)">
            <path id="path8578" d="M-24.955,0a2.655,2.655,0,0,0-2.655,2.655,2.655,2.655,0,0,0,2.655,2.656A2.655,2.655,0,0,0-22.3,2.655,2.655,2.655,0,0,0-24.955,0Z" transform="translate(27.611 0)" fill="none" stroke="#000" stroke-linecap="round" stroke-linejoin="round" stroke-miterlimit="10" stroke-width="1"/>
          </g>
          <g id="g8580" transform="translate(27.82 6.273)">
            <path id="path8582" d="M-47.063-282.829h0a3.755,3.755,0,0,1-3.748-3.534l-1.251-21.259a5.007,5.007,0,0,1,5-5.3,5.007,5.007,0,0,1,5,5.3l-1.251,21.259A3.755,3.755,0,0,1-47.063-282.829Z" transform="translate(52.07 312.925)" fill="none" stroke="#000" stroke-linecap="round" stroke-linejoin="round" stroke-miterlimit="10" stroke-width="1"/>
          </g>
          <g id="g8584" transform="translate(27.517 39.909)">
            <path id="path8586" d="M-1.23-38.848a5.33,5.33,0,0,0-.131,1.177,5.287,5.287,0,0,0,.87,2.913,15.938,15.938,0,0,0,4.441.627,15.938,15.938,0,0,0,4.441-.627,5.287,5.287,0,0,0,.87-2.913A5.311,5.311,0,0,0,3.95-42.981a5.289,5.289,0,0,0-2.521.635" transform="translate(1.361 42.981)" fill="none" stroke="#000" stroke-linecap="round" stroke-linejoin="round" stroke-miterlimit="10" stroke-width="1"/>
          </g>
          <g id="g8588" transform="translate(37.474 17.583)">
            <path id="path8590" d="M-46.522-23.726a15.882,15.882,0,0,0-4.95-2.525" transform="translate(51.472 26.251)" fill="none" stroke="#000" stroke-linecap="round" stroke-linejoin="round" stroke-miterlimit="10" stroke-width="1"/>
          </g>
          <g id="g8592" transform="translate(37.154 23.366)">
            <path id="path8594" d="M0-233.065A15.94,15.94,0,0,0,11.607-248.4a15.861,15.861,0,0,0-3.112-9.462" transform="translate(0 257.865)" fill="none" stroke="#000" stroke-linecap="round" stroke-linejoin="round" stroke-miterlimit="10" stroke-width="1"/>
          </g>
          <g id="g8596" transform="translate(16.895 17.582)">
            <path id="path8598" d="M-106.074,0a15.94,15.94,0,0,0-11.287,15.245,15.94,15.94,0,0,0,11.607,15.338" transform="translate(117.361)" fill="none" stroke="#000" stroke-linecap="round" stroke-linejoin="round" stroke-miterlimit="10" stroke-width="1"/>
          </g>
        </g>
      </g>
    </g>
  </g>
</svg>
