<svg xmlns="http://www.w3.org/2000/svg" width="87.339" height="87.338" viewBox="0 0 87.339 87.338">
  <g id="Grupo_1076312" data-name="Grupo 1076312" transform="translate(-705 -8026.23)">
    <g id="Grupo_155241" data-name="Grupo 155241" transform="translate(705 8026.23)">
      <g id="Grupo_18423" data-name="Grupo 18423" transform="translate(0 0)">
        <g id="Grupo_18421" data-name="Grupo 18421">
          <g id="Grupo_18420" data-name="Grupo 18420">
            <g id="Grupo_18419" data-name="Grupo 18419">
              <path id="Trazado_40936" data-name="Trazado 40936" d="M281.962,2189.389a43.669,43.669,0,1,1-43.669-43.668A43.669,43.669,0,0,1,281.962,2189.389Z" transform="translate(-194.623 -2145.721)" fill="#fff"/>
            </g>
          </g>
        </g>
        <path id="Trazado_40937" data-name="Trazado 40937" d="M281.7,2189.1a43.669,43.669,0,1,0-43.669,43.67A43.5,43.5,0,0,0,281.7,2189.1Z" transform="translate(-194.361 -2145.436)" fill="#e4e9eb"/>
        <path id="Trazado_40938" data-name="Trazado 40938" d="M269.1,2186.859a33.332,33.332,0,1,0-33.333,33.333A33.209,33.209,0,0,0,269.1,2186.859Z" transform="translate(-191.968 -2143.046)" fill="none" stroke="#f7872b" stroke-miterlimit="10" stroke-width="4"/>
        <g id="Grupo_18422" data-name="Grupo 18422" transform="translate(7.736 24.517)">
          <path id="Trazado_40939" data-name="Trazado 40939" d="M275.732,2164.488a43.675,43.675,0,0,1-75.187,43.488,43.536,43.536,0,0,0,75.187-43.488Z" transform="translate(-200.545 -2164.488)" fill="#eceef0"/>
        </g>
        <g id="eUbNtw" transform="translate(21.246 21.894)">
          <g id="Grupo_155243" data-name="Grupo 155243">
            <path id="Trazado_197069" data-name="Trazado 197069" d="M3359.814,3158.344c.457.065,1.023.128,1.582.235a.37.37,0,0,0,.421-.158,10.561,10.561,0,0,1,5.971-3.7,10.67,10.67,0,0,1,11.72,5.4,18.709,18.709,0,0,1,.778,1.863.407.407,0,0,0,.3.286,7.551,7.551,0,0,1,5.467,5.555.386.386,0,0,0,.31.3,7.675,7.675,0,0,1,3.332,12.935.862.862,0,0,1-.681.362.626.626,0,0,1-.565-.416.642.642,0,0,1,.159-.706,12.976,12.976,0,0,0,1.03-1.179,6.359,6.359,0,0,0-4.142-9.865.673.673,0,0,1-.588-.609,6.348,6.348,0,0,0-5.071-5.225.762.762,0,0,1-.657-.614,9.291,9.291,0,0,0-7.8-6.951,9.191,9.191,0,0,0-8.868,3.776.7.7,0,0,1-.931.313,6.369,6.369,0,0,0-8.082,4.616,5.648,5.648,0,0,0-.142.986.829.829,0,0,1-.571.792,8.061,8.061,0,0,0-2.441,13.524.729.729,0,0,1,.313.69.638.638,0,0,1-1.1.34,10.9,10.9,0,0,1-1.182-1.235,8.826,8.826,0,0,1-2.027-5.976,9.149,9.149,0,0,1,5.408-8.317.542.542,0,0,0,.366-.46,7.612,7.612,0,0,1,6.476-6.453C3358.959,3158.409,3359.33,3158.39,3359.814,3158.344Z" transform="translate(-3346.335 -3154.467)" fill="#12263f"/>
            <path id="Trazado_197070" data-name="Trazado 197070" d="M3432.448,3494.966q0-2.87,0-5.739a1.24,1.24,0,0,1,1.358-1.367c1.228-.008,2.456,0,3.684,0,1.514,0,3.027.024,4.541-.008a1.335,1.335,0,0,1,1.484,1.462c-.017,3.8-.011,7.6,0,11.394a1.292,1.292,0,0,1-1.308,1.311c-2.817-.021-5.635-.008-8.453-.01a1.186,1.186,0,0,1-1.289-1.272c-.007-1.923,0-3.845,0-5.768Zm1.312,5.737h8.421v-6.979h-8.421Zm8.433-11.537h-8.431v3.218h8.431Z" transform="translate(-3427.526 -3468.798)" fill="#12263f"/>
            <path id="Trazado_197071" data-name="Trazado 197071" d="M3894.959,3495.089q0,2.856,0,5.712a1.216,1.216,0,0,1-1.345,1.34h-8.367a1.2,1.2,0,0,1-1.327-1.3q-.007-5.027,0-10.054c0-.634.01-1.271.074-1.9a1.033,1.033,0,0,1,.955-.874c.311-.025.625.006.938,0l7.623-.031c.785,0,1.214.271,1.4.908a1.517,1.517,0,0,1,.049.421q0,2.885,0,5.769Zm-9.746,5.751h8.43v-6.975h-8.43Zm8.435-11.553h-8.436v3.234h8.436Z" transform="translate(-3853.196 -3468.932)" fill="#12263f"/>
            <path id="Trazado_197072" data-name="Trazado 197072" d="M3658.131,3495.022q0-2.842,0-5.683a1.24,1.24,0,0,1,1.366-1.387q4.155-.009,8.311,0a1.236,1.236,0,0,1,1.373,1.38q0,5.723,0,11.446a1.208,1.208,0,0,1-1.3,1.324q-4.241,0-8.482,0a1.2,1.2,0,0,1-1.261-1.251c-.007-1.942,0-3.884,0-5.826Zm9.763-1.213h-8.441v7c.085.006.15.014.215.015,2.657,0,5.314,0,7.971.005.235,0,.258-.1.258-.291q-.008-2.914,0-5.828Zm-.019-1.3v-3.25h-8.418v3.25Z" transform="translate(-3640.313 -3468.891)" fill="#12263f"/>
            <path id="Trazado_197073" data-name="Trazado 197073" d="M3523.291,3747.164v-1.738c0-.209,0-.419,0-.628a.65.65,0,1,1,1.3,0c.011.676,0,1.352,0,2.028v.342h10.734c.605,0,.876-.268.876-.865,0-.438,0-.876,0-1.314,0-.457.253-.73.658-.726a.645.645,0,0,1,.645.714,17.3,17.3,0,0,1-.053,1.823,1.9,1.9,0,0,1-1.815,1.638c-.7.022-1.409.009-2.114.009h-8.9a1.375,1.375,0,0,0-.031.2c0,.819,0,1.638-.005,2.457,0,.175.067.241.22.3a2.262,2.262,0,1,1-1.75.006.318.318,0,0,0,.234-.353c-.011-.856,0-1.713,0-2.614h-.432c-3.485,0-6.971-.006-10.457.006a2.108,2.108,0,0,1-1.738-.745,1.994,1.994,0,0,1-.451-1.266c-.012-.485,0-.972,0-1.457a.645.645,0,0,1,.663-.724c.4,0,.636.285.638.749s0,.915,0,1.372a.716.716,0,0,0,.752.783c.313.011.628,0,.942,0h10.08Zm.639,5.412a.864.864,0,0,0-.945.924.958.958,0,0,0,1.915,0A.881.881,0,0,0,3523.93,3752.576Z" transform="translate(-3500.843 -3710.435)" fill="#12263f"/>
            <path id="Trazado_197074" data-name="Trazado 197074" d="M3467.7,3604.878c-.343,0-.686.005-1.028,0a.627.627,0,0,1-.658-.637.619.619,0,0,1,.639-.658q1.042-.02,2.085,0a.627.627,0,0,1,.659.669.636.636,0,0,1-.7.629c-.171,0-.343,0-.514,0Z" transform="translate(-3459.173 -3577.908)" fill="#12263f"/>
            <path id="Trazado_197075" data-name="Trazado 197075" d="M3467.714,3639.4c.342,0,.685,0,1.027,0a.627.627,0,0,1,.668.628.635.635,0,0,1-.663.666c-.695.01-1.39.01-2.084,0a.647.647,0,1,1,.023-1.293c.171,0,.342,0,.514,0Z" transform="translate(-3459.186 -3611.687)" fill="#12263f"/>
            <path id="Trazado_197076" data-name="Trazado 197076" d="M3467.7,3676.39c-.352,0-.7,0-1.056,0a.616.616,0,0,1-.622-.636.607.607,0,0,1,.622-.637q1.055-.012,2.111,0a.639.639,0,1,1-.028,1.276c-.342,0-.685,0-1.027,0Z" transform="translate(-3459.185 -3645.358)" fill="#12263f"/>
            <path id="Trazado_197077" data-name="Trazado 197077" d="M3515.813,3525.152a.861.861,0,1,1-.845-.878A.841.841,0,0,1,3515.813,3525.152Z" transform="translate(-3504.504 -3503.142)" fill="#12263f"/>
            <path id="Trazado_197078" data-name="Trazado 197078" d="M3563.76,3526.058a.849.849,0,0,1-.873-.851.836.836,0,0,1,.849-.872.862.862,0,1,1,.024,1.723Z" transform="translate(-3550.512 -3503.199)" fill="#12263f"/>
            <path id="Trazado_197079" data-name="Trazado 197079" d="M3466.92,3525.166a.836.836,0,0,1-.841.858.862.862,0,1,1-.021-1.723A.839.839,0,0,1,3466.92,3525.166Z" transform="translate(-3458.4 -3503.167)" fill="#12263f"/>
            <path id="Trazado_197080" data-name="Trazado 197080" d="M3918.876,3640.686c-.333,0-.667,0-1,0a.658.658,0,0,1-.7-.667.644.644,0,0,1,.7-.628q1-.006,2,0a.648.648,0,1,1,.023,1.293c-.342.012-.686,0-1.028,0Z" transform="translate(-3884.558 -3611.677)" fill="#12263f"/>
            <path id="Trazado_197081" data-name="Trazado 197081" d="M3918.9,3604.82c-.343,0-.685.005-1.027,0a.648.648,0,1,1-.032-1.3c.7-.017,1.408-.018,2.112,0a.638.638,0,0,1,.645.66.655.655,0,0,1-.7.636c-.333,0-.666,0-1,0Z" transform="translate(-3884.572 -3577.85)" fill="#12263f"/>
            <path id="Trazado_197082" data-name="Trazado 197082" d="M3918.88,3676.43c-.352,0-.7,0-1.056,0a.633.633,0,0,1-.652-.615.623.623,0,0,1,.638-.656q1.085-.016,2.169,0a.635.635,0,0,1-.014,1.268c-.361.009-.723,0-1.084,0Z" transform="translate(-3884.552 -3645.397)" fill="#12263f"/>
            <path id="Trazado_197083" data-name="Trazado 197083" d="M3966.128,3526.019a.867.867,0,0,1-.878-.859.872.872,0,0,1,1.745-.011A.867.867,0,0,1,3966.128,3526.019Z" transform="translate(-3929.883 -3503.159)" fill="#12263f"/>
            <path id="Trazado_197084" data-name="Trazado 197084" d="M4015.854,3525.2a.839.839,0,0,1-.874.847.858.858,0,0,1-.85-.882.841.841,0,0,1,.882-.841A.829.829,0,0,1,4015.854,3525.2Z" transform="translate(-3975.971 -3503.19)" fill="#12263f"/>
            <path id="Trazado_197085" data-name="Trazado 197085" d="M3917.349,3526.029a.868.868,0,0,1-.865-.87.872.872,0,0,1,1.745.012A.876.876,0,0,1,3917.349,3526.029Z" transform="translate(-3883.903 -3503.171)" fill="#12263f"/>
            <path id="Trazado_197086" data-name="Trazado 197086" d="M3693.188,3639.375c.332,0,.665.01,1,0a.66.66,0,0,1,.7.667.634.634,0,0,1-.669.631q-1.013.012-2.027,0a.652.652,0,0,1-.7-.662.661.661,0,0,1,.733-.632c.324,0,.647,0,.971,0Z" transform="translate(-3671.76 -3611.662)" fill="#12263f"/>
            <path id="Trazado_197087" data-name="Trazado 197087" d="M3693.216,3604.9c-.323,0-.646,0-.969,0a.649.649,0,0,1-.674-.631.6.6,0,0,1,.58-.65c.74-.03,1.482-.031,2.223-.009a.631.631,0,0,1,.6.621.559.559,0,0,1-.509.612,12.137,12.137,0,0,1-1.246.081Z" transform="translate(-3671.844 -3577.927)" fill="#12263f"/>
            <path id="Trazado_197088" data-name="Trazado 197088" d="M3693.139,3676.432c-.352,0-.7,0-1.056,0a.644.644,0,0,1-.644-.628.632.632,0,0,1,.629-.642c.723-.009,1.446-.009,2.168,0a.633.633,0,0,1-.013,1.265C3693.862,3676.439,3693.5,3676.432,3693.139,3676.432Z" transform="translate(-3671.719 -3645.4)" fill="#12263f"/>
            <path id="Trazado_197089" data-name="Trazado 197089" d="M3789.19,3524.309a.862.862,0,1,1-.878.856A.867.867,0,0,1,3789.19,3524.309Z" transform="translate(-3763.056 -3503.175)" fill="#12263f"/>
            <path id="Trazado_197090" data-name="Trazado 197090" d="M3691.874,3524.326a.862.862,0,0,1-.012,1.724.862.862,0,1,1,.012-1.724Z" transform="translate(-3671.303 -3503.191)" fill="#12263f"/>
            <path id="Trazado_197091" data-name="Trazado 197091" d="M3740.622,3526.009a.862.862,0,1,1,.011-1.724.862.862,0,1,1-.011,1.724Z" transform="translate(-3717.283 -3503.152)" fill="#12263f"/>
          </g>
        </g>
      </g>
    </g>
  </g>
</svg>
