<svg xmlns="http://www.w3.org/2000/svg" width="70.696" height="61.654" viewBox="0 0 70.696 61.654">
  <g id="Grupo_1076294" data-name="Grupo 1076294" transform="translate(-395 -5338.23)">
    <g id="Grupo_1074431" data-name="Grupo 1074431" transform="translate(395 5338.231)">
      <g id="www" transform="translate(4.427 0.224)">
        <circle id="Elipse_4836" data-name="Elipse 4836" cx="30.715" cy="30.715" r="30.715" transform="translate(0 0)" fill="#94bfdb"/>
        <circle id="Elipse_4837" data-name="Elipse 4837" cx="24.833" cy="24.833" r="24.833" transform="translate(5.882 5.882)" fill="#abd9e6"/>
      </g>
      <g id="Grupo_1070063" data-name="Grupo 1070063" transform="translate(0 0)">
        <g id="Grupo_1067616" data-name="Grupo 1067616" transform="translate(0 0)">
          <path id="Trazado_781016" data-name="Trazado 781016" d="M20.14,0A19.938,19.938,0,0,1,40.28,19.729,19.938,19.938,0,0,1,20.14,39.458,19.938,19.938,0,0,1,0,19.729,19.938,19.938,0,0,1,20.14,0Z" transform="translate(30.416 22.195)" fill="#d4fef3"/>
          <path id="Trazado_781015" data-name="Trazado 781015" d="M14.386,0A14.185,14.185,0,0,1,28.772,13.975,14.185,14.185,0,0,1,14.386,27.949,14.185,14.185,0,0,1,0,13.975,14.185,14.185,0,0,1,14.386,0Z" fill="#d4fef3"/>
          <g id="Grupo_1044222" data-name="Grupo 1044222" transform="translate(44.702 34.984)">
            <g id="Trazado_145978" data-name="Trazado 145978" fill="none">
              <path d="M2.854,0A2.854,2.854,0,1,1,0,2.854,2.854,2.854,0,0,1,2.854,0Z" stroke="none"/>
              <path d="M 2.853849649429321 0.9999995231628418 C 1.831629753112793 0.9999995231628418 0.9999995231628418 1.831629753112793 0.9999995231628418 2.853849649429321 C 0.9999995231628418 3.87606954574585 1.831629753112793 4.707699775695801 2.853849649429321 4.707699775695801 C 3.87606954574585 4.707699775695801 4.707699775695801 3.87606954574585 4.707699775695801 2.853849649429321 C 4.707699775695801 1.831629753112793 3.87606954574585 0.9999995231628418 2.853849649429321 0.9999995231628418 M 2.853849649429321 -4.76837158203125e-07 C 4.429989814758301 -4.76837158203125e-07 5.707699775695801 1.277709484100342 5.707699775695801 2.853849649429321 C 5.707699775695801 4.429989814758301 4.429989814758301 5.707699775695801 2.853849649429321 5.707699775695801 C 1.277709484100342 5.707699775695801 -4.76837158203125e-07 4.429989814758301 -4.76837158203125e-07 2.853849649429321 C -4.76837158203125e-07 1.277709484100342 1.277709484100342 -4.76837158203125e-07 2.853849649429321 -4.76837158203125e-07 Z" stroke="none" fill="#fff"/>
            </g>
          </g>
        </g>
        <g id="dominio" transform="translate(4.363 5.574)">
          <path id="Trazado_813318" data-name="Trazado 813318" d="M26.187,0A26.187,26.187,0,1,1,0,26.187,26.187,26.187,0,0,1,26.187,0Z" transform="translate(4.798)" fill="#8296e1"/>
          <path id="Trazado_813307" data-name="Trazado 813307" d="M108.952,161.7a26.186,26.186,0,0,0,38.991-34.79" transform="translate(-96.302 -116.82)" fill="none" stroke="#000" stroke-linecap="round" stroke-linejoin="round" stroke-miterlimit="10" stroke-width="1.5"/>
          <path id="Trazado_813308" data-name="Trazado 813308" d="M90.4,53.369A26.185,26.185,0,0,0,51.4,88.123" transform="translate(-41.181 -45.979)" fill="none" stroke="#000" stroke-linecap="round" stroke-linejoin="round" stroke-miterlimit="10" stroke-width="1.5"/>
          <ellipse id="Elipse_9018" data-name="Elipse 9018" cx="26.187" cy="12.337" rx="26.187" ry="12.337" transform="translate(4.798 13.85)" fill="#6380dc"/>
          <ellipse id="Elipse_9019" data-name="Elipse 9019" cx="26.187" cy="12.337" rx="26.187" ry="12.337" transform="translate(4.798 13.85)" fill="none" stroke="#000" stroke-linecap="round" stroke-linejoin="round" stroke-miterlimit="10" stroke-width="1.5"/>
          <ellipse id="Elipse_9020" data-name="Elipse 9020" cx="13.642" cy="26.187" rx="13.642" ry="26.187" transform="translate(17.342)" fill="none" stroke="#000" stroke-linecap="round" stroke-linejoin="round" stroke-miterlimit="10" stroke-width="1.5"/>
          <path id="Trazado_813309" data-name="Trazado 813309" d="M68.378,214.448H8.59a1.09,1.09,0,0,1-1.09-1.09V201.733a1.09,1.09,0,0,1,1.09-1.09H68.378a1.09,1.09,0,0,1,1.09,1.09v11.624A1.09,1.09,0,0,1,68.378,214.448Z" transform="translate(-7.5 -181.359)" fill="#fbf7f7"/>
          <path id="Trazado_813310" data-name="Trazado 813310" d="M471.685,200.642h-3.429a1.09,1.09,0,0,1,1.09,1.09v11.624a1.09,1.09,0,0,1-1.09,1.09h3.429a1.09,1.09,0,0,0,1.09-1.09V201.732A1.09,1.09,0,0,0,471.685,200.642Z" transform="translate(-410.806 -181.358)" fill="#f0eef0"/>
          <g id="Grupo_1067435" data-name="Grupo 1067435" transform="translate(13.695 22.873)">
            <g id="Grupo_1067432" data-name="Grupo 1067432" transform="translate(0)">
              <path id="Trazado_813311" data-name="Trazado 813311" d="M117.333,229.427l1.291,6.527a.15.15,0,0,0,.283,0l2.016-6.513" transform="translate(-117.333 -229.427)" fill="none" stroke="#000" stroke-linecap="round" stroke-linejoin="round" stroke-miterlimit="10" stroke-width="1.5"/>
              <path id="Trazado_813312" data-name="Trazado 813312" d="M146.122,229.427l2.011,6.527a.15.15,0,0,0,.283,0l1.3-6.513" transform="translate(-142.532 -229.427)" fill="none" stroke="#000" stroke-linecap="round" stroke-linejoin="round" stroke-miterlimit="10" stroke-width="1.5"/>
            </g>
            <g id="Grupo_1067433" data-name="Grupo 1067433" transform="translate(13.7)">
              <path id="Trazado_813313" data-name="Trazado 813313" d="M227.211,229.427l1.291,6.527a.15.15,0,0,0,.283,0l2.016-6.513" transform="translate(-227.211 -229.427)" fill="none" stroke="#000" stroke-linecap="round" stroke-linejoin="round" stroke-miterlimit="10" stroke-width="1.5"/>
              <path id="Trazado_813314" data-name="Trazado 813314" d="M256,229.427l2.011,6.527a.15.15,0,0,0,.283,0l1.3-6.513" transform="translate(-252.41 -229.427)" fill="none" stroke="#000" stroke-linecap="round" stroke-linejoin="round" stroke-miterlimit="10" stroke-width="1.5"/>
            </g>
            <g id="Grupo_1067434" data-name="Grupo 1067434" transform="translate(27.401)">
              <path id="Trazado_813315" data-name="Trazado 813315" d="M337.09,229.427l1.291,6.527a.15.15,0,0,0,.283,0l2.016-6.513" transform="translate(-337.09 -229.427)" fill="none" stroke="#000" stroke-linecap="round" stroke-linejoin="round" stroke-miterlimit="10" stroke-width="1.5"/>
              <path id="Trazado_813316" data-name="Trazado 813316" d="M365.878,229.427l2.011,6.527a.15.15,0,0,0,.283,0l1.3-6.513" transform="translate(-362.289 -229.427)" fill="none" stroke="#000" stroke-linecap="round" stroke-linejoin="round" stroke-miterlimit="10" stroke-width="1.5"/>
            </g>
          </g>
          <path id="Trazado_813317" data-name="Trazado 813317" d="M39.336,214.448H68.378a1.09,1.09,0,0,0,1.09-1.09V201.733a1.09,1.09,0,0,0-1.09-1.09H8.59a1.09,1.09,0,0,0-1.09,1.09v11.624a1.09,1.09,0,0,0,1.09,1.09H35.72" transform="translate(-7.5 -181.359)" fill="none" stroke="#000" stroke-linecap="round" stroke-linejoin="round" stroke-miterlimit="10" stroke-width="1.5"/>
        </g>
      </g>
    </g>
  </g>
</svg>
