<svg xmlns="http://www.w3.org/2000/svg" width="68.49" height="68.49" viewBox="0 0 68.49 68.49">
  <g id="Grupo_1076292" data-name="Grupo 1076292" transform="translate(-810 -4271.69)">
    <g id="Grupo_18423" data-name="Grupo 18423" transform="translate(810 4271.69)">
      <g id="Grupo_18421" data-name="Grupo 18421">
        <g id="Grupo_18420" data-name="Grupo 18420">
          <g id="Grupo_18419" data-name="Grupo 18419">
            <path id="Trazado_40936" data-name="Trazado 40936" d="M263.113,2179.965a34.245,34.245,0,1,1-34.244-34.244A34.244,34.244,0,0,1,263.113,2179.965Z" transform="translate(-194.623 -2145.721)" fill="#f7f7f8"/>
          </g>
        </g>
      </g>
      <path id="Trazado_40937" data-name="Trazado 40937" d="M263.092,2179.943a34.244,34.244,0,1,0-34.245,34.246A34.11,34.11,0,0,0,263.092,2179.943Z" transform="translate(-194.602 -2145.698)" fill="#fcfdfe"/>
      <path id="Trazado_40938" data-name="Trazado 40938" d="M254.9,2179.865A26.139,26.139,0,1,0,228.76,2206,26.042,26.042,0,0,0,254.9,2179.865Z" transform="translate(-194.411 -2145.508)" fill="none" stroke="#f59d36" stroke-miterlimit="10" stroke-width="4"/>
      <g id="Grupo_18422" data-name="Grupo 18422" transform="translate(6.067 19.226)">
        <path id="Trazado_40939" data-name="Trazado 40939" d="M259.506,2164.488a34.249,34.249,0,0,1-58.961,34.1,34.14,34.14,0,0,0,58.961-34.1Z" transform="translate(-200.545 -2164.488)" fill="#eceef0"/>
      </g>
    </g>
    <g id="PUSzgc.tif" transform="translate(828.59 4290.336)">
      <g id="Grupo_151947" data-name="Grupo 151947">
        <path id="Trazado_194443" data-name="Trazado 194443" d="M750.376,363.643l1.95,1.948c.361.361.718.727,1.087,1.08a.5.5,0,0,0,.3.141c1.1.01,2.195.006,3.294.006a5.124,5.124,0,0,1,.27-.561,2,2,0,0,1,2.081-.987,2.057,2.057,0,0,1,1.724,1.5.943.943,0,0,0,.321.444c.757.527,1.527,1.037,2.3,1.538a.941.941,0,0,0,.477.151c1.707.011,3.414,0,5.12.01a.38.38,0,0,0,.4-.229,1.529,1.529,0,0,1,1.735-.78,1.572,1.572,0,0,1,0,3.055,1.534,1.534,0,0,1-1.733-.786.379.379,0,0,0-.406-.226c-1.783.006-3.566.01-5.349-.005a1.324,1.324,0,0,1-.66-.2c-.77-.487-1.522-1-2.306-1.526a2.117,2.117,0,0,1-3.957-.349h-.569c-.989,0-1.979-.009-2.968,0a.848.848,0,0,1-.662-.273c-1-1.013-2.011-2.017-3.018-3.024-.083-.083-.17-.163-.267-.255-.24.172-.465.339-.7.5a11.236,11.236,0,0,1-6.328,2c-.5.007-.671-.162-.671-.654q0-2.218,0-4.436c0-.44.111-.569.548-.651a.521.521,0,0,0-.006-1.04c-.431-.076-.544-.212-.544-.655q0-7.437,0-14.874c0-.478.172-.653.643-.649a11.334,11.334,0,0,1,6.76,2.288c.087.064.173.13.286.215.087-.082.174-.159.255-.24,1.008-1.007,2.018-2.01,3.019-3.024a.884.884,0,0,1,.689-.289c1.173.013,2.347.005,3.515.005a2.125,2.125,0,0,1,3.979-.355c.758-.505,1.507-1.022,2.276-1.505a1.453,1.453,0,0,1,.719-.218c1.772-.018,3.544-.013,5.316-.006a.381.381,0,0,0,.4-.232,1.564,1.564,0,1,1,.009,1.516.406.406,0,0,0-.422-.253c-1.707.009-3.414,0-5.12.011a.818.818,0,0,0-.421.121q-1.215.79-2.413,1.608a.548.548,0,0,0-.233.286,2.1,2.1,0,0,1-4.041.18c-.012-.03-.027-.059-.052-.113-1.108,0-2.227,0-3.345,0a.312.312,0,0,0-.2.082c-1.042,1.032-2.079,2.069-3.107,3.093.464.565.912,1.1,1.354,1.65a1.79,1.79,0,0,1,.292.43c.174.432.484.506.919.5,1.347-.031,2.7-.017,4.044-.009a.649.649,0,0,0,.512-.208c1.047-1.06,2.106-2.107,3.153-3.166a.877.877,0,0,1,.689-.289c.825.015,1.651.005,2.484.005a2.086,2.086,0,0,1,1.668-1.531,2.086,2.086,0,1,1,.446,4.137,2.007,2.007,0,0,1-2.019-1.353.272.272,0,0,0-.3-.212c-.674.008-1.348-.006-2.022.012a.633.633,0,0,0-.382.182q-1.6,1.581-3.184,3.181a.887.887,0,0,1-.69.287c-1.359-.011-2.718-.005-4.077-.005h-.379l.568,1.568h2.239c2.174,0,4.349,0,6.523,0a.648.648,0,0,0,.51-.212c.862-.875,1.74-1.735,2.6-2.614a.963.963,0,0,1,.777-.316c.728.019,1.457,0,2.185.009a.356.356,0,0,0,.383-.209,1.563,1.563,0,1,1,0,1.459.357.357,0,0,0-.382-.211c-.63.007-1.261.009-1.891,0a.636.636,0,0,0-.512.208c-.877.891-1.768,1.768-2.646,2.659a.856.856,0,0,1-.662.273q-4.256-.01-8.512,0h-.363l.182,1.565c.331,0,.655.01.978-.007a.323.323,0,0,0,.2-.157,1.573,1.573,0,0,1,2.823-.022.476.476,0,0,0,.353.177c1.663.012,3.327.01,4.99.01,1.837,0,3.675,0,5.512,0a.373.373,0,0,0,.427-.272,2.082,2.082,0,1,1,2.416,2.812,2.035,2.035,0,0,1-2.373-1.148.514.514,0,0,0-.574-.358q-5.169.016-10.339,0a.464.464,0,0,0-.48.268,1.538,1.538,0,0,1-2.7-.02.4.4,0,0,0-.426-.248c-.268.019-.539,0-.8,0l-.29,2.09h.389c3,0,6,.006,9-.007a1.084,1.084,0,0,1,.856.362c.679.7,1.374,1.393,2.076,2.075a.681.681,0,0,0,.419.173c.652.018,1.3,0,1.957.012a.357.357,0,0,0,.375-.222,1.565,1.565,0,1,1,.018,1.516.425.425,0,0,0-.453-.26c-.728.009-1.457-.009-2.185.008a.9.9,0,0,1-.716-.3q-1.048-1.073-2.125-2.119a.708.708,0,0,0-.445-.186c-3.066-.01-6.132,0-9.2-.01a.346.346,0,0,0-.4.268c-.148.427-.339.84-.529,1.3h.491c1.4,0,2.8.009,4.207-.006a.857.857,0,0,1,.724.344q1.326,1.57,2.679,3.118a.618.618,0,0,0,.406.189c.826.018,1.652,0,2.479.014a.336.336,0,0,0,.344-.219,1.567,1.567,0,1,1,0,1.461.337.337,0,0,0-.349-.209c-.924.008-1.849-.008-2.772.01a.884.884,0,0,1-.755-.353q-1.315-1.557-2.656-3.092a.652.652,0,0,0-.431-.2c-1.576-.015-3.153-.007-4.729-.017a.473.473,0,0,0-.426.217C751.367,362.419,750.879,363.015,750.376,363.643Zm.3-2.013a10.237,10.237,0,0,0,2.088-5.756h-4.1c-.076.793-.12,1.572-.233,2.341s-.3,1.528-.442,2.294a.3.3,0,0,0,.152.239C748.964,361.044,749.793,361.325,750.677,361.629Zm-.022-12.617c-.537.21-1.034.425-1.545.6-.3.1-.553.2-.6.567a.6.6,0,0,1-.185.336c-.2.184-.167.386-.126.617.115.65.225,1.3.307,1.956.071.566.1,1.138.146,1.7h4.115A10.292,10.292,0,0,0,750.655,349.012Zm-3.027,6.868h-4.737c0,1.022,0,2.02.007,3.018,0,.081.09.17.156.24.246.265.5.527.752.781a.55.55,0,0,0,.268.173c.848.116,1.7.211,2.546.325.2.027.292-.023.332-.233.08-.414.22-.818.28-1.234C747.38,357.937,747.5,356.918,747.628,355.88Zm-.437-4.71a1.533,1.533,0,0,1-1.269-.528.537.537,0,0,0-.563-.2c-.452.051-.906.091-1.359.129-.364.031-.728.053-1.085.078v4.138h4.706Zm-4.281-1.571c.712-.056,1.4-.127,2.091-.159.358-.017.59-.122.651-.5a.447.447,0,0,1,.166-.273c.449-.3.291-.633.067-.979-.141-.218-.26-.452-.4-.668a4.951,4.951,0,0,0-1.885-1.8c-.214-.106-.448-.174-.686-.265Zm-.016,16.09c1.413-.246,3.311-2.477,3.609-4.248-.743-.091-1.484-.178-2.225-.276-.27-.036-.5-.061-.627.272a.606.606,0,0,1-.3.328c-.491.191-.488.576-.462,1,.022.368.007.738.007,1.107C742.893,364.476,742.893,365.08,742.893,365.689Zm2.729-.5a9.215,9.215,0,0,0,4.27-2.725l-2.267-.783A10.575,10.575,0,0,1,745.622,365.185Zm4.324-17.008a10.1,10.1,0,0,0-4.29-2.7,11.235,11.235,0,0,1,1.519,2.424.268.268,0,0,0,.157.136,1.806,1.806,0,0,1,1.072.713Zm15.916-.676a1.041,1.041,0,0,0-.02-2.081,1.041,1.041,0,1,0,.02,2.081Zm-5.753-4.173a1.041,1.041,0,1,0-1.038,1.043A1.06,1.06,0,0,0,760.109,343.329Zm12,12.014a1.042,1.042,0,1,0-1.049,1.034A1.068,1.068,0,0,0,772.114,355.344Zm-12,11.99a1.064,1.064,0,0,0-1.047-1.034,1.041,1.041,0,1,0,.013,2.082A1.065,1.065,0,0,0,760.109,367.333Zm11.478-26.088a.518.518,0,1,0-.529.514A.544.544,0,0,0,771.588,341.245Zm-24,8.34a.519.519,0,1,0-.51.529A.543.543,0,0,0,747.585,349.585Zm22.444-.507a.518.518,0,1,0,.518.525A.541.541,0,0,0,770.029,349.078Zm-13.052,6.237a.519.519,0,1,0-.511.537A.551.551,0,0,0,756.977,355.315Zm13.57,5.753a.518.518,0,1,0-.516.528A.545.545,0,0,0,770.547,361.068Zm-4.7,3.664a.518.518,0,1,0-.529.514A.546.546,0,0,0,765.847,364.732Zm5.215,4.176a.52.52,0,1,0,.528.51A.543.543,0,0,0,771.063,368.908Z" transform="translate(-741.847 -339.67)" fill="#12263f"/>
      </g>
    </g>
  </g>
</svg>
