<svg xmlns="http://www.w3.org/2000/svg" width="68.49" height="68.49" viewBox="0 0 68.49 68.49">
  <g id="Grupo_1076291" data-name="Grupo 1076291" transform="translate(-810 -4122.69)">
    <g id="Grupo_18423" data-name="Grupo 18423" transform="translate(810 4122.69)">
      <g id="Grupo_18421" data-name="Grupo 18421">
        <g id="Grupo_18420" data-name="Grupo 18420">
          <g id="Grupo_18419" data-name="Grupo 18419">
            <path id="Trazado_40936" data-name="Trazado 40936" d="M263.113,2179.965a34.245,34.245,0,1,1-34.244-34.244A34.244,34.244,0,0,1,263.113,2179.965Z" transform="translate(-194.623 -2145.721)" fill="#f7f7f8"/>
          </g>
        </g>
      </g>
      <path id="Trazado_40937" data-name="Trazado 40937" d="M263.092,2179.943a34.244,34.244,0,1,0-34.245,34.246A34.11,34.11,0,0,0,263.092,2179.943Z" transform="translate(-194.602 -2145.698)" fill="#fcfdfe"/>
      <path id="Trazado_40938" data-name="Trazado 40938" d="M254.9,2179.865A26.139,26.139,0,1,0,228.76,2206,26.043,26.043,0,0,0,254.9,2179.865Z" transform="translate(-194.411 -2145.508)" fill="none" stroke="#f59d36" stroke-miterlimit="10" stroke-width="4"/>
      <g id="Grupo_18422" data-name="Grupo 18422" transform="translate(6.067 19.226)">
        <path id="Trazado_40939" data-name="Trazado 40939" d="M259.506,2164.488a34.249,34.249,0,0,1-58.961,34.1,34.14,34.14,0,0,0,58.961-34.1Z" transform="translate(-200.545 -2164.488)" fill="#eceef0"/>
      </g>
    </g>
    <g id="qYkDHW" transform="translate(829.988 4143.716)">
      <g id="Grupo_151945" data-name="Grupo 151945">
        <path id="Trazado_194416" data-name="Trazado 194416" d="M-389.558,234.076a29.673,29.673,0,0,1-8.365-1.086,20.21,20.21,0,0,1-2.584-1.143,2.2,2.2,0,0,1-.561-.46,1.849,1.849,0,0,1,.063-2.865,7.2,7.2,0,0,1,2.943-1.511,30.975,30.975,0,0,1,9.5-1.087,27.274,27.274,0,0,1,7.839,1.1,10.427,10.427,0,0,1,2.4,1.081c1.705,1.076,1.692,2.636.026,3.766a11.227,11.227,0,0,1-4.032,1.515A35.284,35.284,0,0,1-389.558,234.076Zm.192-1.249a34.256,34.256,0,0,0,6.034-.521,12.906,12.906,0,0,0,4.173-1.356c1.111-.648,1.139-1.315,0-1.906a11.951,11.951,0,0,0-2.672-1.025,33.167,33.167,0,0,0-14.351-.2,10.287,10.287,0,0,0-3.555,1.275c-.964.607-.995,1.206,0,1.759a12.244,12.244,0,0,0,2.578,1.052A29.48,29.48,0,0,0-389.366,232.827Z" transform="translate(405.01 -225.916)" fill="#12263f"/>
        <path id="Trazado_194417" data-name="Trazado 194417" d="M-434.666,366.922a.9.9,0,0,1-.041.228c-.322.53-.088.9.345,1.211a.455.455,0,0,1,.132.138.649.649,0,0,0,.954.282.51.51,0,0,1,.745.313c.192.458.374.921.548,1.386a.468.468,0,0,1-.273.661c-.422.184-.7.443-.549.957a.313.313,0,0,1,0,.153.835.835,0,0,0,.558,1.11.445.445,0,0,1,.224.621q-.285.728-.614,1.438a.489.489,0,0,1-.7.263.68.68,0,0,0-1,.28.345.345,0,0,1-.108.108.876.876,0,0,0-.412,1.212.593.593,0,0,1-.226.531,12.511,12.511,0,0,1-1.554.64.471.471,0,0,1-.636-.337.65.65,0,0,0-.859-.507.341.341,0,0,1-.153,0,.9.9,0,0,0-1.2.6.558.558,0,0,1-.505.2,14.491,14.491,0,0,1-1.55-.637.467.467,0,0,1-.242-.677.7.7,0,0,0-.28-1.031.344.344,0,0,1-.108-.108.834.834,0,0,0-1.206-.378c-.26.126-.479-.043-.585-.29-.206-.48-.4-.968-.582-1.456a.465.465,0,0,1,.288-.656c.455-.179.679-.46.532-.961a.233.233,0,0,1,0-.115.869.869,0,0,0-.557-1.151.6.6,0,0,1-.215-.541,13.333,13.333,0,0,1,.666-1.578.443.443,0,0,1,.632-.188.7.7,0,0,0,1.027-.294.182.182,0,0,1,.055-.053c.463-.311.722-.673.452-1.27a.594.594,0,0,1,.242-.521,12.27,12.27,0,0,1,1.518-.626.49.49,0,0,1,.668.347c.142.407.384.61.829.492a.259.259,0,0,1,.115,0,.956.956,0,0,0,1.268-.613.567.567,0,0,1,.516-.178,13.083,13.083,0,0,1,1.548.652C-434.82,366.642-434.741,366.829-434.666,366.922Zm-8.853,3.39.374.254a.813.813,0,0,1,.421.931,3.147,3.147,0,0,0-.013,1.145.869.869,0,0,1-.529,1.028c-.323.154-.24.345-.152.59s.222.318.489.243a.88.88,0,0,1,1.116.4,2.461,2.461,0,0,0,.716.737.892.892,0,0,1,.373,1.13c-.09.281,0,.415.255.524s.415.119.556-.159a.908.908,0,0,1,1.108-.518,2.432,2.432,0,0,0,.951.015.941.941,0,0,1,1.135.543c.047.089.11.169.184.28l.684-.286c-.028-.161-.041-.275-.067-.386a.894.894,0,0,1,.433-1.075,2.205,2.205,0,0,0,.687-.659.977.977,0,0,1,1.258-.41c.071.021.145.033.211.048.4-.573.4-.577-.123-.99a.745.745,0,0,1-.37-.7,4.43,4.43,0,0,0,.047-1.219.971.971,0,0,1,.57-1.157c.336-.165.161-.365.093-.57s-.157-.317-.416-.24a.891.891,0,0,1-1.175-.411,2.152,2.152,0,0,0-.7-.7.906.906,0,0,1-.391-1.157c.093-.295-.02-.406-.27-.516s-.415-.095-.553.174a.9.9,0,0,1-1.076.514,3.441,3.441,0,0,0-1.1-.006.785.785,0,0,1-.921-.445c-.185-.4-.432-.39-.751-.2l-.2.117c.017.087.031.161.047.235a.981.981,0,0,1-.47,1.239,1.881,1.881,0,0,0-.645.643.882.882,0,0,1-1.15.4c-.3-.1-.422.006-.5.263C-443.42,370.064-443.465,370.169-443.519,370.312Z" transform="translate(444.586 -355.09)" fill="#12263f"/>
        <path id="Trazado_194418" data-name="Trazado 194418" d="M-398.818,493.249c.23.062.458.134.692.182a1.192,1.192,0,0,0,.563.055,1.525,1.525,0,0,1,1.188.23,17.267,17.267,0,0,0,4.775,1.228,36.018,36.018,0,0,0,9.151.065,17.831,17.831,0,0,0,5.41-1.353c.174-.08.341-.175.509-.268a1.423,1.423,0,0,0,.851-1.486,17.743,17.743,0,0,1-.009-1.842.631.631,0,0,1,.6-.705.651.651,0,0,1,.64.713c.006.806.013,1.613,0,2.419a2,2,0,0,1-.788,1.48,8.167,8.167,0,0,1-3.371,1.587,31.978,31.978,0,0,1-8.978.939,28.7,28.7,0,0,1-7.878-1.1,7.594,7.594,0,0,1-2.581-1.233,10.536,10.536,0,0,1-.835-.821Z" transform="translate(402.395 -469.115)" fill="#12263f"/>
        <path id="Trazado_194419" data-name="Trazado 194419" d="M-320.043,367.929c.414-.242.775-.512,1.262-.312a1.06,1.06,0,0,0,.381.015h8.755a1.955,1.955,0,0,0,2.138-2.15q0-4.377,0-8.755a1.95,1.95,0,0,0-2.152-2.134q-4.4,0-8.794,0a.886.886,0,0,0-.305.009,1.245,1.245,0,0,1-1.251-.319,2.293,2.293,0,0,1,1.443-.413h4.8c1.446,0,2.893-.008,4.339,0a2.591,2.591,0,0,1,2.638,2.695q0,4.55,0,9.1a2.587,2.587,0,0,1-2.656,2.676c-3.059.01-6.118,0-9.178,0A2.323,2.323,0,0,1-320.043,367.929Z" transform="translate(329.611 -344.039)" fill="#12263f"/>
        <path id="Trazado_194420" data-name="Trazado 194420" d="M-278.618,377.333c.242-.209.4-.352.569-.489a.172.172,0,0,1,.134-.04c.3.1.6.216.9.327.358.133.342.471.423.76.114.406.427.106.7.263-.077-.847.424-1.093,1.049-1.221a.527.527,0,0,0,.21-.092.932.932,0,0,1,1.411.084c.521-.345.528-.349.256-.83a.67.67,0,0,1-.012-.747,4.989,4.989,0,0,0,.424-1.061.7.7,0,0,1,.7-.493c.262-.028.3-.15.306-.375s-.076-.359-.312-.379a.768.768,0,0,1-.743-.692,5.265,5.265,0,0,0-.337-.844c.755-.161.837-.132,1.06.525.082.24.234.268.432.289.519.055.609.143.653.659a5.132,5.132,0,0,1,.014.69c-.037.738-.072.771-.807.876a.566.566,0,0,0-.114.014,2.1,2.1,0,0,0-.426,1.387c.417.6.417.622-.083,1.156-.122.131-.247.26-.379.381-.537.489-.661.481-1.129.057-.087-.079-.287-.058-.43-.042-.108.012-.2.108-.315.134-.45.109-.745.319-.722.85,0,.113-.211.326-.339.337a7.647,7.647,0,0,1-1.447,0c-.132-.014-.325-.265-.338-.42-.034-.395-.164-.628-.578-.714A3.606,3.606,0,0,1-278.618,377.333Z" transform="translate(291.369 -360.242)" fill="#12263f"/>
        <path id="Trazado_194421" data-name="Trazado 194421" d="M-138.481,328.26c0-.345-.021-.691.013-1.032.01-.1.155-.233.268-.284.72-.322,1.46-.6,2.169-.943a1.232,1.232,0,0,0,.74-1.3c-.047-.623-.017-1.252-.013-1.878,0-.49.226-.751.625-.748s.619.264.622.755c0,.7-.015,1.406,0,2.109a2.1,2.1,0,0,1-.642,1.584A7.887,7.887,0,0,1-138.481,328.26Z" transform="translate(162.004 -314.683)" fill="#12263f"/>
        <path id="Trazado_194422" data-name="Trazado 194422" d="M-138.532,414.6a1.023,1.023,0,0,1-.05-.125c-.076-1.105-.067-1.083.957-1.485a13.133,13.133,0,0,0,1.644-.813,1.1,1.1,0,0,0,.574-1.087c-.031-.677-.011-1.356,0-2.034,0-.449.253-.724.623-.716a.656.656,0,0,1,.618.735q.008,1.171,0,2.342a1.943,1.943,0,0,1-.643,1.389,6.214,6.214,0,0,1-2.375,1.362C-137.629,414.322-138.079,414.451-138.532,414.6Z" transform="translate(162.117 -394.321)" fill="#12263f"/>
        <path id="Trazado_194423" data-name="Trazado 194423" d="M-241.066,456.98l.792.313-.031.162c-.436,0-.872.008-1.307-.01-.054,0-.143-.139-.146-.216-.013-.356-.012-.713.005-1.068.014-.295.235-.383.482-.384a.455.455,0,0,0,.5-.406,1.062,1.062,0,0,1,.163-.387.391.391,0,0,0-.07-.572.48.48,0,0,1,.012-.768c.216-.217.438-.429.657-.643a.42.42,0,0,1,.67,0,.455.455,0,0,0,.671.081.8.8,0,0,1,.319-.128.465.465,0,0,0,.423-.533c-.008-.3.148-.426.433-.477,1.287-.233,1.763.246,1.55,1.584-.348,0-.618-.14-.65-.5-.039-.443-.273-.484-.637-.388-.024.1-.055.195-.07.295a.623.623,0,0,1-.547.6,1.378,1.378,0,0,0-.535.2.887.887,0,0,1-1.314-.134l-.363.441a1.718,1.718,0,0,1,.24.431,1.062,1.062,0,0,1-.015.535,5.316,5.316,0,0,1-.41.985.785.785,0,0,1-.455.385C-241.112,456.431-241.165,456.643-241.066,456.98Z" transform="translate(257.349 -434.523)" fill="#12263f"/>
        <path id="Trazado_194424" data-name="Trazado 194424" d="M-270.829,376.139a1.9,1.9,0,0,1-1.906-1.972,1.938,1.938,0,0,1,1.982-1.875,1.932,1.932,0,0,1,1.867,1.989A1.9,1.9,0,0,1-270.829,376.139Zm.005-.782a1.138,1.138,0,0,0,1.156-1.126,1.158,1.158,0,0,0-1.146-1.148,1.162,1.162,0,0,0-1.14,1.118A1.144,1.144,0,0,0-270.824,375.357Z" transform="translate(285.938 -361.046)" fill="#12263f"/>
        <path id="Trazado_194425" data-name="Trazado 194425" d="M-401.716,324.821c0-.76-.015-1.485.006-2.21a.584.584,0,0,1,.616-.56.583.583,0,0,1,.608.565c.017.586,0,1.173,0,1.774Z" transform="translate(405.014 -314.666)" fill="#12263f"/>
        <path id="Trazado_194426" data-name="Trazado 194426" d="M-198.578,494.435c-.533-.74-1-.921-1.516-.647-.537.285-.649.762-.367,1.555-.8.139-.852.087-.876-.669a1.7,1.7,0,0,1,2.346-1.573c.3.12.465.282.418.628A5.763,5.763,0,0,0-198.578,494.435Z" transform="translate(220.025 -472.459)" fill="#12263f"/>
        <path id="Trazado_194427" data-name="Trazado 194427" d="M-301.87,371.759c-.156.444-.276.832-.434,1.2-.042.1-.2.147-.3.219a1.066,1.066,0,0,1-.18-.339,7.039,7.039,0,0,1,0-.721c0-.222.057-.377.322-.365C-302.28,371.766-302.089,371.759-301.87,371.759Z" transform="translate(313.694 -360.553)" fill="#12263f"/>
        <path id="Trazado_194428" data-name="Trazado 194428" d="M-387.481,420.525a2.283,2.283,0,0,1-2.311,2.274,2.3,2.3,0,0,1-2.265-2.327,2.313,2.313,0,0,1,2.28-2.274A2.285,2.285,0,0,1-387.481,420.525Zm-.934-.044a1.364,1.364,0,0,0-1.417-1.343,1.362,1.362,0,0,0-1.283,1.4,1.363,1.363,0,0,0,1.355,1.33A1.37,1.37,0,0,0-388.414,420.481Z" transform="translate(396.093 -403.426)" fill="#12263f"/>
      </g>
    </g>
  </g>
</svg>
