<svg xmlns="http://www.w3.org/2000/svg" width="61.182" height="61.197" viewBox="0 0 61.182 61.197">
  <g id="vlYUca.tif" transform="translate(-2859.568 -2223.085)">
    <g id="Grupo_155227" data-name="Grupo 155227" transform="translate(2859.568 2223.085)">
      <path id="Trazado_197032" data-name="Trazado 197032" d="M2920.75,2245.643c-.165.61-.3,1.232-.5,1.83a9.114,9.114,0,0,1-8.609,6.2c-1.7,0-3.391,0-5.127,0v8.162c.964,0,1.913,0,2.863,0a3.038,3.038,0,0,1,3.213,3.24c0,2.291,0,4.581,0,6.942h4.045v2.047h-2.071c-.935,0-1.869,0-2.8,0-.846-.005-1.2-.355-1.2-1.195,0-2.527,0-5.055,0-7.582,0-1.07-.344-1.415-1.405-1.417-.828,0-1.656,0-2.485.009a.977.977,0,0,0-.192.062c0,.561-.027,1.149.006,1.735a2.5,2.5,0,0,1-1.115,2.232,9.9,9.9,0,0,1-4.416,1.675c-1.185.206-2.389.312-3.619.467v9.069a4.466,4.466,0,0,0,.46.046c2.422,0,4.843,0,7.264.009a.611.611,0,0,0,.691-.455,4.075,4.075,0,1,1,4.624,5.464,4.008,4.008,0,0,1-4.559-2.406.811.811,0,0,0-.931-.585c-2.782.019-5.564.011-8.346.008-.931,0-1.268-.334-1.268-1.258q0-4.587,0-9.175v-.724l-4.083-.476v.711q0,6.307,0,12.615c0,1.061-.3,1.365-1.354,1.366-1.226,0-2.452,0-3.708,0v-2.018h3c.013-.232.03-.4.03-.559,0-4.057-.006-8.113.011-12.169a.726.726,0,0,0-.516-.8,7.183,7.183,0,0,1-1.437-.8,2.532,2.532,0,0,1-1.126-2.225c.035-1.931.01-3.862.01-5.852-.2-.015-.386-.038-.568-.038q-2.039-.005-4.078,0c-2.281,0-3.514,1.223-3.515,3.486q0,6.308,0,12.616a5.068,5.068,0,0,1-5.329,5.308c-1.487,0-2.973.01-4.46-.006a.609.609,0,0,0-.694.451,4.086,4.086,0,1,1-.03-3,.684.684,0,0,0,.768.536c1.465-.031,2.93-.006,4.4-.013a3.108,3.108,0,0,0,3.313-3.307c.007-4.269,0-8.538,0-12.807a5.058,5.058,0,0,1,5.275-5.3c1.611,0,3.222,0,4.877,0v-4.083h-.75q-8.187,0-16.374,0a9.161,9.161,0,0,1-1.631-18.208.961.961,0,0,0,.944-.854,15.188,15.188,0,0,1,12.909-11.406,2.024,2.024,0,0,0,.356-.116h3.059a2.016,2.016,0,0,0,.356.116,15.182,15.182,0,0,1,9.869,5.386,3.579,3.579,0,0,0,.262.251,9.229,9.229,0,0,1,14.468,6.484c.737,0,1.435,0,2.133,0a9.127,9.127,0,0,1,8.59,6.135c.212.617.346,1.26.516,1.892Zm-44.8-1.151c-.113-.653-.176-1.245-.323-1.816a7.12,7.12,0,1,0-6.644,8.957q8.282.017,16.564,0c.164,0,.327-.017.542-.029,0-1.2.062-2.371-.016-3.528a2.766,2.766,0,0,1,1.682-2.877,15.845,15.845,0,0,1,3.269-1.18c1.372-.316,2.791-.428,4.24-.635,0-.565.009-1.157,0-1.748a1.08,1.08,0,0,0-1.217-1.218c-1.529-.011-3.058.005-4.587-.01a.535.535,0,0,0-.589.418,3.953,3.953,0,0,1-4.017,2.636,3.824,3.824,0,0,1-3.5-2.361,4.073,4.073,0,0,1,4.477-5.706,4.048,4.048,0,0,1,3.188,2.933.681.681,0,0,0,.149.045c1.677,0,3.355,0,5.033.008a3.03,3.03,0,0,1,3.094,3.1c0,.652,0,1.3,0,1.967.639.057,1.207.1,1.774.159a14.89,14.89,0,0,1,5.5,1.433,3.079,3.079,0,0,1,1.933,2.47h2.012c0-1.336.007-2.629,0-3.921,0-.591.243-1.041.825-1.1a20.643,20.643,0,0,1,2.2-.019v1.991l-.988.068c0,1.292,0,2.541,0,3.791,0,.93-.336,1.267-1.257,1.27s-1.853,0-2.772,0v2.022c1.851,0,3.66.1,5.455-.019a7.061,7.061,0,0,0,6.446-9.01c-1.106-3.829-4.5-5.747-8.944-5.139a9.3,9.3,0,0,1-1.961,4.641l-1.577-1.275a7.179,7.179,0,0,0-.994-9.92,6.988,6.988,0,0,0-8.725-.26,14.877,14.877,0,0,1,1.725,4.482l-1.942.424a13.355,13.355,0,0,0-14.807-10.276c-5.367.729-10.677,5.625-11,10.138,4.794,1.236,8.148,5.189,7.66,9.062a1.829,1.829,0,0,1-.234.03C2877.079,2244.493,2876.528,2244.492,2875.948,2244.492Zm28.491,17.931a22.952,22.952,0,0,1-16.317,0c0,1.126-.027,2.188.021,3.245a.98.98,0,0,0,.439.691,9.171,9.171,0,0,0,1.854.809,21.459,21.459,0,0,0,9.7.436,21.7,21.7,0,0,0,3.621-1.116,1.172,1.172,0,0,0,.649-.816C2904.487,2264.62,2904.439,2263.556,2904.439,2262.422Zm0-6.113a22.965,22.965,0,0,1-16.317,0c0,1.128-.027,2.189.021,3.247a.977.977,0,0,0,.439.69,9.108,9.108,0,0,0,1.853.811,21.467,21.467,0,0,0,9.7.437,21.754,21.754,0,0,0,3.621-1.116,1.173,1.173,0,0,0,.649-.816C2904.487,2258.5,2904.439,2257.439,2904.439,2256.309Zm0-6.122a22.974,22.974,0,0,1-16.317.005c0,1.063.021,2.06-.01,3.055a.882.882,0,0,0,.52.926,12.405,12.405,0,0,0,1.807.763,21.5,21.5,0,0,0,9.7.435,21.8,21.8,0,0,0,3.621-1.117,1.173,1.173,0,0,0,.646-.818C2904.487,2252.382,2904.439,2251.319,2904.439,2250.187Zm-16.466-2.717a4.906,4.906,0,0,0,2.475,1.357,20.972,20.972,0,0,0,8.637.583,30.367,30.367,0,0,0,4.292-1.073,4.753,4.753,0,0,0,1.095-.675l.02-.262a16.542,16.542,0,0,0-1.632-.858,16.129,16.129,0,0,0-5.225-.977,19.316,19.316,0,0,0-8.193,1.084A13.1,13.1,0,0,0,2887.974,2247.47Zm-2.9-6.038a2.036,2.036,0,1,0-2.04-2.03A2.083,2.083,0,0,0,2885.069,2241.432Zm-19.378,38.763a2.036,2.036,0,1,0-2.053,2.021A2.088,2.088,0,0,0,2865.691,2280.2Zm45.88,0a2.036,2.036,0,1,0-2.047,2.022A2.087,2.087,0,0,0,2911.571,2280.192Z" transform="translate(-2859.568 -2223.085)" fill="#12263f"/>
      <path id="Trazado_197033" data-name="Trazado 197033" d="M3325.025,2608.325h-1.993v-2.039h1.993Z" transform="translate(-3263.843 -2557.347)" fill="#12263f"/>
      <path id="Trazado_197034" data-name="Trazado 197034" d="M3035.51,2688.448v-1.955h1.966v1.955Z" transform="translate(-3013.04 -2627.312)" fill="#12263f"/>
      <path id="Trazado_197035" data-name="Trazado 197035" d="M2896.6,2350.791v1.866a11,11,0,0,0-1.865.875,2.917,2.917,0,0,0-.987,3.364,3.067,3.067,0,0,0,2.933,2.051c2.442.017,4.885.006,7.328.006h.729v2.034h-.581c-2.485,0-4.97,0-7.456,0a5.1,5.1,0,0,1-.855-10.146A7.533,7.533,0,0,1,2896.6,2350.791Z" transform="translate(-2887.44 -2334.482)" fill="#12263f"/>
      <path id="Trazado_197036" data-name="Trazado 197036" d="M3285.116,2375.134v1.957h-1.956v-1.957Z" transform="translate(-3229.063 -2355.716)" fill="#12263f"/>
    </g>
  </g>
</svg>
