<svg xmlns="http://www.w3.org/2000/svg" width="43.836" height="58.937" viewBox="0 0 43.836 58.937">
  <g id="Design-elements" transform="translate(0)">
    <path id="dots-03" d="M37.594,55.821a3.121,3.121,0,1,1,3.122,3.116A3.119,3.119,0,0,1,37.594,55.821Zm-18.8,0a3.116,3.116,0,1,1,3.118,3.116A3.117,3.117,0,0,1,18.8,55.821Zm-18.8,0a3.114,3.114,0,1,1,3.114,3.116A3.115,3.115,0,0,1,0,55.821ZM37.594,38.245a3.121,3.121,0,1,1,3.122,3.118A3.118,3.118,0,0,1,37.594,38.245Zm-18.8,0a3.116,3.116,0,1,1,3.118,3.118A3.116,3.116,0,0,1,18.8,38.245Zm-18.8,0a3.114,3.114,0,1,1,3.114,3.118A3.114,3.114,0,0,1,0,38.245ZM37.594,20.687A3.121,3.121,0,1,1,40.716,23.8,3.119,3.119,0,0,1,37.594,20.687Zm-18.8,0A3.116,3.116,0,1,1,21.914,23.8,3.117,3.117,0,0,1,18.8,20.687Zm-18.8,0A3.114,3.114,0,1,1,3.114,23.8,3.115,3.115,0,0,1,0,20.687ZM37.594,3.122a3.121,3.121,0,1,1,3.122,3.12A3.122,3.122,0,0,1,37.594,3.122Zm-18.8,0a3.116,3.116,0,1,1,3.118,3.12A3.12,3.12,0,0,1,18.8,3.122ZM0,3.122a3.114,3.114,0,1,1,3.114,3.12A3.118,3.118,0,0,1,0,3.122Z" transform="translate(0 0)" fill="#12263f"/>
  </g>
</svg>
