<svg id="Grupo_155226" data-name="Grupo 155226" xmlns="http://www.w3.org/2000/svg" width="61.202" height="61.197" viewBox="0 0 61.202 61.197">
  <path id="Trazado_197020" data-name="Trazado 197020" d="M2174.565,2183.65v-3.931h-1.908v-1.256l-.9.8-.912-1.219-.2.113v1.516h-5.931v-1.5l-.138-.061-.868,1.139-4.293-4.356,1.048-1.1h-1.626v-5.922h1.643l-1.079-1.153,4.155-4.165,1.134,1.085v-1.7h5.926v1.531l.129.072.951-1.2.886.79v-22.894h-13.793v-17.789h20.68c.012.238.036.475.036.713q0,4.836-.007,9.672,0,.707,0,1.412h20.8v-3.939h1.859v-1.943h-1.885v-5.915h19.723v5.921h-1.954v1.938h1.907v5.966h-1.9v1.919h1.9v5.986h-13.8v3.918q0,5.615,0,11.231a6.611,6.611,0,0,1-.073.7l.014-.011c-.2-.013-.4-.037-.592-.037q-15.142,0-30.284,0h-.637c0,1.7-.007,3.35.011,5a.762.762,0,0,0,.253.439c.392.394.8.768,1.34,1.273l-1.285.971.11.18h1.546v5.918h-1.552l-.089.182,1.359,1c-.574.515-.955.894-1.374,1.223-.518.407-.257.946-.328,1.518h30.578v2h-.925v3.959h-7.889v-3.908h-13.866v3.908Zm29.623-31.517h-29.579v5.789h13.833v-3.863h1.925v3.855h2.015v-3.869h1.928v3.884h2.015v-3.877h1.945v3.871h5.919Zm-11.8-2.092v-3.882h1.929v3.875h2.016v-3.867h1.925v3.859h5.907v-5.784h-29.575v5.788h13.858v-3.877h1.9v3.89Zm-31.583-11.853h16.707v-9.75h-16.707Zm39.455.015h1.886v-1.859H2179.47v3.911h-4.87v1.877h13.845v-3.866h1.925v3.879h2.017v-3.871h1.932v3.859h2.017v-3.868h1.929v3.877h2Zm-28.453,38.188,1.52-1.5-.754-.554,1.042-2.535h.9v-2.016h-.909l-1.032-2.484.6-.633-1.4-1.416-.544.673-2.566-1.068v-.909h-1.981v.912l-2.507,1.036-.592-.565-1.454,1.382c.777.375.627.9.238,1.488a1.917,1.917,0,0,0-.291.709c-.119.682-.425,1.073-1.182.9-.024-.006-.059.043-.085.064v1.965c.9-.283,1.133.263,1.291.928a2.037,2.037,0,0,0,.245.6c.378.6.6,1.174-.2,1.566l1.365,1.472c.429-.884,1-.647,1.6-.274a1.768,1.768,0,0,0,.656.267c.7.1,1.057.434.927,1.174,0,.025.044.06.055.073h1.883c.081-.952.084-.944.973-1.271a6.876,6.876,0,0,0,1.074-.487c.35-.2.616-.2.85.151A4.278,4.278,0,0,0,2171.81,2176.392Zm5.715-51.917h-16.709v1.9h16.709Zm24.7,1.885h15.72v-1.885h-15.72Zm0,7.892h15.724v-1.875h-15.724Zm0,7.888h15.715V2140.3h-15.715Zm2-11.834H2216v-1.864h-11.778Zm.029,6.014v1.884H2216v-1.884Zm-2.1,45.313v-1.89h-3.877v1.89Zm-25.554-.012h3.888v-1.884H2176.6Z" transform="translate(-2158.786 -2122.453)" fill="#12263f"/>
  <path id="Trazado_197021" data-name="Trazado 197021" d="M2526.07,2436.722h2.074v1.844h1.944v-1.859h2v1.862h1.944V2436.7h2v1.894h1.951v2.008h1.968v1.912h-1.914v2.009h1.9v1.963h-1.895v2.022h1.912v1.921h-1.907v2.013h-2v1.931h-1.963V2452.5h-1.956v1.876h-2v-1.878h-1.948v1.88h-2v-1.892h-1.957v-2.031h-1.995v-1.922h1.941v-2.023h-1.941v-1.924h1.94v-2.025h-1.941v-1.922h1.971V2438.6h1.885c0-.671,0-1.279,0-1.886Zm9.938,13.7v-9.77h-9.824v9.77Z" transform="translate(-2478.789 -2399.143)" fill="#12263f"/>
  <path id="Trazado_197022" data-name="Trazado 197022" d="M2373.746,2457.713a4.909,4.909,0,1,1,4.912,4.979A4.857,4.857,0,0,1,2373.746,2457.713Zm4.895,2.986a2.846,2.846,0,0,0,2.966-2.922,2.88,2.88,0,0,0-2.941-2.952,2.984,2.984,0,0,0-2.987,2.931A2.945,2.945,0,0,0,2378.64,2460.7Z" transform="translate(-2348.052 -2413.353)" fill="#12263f"/>
  <path id="Trazado_197023" data-name="Trazado 197023" d="M2191.957,2190.74v-1.928h2.934v1.928Z" transform="translate(-2187.992 -2180.88)" fill="#12263f"/>
  <path id="Trazado_197024" data-name="Trazado 197024" d="M2236.176,2188.838v1.927h-2.9v-1.927Z" transform="translate(-2224.369 -2180.903)" fill="#12263f"/>
  <path id="Trazado_197025" data-name="Trazado 197025" d="M2191.944,2223.747v-1.922h2.93v1.922Z" transform="translate(-2187.981 -2209.948)" fill="#12263f"/>
  <path id="Trazado_197026" data-name="Trazado 197026" d="M2233.2,2221.719h2.909v1.946H2233.2Z" transform="translate(-2224.301 -2209.854)" fill="#12263f"/>
  <path id="Trazado_197027" data-name="Trazado 197027" d="M2277.839,2188.86v1.921h-2.859v-1.921Z" transform="translate(-2261.092 -2180.923)" fill="#12263f"/>
  <path id="Trazado_197028" data-name="Trazado 197028" d="M2274.86,2223.736v-1.98h2.846v1.98h-2.846Z" transform="translate(-2260.986 -2209.887)" fill="#12263f"/>
  <path id="Trazado_197029" data-name="Trazado 197029" d="M2208.049,2498.129a3.924,3.924,0,0,1-7.848.033,3.924,3.924,0,1,1,7.848-.033Zm-3.956,1.958a1.981,1.981,0,0,0,2.031-1.909,2.075,2.075,0,0,0-1.948-2.031,1.976,1.976,0,0,0-1.994,1.946A1.917,1.917,0,0,0,2204.093,2500.087Z" transform="translate(-2195.25 -2449.765)" fill="#12263f"/>
  <path id="Trazado_197030" data-name="Trazado 197030" d="M2563.675,2481.533a3.913,3.913,0,0,1,3.909-3.947,3.937,3.937,0,1,1-.056,7.874A3.928,3.928,0,0,1,2563.675,2481.533Zm5.877.01a1.908,1.908,0,0,0-1.943-1.955,1.955,1.955,0,0,0-2,1.927,2.079,2.079,0,0,0,1.975,2A2.007,2.007,0,0,0,2569.552,2481.543Z" transform="translate(-2515.28 -2435.138)" fill="#12263f"/>
  <path id="Trazado_197031" data-name="Trazado 197031" d="M2407.061,2485.833h1.863v1.946h-1.863Z" transform="translate(-2377.386 -2442.4)" fill="#12263f"/>
</svg>
