<svg xmlns="http://www.w3.org/2000/svg" width="45.7" height="84.314" viewBox="0 0 45.7 84.314">
  <g id="Grupo_1074601" data-name="Grupo 1074601" transform="translate(-200 -4113.725)">
    <ellipse id="Elipse_4804" data-name="Elipse 4804" cx="2.183" cy="2.05" rx="2.183" ry="2.05" transform="translate(201.018 4135.026)" fill="#ff6148"/>
    <ellipse id="Elipse_10493" data-name="Elipse 10493" cx="2.183" cy="2.05" rx="2.183" ry="2.05" transform="translate(201.018 4114.725)" fill="#ff6148"/>
    <path id="Elipse_4804_-_Contorno" data-name="Elipse 4804 - Contorno" d="M2.2-1A3.132,3.132,0,0,1,5.4,2.05,3.132,3.132,0,0,1,2.2,5.1,3.132,3.132,0,0,1-1,2.05,3.132,3.132,0,0,1,2.2-1Zm0,4.1A1.113,1.113,0,0,0,3.367,2.05,1.113,1.113,0,0,0,2.2,1,1.113,1.113,0,0,0,1.037,2.05,1.113,1.113,0,0,0,2.2,3.1Z" transform="translate(201 4135.026)" fill="#ff6148"/>
    <path id="Elipse_4804_-_Contorno-2" data-name="Elipse 4804 - Contorno" d="M2.2-1A3.132,3.132,0,0,1,5.4,2.05,3.132,3.132,0,0,1,2.2,5.1,3.132,3.132,0,0,1-1,2.05,3.132,3.132,0,0,1,2.2-1Zm0,4.1A1.113,1.113,0,0,0,3.367,2.05,1.113,1.113,0,0,0,2.2,1,1.113,1.113,0,0,0,1.037,2.05,1.113,1.113,0,0,0,2.2,3.1Z" transform="translate(201 4114.725)" fill="#ff6148"/>
    <path id="Trazado_122445" data-name="Trazado 122445" d="M427.026,112.336a2.188,2.188,0,1,1-2.182-2.049A2.121,2.121,0,0,1,427.026,112.336Z" transform="translate(-201.993 4024.74)" fill="#ff6148"/>
    <path id="Trazado_821961" data-name="Trazado 821961" d="M427.026,112.336a2.188,2.188,0,1,1-2.182-2.049A2.121,2.121,0,0,1,427.026,112.336Z" transform="translate(-201.993 4004.438)" fill="#ff6148"/>
    <path id="Trazado_122445_-_Contorno" data-name="Trazado 122445 - Contorno" d="M424.863,109.287a3.054,3.054,0,1,1-3.2,3.049A3.131,3.131,0,0,1,424.863,109.287Zm0,4.1a1.056,1.056,0,1,0-1.166-1.052A1.113,1.113,0,0,0,424.863,113.388Z" transform="translate(-202.011 4024.74)" fill="#ff6148"/>
    <path id="Trazado_122445_-_Contorno-2" data-name="Trazado 122445 - Contorno" d="M424.863,109.287a3.054,3.054,0,1,1-3.2,3.049A3.131,3.131,0,0,1,424.863,109.287Zm0,4.1a1.056,1.056,0,1,0-1.166-1.052A1.113,1.113,0,0,0,424.863,113.388Z" transform="translate(-202.011 4004.438)" fill="#ff6148"/>
    <ellipse id="Elipse_4805" data-name="Elipse 4805" cx="2.183" cy="2.05" rx="2.183" ry="2.05" transform="translate(240.315 4135.026)" fill="#ff6148"/>
    <ellipse id="Elipse_10494" data-name="Elipse 10494" cx="2.183" cy="2.05" rx="2.183" ry="2.05" transform="translate(240.315 4114.725)" fill="#ff6148"/>
    <path id="Elipse_4805_-_Contorno" data-name="Elipse 4805 - Contorno" d="M2.2-1A3.132,3.132,0,0,1,5.4,2.05,3.132,3.132,0,0,1,2.2,5.1,3.132,3.132,0,0,1-1,2.05,3.132,3.132,0,0,1,2.2-1Zm0,4.1A1.113,1.113,0,0,0,3.367,2.05,1.113,1.113,0,0,0,2.2,1,1.113,1.113,0,0,0,1.037,2.05,1.113,1.113,0,0,0,2.2,3.1Z" transform="translate(240.297 4135.026)" fill="#ff6148"/>
    <path id="Elipse_4805_-_Contorno-2" data-name="Elipse 4805 - Contorno" d="M2.2-1A3.132,3.132,0,0,1,5.4,2.05,3.132,3.132,0,0,1,2.2,5.1,3.132,3.132,0,0,1-1,2.05,3.132,3.132,0,0,1,2.2-1Zm0,4.1A1.113,1.113,0,0,0,3.367,2.05,1.113,1.113,0,0,0,2.2,1,1.113,1.113,0,0,0,1.037,2.05,1.113,1.113,0,0,0,2.2,3.1Z" transform="translate(240.297 4114.725)" fill="#ff6148"/>
    <path id="Trazado_122448" data-name="Trazado 122448" d="M418.581,119.846a2.188,2.188,0,1,1-2.184-2.052A2.121,2.121,0,0,1,418.581,119.846Z" transform="translate(-213.196 4036.534)" fill="#ff6148"/>
    <path id="Trazado_122448_-_Contorno" data-name="Trazado 122448 - Contorno" d="M416.414,122.9a3.055,3.055,0,1,1,3.2-3.052A3.132,3.132,0,0,1,416.414,122.9Zm0-4.1a1.057,1.057,0,1,0,1.166,1.052A1.113,1.113,0,0,0,416.414,118.794Z" transform="translate(-213.214 4036.534)" fill="#ff6148"/>
    <path id="Trazado_122449" data-name="Trazado 122449" d="M427.026,119.846a2.187,2.187,0,1,1-2.182-2.052A2.121,2.121,0,0,1,427.026,119.846Z" transform="translate(-201.993 4036.534)" fill="#ff6148"/>
    <path id="Trazado_122449_-_Contorno" data-name="Trazado 122449 - Contorno" d="M424.863,122.9a3.055,3.055,0,1,1,3.2-3.052A3.133,3.133,0,0,1,424.863,122.9Zm0-4.1a1.057,1.057,0,1,0,1.164,1.052A1.115,1.115,0,0,0,424.863,118.794Z" transform="translate(-202.011 4036.534)" fill="#ff6148"/>
    <path id="Trazado_122450" data-name="Trazado 122450" d="M435.473,119.846a2.188,2.188,0,1,1-2.182-2.052A2.121,2.121,0,0,1,435.473,119.846Z" transform="translate(-190.791 4036.534)" fill="#ff6148"/>
    <path id="Trazado_122450_-_Contorno" data-name="Trazado 122450 - Contorno" d="M433.309,122.9a3.055,3.055,0,1,1,3.2-3.052A3.133,3.133,0,0,1,433.309,122.9Zm0-4.1a1.057,1.057,0,1,0,1.164,1.052A1.115,1.115,0,0,0,433.309,118.794Z" transform="translate(-190.809 4036.534)" fill="#ff6148"/>
    <path id="Trazado_122448-2" data-name="Trazado 122448" d="M418.581,119.846a2.188,2.188,0,1,1-2.184-2.052A2.121,2.121,0,0,1,418.581,119.846Z" transform="translate(-213.196 4055.838)" fill="#ff6148"/>
    <path id="Trazado_122448_-_Contorno-2" data-name="Trazado 122448 - Contorno" d="M416.414,122.9a3.055,3.055,0,1,1,3.2-3.052A3.132,3.132,0,0,1,416.414,122.9Zm0-4.1a1.057,1.057,0,1,0,1.166,1.052A1.113,1.113,0,0,0,416.414,118.794Z" transform="translate(-213.214 4055.838)" fill="#ff6148"/>
    <path id="Trazado_122449-2" data-name="Trazado 122449" d="M427.026,119.846a2.187,2.187,0,1,1-2.182-2.052A2.121,2.121,0,0,1,427.026,119.846Z" transform="translate(-201.993 4055.838)" fill="#ff6148"/>
    <path id="Trazado_122449_-_Contorno-2" data-name="Trazado 122449 - Contorno" d="M424.863,122.9a3.055,3.055,0,1,1,3.2-3.052A3.133,3.133,0,0,1,424.863,122.9Zm0-4.1a1.057,1.057,0,1,0,1.164,1.052A1.115,1.115,0,0,0,424.863,118.794Z" transform="translate(-202.011 4055.838)" fill="#ff6148"/>
    <path id="Trazado_122450-2" data-name="Trazado 122450" d="M435.473,119.846a2.188,2.188,0,1,1-2.182-2.052A2.121,2.121,0,0,1,435.473,119.846Z" transform="translate(-190.791 4055.838)" fill="#ff6148"/>
    <path id="Trazado_122450_-_Contorno-2" data-name="Trazado 122450 - Contorno" d="M433.309,122.9a3.055,3.055,0,1,1,3.2-3.052A3.133,3.133,0,0,1,433.309,122.9Zm0-4.1a1.057,1.057,0,1,0,1.164,1.052A1.115,1.115,0,0,0,433.309,118.794Z" transform="translate(-190.809 4055.838)" fill="#ff6148"/>
    <path id="Trazado_122448-3" data-name="Trazado 122448" d="M418.581,119.846a2.188,2.188,0,1,1-2.184-2.052A2.121,2.121,0,0,1,418.581,119.846Z" transform="translate(-213.196 4075.142)" fill="#ff6148"/>
    <path id="Trazado_122448_-_Contorno-3" data-name="Trazado 122448 - Contorno" d="M416.414,122.9a3.055,3.055,0,1,1,3.2-3.052A3.132,3.132,0,0,1,416.414,122.9Zm0-4.1a1.057,1.057,0,1,0,1.166,1.052A1.113,1.113,0,0,0,416.414,118.794Z" transform="translate(-213.214 4075.142)" fill="#ff6148"/>
    <path id="Trazado_122449-3" data-name="Trazado 122449" d="M427.026,119.846a2.187,2.187,0,1,1-2.182-2.052A2.121,2.121,0,0,1,427.026,119.846Z" transform="translate(-201.993 4075.142)" fill="#ff6148"/>
    <path id="Trazado_122449_-_Contorno-3" data-name="Trazado 122449 - Contorno" d="M424.863,122.9a3.055,3.055,0,1,1,3.2-3.052A3.133,3.133,0,0,1,424.863,122.9Zm0-4.1a1.057,1.057,0,1,0,1.164,1.052A1.115,1.115,0,0,0,424.863,118.794Z" transform="translate(-202.011 4075.142)" fill="#ff6148"/>
    <path id="Trazado_122450-3" data-name="Trazado 122450" d="M435.473,119.846a2.188,2.188,0,1,1-2.182-2.052A2.121,2.121,0,0,1,435.473,119.846Z" transform="translate(-190.791 4075.142)" fill="#ff6148"/>
    <path id="Trazado_122450_-_Contorno-3" data-name="Trazado 122450 - Contorno" d="M433.309,122.9a3.055,3.055,0,1,1,3.2-3.052A3.133,3.133,0,0,1,433.309,122.9Zm0-4.1a1.057,1.057,0,1,0,1.164,1.052A1.115,1.115,0,0,0,433.309,118.794Z" transform="translate(-190.809 4075.142)" fill="#ff6148"/>
  </g>
</svg>
