<svg xmlns="http://www.w3.org/2000/svg" xmlns:xlink="http://www.w3.org/1999/xlink" width="160.538" height="222.368" viewBox="0 0 160.538 222.368">
  <defs>
    <filter id="Rectángulo_376475" x="48.282" y="114.334" width="63.974" height="63.974" filterUnits="userSpaceOnUse">
      <feOffset dy="3" input="SourceAlpha"/>
      <feGaussianBlur stdDeviation="3" result="blur"/>
      <feFlood flood-opacity="0.161"/>
      <feComposite operator="in" in2="blur"/>
      <feComposite in="SourceGraphic"/>
    </filter>
    <filter id="Trazado_822262" x="0" y="0" width="160.538" height="160.538" filterUnits="userSpaceOnUse">
      <feOffset dy="3" input="SourceAlpha"/>
      <feGaussianBlur stdDeviation="3" result="blur-2"/>
      <feFlood flood-opacity="0.161"/>
      <feComposite operator="in" in2="blur-2"/>
      <feComposite in="SourceGraphic"/>
    </filter>
    <filter id="Trazado_822264" x="16.127" y="16.035" width="128.48" height="128.481" filterUnits="userSpaceOnUse">
      <feOffset dy="3" input="SourceAlpha"/>
      <feGaussianBlur stdDeviation="3" result="blur-3"/>
      <feFlood flood-opacity="0.161"/>
      <feComposite operator="in" in2="blur-3"/>
      <feComposite in="SourceGraphic"/>
    </filter>
    <filter id="Trazado_822266" x="53.208" y="168.049" width="54.319" height="54.319" filterUnits="userSpaceOnUse">
      <feOffset dy="3" input="SourceAlpha"/>
      <feGaussianBlur stdDeviation="3" result="blur-4"/>
      <feFlood flood-opacity="0.161"/>
      <feComposite operator="in" in2="blur-4"/>
      <feComposite in="SourceGraphic"/>
    </filter>
  </defs>
  <g id="Grupo_1076336" data-name="Grupo 1076336" transform="translate(-955 6)">
    <g id="Grupo_1074719" data-name="Grupo 1074719" transform="translate(964)">
      <g transform="matrix(1, 0, 0, 1, -9, -6)" filter="url(#Rectángulo_376475)">
        <rect id="Rectángulo_376475-2" data-name="Rectángulo 376475" width="32.509" height="32.509" transform="translate(57.28 143.32) rotate(-45)" fill="#f95428"/>
      </g>
      <g transform="matrix(1, 0, 0, 1, -9, -6)" filter="url(#Trazado_822262)">
        <path id="Trazado_822262-2" data-name="Trazado 822262" d="M69.981,142.526a71.269,71.269,0,1,1,72.545-69.97,71.269,71.269,0,0,1-72.545,69.97" transform="translate(9 6)" fill="#f95428"/>
      </g>
    </g>
    <rect id="Rectángulo_376476" data-name="Rectángulo 376476" width="142.538" height="199.003" transform="translate(964 0)" fill="none"/>
    <path id="Trazado_822263" data-name="Trazado 822263" d="M42.443,98.635A57.526,57.526,0,1,0,101,42.158c-.355-.007-.707-.01-1.06-.01a57.528,57.528,0,0,0-57.5,56.487" transform="translate(935.408 -28.399)" fill="none"/>
    <g transform="matrix(1, 0, 0, 1, 955, -6)" filter="url(#Trazado_822264)">
      <path id="Trazado_822264-2" data-name="Trazado 822264" d="M57.356,75.92a55.232,55.232,0,1,0,75.8-18.85,55.232,55.232,0,0,0-75.8,18.85" transform="translate(-24.31 -27.12)" fill="#fff"/>
    </g>
    <path id="Trazado_822265" data-name="Trazado 822265" d="M194.746,558.453a11.64,11.64,0,1,1,11.64-11.64,11.64,11.64,0,0,1-11.64,11.64" transform="translate(840.621 -360.605)" fill="#fff"/>
    <g transform="matrix(1, 0, 0, 1, 955, -6)" filter="url(#Trazado_822266)">
      <path id="Trazado_822266-2" data-name="Trazado 822266" d="M11.64,0A11.64,11.64,0,1,1,0,11.64,11.64,11.64,0,0,1,11.64,0Z" transform="translate(66.44 200.99) rotate(-77.24)" fill="none" stroke="#f95428" stroke-width="7.081"/>
    </g>
    <rect id="Rectángulo_376478" data-name="Rectángulo 376478" width="142.538" height="199.003" transform="translate(964 0)" fill="none"/>
    <g id="Grupo_1075280" data-name="Grupo 1075280" transform="translate(1001.9 36.014)">
      <g id="Grupo_1075279" data-name="Grupo 1075279">
        <g id="Grupo_1075271" data-name="Grupo 1075271">
          <g id="Grupo_1075259" data-name="Grupo 1075259" transform="translate(47.539)">
            <path id="Trazado_822966" data-name="Trazado 822966" d="M356.23,7.812H337.9a3.169,3.169,0,0,0-3.169,3.169v9.165a3.169,3.169,0,0,0,3.169,3.169,1.85,1.85,0,0,1,1.85,1.85v5.668a.709.709,0,0,0,1.318.365l4.188-6.984a1.851,1.851,0,0,1,1.587-.9h9.381a3.169,3.169,0,0,0,3.169-3.169V10.981A3.168,3.168,0,0,0,356.23,7.812Z" transform="translate(-334.736 -7.812)" fill="#b3e59f"/>
            <path id="Trazado_822967" data-name="Trazado 822967" d="M374.872,7.812h-9.491a3.169,3.169,0,0,1,3.169,3.169v9.165a3.169,3.169,0,0,1-3.169,3.169h-8.834a1.851,1.851,0,0,1,1.851,1.85v5.668a.709.709,0,0,0,1.318.365l4.188-6.984a1.851,1.851,0,0,1,1.587-.9h9.382a3.169,3.169,0,0,0,3.169-3.169V10.981a3.169,3.169,0,0,0-3.169-3.169Z" transform="translate(-353.378 -7.812)" fill="#95d6a4"/>
          </g>
          <g id="Grupo_1075270" data-name="Grupo 1075270" transform="translate(0 32.503)">
            <g id="Grupo_1075269" data-name="Grupo 1075269">
              <g id="Grupo_1075268" data-name="Grupo 1075268">
                <g id="Grupo_1075263" data-name="Grupo 1075263" transform="translate(19.432)">
                  <g id="Grupo_1075262" data-name="Grupo 1075262">
                    <g id="Grupo_1075261" data-name="Grupo 1075261">
                      <g id="Grupo_1075260" data-name="Grupo 1075260">
                        <path id="Trazado_822968" data-name="Trazado 822968" d="M158.537,243.381a3.173,3.173,0,0,1-2.573-3.116v-8.714h-12.13v8.714a3.18,3.18,0,0,1-2.573,3.116S159.357,243.539,158.537,243.381Z" transform="translate(-141.261 -231.551)" fill="#ffddce"/>
                      </g>
                    </g>
                  </g>
                </g>
                <g id="Grupo_1075267" data-name="Grupo 1075267" transform="translate(0.872 12.403)">
                  <g id="Grupo_1075266" data-name="Grupo 1075266">
                    <g id="Grupo_1075265" data-name="Grupo 1075265">
                      <g id="Grupo_1075264" data-name="Grupo 1075264">
                        <path id="Trazado_822969" data-name="Trazado 822969" d="M52.7,317c-.864-.166-24,0-24,0a18.738,18.738,0,0,0-15.2,18.4v6.18a2.538,2.538,0,0,0,2.538,2.538h49.32a2.538,2.538,0,0,0,2.538-2.538V335.4A18.738,18.738,0,0,0,52.7,317Z" transform="translate(-13.501 -316.93)" fill="#ffd064"/>
                      </g>
                    </g>
                  </g>
                </g>
                <path id="Trazado_822970" data-name="Trazado 822970" d="M85.722,335.875H41.465l-1.174-21.627a3.344,3.344,0,0,1,3.34-3.526H83.556a3.344,3.344,0,0,1,3.34,3.526Z" transform="translate(-35.523 -299.221)" fill="#eaf2ff"/>
                <path id="Trazado_822971" data-name="Trazado 822971" d="M282.294,310.722H272.8a3.344,3.344,0,0,1,3.34,3.526l-1.174,21.627h9.491l1.174-21.627A3.344,3.344,0,0,0,282.294,310.722Z" transform="translate(-234.262 -299.221)" fill="#dbe8f9"/>
                <path id="Trazado_822972" data-name="Trazado 822972" d="M61.3,471.934H9.843a2.343,2.343,0,1,0,0,4.686H61.3a2.343,2.343,0,1,0,0-4.686Z" transform="translate(-7.5 -437.013)" fill="#9bc4f9"/>
                <path id="Trazado_822973" data-name="Trazado 822973" d="M321.573,471.934h-7.217v2.343a2.343,2.343,0,0,1-2.343,2.343h9.56a2.343,2.343,0,0,0,0-4.686Z" transform="translate(-267.775 -437.013)" fill="#7fb2f9"/>
              </g>
            </g>
            <path id="Trazado_822974" data-name="Trazado 822974" d="M164.548,380.686a7.763,7.763,0,0,1,2-5.193l.029-.032a6.646,6.646,0,0,0-1.678-10.208.571.571,0,0,0-.855.495v4.944a1.5,1.5,0,0,1-1.5,1.5H160.7a1.5,1.5,0,0,1-1.5-1.5v-4.944a.571.571,0,0,0-.855-.495,6.646,6.646,0,0,0-1.678,10.208l.029.032a7.763,7.763,0,0,1,2,5.193Z" transform="translate(-133.554 -345.765)" fill="#7fb2f9"/>
          </g>
        </g>
        <g id="Grupo_1075278" data-name="Grupo 1075278" transform="translate(11.372 4.087)">
          <g id="Grupo_1075277" data-name="Grupo 1075277">
            <g id="Grupo_1075276" data-name="Grupo 1075276">
              <g id="Grupo_1075275" data-name="Grupo 1075275">
                <path id="Trazado_822975" data-name="Trazado 822975" d="M126.006,64.6l-.81,0-.014-3.266a11.89,11.89,0,0,0-23.776.1l.01,2.3,0,.963-.81,0a2.165,2.165,0,0,0-2.142,2.187l.01,2.413a2.165,2.165,0,0,0,2.161,2.169l.814,0a11.253,11.253,0,0,0,3.784,8.253,12.065,12.065,0,0,0,16.27-.069,11.255,11.255,0,0,0,3.715-8.285l.814,0a2.165,2.165,0,0,0,2.142-2.187l-.01-2.413a2.165,2.165,0,0,0-2.161-2.169Z" transform="translate(-96.623 -47.706)" fill="#ffddce"/>
                <path id="Trazado_822976" data-name="Trazado 822976" d="M196,70.217a2.165,2.165,0,0,0-2.161-2.169l-.81,0-.014-3.266a11.553,11.553,0,0,0-8.249-11.042,11.417,11.417,0,0,1,1.576,5.812l.039,15.265a11.255,11.255,0,0,1-3.715,8.285,12.721,12.721,0,0,1-4.837,2.7,11.948,11.948,0,0,0,11.51-2.7,11.255,11.255,0,0,0,3.715-8.285l.814,0a2.165,2.165,0,0,0,2.142-2.187Z" transform="translate(-164.456 -51.158)" fill="#ffcbbe"/>
                <g id="Grupo_1075274" data-name="Grupo 1075274" transform="translate(0 14.923)">
                  <g id="Grupo_1075272" data-name="Grupo 1075272" transform="translate(28.589)">
                    <path id="Trazado_822977" data-name="Trazado 822977" d="M282.575,138.669v8.982h2.385a2.422,2.422,0,0,0,2.422-2.422v-4.138a2.422,2.422,0,0,0-2.422-2.422Z" transform="translate(-282.575 -138.669)" fill="#9bc4f9"/>
                  </g>
                  <g id="Grupo_1075273" data-name="Grupo 1075273">
                    <path id="Trazado_822978" data-name="Trazado 822978" d="M90.585,138.669v8.982H88.2a2.422,2.422,0,0,1-2.422-2.422v-4.138a2.422,2.422,0,0,1,2.422-2.422Z" transform="translate(-85.778 -138.669)" fill="#9bc4f9"/>
                  </g>
                </g>
                <path id="Trazado_822979" data-name="Trazado 822979" d="M125.225,40.793H125.1a1.224,1.224,0,0,1-1.224-1.224,3.625,3.625,0,0,0-3.625-3.625H108.714a9.3,9.3,0,0,0-9.3,9.3v6.145a2.121,2.121,0,0,0,1.424,2l2.29.8a1.231,1.231,0,0,0,1.635-1.164l0-4.333a3.793,3.793,0,0,1,3.753-3.832h.045a6.021,6.021,0,0,1,1.869.29,10.624,10.624,0,0,0,3.292.546h.825a10.619,10.619,0,0,0,3.292-.546,6.026,6.026,0,0,1,1.869-.29h.045a3.793,3.793,0,0,1,3.753,3.832l0,4.333a1.231,1.231,0,0,0,1.635,1.164l2.29-.8a2.121,2.121,0,0,0,1.423-2V44.418A3.625,3.625,0,0,0,125.225,40.793Z" transform="translate(-97.435 -35.943)" fill="#756e78"/>
                <path id="Trazado_822980" data-name="Trazado 822980" d="M220.747,40.793h-.122a1.224,1.224,0,0,1-1.224-1.224,3.625,3.625,0,0,0-3.625-3.625h-4.6a11.332,11.332,0,0,1,3.669,8.4v.529c.128-.008.257-.012.386-.012h.045a3.793,3.793,0,0,1,3.753,3.832l0,4.333a1.231,1.231,0,0,0,1.635,1.164l2.29-.8a2.121,2.121,0,0,0,1.423-2V44.418a3.625,3.625,0,0,0-3.625-3.625Z" transform="translate(-192.956 -35.943)" fill="#665e66"/>
                <path id="Trazado_822981" data-name="Trazado 822981" d="M230.121,223.848h-2.734a1.889,1.889,0,1,1,0-3.778h2.734a1.889,1.889,0,1,1,0,3.778Z" transform="translate(-205.2 -193.321)" fill="#db636e"/>
              </g>
            </g>
          </g>
        </g>
      </g>
    </g>
    <g id="Grupo_1075282" data-name="Grupo 1075282" transform="translate(1000.811 34.925)">
      <g id="Grupo_1075281" data-name="Grupo 1075281" transform="translate(0 0)">
        <path id="Trazado_822982" data-name="Trazado 822982" d="M408.574,37.252h-9.507a1.09,1.09,0,0,0,0,2.179h9.507a1.09,1.09,0,0,0,0-2.179Z" transform="translate(-340.162 -31.886)"/>
        <path id="Trazado_822983" data-name="Trazado 822983" d="M361.906,39.431h1.159a1.09,1.09,0,1,0,0-2.179h-1.159a1.09,1.09,0,0,0,0,2.179Z" transform="translate(-308.399 -31.886)"/>
        <path id="Trazado_822984" data-name="Trazado 822984" d="M361.906,74.663h14.906a1.09,1.09,0,1,0,0-2.179H361.906a1.09,1.09,0,0,0,0,2.179Z" transform="translate(-308.399 -61.999)"/>
        <path id="Trazado_822985" data-name="Trazado 822985" d="M57.447,88.825a19.9,19.9,0,0,0-4.1-12.072l.2-3.72a4.431,4.431,0,0,0-4.428-4.674H37.2a2.078,2.078,0,0,1-.882-1.7V63.62a12.345,12.345,0,0,0,4.1-4.183h2.108a4.429,4.429,0,0,0,4.424-4.424V46.876a3.51,3.51,0,0,0-1.981-3.16V38.006a4.72,4.72,0,0,0-4.715-4.715h-.122a.135.135,0,0,1-.135-.135,4.72,4.72,0,0,0-4.715-4.715H23.74A10.4,10.4,0,0,0,13.353,38.829v4.888a3.51,3.51,0,0,0-1.981,3.16v4.138a3.515,3.515,0,0,0,3.511,3.511h1.407a12.236,12.236,0,0,0,4.071,7.847A14.942,14.942,0,0,0,22,63.607v3.055a2.081,2.081,0,0,1-.885,1.7H9.2A4.431,4.431,0,0,0,4.77,73.034l.2,3.72a19.9,19.9,0,0,0-4.1,12.072v4.1a3.43,3.43,0,0,0,2.561,5.715H54.887a3.43,3.43,0,0,0,2.561-5.715Zm-2.179,0V91.8a3.447,3.447,0,0,0-.381-.022H52.532l.615-11.33a17.7,17.7,0,0,1,2.121,8.376ZM44.657,46.344a1.326,1.326,0,0,1,.112.532v4.138a1.334,1.334,0,0,1-1.332,1.332h-1.3V48.239l.671-.234A3.21,3.21,0,0,0,44.657,46.344ZM37.382,58.968H34.648a.8.8,0,1,1,0-1.6h2.734a.8.8,0,1,1,0,1.6Zm5.142-1.71h-1.1a12.824,12.824,0,0,0,.63-2.732h1.383a3.492,3.492,0,0,0,1.332-.263v.751A2.247,2.247,0,0,1,42.524,57.258ZM15.532,38.829a8.218,8.218,0,0,1,8.209-8.209H35.28a2.539,2.539,0,0,1,2.536,2.536,2.317,2.317,0,0,0,2.314,2.314h.122a2.539,2.539,0,0,1,2.536,2.536v6.968a1.032,1.032,0,0,1-.692.974l-2.29.8a.14.14,0,0,1-.187-.134l0-4.33c.013-3.16-2.946-5.916-7.091-4.584a11.581,11.581,0,0,1-6.743,0c-4.1-1.319-7.1,1.388-7.091,4.581l.005,4.333a.14.14,0,0,1-.187.134l-2.29-.8a1.032,1.032,0,0,1-.692-.974V38.829ZM13.551,51.014V46.876a1.326,1.326,0,0,1,.112-.532,3.21,3.21,0,0,0,1.845,1.662l.671.234v4.107h-1.3a1.334,1.334,0,0,1-1.332-1.332Zm4.827,2.253c-.036-1.432-.014-2.953-.02-4.345.067.006.134.009.2.009a2.32,2.32,0,0,0,2.321-2.323l-.005-4.336c-.007-1.769,1.58-3.357,4.245-2.5a13.716,13.716,0,0,0,8.076,0c2.54-.816,4.253.621,4.245,2.5l0,4.333a2.32,2.32,0,0,0,2.522,2.314v4.433a10.747,10.747,0,0,1-.45,2.735,2.968,2.968,0,0,0-2.129-.9H34.648a2.978,2.978,0,1,0,0,5.957h1.384a11.15,11.15,0,0,1-6.816,2.432A10.683,10.683,0,0,1,18.378,53.267Zm5.806,13.395V64.755a13.281,13.281,0,0,0,5.029,1h.025a13.3,13.3,0,0,0,4.9-.994v1.9a4.251,4.251,0,0,0,.354,1.7H23.829A4.241,4.241,0,0,0,24.184,66.662ZM5.172,80.449l.172,3.17A1.09,1.09,0,1,0,7.52,83.5L6.945,72.916A2.253,2.253,0,0,1,9.2,70.539H49.122a2.253,2.253,0,0,1,2.252,2.377L50.35,91.779H33.265A6.692,6.692,0,0,1,34.9,88.405l.031-.035a7.741,7.741,0,0,0-1.952-11.882,1.661,1.661,0,0,0-2.483,1.442v4.944a.411.411,0,0,1-.411.411H28.237a.411.411,0,0,1-.411-.411V77.931a1.661,1.661,0,0,0-2.483-1.442,7.741,7.741,0,0,0-1.949,11.885l.028.031a6.691,6.691,0,0,1,1.632,3.374H7.969l-.175-3.221a1.09,1.09,0,1,0-2.176.118l.168,3.1H3.432a3.482,3.482,0,0,0-.381.022V88.825a17.707,17.707,0,0,1,2.121-8.376Zm22.084,11.33a8.858,8.858,0,0,0-2.214-4.832l-.026-.029a5.557,5.557,0,0,1,.632-8v3.961a2.593,2.593,0,0,0,2.59,2.59h1.844a2.593,2.593,0,0,0,2.59-2.59V78.913a5.558,5.558,0,0,1,.629,8.008l-.024.026a8.859,8.859,0,0,0-2.214,4.832Zm27.631,4.686H3.432a1.253,1.253,0,1,1,0-2.506H54.887a1.253,1.253,0,1,1,0,2.506Z" transform="translate(0 -24.355)"/>
        <path id="Trazado_822986" data-name="Trazado 822986" d="M352.987,7.769a1.09,1.09,0,0,0,1.09-1.09V4.571A4.263,4.263,0,0,0,349.818.313H331.493a4.263,4.263,0,0,0-4.258,4.258v9.165a4.263,4.263,0,0,0,4.258,4.258.762.762,0,0,1,.761.761v5.668a1.8,1.8,0,0,0,3.342.925l4.188-6.984a.765.765,0,0,1,.653-.37h9.381a4.263,4.263,0,0,0,4.258-4.258V11.774a1.09,1.09,0,1,0-2.179,0v1.962a2.081,2.081,0,0,1-2.079,2.079h-9.382a2.955,2.955,0,0,0-2.521,1.428l-3.482,5.807V18.755a2.943,2.943,0,0,0-2.94-2.94,2.081,2.081,0,0,1-2.079-2.079V4.571a2.081,2.081,0,0,1,2.079-2.079h18.325A2.081,2.081,0,0,1,351.9,4.571V6.68a1.09,1.09,0,0,0,1.09,1.09Z" transform="translate(-279.696 -0.313)"/>
      </g>
    </g>
  </g>
</svg>
