<svg xmlns="http://www.w3.org/2000/svg" width="61" height="61" viewBox="0 0 61 61">
  <g id="Grupo_1074567" data-name="Grupo 1074567" transform="translate(-0.5)">
    <circle id="Elipse_4868" data-name="Elipse 4868" cx="30.5" cy="30.5" r="30.5" transform="translate(0.5 0)" fill="#fff"/>
    <g id="estrategia" transform="translate(11.335 13.569)">
      <path id="Trazado_822094" data-name="Trazado 822094" d="M59.643,33.229V56.581H24V33.229A1.225,1.225,0,0,1,25.229,32H58.414A1.225,1.225,0,0,1,59.643,33.229Zm0,0" transform="translate(-22.156 -29.542)" fill="#33d6f5"/>
      <path id="Trazado_822095" data-name="Trazado 822095" d="M442.458,32H440a1.225,1.225,0,0,1,1.229,1.229V56.581h2.458V33.229A1.225,1.225,0,0,0,442.458,32Zm0,0" transform="translate(-406.201 -29.542)" fill="#0db7d8"/>
      <path id="Trazado_822096" data-name="Trazado 822096" d="M182.978,424h10l.657,1.844h-11.32Zm0,0" transform="translate(-168.315 -391.43)" fill="#7d8999"/>
      <path id="Trazado_822097" data-name="Trazado 822097" d="M134.145,376l-1.315,3.687-.657,1.844-1.1,3.073H128l3.073-8.6Zm0,0" transform="translate(-118.168 -347.117)" fill="#969faa"/>
      <path id="Trazado_822098" data-name="Trazado 822098" d="M307.073,376l3.073,8.6h-3.073l-1.1-3.073-.658-1.844L304,376Zm0,0" transform="translate(-280.648 -347.117)" fill="#969faa"/>
      <path id="Trazado_822099" data-name="Trazado 822099" d="M46.1,352v1.844H8V352Zm0,0" transform="translate(-7.385 -324.961)" fill="#656d78"/>
      <path id="Trazado_822100" data-name="Trazado 822100" d="M473.229,352H472v1.844h2.458V352Zm0,0" transform="translate(-435.743 -324.961)" fill="#434a54"/>
      <path id="Trazado_822101" data-name="Trazado 822101" d="M224,8h4.916V9.844H224Zm0,0" transform="translate(-206.793 -7.385)" fill="#0db7d8"/>
      <path id="Trazado_822102" data-name="Trazado 822102" d="M387.687,88l-.615,1.229.615,1.229H384V88Zm0,0" transform="translate(-354.503 -81.24)" fill="#c1e7ef"/>
      <path id="Trazado_822103" data-name="Trazado 822103" d="M363.687,137.844A1.844,1.844,0,1,1,361.844,136,1.841,1.841,0,0,1,363.687,137.844Zm0,0" transform="translate(-332.346 -125.553)" fill="#f5f7fa"/>
      <path id="Trazado_822104" data-name="Trazado 822104" d="M81.844,248A1.844,1.844,0,1,1,80,249.844,1.841,1.841,0,0,1,81.844,248Zm0,0" transform="translate(-73.855 -228.95)" fill="#f5f7fa"/>
      <path id="Trazado_822105" data-name="Trazado 822105" d="M16.615,64.581A.614.614,0,0,1,16,63.967V40.615a.615.615,0,1,1,1.229,0V63.967A.614.614,0,0,1,16.615,64.581Zm0,0" transform="translate(-14.771 -36.927)"/>
      <path id="Trazado_822106" data-name="Trazado 822106" d="M16.615,26.458A.614.614,0,0,1,16,25.844,1.846,1.846,0,0,1,17.844,24a.615.615,0,0,1,0,1.229.615.615,0,0,0-.615.615A.614.614,0,0,1,16.615,26.458Zm0,0" transform="translate(-14.771 -22.156)"/>
      <path id="Trazado_822107" data-name="Trazado 822107" d="M480.614,64.581a.614.614,0,0,1-.614-.615V40.615a.615.615,0,1,1,1.229,0V63.967A.614.614,0,0,1,480.614,64.581Zm0,0" transform="translate(-443.128 -36.927)"/>
      <path id="Trazado_822108" data-name="Trazado 822108" d="M465.844,26.458a.614.614,0,0,1-.615-.615.615.615,0,0,0-.614-.615.615.615,0,1,1,0-1.229,1.846,1.846,0,0,1,1.844,1.844A.614.614,0,0,1,465.844,26.458Zm0,0" transform="translate(-428.357 -22.156)"/>
      <path id="Trazado_822109" data-name="Trazado 822109" d="M65.8,25.229H32.615a.615.615,0,1,1,0-1.229H65.8a.615.615,0,1,1,0,1.229Zm0,0" transform="translate(-29.542 -22.156)"/>
      <path id="Trazado_822110" data-name="Trazado 822110" d="M38.715,347.073H.615A.614.614,0,0,1,0,346.458v-1.844A.614.614,0,0,1,.615,344h38.1a.614.614,0,0,1,.615.614v1.844A.614.614,0,0,1,38.715,347.073ZM1.229,345.844H38.1v-.615H1.229Zm0,0" transform="translate(0 -317.575)"/>
      <path id="Trazado_822111" data-name="Trazado 822111" d="M160.614,377.823a.605.605,0,0,1-.206-.036.613.613,0,0,1-.372-.785l3.073-8.6a.614.614,0,0,1,1.156.413l-3.073,8.6A.613.613,0,0,1,160.614,377.823Zm0,0" transform="translate(-147.709 -339.722)"/>
      <path id="Trazado_822112" data-name="Trazado 822112" d="M120.614,377.823a.6.6,0,0,1-.206-.036.613.613,0,0,1-.372-.785l3.073-8.6a.614.614,0,0,1,1.156.413l-3.073,8.6a.613.613,0,0,1-.578.408Zm0,0" transform="translate(-110.781 -339.722)"/>
      <path id="Trazado_822113" data-name="Trazado 822113" d="M123.687,481.229h-3.073a.615.615,0,0,1,0-1.229h3.073a.615.615,0,1,1,0,1.229Zm0,0" transform="translate(-110.782 -443.128)"/>
      <path id="Trazado_822114" data-name="Trazado 822114" d="M299.687,377.83a.613.613,0,0,1-.578-.408l-3.073-8.6a.614.614,0,0,1,1.156-.413l3.073,8.6a.613.613,0,0,1-.372.785A.606.606,0,0,1,299.687,377.83Zm0,0" transform="translate(-273.263 -339.73)"/>
      <path id="Trazado_822115" data-name="Trazado 822115" d="M339.687,377.83a.613.613,0,0,1-.578-.408l-3.073-8.6a.614.614,0,0,1,1.156-.413l3.073,8.6a.613.613,0,0,1-.372.785A.606.606,0,0,1,339.687,377.83Zm0,0" transform="translate(-310.19 -339.73)"/>
      <path id="Trazado_822116" data-name="Trazado 822116" d="M339.687,481.229h-3.073a.615.615,0,0,1,0-1.229h3.073a.615.615,0,0,1,0,1.229Zm0,0" transform="translate(-310.19 -443.128)"/>
      <path id="Trazado_822117" data-name="Trazado 822117" d="M193.479,417.229H183.471a.615.615,0,1,1,0-1.229h10.008a.615.615,0,0,1,0,1.229Zm0,0" transform="translate(-168.81 -384.045)"/>
      <path id="Trazado_822118" data-name="Trazado 822118" d="M186.228,441.229H174.9a.615.615,0,1,1,0-1.229h11.324a.615.615,0,1,1,0,1.229Zm0,0" transform="translate(-160.901 -406.201)"/>
      <path id="Trazado_822119" data-name="Trazado 822119" d="M221.531,3.073h-4.916A.614.614,0,0,1,216,2.458V.615A.614.614,0,0,1,216.615,0h4.916a.614.614,0,0,1,.615.615V2.458A.614.614,0,0,1,221.531,3.073Zm-4.3-1.229h3.687V1.229h-3.687Zm0,0" transform="translate(-199.408)"/>
      <path id="Trazado_822120" data-name="Trazado 822120" d="M74.458,244.916a2.458,2.458,0,1,1,2.458-2.458A2.461,2.461,0,0,1,74.458,244.916Zm0-3.687a1.229,1.229,0,1,0,1.229,1.229A1.23,1.23,0,0,0,74.458,241.229Zm0,0" transform="translate(-66.469 -221.564)"/>
      <path id="Trazado_822121" data-name="Trazado 822121" d="M354.458,132.916a2.458,2.458,0,1,1,2.458-2.458A2.461,2.461,0,0,1,354.458,132.916Zm0-3.687a1.229,1.229,0,1,0,1.229,1.229A1.23,1.23,0,0,0,354.458,129.229Zm0,0" transform="translate(-324.961 -118.168)"/>
      <path id="Trazado_822122" data-name="Trazado 822122" d="M376.615,86.76a.614.614,0,0,1-.615-.615V80.615a.615.615,0,0,1,1.229,0v5.531A.614.614,0,0,1,376.615,86.76Zm0,0" transform="translate(-347.117 -73.855)"/>
      <path id="Trazado_822123" data-name="Trazado 822123" d="M380.3,81.229h-3.687a.615.615,0,0,1,0-1.229H380.3a.615.615,0,0,1,0,1.229Zm0,0" transform="translate(-347.117 -73.855)"/>
      <path id="Trazado_822124" data-name="Trazado 822124" d="M380.3,113.229h-3.687a.615.615,0,1,1,0-1.229H380.3a.615.615,0,0,1,0,1.229Zm0,0" transform="translate(-347.117 -103.397)"/>
      <path id="Trazado_822125" data-name="Trazado 822125" d="M417.223,83.687a.615.615,0,0,1-.551-.34l-.615-1.229a.614.614,0,0,1,0-.55l.615-1.229a.615.615,0,0,1,1.1.55l-.477.955.477.954a.614.614,0,0,1-.549.889Zm0,0" transform="translate(-384.038 -73.855)"/>
      <path id="Trazado_822126" data-name="Trazado 822126" d="M136.617,158.76a.615.615,0,0,1-.459-1.023c.208-.235,5.208-5.737,14.593-5.737a.615.615,0,1,1,0,1.229,19.148,19.148,0,0,0-13.675,5.324.611.611,0,0,1-.459.206Zm0,0" transform="translate(-125.555 -140.324)"/>
      <path id="Trazado_822127" data-name="Trazado 822127" d="M304.612,154.455a.615.615,0,0,1-.434-1.049l1.229-1.229a.614.614,0,1,1,.869.869l-1.229,1.229A.613.613,0,0,1,304.612,154.455Zm0,0" transform="translate(-280.645 -140.321)"/>
      <path id="Trazado_822128" data-name="Trazado 822128" d="M305.841,138.455a.613.613,0,0,1-.434-.18l-1.229-1.229a.614.614,0,1,1,.869-.869l1.229,1.229a.615.615,0,0,1-.435,1.049Zm0,0" transform="translate(-280.645 -125.55)"/>
      <path id="Trazado_822129" data-name="Trazado 822129" d="M96.816,265.237a.615.615,0,0,1-.007-1.229h.007a.615.615,0,1,1,0,1.229Zm0,0" transform="translate(-88.809 -243.728)"/>
      <path id="Trazado_822130" data-name="Trazado 822130" d="M83.07,123.684a.613.613,0,0,1-.434-.18l-2.458-2.458a.614.614,0,1,1,.869-.869l2.458,2.458a.615.615,0,0,1-.434,1.049Zm0,0" transform="translate(-73.852 -110.779)"/>
      <path id="Trazado_822131" data-name="Trazado 822131" d="M80.612,123.684a.615.615,0,0,1-.434-1.049l2.458-2.458a.614.614,0,1,1,.869.869L81.046,123.5A.613.613,0,0,1,80.612,123.684Zm0,0" transform="translate(-73.852 -110.779)"/>
      <path id="Trazado_822132" data-name="Trazado 822132" d="M203.07,67.684a.613.613,0,0,1-.435-.18l-2.458-2.458a.614.614,0,0,1,.869-.869l2.458,2.458a.615.615,0,0,1-.435,1.049Zm0,0" transform="translate(-184.634 -59.081)"/>
      <path id="Trazado_822133" data-name="Trazado 822133" d="M200.612,67.684a.615.615,0,0,1-.434-1.049l2.458-2.458a.614.614,0,0,1,.869.869L201.046,67.5A.613.613,0,0,1,200.612,67.684Zm0,0" transform="translate(-184.634 -59.081)"/>
      <path id="Trazado_822134" data-name="Trazado 822134" d="M219.07,275.684a.613.613,0,0,1-.434-.18l-2.458-2.458a.614.614,0,1,1,.869-.869l2.458,2.458a.615.615,0,0,1-.435,1.049Zm0,0" transform="translate(-199.405 -251.103)"/>
      <path id="Trazado_822135" data-name="Trazado 822135" d="M216.612,275.684a.615.615,0,0,1-.434-1.049l2.458-2.458a.614.614,0,1,1,.869.869l-2.458,2.458A.613.613,0,0,1,216.612,275.684Zm0,0" transform="translate(-199.405 -251.103)"/>
      <path id="Trazado_822136" data-name="Trazado 822136" d="M339.07,235.684a.613.613,0,0,1-.434-.18l-2.458-2.458a.614.614,0,0,1,.869-.869l2.458,2.458a.615.615,0,0,1-.434,1.049Zm0,0" transform="translate(-310.187 -214.176)"/>
      <path id="Trazado_822137" data-name="Trazado 822137" d="M336.612,235.684a.615.615,0,0,1-.435-1.049l2.458-2.458a.614.614,0,0,1,.869.869l-2.458,2.458A.613.613,0,0,1,336.612,235.684Zm0,0" transform="translate(-310.187 -214.176)"/>
    </g>
  </g>
</svg>
