<svg xmlns="http://www.w3.org/2000/svg" width="61" height="61" viewBox="0 0 61 61">
  <g id="Grupo_142439" data-name="Grupo 142439" transform="translate(-0.5)">
    <circle id="Elipse_4868" data-name="Elipse 4868" cx="30.5" cy="30.5" r="30.5" transform="translate(0.5 0)" fill="#fff"/>
    <g id="carpeta_1_" data-name="carpeta (1)" transform="translate(-3.434 11.87)">
      <path id="Trazado_822072" data-name="Trazado 822072" d="M125.21,250.442H114.654a1.229,1.229,0,0,1-.869-.36l-1.559-1.559a1.844,1.844,0,0,0-1.3-.54h-5.383a1.844,1.844,0,0,0-1.844,1.844v15.982a1.844,1.844,0,0,0,1.844,1.844H125.21a1.844,1.844,0,0,0,1.844-1.844V252.286A1.844,1.844,0,0,0,125.21,250.442Z" transform="translate(-80.941 -228.967)" fill="#7d8999"/>
      <path id="Trazado_822073" data-name="Trazado 822073" d="M126.94,265.81H108.612a3.077,3.077,0,0,1-3.074-3.074V247.984a1.844,1.844,0,0,0-1.844,1.844V265.81a1.844,1.844,0,0,0,1.844,1.844h19.671a1.844,1.844,0,0,0,1.844-1.844h-.113Z" transform="translate(-80.94 -228.968)" fill="#5c6c7e"/>
      <path id="Trazado_822074" data-name="Trazado 822074" d="M130.937,325.6l4.228-12.683a.615.615,0,0,0-.583-.809H113.405a1.844,1.844,0,0,0-1.749,1.261L107.446,326a1.839,1.839,0,0,0,1.556.863h20.185A1.844,1.844,0,0,0,130.937,325.6Z" transform="translate(-84.404 -288.179)" fill="#969faa"/>
      <path id="Trazado_822075" data-name="Trazado 822075" d="M29.064,7.5H24.147a.615.615,0,0,0-.615.615V17.95a.615.615,0,0,0,.615.615h7.376a.615.615,0,0,0,.615-.615V10.574Z" transform="translate(-6.925 -6.925)" fill="#33d6f5"/>
      <circle id="Elipse_10521" data-name="Elipse 10521" cx="1.229" cy="1.229" r="1.229" transform="translate(33.204 14.099)" fill="#b6b1b7"/>
      <path id="Trazado_822076" data-name="Trazado 822076" d="M25.376,14.876V7.5H24.147a.615.615,0,0,0-.615.615V17.95a.615.615,0,0,0,.615.615h7.376a.615.615,0,0,0,.615-.615V16.721H27.22A1.844,1.844,0,0,1,25.376,14.876Z" transform="translate(-6.925 -6.925)" fill="#0db7d8"/>
      <path id="Trazado_822077" data-name="Trazado 822077" d="M95.677,9.959a.615.615,0,0,0,.615.615h2.459L95.677,7.5Z" transform="translate(-73.538 -6.925)" fill="#dad8db"/>
      <path id="Trazado_822078" data-name="Trazado 822078" d="M112.075,436.043A3.077,3.077,0,0,1,109,432.97v-.615l-1.556,4.669a1.839,1.839,0,0,0,1.556.863h20.185a1.844,1.844,0,0,0,1.75-1.261l.194-.583Z" transform="translate(-84.403 -399.201)" fill="#7d8999"/>
      <path id="Trazado_822079" data-name="Trazado 822079" d="M205.419,7.5H200.5a.615.615,0,0,0-.615.615V17.95a.615.615,0,0,0,.615.615h7.376a.615.615,0,0,0,.615-.615V10.574Z" transform="translate(-169.756 -6.925)" fill="#33d6f5"/>
      <path id="Trazado_822080" data-name="Trazado 822080" d="M201.731,14.876V7.5H200.5a.615.615,0,0,0-.615.615V17.95a.615.615,0,0,0,.615.615h7.376a.615.615,0,0,0,.615-.615V16.721h-4.918A1.844,1.844,0,0,1,201.731,14.876Z" transform="translate(-169.756 -6.925)" fill="#0db7d8"/>
      <path id="Trazado_822081" data-name="Trazado 822081" d="M272.032,9.959a.615.615,0,0,0,.615.615h2.459L272.032,7.5Z" transform="translate(-236.369 -6.925)" fill="#dad8db"/>
      <path id="Trazado_822082" data-name="Trazado 822082" d="M381.774,7.5h-4.918a.615.615,0,0,0-.615.615V17.95a.615.615,0,0,0,.615.615h7.376a.615.615,0,0,0,.615-.615V10.574Z" transform="translate(-332.588 -6.925)" fill="#33d6f5"/>
      <path id="Trazado_822083" data-name="Trazado 822083" d="M378.086,14.876V7.5h-1.229a.615.615,0,0,0-.615.615V17.95a.615.615,0,0,0,.615.615h7.376a.615.615,0,0,0,.615-.615V16.721H379.93A1.844,1.844,0,0,1,378.086,14.876Z" transform="translate(-332.588 -6.925)" fill="#0db7d8"/>
      <path id="Trazado_822084" data-name="Trazado 822084" d="M448.387,9.959a.615.615,0,0,0,.615.615h2.459L448.387,7.5Z" transform="translate(-399.201 -6.925)" fill="#dad8db"/>
      <path id="Trazado_822085" data-name="Trazado 822085" d="M317.507,456.919h-4.3a.575.575,0,1,0,0,1.15h4.3a.575.575,0,1,0,0-1.15Z" transform="translate(-273.853 -421.881)"/>
      <path id="Trazado_822086" data-name="Trazado 822086" d="M333.539,424.854h-4.3a.575.575,0,1,0,0,1.15h4.3a.575.575,0,0,0,0-1.15Z" transform="translate(-288.656 -392.275)"/>
      <path id="Trazado_822087" data-name="Trazado 822087" d="M48.672,73.3h3.074a.575.575,0,0,0,0-1.15H48.672a.575.575,0,1,0,0,1.15Z" transform="translate(-29.606 -66.613)"/>
      <path id="Trazado_822088" data-name="Trazado 822088" d="M52.321,104.784a.575.575,0,0,0-.575-.575H48.672a.575.575,0,1,0,0,1.15h3.074A.575.575,0,0,0,52.321,104.784Z" transform="translate(-29.606 -96.218)"/>
      <path id="Trazado_822089" data-name="Trazado 822089" d="M225.027,73.3H228.1a.575.575,0,1,0,0-1.15h-3.074a.575.575,0,1,0,0,1.15Z" transform="translate(-192.438 -66.613)"/>
      <path id="Trazado_822090" data-name="Trazado 822090" d="M228.675,104.784a.575.575,0,0,0-.575-.575h-3.074a.575.575,0,1,0,0,1.15H228.1A.575.575,0,0,0,228.675,104.784Z" transform="translate(-192.437 -96.218)"/>
      <path id="Trazado_822091" data-name="Trazado 822091" d="M52.667,3.242,49.593.168A.575.575,0,0,0,49.186,0H44.269a1.191,1.191,0,0,0-1.19,1.19v9.835a1.191,1.191,0,0,0,1.19,1.19h3.113V14.1a.655.655,0,0,1-.654.654H36.144a1.813,1.813,0,0,0-1.135-1.135v-1.4h3.113a1.191,1.191,0,0,0,1.19-1.19V3.649a.575.575,0,0,0-.168-.407L36.07.168A.575.575,0,0,0,35.663,0H30.745a1.191,1.191,0,0,0-1.19,1.19v9.835a1.191,1.191,0,0,0,1.19,1.19h3.113v1.4a1.813,1.813,0,0,0-1.135,1.135H22.139a.655.655,0,0,1-.654-.654V12.215H24.6a1.191,1.191,0,0,0,1.19-1.19V3.649a.575.575,0,0,0-.168-.407L22.546.168A.575.575,0,0,0,22.139,0H17.222a1.191,1.191,0,0,0-1.19,1.19v9.835a1.191,1.191,0,0,0,1.19,1.19h3.113V14.1a1.807,1.807,0,0,0,1.8,1.8H32.724a1.813,1.813,0,0,0,1.135,1.135v3.857a1.258,1.258,0,0,1-.788-.366L31.692,19.15a2.4,2.4,0,0,0-1.711-.709H24.6a2.422,2.422,0,0,0-2.419,2.419V36.843A2.422,2.422,0,0,0,24.6,39.262H44.784a2.416,2.416,0,0,0,2.3-1.654l4.228-12.683a1.19,1.19,0,0,0-1.129-1.566h-3.49v-.04A2.422,2.422,0,0,0,44.269,20.9H36.892a.575.575,0,0,0,0,1.15h7.377a1.27,1.27,0,0,1,1.269,1.269v.04H35.009V17.038A1.813,1.813,0,0,0,36.144,15.9H46.728a1.807,1.807,0,0,0,1.8-1.8V12.215h3.113a1.191,1.191,0,0,0,1.19-1.19V3.649a.575.575,0,0,0-.168-.407ZM36.238,1.964l1.11,1.11h-1.07a.04.04,0,0,1-.04-.04Zm-5.532,9.062V1.19a.04.04,0,0,1,.04-.04h4.342V3.034a1.191,1.191,0,0,0,1.19,1.19h1.884v6.8a.04.04,0,0,1-.04.04H30.745A.04.04,0,0,1,30.706,11.025ZM22.715,1.964l1.11,1.11h-1.07a.04.04,0,0,1-.04-.04Zm-5.532,9.062V1.19a.04.04,0,0,1,.04-.04h4.343V3.034a1.191,1.191,0,0,0,1.19,1.19h1.884v6.8a.04.04,0,0,1-.04.04H17.222A.04.04,0,0,1,17.182,11.025Zm17.251,3.649a.655.655,0,0,1,.654.653h0a.654.654,0,1,1-.654-.655ZM50.21,24.525a.036.036,0,0,1,.005.036L45.988,37.244a1.267,1.267,0,0,1-1.2.868H24.6a1.264,1.264,0,0,1-.915-.392L27.8,25.377a1.267,1.267,0,0,1,1.2-.868H50.178a.036.036,0,0,1,.032.016ZM29,23.359a2.416,2.416,0,0,0-2.3,1.654l-3.377,10.13V20.86A1.27,1.27,0,0,1,24.6,19.591h5.383a1.26,1.26,0,0,1,.9.372l1.379,1.379a2.4,2.4,0,0,0,1.6.706v1.311Zm20.761-21.4,1.11,1.11H49.8a.04.04,0,0,1-.04-.04Zm1.884,9.1H44.269a.04.04,0,0,1-.04-.04V1.19a.04.04,0,0,1,.04-.04h4.343V3.034a1.191,1.191,0,0,0,1.19,1.19h1.884v6.8A.04.04,0,0,1,51.645,11.065Z"/>
      <path id="Trazado_822092" data-name="Trazado 822092" d="M404.455,72.145h-3.074a.575.575,0,0,0,0,1.15h3.074a.575.575,0,0,0,0-1.15Z" transform="translate(-355.268 -66.613)"/>
      <path id="Trazado_822093" data-name="Trazado 822093" d="M404.455,104.209h-3.074a.575.575,0,0,0,0,1.15h3.074a.575.575,0,0,0,0-1.15Z" transform="translate(-355.268 -96.218)"/>
    </g>
  </g>
</svg>
