<svg xmlns="http://www.w3.org/2000/svg" xmlns:xlink="http://www.w3.org/1999/xlink" width="160.538" height="222.368" viewBox="0 0 160.538 222.368">
  <defs>
    <filter id="Rectángulo_376475" x="48.282" y="114.334" width="63.974" height="63.974" filterUnits="userSpaceOnUse">
      <feOffset dy="3" input="SourceAlpha"/>
      <feGaussianBlur stdDeviation="3" result="blur"/>
      <feFlood flood-opacity="0.161"/>
      <feComposite operator="in" in2="blur"/>
      <feComposite in="SourceGraphic"/>
    </filter>
    <filter id="Trazado_822262" x="0" y="0" width="160.538" height="160.538" filterUnits="userSpaceOnUse">
      <feOffset dy="3" input="SourceAlpha"/>
      <feGaussianBlur stdDeviation="3" result="blur-2"/>
      <feFlood flood-opacity="0.161"/>
      <feComposite operator="in" in2="blur-2"/>
      <feComposite in="SourceGraphic"/>
    </filter>
    <filter id="Trazado_822264" x="16.127" y="16.035" width="128.48" height="128.481" filterUnits="userSpaceOnUse">
      <feOffset dy="3" input="SourceAlpha"/>
      <feGaussianBlur stdDeviation="3" result="blur-3"/>
      <feFlood flood-opacity="0.161"/>
      <feComposite operator="in" in2="blur-3"/>
      <feComposite in="SourceGraphic"/>
    </filter>
    <filter id="Trazado_822266" x="53.208" y="168.049" width="54.319" height="54.319" filterUnits="userSpaceOnUse">
      <feOffset dy="3" input="SourceAlpha"/>
      <feGaussianBlur stdDeviation="3" result="blur-4"/>
      <feFlood flood-opacity="0.161"/>
      <feComposite operator="in" in2="blur-4"/>
      <feComposite in="SourceGraphic"/>
    </filter>
  </defs>
  <g id="Grupo_1076335" data-name="Grupo 1076335" transform="translate(-714 6)">
    <g id="Grupo_1074719" data-name="Grupo 1074719" transform="translate(723)">
      <g transform="matrix(1, 0, 0, 1, -9, -6)" filter="url(#Rectángulo_376475)">
        <rect id="Rectángulo_376475-2" data-name="Rectángulo 376475" width="32.509" height="32.509" transform="translate(57.28 143.32) rotate(-45)" fill="#f95428"/>
      </g>
      <g transform="matrix(1, 0, 0, 1, -9, -6)" filter="url(#Trazado_822262)">
        <path id="Trazado_822262-2" data-name="Trazado 822262" d="M69.981,142.526a71.269,71.269,0,1,1,72.545-69.97,71.269,71.269,0,0,1-72.545,69.97" transform="translate(9 6)" fill="#f95428"/>
      </g>
    </g>
    <rect id="Rectángulo_376476" data-name="Rectángulo 376476" width="142.538" height="199.003" transform="translate(723 0)" fill="none"/>
    <path id="Trazado_822263" data-name="Trazado 822263" d="M42.443,98.635A57.526,57.526,0,1,0,101,42.158c-.355-.007-.707-.01-1.06-.01a57.528,57.528,0,0,0-57.5,56.487" transform="translate(694.408 -28.399)" fill="none"/>
    <g transform="matrix(1, 0, 0, 1, 714, -6)" filter="url(#Trazado_822264)">
      <path id="Trazado_822264-2" data-name="Trazado 822264" d="M57.356,75.92a55.232,55.232,0,1,0,75.8-18.85,55.232,55.232,0,0,0-75.8,18.85" transform="translate(-24.31 -27.12)" fill="#fff"/>
    </g>
    <path id="Trazado_822265" data-name="Trazado 822265" d="M194.746,558.453a11.64,11.64,0,1,1,11.64-11.64,11.64,11.64,0,0,1-11.64,11.64" transform="translate(599.621 -360.605)" fill="#fff"/>
    <g transform="matrix(1, 0, 0, 1, 714, -6)" filter="url(#Trazado_822266)">
      <path id="Trazado_822266-2" data-name="Trazado 822266" d="M11.64,0A11.64,11.64,0,1,1,0,11.64,11.64,11.64,0,0,1,11.64,0Z" transform="translate(66.44 200.99) rotate(-77.24)" fill="none" stroke="#f95428" stroke-width="7.081"/>
    </g>
    <rect id="Rectángulo_376478" data-name="Rectángulo 376478" width="142.538" height="199.003" transform="translate(723 0)" fill="none"/>
    <g id="Grupo_1075257" data-name="Grupo 1075257" transform="translate(759.858 32.96)">
      <g id="Grupo_1075241" data-name="Grupo 1075241" transform="translate(14.273)">
        <g id="Grupo_1075240" data-name="Grupo 1075240">
          <g id="Grupo_1075239" data-name="Grupo 1075239">
            <g id="Grupo_1075236" data-name="Grupo 1075236">
              <g id="Grupo_1075235" data-name="Grupo 1075235">
                <path id="Trazado_822956" data-name="Trazado 822956" d="M143.16,20.131s7.061-9.164,5.03-11.793c-.692-.9-1.282.321-2.713.321-1.681,0-1.681-1.1-3.363-1.1s-1.681,1.1-3.363,1.1-1.681-1.1-3.362-1.1-1.681,1.1-3.362,1.1c-1.433,0-2.02-1.233-2.717-.336-2.031,2.614,4.926,11.808,4.926,11.808-30.727,20.2-20.82,47.671-2.678,47.671h14.388c18.2,0,28.043-27.4-2.787-47.671Z" transform="translate(-114.473 -7.559)" fill="#eabc6b"/>
              </g>
            </g>
            <g id="Grupo_1075237" data-name="Grupo 1075237" transform="translate(18.557)">
              <path id="Trazado_822957" data-name="Trazado 822957" d="M253.545,20.131s7.061-9.164,5.03-11.793c-.692-.9-1.282.321-2.713.321-1.681,0-1.681-1.1-3.363-1.1s-1.681,1.1-3.363,1.1c-.083,0-.158,0-.233-.01-.676,2.9-3.72,7.407-5.462,9.822.686,1.007,1.18,1.659,1.18,1.659q-.615.4-1.206.812c29.358,20.179,19.535,46.859,1.58,46.859h11.337c18.2,0,28.043-27.4-2.787-47.671Z" transform="translate(-243.415 -7.559)" fill="#e8ae4d"/>
            </g>
            <g id="Grupo_1075238" data-name="Grupo 1075238" transform="translate(15.861 10.676)">
              <path id="Trazado_822958" data-name="Trazado 822958" d="M238.822,86.894a24.564,24.564,0,0,1-12.259,0,2.617,2.617,0,0,1-1.724-3.426l.017-.049a2.415,2.415,0,0,1,2.851-1.61,19.959,19.959,0,0,0,9.971,0,2.415,2.415,0,0,1,2.851,1.61l.017.049A2.617,2.617,0,0,1,238.822,86.894Z" transform="translate(-224.683 -81.738)" fill="#ffe07d"/>
            </g>
          </g>
        </g>
      </g>
      <g id="Grupo_1075256" data-name="Grupo 1075256" transform="translate(0 40.881)">
        <g id="Grupo_1075255" data-name="Grupo 1075255">
          <g id="Grupo_1075254" data-name="Grupo 1075254">
            <g id="Grupo_1075253" data-name="Grupo 1075253">
              <g id="Grupo_1075252" data-name="Grupo 1075252">
                <g id="Grupo_1075251" data-name="Grupo 1075251">
                  <g id="Grupo_1075250" data-name="Grupo 1075250">
                    <g id="Grupo_1075249" data-name="Grupo 1075249">
                      <g id="Grupo_1075248" data-name="Grupo 1075248">
                        <g id="Grupo_1075247" data-name="Grupo 1075247">
                          <g id="Grupo_1075246" data-name="Grupo 1075246" transform="translate(5.697 3.782)">
                            <g id="Grupo_1075245" data-name="Grupo 1075245">
                              <g id="Grupo_1075242" data-name="Grupo 1075242">
                                <path id="Trazado_822959" data-name="Trazado 822959" d="M54.883,338.189l15.625,5.816a11.889,11.889,0,0,0,4.147.747h16.1a11.89,11.89,0,0,0,6.364-1.846l20.162-12.776a3.539,3.539,0,0,0,.576-4.637c-1.095-1.609-2.906-1.889-4.9-.946L93.33,333.189,93.353,330a5.7,5.7,0,0,0-4.874-5.08l-11.954-1.376c-2.757-.39-4.135-1.314-6.539-2.72A21.425,21.425,0,0,0,59.169,317.9H54.883v20.293Z" transform="translate(-54.883 -317.896)" fill="#ffddce"/>
                              </g>
                              <g id="Grupo_1075243" data-name="Grupo 1075243">
                                <path id="Trazado_822960" data-name="Trazado 822960" d="M54.883,338.189l15.625,5.816a11.889,11.889,0,0,0,4.147.747h16.1a11.89,11.89,0,0,0,6.364-1.846l20.162-12.776a3.539,3.539,0,0,0,.576-4.637c-1.095-1.609-2.906-1.889-4.9-.946L93.33,333.189,93.353,330a5.7,5.7,0,0,0-4.874-5.08l-11.954-1.376c-2.757-.39-4.135-1.314-6.539-2.72A21.425,21.425,0,0,0,59.169,317.9H54.883v20.293Z" transform="translate(-54.883 -317.896)" fill="#ffddce"/>
                              </g>
                              <path id="Trazado_822961" data-name="Trazado 822961" d="M117.86,361.846c-1.095-1.609-2.906-1.889-4.9-.946l-5.4,2.377.469.744a3.539,3.539,0,0,1-.576,4.637L95.707,376.1a11.888,11.888,0,0,1-4.949,1.08h-16.1a11.889,11.889,0,0,1-4.147-.747l-15.625-5.816v3.923l15.625,5.816a11.89,11.89,0,0,0,4.147.747h16.1a11.89,11.89,0,0,0,6.364-1.846l20.162-12.776a3.539,3.539,0,0,0,.576-4.637Z" transform="translate(-54.884 -354.249)" fill="#ffcbbe"/>
                              <g id="Grupo_1075244" data-name="Grupo 1075244" transform="translate(37.004 8.828)">
                                <path id="Trazado_822962" data-name="Trazado 822962" d="M312,379.236v.077l.051-.022Z" transform="translate(-312.004 -379.236)" fill="#f5dbcc"/>
                              </g>
                            </g>
                          </g>
                          <path id="Trazado_822963" data-name="Trazado 822963" d="M24.354,318.807A2.053,2.053,0,0,1,22.3,320.86H17.348a2.053,2.053,0,0,1-2.053-2.053V293.673a2.053,2.053,0,0,1,2.053-2.053H22.3a2.053,2.053,0,0,1,2.053,2.053Z" transform="translate(-15.295 -291.62)" fill="#407093"/>
                        </g>
                      </g>
                    </g>
                  </g>
                </g>
              </g>
            </g>
          </g>
        </g>
      </g>
    </g>
    <g id="Grupo_1075258" data-name="Grupo 1075258" transform="translate(758.779 31.872)">
      <path id="Trazado_822964" data-name="Trazado 822964" d="M78.442,52.74c-1.375-2.02-3.706-2.513-6.239-1.321l-1.342.591a22.2,22.2,0,0,0,1.326-14.292A34.479,34.479,0,0,0,63.5,22.007a1.079,1.079,0,0,0-1.591,1.459,32.363,32.363,0,0,1,8.172,14.719,19.352,19.352,0,0,1-2.533,15.284L54.112,59.384l.011-1.517a1.053,1.053,0,0,0-.005-.115,6.764,6.764,0,0,0-5.8-6.042l-.028,0-11.94-1.375c-4.591-.654-5.774-3.4-11.991-4.974A23.233,23.233,0,0,1,26.075,33.94c2.364-5.86,6.988-11.553,13.4-16.509,2.389,1.694,13.05,1.905,15.435-.28,1.222.928,2.389,1.885,3.475,2.853a1.079,1.079,0,1,0,1.436-1.611c-1.191-1.061-2.472-2.108-3.816-3.12a3.842,3.842,0,0,0-1.289-3.828c3.379-5.125,4.362-8.48,3-10.237a1.887,1.887,0,0,0-2.588-.4,1.731,1.731,0,0,1-2.07-.074,3.88,3.88,0,0,0-4.544,0,1.74,1.74,0,0,1-2.181,0,3.879,3.879,0,0,0-4.544,0A1.718,1.718,0,0,1,39.727.8a1.883,1.883,0,0,0-2.592.386C35.808,2.9,36.7,6.145,39.847,11.1a3.514,3.514,0,0,0-.549.367,7.286,7.286,0,0,0-6.276-2.372,7.908,7.908,0,0,1-5.369-1.269,1.079,1.079,0,0,0-1.2,1.793,10.05,10.05,0,0,0,6.81,1.622,5.273,5.273,0,0,1,4.82,2.108q-.02.069-.037.139a18.521,18.521,0,0,0-3.422.373c-3.272.681-5.7,2.235-7.023,4.5a1.079,1.079,0,1,0,1.863,1.09c1.968-3.363,6.771-3.775,8.679-3.8.008.024.018.047.026.071C31.36,20.965,26.62,26.822,24.074,33.133a25.615,25.615,0,0,0-1.925,11.783,22.458,22.458,0,0,0-3.134-.243v-.653a3.135,3.135,0,0,0-3.132-3.132H10.929A3.135,3.135,0,0,0,7.8,44.021V69.155a3.135,3.135,0,0,0,3.132,3.132h4.954a3.135,3.135,0,0,0,3.132-3.132v-.307L29.822,72.87a12.93,12.93,0,0,0,4.524.815h16.1A12.95,12.95,0,0,0,57.39,71.67C78.871,58.053,77.566,58.9,77.69,58.79a4.628,4.628,0,0,0,.752-6.05ZM52.885,15.872a23.391,23.391,0,0,1-11.731,0c-1.694-.428-1.2-3.449.617-2.992a21.045,21.045,0,0,0,10.5,0C54.056,12.431,54.606,15.437,52.885,15.872ZM38.741,2.724l.025.013a3.829,3.829,0,0,0,4.21-.2c1.839-1.2,2.038.726,4.453.726A3.749,3.749,0,0,0,49.7,2.54a1.741,1.741,0,0,1,2.181,0,3.849,3.849,0,0,0,4.228.193c.222.8-.28,3.187-3.481,7.951-1.589-.027-3.9,1.534-10.424.081-3.193-4.826-3.687-7.236-3.464-8.042Zm37.575,54.4L56.234,69.848a10.8,10.8,0,0,1-5.786,1.679h-16.1a10.776,10.776,0,0,1-3.771-.679l-11.56-4.3V54.923a1.079,1.079,0,1,0-2.158,0V69.156a.975.975,0,0,1-.973.973H10.929a.975.975,0,0,1-.973-.973V44.021a.974.974,0,0,1,.973-.973h4.954a.974.974,0,0,1,.973.973v5.857a1.079,1.079,0,1,0,2.158,0V46.832c8.927.068,10.935,4.774,17.051,5.639l.028,0,11.939,1.375a4.61,4.61,0,0,1,3.932,4.062l-.015,2.053H40.815a1.079,1.079,0,1,0,0,2.158H53.021a1.117,1.117,0,0,0,.431-.09l19.634-8.644c1.412-.627,2.7-.717,3.572.566A2.465,2.465,0,0,1,76.316,57.123Z" transform="translate(-7.797 0.001)"/>
      <path id="Trazado_822965" data-name="Trazado 822965" d="M245.987,181.941a1.079,1.079,0,0,0,1.079-1.079v-1.789a6.323,6.323,0,0,0,5.182-5.232,5.535,5.535,0,0,0-3.813-6.332c-.494-.175-.949-.342-1.369-.5v-6.881a4.439,4.439,0,0,1,2.1.922,1.079,1.079,0,0,0,1.457-1.592,6.689,6.689,0,0,0-3.557-1.509v-1.535a1.079,1.079,0,1,0-2.158,0v1.622a7.945,7.945,0,0,0-.8.2,5.218,5.218,0,0,0-3.571,4.1,4.564,4.564,0,0,0,1.483,4.5,13.075,13.075,0,0,0,2.889,1.632v8.534a5.732,5.732,0,0,1-3.356-1.164,1.079,1.079,0,0,0-1.182,1.806,7.9,7.9,0,0,0,4.538,1.515v1.713A1.079,1.079,0,0,0,245.987,181.941Zm-2.636-16.815a2.433,2.433,0,0,1-.694-2.4,3.088,3.088,0,0,1,2.073-2.429c.06-.018.119-.034.178-.05v5.829A9.1,9.1,0,0,1,243.351,165.126Zm4.364,4.419a3.4,3.4,0,0,1,2.4,3.939,4.2,4.2,0,0,1-3.053,3.383v-7.556c.21.077.425.154.649.234Z" transform="translate(-206.48 -132.977)"/>
    </g>
  </g>
</svg>
