<svg xmlns="http://www.w3.org/2000/svg" width="60" height="61" viewBox="0 0 60 61">
  <g id="Grupo_142438" data-name="Grupo 142438" transform="translate(-0.356)">
    <ellipse id="Elipse_4775" data-name="Elipse 4775" cx="30" cy="30.5" rx="30" ry="30.5" transform="translate(0.356 0)" fill="#fff"/>
    <g id="archivo-de-respaldo" transform="translate(12.047 13.69)">
      <g id="Grupo_1074700" data-name="Grupo 1074700" transform="translate(0.566 0.566)">
        <g id="Grupo_1074695" data-name="Grupo 1074695">
          <g id="Grupo_1074676" data-name="Grupo 1074676" transform="translate(1.6 19.201)">
            <path id="Trazado_822042" data-name="Trazado 822042" d="M28.713,262.061h20.42V264.5H28.713Z" transform="translate(-28.713 -262.061)" fill="#d0cee7"/>
          </g>
          <g id="Grupo_1074679" data-name="Grupo 1074679" transform="translate(0 21.639)">
            <g id="Grupo_1074677" data-name="Grupo 1074677">
              <path id="Trazado_822043" data-name="Trazado 822043" d="M29.9,302.767H8.719A1.219,1.219,0,0,1,7.5,301.547V295.6a1.219,1.219,0,0,1,1.219-1.219H29.9A1.219,1.219,0,0,1,31.12,295.6v5.943A1.219,1.219,0,0,1,29.9,302.767Z" transform="translate(-7.5 -294.385)" fill="#bddce8"/>
            </g>
            <g id="Grupo_1074678" data-name="Grupo 1074678" transform="translate(20.42 0)">
              <path id="Trazado_822044" data-name="Trazado 822044" d="M280.205,294.386h-1.981a1.219,1.219,0,0,1,1.219,1.219v5.943a1.219,1.219,0,0,1-1.219,1.219h1.981a1.219,1.219,0,0,0,1.219-1.219v-5.943A1.219,1.219,0,0,0,280.205,294.386Z" transform="translate(-278.224 -294.386)" fill="#bddce8"/>
            </g>
          </g>
          <g id="Grupo_1074680" data-name="Grupo 1074680" transform="translate(1.6 8.381)">
            <path id="Trazado_822045" data-name="Trazado 822045" d="M28.713,118.618h20.42v2.438H28.713Z" transform="translate(-28.713 -118.618)" fill="#d0cee7"/>
          </g>
          <g id="Grupo_1074685" data-name="Grupo 1074685">
            <g id="Grupo_1074681" data-name="Grupo 1074681">
              <path id="Trazado_822046" data-name="Trazado 822046" d="M29.9,15.881H8.719A1.219,1.219,0,0,1,7.5,14.662V8.719A1.219,1.219,0,0,1,8.719,7.5H29.9A1.219,1.219,0,0,1,31.12,8.719v5.943A1.219,1.219,0,0,1,29.9,15.881Z" transform="translate(-7.5 -7.5)" fill="#bddce8"/>
            </g>
            <g id="Grupo_1074682" data-name="Grupo 1074682" transform="translate(20.42 0)">
              <path id="Trazado_822047" data-name="Trazado 822047" d="M280.205,7.5h-1.981a1.219,1.219,0,0,1,1.219,1.219v5.943a1.219,1.219,0,0,1-1.219,1.219h1.981a1.219,1.219,0,0,0,1.219-1.219V8.719A1.219,1.219,0,0,0,280.205,7.5Z" transform="translate(-278.224 -7.5)" fill="#bddce8"/>
            </g>
            <g id="Grupo_1074683" data-name="Grupo 1074683" transform="translate(2.438 2.972)">
              <circle id="Elipse_10515" data-name="Elipse 10515" cx="1.219" cy="1.219" r="1.219" fill="#bddce8"/>
            </g>
            <g id="Grupo_1074684" data-name="Grupo 1074684" transform="translate(7.315 2.972)">
              <circle id="Elipse_10516" data-name="Elipse 10516" cx="1.219" cy="1.219" r="1.219" fill="#bddce8"/>
            </g>
          </g>
          <g id="Grupo_1074688" data-name="Grupo 1074688" transform="translate(0 10.82)">
            <g id="Grupo_1074686" data-name="Grupo 1074686">
              <path id="Trazado_822048" data-name="Trazado 822048" d="M29.9,159.324H8.719A1.219,1.219,0,0,1,7.5,158.1v-5.943a1.219,1.219,0,0,1,1.219-1.219H29.9a1.219,1.219,0,0,1,1.219,1.219V158.1A1.219,1.219,0,0,1,29.9,159.324Z" transform="translate(-7.5 -150.942)" fill="#bddce8"/>
            </g>
            <g id="Grupo_1074687" data-name="Grupo 1074687" transform="translate(20.42 0)">
              <path id="Trazado_822049" data-name="Trazado 822049" d="M280.205,150.943h-1.981a1.219,1.219,0,0,1,1.219,1.219v5.943a1.219,1.219,0,0,1-1.219,1.219h1.981a1.219,1.219,0,0,0,1.219-1.219v-5.943A1.219,1.219,0,0,0,280.205,150.943Z" transform="translate(-278.224 -150.943)" fill="#bddce8"/>
            </g>
          </g>
          <g id="Grupo_1074691" data-name="Grupo 1074691" transform="translate(2.438 13.791)">
            <g id="Grupo_1074689" data-name="Grupo 1074689">
              <circle id="Elipse_10517" data-name="Elipse 10517" cx="1.219" cy="1.219" r="1.219" fill="#33d6f5"/>
            </g>
            <g id="Grupo_1074690" data-name="Grupo 1074690" transform="translate(4.876)">
              <circle id="Elipse_10518" data-name="Elipse 10518" cx="1.219" cy="1.219" r="1.219" fill="#33d6f5"/>
            </g>
          </g>
          <g id="Grupo_1074694" data-name="Grupo 1074694" transform="translate(2.438 24.611)">
            <g id="Grupo_1074692" data-name="Grupo 1074692">
              <circle id="Elipse_10519" data-name="Elipse 10519" cx="1.219" cy="1.219" r="1.219" fill="#33d6f5"/>
            </g>
            <g id="Grupo_1074693" data-name="Grupo 1074693" transform="translate(4.876)">
              <circle id="Elipse_10520" data-name="Elipse 10520" cx="1.219" cy="1.219" r="1.219" fill="#33d6f5"/>
            </g>
          </g>
        </g>
        <g id="Grupo_1074699" data-name="Grupo 1074699" transform="translate(14.934 12.953)">
          <g id="Grupo_1074696" data-name="Grupo 1074696" transform="translate(6.858)">
            <path id="Trazado_822050" data-name="Trazado 822050" d="M296.406,179.227v2.438h14.172v-1.676a.762.762,0,0,0-.762-.762h-13.41Z" transform="translate(-296.406 -179.227)" fill="#7d8999"/>
          </g>
          <g id="Grupo_1074697" data-name="Grupo 1074697">
            <path id="Trazado_822051" data-name="Trazado 822051" d="M227.283,181.665H214.634l-.595-1.9a.762.762,0,0,0-.727-.535h-4.975a.762.762,0,0,0-.727.535l-.595,1.9h-.762a.762.762,0,0,0-.762.762v13.106a.762.762,0,0,0,.762.762h21.03a.762.762,0,0,0,.762-.762V182.427A.762.762,0,0,0,227.283,181.665Z" transform="translate(-205.491 -179.227)" fill="#969faa"/>
          </g>
          <g id="Grupo_1074698" data-name="Grupo 1074698" transform="translate(19.887 2.438)">
            <path id="Trazado_822052" data-name="Trazado 822052" d="M471.049,211.553h-1.9a.762.762,0,0,1,.762.762V225.42a.762.762,0,0,1-.762.762h1.9a.762.762,0,0,0,.762-.762V212.315A.762.762,0,0,0,471.049,211.553Z" transform="translate(-469.144 -211.553)" fill="#7d8999"/>
          </g>
        </g>
      </g>
      <g id="Grupo_1074701" data-name="Grupo 1074701" transform="translate(12.605 24.643)">
        <path id="Trazado_822071" data-name="Trazado 822071" d="M6.705,0A6.705,6.705,0,1,1,0,6.705,6.705,6.705,0,0,1,6.705,0Z" fill="#33d6f5"/>
      </g>
      <g id="Grupo_1074702" data-name="Grupo 1074702" transform="translate(13.738 25.776)">
        <path id="Trazado_822053" data-name="Trazado 822053" d="M191.43,341.732a6.706,6.706,0,0,1-9.3,9.3,6.705,6.705,0,1,0,9.3-9.3Z" transform="translate(-182.127 -341.732)" fill="#0db7d8"/>
      </g>
      <g id="Grupo_1074703" data-name="Grupo 1074703" transform="translate(0 0)">
        <path id="Trazado_822054" data-name="Trazado 822054" d="M162.192,40.527h.453a.566.566,0,0,0,0-1.131h-.453a.566.566,0,0,0,0,1.131Z" transform="translate(-149.435 -36.424)"/>
        <path id="Trazado_822055" data-name="Trazado 822055" d="M236.334,40.527h.752a.566.566,0,0,0,0-1.131h-.752a.566.566,0,1,0,0,1.131Z" transform="translate(-217.984 -36.424)"/>
        <path id="Trazado_822056" data-name="Trazado 822056" d="M197.277,40.527h.752a.566.566,0,1,0,0-1.131h-.752a.566.566,0,0,0,0,1.131Z" transform="translate(-181.873 -36.424)"/>
        <path id="Trazado_822057" data-name="Trazado 822057" d="M275.391,40.527h.453a.566.566,0,0,0,0-1.131h-.453a.566.566,0,1,0,0,1.131Z" transform="translate(-254.095 -36.424)"/>
        <path id="Trazado_822058" data-name="Trazado 822058" d="M275.391,72.853h.453a.566.566,0,0,0,0-1.131h-.453a.566.566,0,1,0,0,1.131Z" transform="translate(-254.095 -66.312)"/>
        <path id="Trazado_822059" data-name="Trazado 822059" d="M236.334,72.853h.752a.566.566,0,0,0,0-1.131h-.752a.566.566,0,1,0,0,1.131Z" transform="translate(-217.984 -66.312)"/>
        <path id="Trazado_822060" data-name="Trazado 822060" d="M197.277,72.853h.752a.566.566,0,1,0,0-1.131h-.752a.566.566,0,0,0,0,1.131Z" transform="translate(-181.873 -66.312)"/>
        <path id="Trazado_822061" data-name="Trazado 822061" d="M162.192,72.853h.453a.566.566,0,0,0,0-1.131h-.453a.566.566,0,0,0,0,1.131Z" transform="translate(-149.435 -66.312)"/>
        <path id="Trazado_822062" data-name="Trazado 822062" d="M32.325,41.182A1.785,1.785,0,1,0,34.11,39.4,1.787,1.787,0,0,0,32.325,41.182Zm1.785-.653a.653.653,0,1,1-.653.653.654.654,0,0,1,.653-.653Z" transform="translate(-29.887 -36.425)"/>
        <path id="Trazado_822063" data-name="Trazado 822063" d="M100.546,41.182a1.785,1.785,0,1,0-1.785,1.785A1.787,1.787,0,0,0,100.546,41.182Zm-2.438,0a.653.653,0,1,1,.653.653A.654.654,0,0,1,98.107,41.182Z" transform="translate(-89.661 -36.425)"/>
        <path id="Trazado_822064" data-name="Trazado 822064" d="M34.11,186.41a1.785,1.785,0,1,0-1.785-1.785A1.787,1.787,0,0,0,34.11,186.41Zm0-2.438a.653.653,0,1,1-.653.653A.654.654,0,0,1,34.11,183.971Z" transform="translate(-29.887 -169.049)"/>
        <path id="Trazado_822065" data-name="Trazado 822065" d="M98.76,186.41a1.785,1.785,0,1,0-1.785-1.785A1.787,1.787,0,0,0,98.76,186.41Zm0-2.438a.653.653,0,1,1-.653.653A.654.654,0,0,1,98.76,183.971Z" transform="translate(-89.66 -169.049)"/>
        <path id="Trazado_822066" data-name="Trazado 822066" d="M34.11,326.282a1.785,1.785,0,1,0,1.785,1.785A1.787,1.787,0,0,0,34.11,326.282Zm0,2.438a.653.653,0,1,1,.653-.653A.654.654,0,0,1,34.11,328.72Z" transform="translate(-29.887 -301.671)"/>
        <path id="Trazado_822067" data-name="Trazado 822067" d="M98.76,326.282a1.785,1.785,0,1,0,1.785,1.785A1.787,1.787,0,0,0,98.76,326.282Zm0,2.438a.653.653,0,1,1,.653-.653A.654.654,0,0,1,98.76,328.72Z" transform="translate(-89.66 -301.671)"/>
        <path id="Trazado_822068" data-name="Trazado 822068" d="M37.292,15.391h-.2V14.281a1.329,1.329,0,0,0-1.328-1.328H34.462a.566.566,0,1,0,0,1.131h1.306a.2.2,0,0,1,.2.2v1.111H25.059l-.409-1.307h7.172a.566.566,0,1,0,0-1.131H24.752V12.6a1.787,1.787,0,0,0-1.6-1.775V9.5a1.787,1.787,0,0,0,1.6-1.775V1.785A1.787,1.787,0,0,0,22.967,0H6.2a.566.566,0,0,0,0,1.131H22.967a.654.654,0,0,1,.653.653V7.728a.654.654,0,0,1-.653.653H1.785a.654.654,0,0,1-.653-.653V1.785a.654.654,0,0,1,.653-.653H3.558A.566.566,0,1,0,3.558,0H1.785A1.787,1.787,0,0,0,0,1.785V7.728A1.787,1.787,0,0,0,1.6,9.5v1.326A1.787,1.787,0,0,0,0,12.6v5.943a1.787,1.787,0,0,0,1.6,1.775v1.326A1.787,1.787,0,0,0,0,23.424v5.943a1.787,1.787,0,0,0,1.785,1.785H12.042q0,.1,0,.2a7.264,7.264,0,0,0,.111,1.271.566.566,0,1,0,1.114-.2,6.139,6.139,0,1,1,.876,2.239.566.566,0,0,0-.952.611A7.271,7.271,0,0,0,26.58,31.349q0-.1,0-.2H37.292a1.329,1.329,0,0,0,1.328-1.328V16.719a1.329,1.329,0,0,0-1.328-1.328ZM2.732,10.82V9.513H22.02V10.82Zm-1.6,7.728V12.6a.654.654,0,0,1,.653-.653H22.967a.654.654,0,0,1,.653.653v.349H18.346a1.32,1.32,0,0,0-1.267.932l-.471,1.506h-.346a1.329,1.329,0,0,0-1.328,1.328V19.2H1.785a.654.654,0,0,1-.653-.653Zm13.8,1.785v1.307H2.732V20.332Zm-2.773,9.688H1.785a.654.654,0,0,1-.653-.653V23.424a.654.654,0,0,1,.653-.653H14.934v2.775A7.281,7.281,0,0,0,12.161,30.021Zm25.327-.2a.2.2,0,0,1-.2.2H26.458a7.268,7.268,0,0,0-10.393-5.178V16.719a.2.2,0,0,1,.2-.2h.762a.566.566,0,0,0,.54-.4l.6-1.9a.194.194,0,0,1,.187-.137h4.978a.2.2,0,0,1,.184.138l.6,1.9a.566.566,0,0,0,.54.4H37.292a.2.2,0,0,1,.2.2V29.824Z" transform="translate(0 0)"/>
        <path id="Trazado_822069" data-name="Trazado 822069" d="M249.066,416.366a.566.566,0,1,0,0,1.131,3.853,3.853,0,0,0,3.556-2.38.565.565,0,0,0,.934-.636l-.733-1.138a.566.566,0,0,0-.782-.169l-1.138.733a.565.565,0,0,0,.586.967A2.719,2.719,0,0,1,249.066,416.366Z" transform="translate(-229.756 -381.926)"/>
        <path id="Trazado_822070" data-name="Trazado 822070" d="M199.852,359.618A3.853,3.853,0,0,0,196.3,362a.565.565,0,0,0-.935.636l.733,1.138a.566.566,0,0,0,.782.169l1.138-.733a.565.565,0,0,0-.586-.967,2.719,2.719,0,0,1,2.424-1.492.566.566,0,0,0,0-1.131Z" transform="translate(-180.542 -332.493)"/>
      </g>
    </g>
  </g>
</svg>
