<svg xmlns="http://www.w3.org/2000/svg" xmlns:xlink="http://www.w3.org/1999/xlink" width="160.538" height="222.368" viewBox="0 0 160.538 222.368">
  <defs>
    <filter id="Rectángulo_376475" x="48.282" y="114.334" width="63.974" height="63.974" filterUnits="userSpaceOnUse">
      <feOffset dy="3" input="SourceAlpha"/>
      <feGaussianBlur stdDeviation="3" result="blur"/>
      <feFlood flood-opacity="0.161"/>
      <feComposite operator="in" in2="blur"/>
      <feComposite in="SourceGraphic"/>
    </filter>
    <filter id="Trazado_822262" x="0" y="0" width="160.538" height="160.538" filterUnits="userSpaceOnUse">
      <feOffset dy="3" input="SourceAlpha"/>
      <feGaussianBlur stdDeviation="3" result="blur-2"/>
      <feFlood flood-opacity="0.161"/>
      <feComposite operator="in" in2="blur-2"/>
      <feComposite in="SourceGraphic"/>
    </filter>
    <filter id="Trazado_822264" x="16.127" y="16.035" width="128.48" height="128.481" filterUnits="userSpaceOnUse">
      <feOffset dy="3" input="SourceAlpha"/>
      <feGaussianBlur stdDeviation="3" result="blur-3"/>
      <feFlood flood-opacity="0.161"/>
      <feComposite operator="in" in2="blur-3"/>
      <feComposite in="SourceGraphic"/>
    </filter>
    <filter id="Trazado_822266" x="53.208" y="168.049" width="54.319" height="54.319" filterUnits="userSpaceOnUse">
      <feOffset dy="3" input="SourceAlpha"/>
      <feGaussianBlur stdDeviation="3" result="blur-4"/>
      <feFlood flood-opacity="0.161"/>
      <feComposite operator="in" in2="blur-4"/>
      <feComposite in="SourceGraphic"/>
    </filter>
  </defs>
  <g id="Grupo_1076332" data-name="Grupo 1076332" transform="translate(8.769 6)">
    <g id="Grupo_1074720" data-name="Grupo 1074720" transform="translate(0.231 0)">
      <g id="Grupo_1074719" data-name="Grupo 1074719">
        <g transform="matrix(1, 0, 0, 1, -9, -6)" filter="url(#Rectángulo_376475)">
          <rect id="Rectángulo_376475-2" data-name="Rectángulo 376475" width="32.509" height="32.509" transform="translate(57.28 143.32) rotate(-45)" fill="#f95428"/>
        </g>
        <g transform="matrix(1, 0, 0, 1, -9, -6)" filter="url(#Trazado_822262)">
          <path id="Trazado_822262-2" data-name="Trazado 822262" d="M69.981,142.526a71.269,71.269,0,1,1,72.545-69.97,71.269,71.269,0,0,1-72.545,69.97" transform="translate(9 6)" fill="#f95428"/>
        </g>
      </g>
      <rect id="Rectángulo_376476" data-name="Rectángulo 376476" width="142.538" height="199.003" transform="translate(0 0)" fill="none"/>
      <path id="Trazado_822263" data-name="Trazado 822263" d="M42.443,98.635A57.526,57.526,0,1,0,101,42.158c-.355-.007-.707-.01-1.06-.01a57.528,57.528,0,0,0-57.5,56.487" transform="translate(-28.592 -28.399)" fill="none"/>
      <g transform="matrix(1, 0, 0, 1, -9, -6)" filter="url(#Trazado_822264)">
        <path id="Trazado_822264-2" data-name="Trazado 822264" d="M57.356,75.92a55.232,55.232,0,1,0,75.8-18.85,55.232,55.232,0,0,0-75.8,18.85" transform="translate(-24.31 -27.12)" fill="#fff"/>
      </g>
      <path id="Trazado_822265" data-name="Trazado 822265" d="M194.746,558.453a11.64,11.64,0,1,1,11.64-11.64,11.64,11.64,0,0,1-11.64,11.64" transform="translate(-123.379 -360.605)" fill="#fff"/>
      <g transform="matrix(1, 0, 0, 1, -9, -6)" filter="url(#Trazado_822266)">
        <path id="Trazado_822266-2" data-name="Trazado 822266" d="M11.64,0A11.64,11.64,0,1,1,0,11.64,11.64,11.64,0,0,1,11.64,0Z" transform="translate(66.44 200.99) rotate(-77.24)" fill="none" stroke="#f95428" stroke-width="7.081"/>
      </g>
      <rect id="Rectángulo_376478" data-name="Rectángulo 376478" width="142.538" height="199.003" transform="translate(0 0)" fill="none"/>
    </g>
    <circle id="Elipse_10535" data-name="Elipse 10535" cx="32.273" cy="32.273" r="32.273" transform="translate(39.228 38.451)" fill="#f3ce7d"/>
    <path id="Trazado_822909" data-name="Trazado 822909" d="M52.144,79.773A32.274,32.274,0,0,1,82.095,47.584c-.767-.054-1.541-.084-2.322-.084a32.273,32.273,0,1,0,0,64.546c.781,0,1.555-.029,2.322-.084A32.274,32.274,0,0,1,52.144,79.773Z" transform="translate(-8.272 -9.049)" fill="#c9aa6d"/>
    <path id="Trazado_822910" data-name="Trazado 822910" d="M245.595,127.152l-.777-2.3-.777,2.3a24.2,24.2,0,0,0-1.271,7.742v8.071l4.054-.023.042-.537v-7.51a24.208,24.208,0,0,0-1.272-7.745Z" transform="translate(-173.317 -74.426)" fill="#978cac"/>
    <path id="Trazado_822911" data-name="Trazado 822911" d="M19.518,268.691l-.023.011L14.158,271a37.78,37.78,0,0,1-3.088-15H16.9a31.952,31.952,0,0,0,2.614,12.691Z" transform="translate(22.519 -185.276)" fill="#b0b5ca"/>
    <path id="Trazado_822912" data-name="Trazado 822912" d="M334.858,28.3a37.969,37.969,0,0,1,12.792,8.433l-4.11,4.108-.017.015A32.076,32.076,0,0,0,332.7,33.724l0-.012,2.15-5.4Z" transform="translate(-249.327 7.179)" fill="#b0b5ca"/>
    <path id="Trazado_822913" data-name="Trazado 822913" d="M214.28,349.04h6.458v5.966H214.28Z" transform="translate(-149.237 -263.915)" fill="#5fcda4"/>
    <path id="Trazado_822914" data-name="Trazado 822914" d="M268.735,446.349l2.3,5.331a37.783,37.783,0,0,1-15,3.083V448.93a31.963,31.963,0,0,0,12.693-2.61Z" transform="translate(-184.524 -346.137)" fill="#b0b5ca"/>
    <path id="Trazado_822915" data-name="Trazado 822915" d="M450.94,256h5.8a37.793,37.793,0,0,1-2.681,14.018l-5.4-2.148-.025-.009A31.981,31.981,0,0,0,450.909,256Z" transform="translate(-347.321 -185.276)" fill="#ccd3df"/>
    <path id="Trazado_822916" data-name="Trazado 822916" d="M183.641,349.04v5.966h-2.628a2.983,2.983,0,0,1,0-5.966Z" transform="translate(-118.598 -263.915)" fill="#4ca987"/>
    <path id="Trazado_822917" data-name="Trazado 822917" d="M40.878,86.888l.015.015a32.115,32.115,0,0,0-7.131,10.826l-.015-.006-5.4-2.15,0,0A37.911,37.911,0,0,1,36.768,82.78Z" transform="translate(7.922 -38.868)" fill="#b0b5ca"/>
    <path id="Trazado_822918" data-name="Trazado 822918" d="M256,349.04h6.458v5.966H256Z" transform="translate(-184.499 -263.915)" fill="#4ca987"/>
    <path id="Trazado_822919" data-name="Trazado 822919" d="M97.8,409.636l-.012.029-2.147,5.394a37.936,37.936,0,0,1-12.789-8.425l4.1-4.1.025-.026A32.113,32.113,0,0,0,97.8,409.636Z" transform="translate(-38.15 -309.108)" fill="#b0b5ca"/>
    <path id="Trazado_822920" data-name="Trazado 822920" d="M36.38,337.99a32.111,32.111,0,0,0,6.787,9.987l-.025.026-4.1,4.1a37.939,37.939,0,0,1-8.023-11.8l5.337-2.3Z" transform="translate(5.657 -254.575)" fill="#ccd3df"/>
    <path id="Trazado_822921" data-name="Trazado 822921" d="M270.055,13.678l0,.009-2.15,5.4,0,.012a32,32,0,0,0-11.868-2.268V11a37.83,37.83,0,0,1,14.025,2.678Z" transform="translate(-184.524 21.801)" fill="#ccd3df"/>
    <path id="Trazado_822922" data-name="Trazado 822922" d="M454.9,174.063v.011h-5.836v-.011a31.944,31.944,0,0,0-2.607-12.683l.017-.008,5.342-2.3,0,0a37.777,37.777,0,0,1,3.082,14.993Z" transform="translate(-345.478 -103.35)" fill="#b0b5ca"/>
    <path id="Trazado_822923" data-name="Trazado 822923" d="M19.15,167.572l.015.006A31.973,31.973,0,0,0,16.9,179.43v.011H11.07v-.011a37.815,37.815,0,0,1,2.673-14.01l0,0Z" transform="translate(22.519 -108.717)" fill="#ccd3df"/>
    <path id="Trazado_822924" data-name="Trazado 822924" d="M409.717,332.629l5.4,2.148a37.935,37.935,0,0,1-8.43,12.785l-4.1-4.1-.026-.026a32.109,32.109,0,0,0,7.133-10.818Z" transform="translate(-308.374 -250.036)" fill="#b0b5ca"/>
    <path id="Trazado_822925" data-name="Trazado 822925" d="M179.488,450.853v5.8a37.821,37.821,0,0,1-14.018-2.675l2.147-5.394.012-.029a31.976,31.976,0,0,0,11.858,2.265Z" transform="translate(-107.982 -348.022)" fill="#ccd3df"/>
    <path id="Trazado_822926" data-name="Trazado 822926" d="M348.045,402.536l4.1,4.1a37.951,37.951,0,0,1-11.807,8.016l-2.3-5.331-.012-.029a32.109,32.109,0,0,0,9.988-6.781Z" transform="translate(-253.832 -309.108)" fill="#ccd3df"/>
    <path id="Trazado_822927" data-name="Trazado 822927" d="M414.766,94.589l0,0-5.342,2.3-.017.008A32.115,32.115,0,0,0,402.62,86.9l.017-.015,4.11-4.108A37.948,37.948,0,0,1,414.766,94.589Z" transform="translate(-308.424 -38.868)" fill="#ccd3df"/>
    <path id="Trazado_822928" data-name="Trazado 822928" d="M300.348,349.04a2.983,2.983,0,0,1,0,5.966H297.72V349.04Z" transform="translate(-219.761 -263.915)" fill="#5fcda4"/>
    <path id="Trazado_822929" data-name="Trazado 822929" d="M174.087,16.815v.019a31.993,31.993,0,0,0-12.7,2.611l0-.011-2.3-5.34,0-.008A37.783,37.783,0,0,1,174.087,11Z" transform="translate(-102.581 21.801)" fill="#b0b5ca"/>
    <path id="Trazado_822930" data-name="Trazado 822930" d="M96.9,36.288l0,.011a32.127,32.127,0,0,0-9.992,6.789l-.015-.015-4.11-4.108A37.918,37.918,0,0,1,94.6,30.94l0,.008Z" transform="translate(-38.1 4.947)" fill="#ccd3df"/>
    <path id="Trazado_822931" data-name="Trazado 822931" d="M231.689,235.869a4.076,4.076,0,1,1-2.029,3.526A4.076,4.076,0,0,1,231.689,235.869Z" transform="translate(-162.236 -167.795)" fill="#6d7486"/>
    <path id="Trazado_822932" data-name="Trazado 822932" d="M247.421,251.5a1.572,1.572,0,1,1-1.571,1.573A1.572,1.572,0,0,1,247.421,251.5Z" transform="translate(-175.92 -181.473)" fill="#4a5160"/>
    <g id="Grupo_1075224" data-name="Grupo 1075224" transform="translate(32.648 31.872)">
      <path id="Trazado_822933" data-name="Trazado 822933" d="M194.111,343.037H175.939a3.912,3.912,0,1,0,0,7.824h18.172a3.912,3.912,0,1,0,0-7.824ZM177.638,349h-1.7a2.054,2.054,0,1,1,0-4.109h1.7Zm6.458,0h-4.6v-4.109h4.6Zm6.458,0h-4.6v-4.109h4.6Zm3.557,0h-1.7v-4.109h1.7a2.054,2.054,0,0,1,0,4.109Z" transform="translate(-146.172 -290.713)" fill="#12263f"/>
      <path id="Trazado_822934" data-name="Trazado 822934" d="M242.346,245.5a2.5,2.5,0,1,0,2.5,2.5A2.5,2.5,0,0,0,242.346,245.5Zm0,3.143a.643.643,0,1,1,.643-.643.643.643,0,0,1-.643.643Z" transform="translate(-203.494 -208.274)" fill="#12263f"/>
      <path id="Trazado_822935" data-name="Trazado 822935" d="M230.321,121.787l-.777-2.3a.929.929,0,0,0-1.76,0l-.776,2.3a25.093,25.093,0,0,0-1.32,8.039v7.111a5.006,5.006,0,1,0,5.953,0v-7.111a25.1,25.1,0,0,0-1.323-8.045Zm-2.775,8.039a23.236,23.236,0,0,1,1.119-7.132,23.236,23.236,0,0,1,1.119,7.132v6.254a4.967,4.967,0,0,0-2.238,0Zm4.268,11.132a3.149,3.149,0,1,1-3.148-3.148A3.149,3.149,0,0,1,231.813,140.958Z" transform="translate(-189.812 -101.231)" fill="#12263f"/>
      <path id="Trazado_822936" data-name="Trazado 822936" d="M225.266,118.344c-.365.054-.733.119-1.1.193a.929.929,0,1,0,.369,1.82c.331-.067.668-.126,1-.176a.929.929,0,1,0-.274-1.837Z" transform="translate(-189.615 -100.791)" fill="#12263f"/>
      <path id="Trazado_822937" data-name="Trazado 822937" d="M131.2,128.007a.929.929,0,0,0-1.218-.491,21.513,21.513,0,0,0-13.109,19.825.929.929,0,0,0,1.857,0A19.658,19.658,0,0,1,130.7,129.225a.929.929,0,0,0,.491-1.218Z" transform="translate(-99.551 -108.489)" fill="#12263f"/>
      <path id="Trazado_822938" data-name="Trazado 822938" d="M120.45,87.221a.929.929,0,1,0,.757,1.7l1.844-.823a26.962,26.962,0,0,1,1.735,8.659h-2.356a.929.929,0,1,0,0,1.857h3.3a.929.929,0,0,0,.929-.929,29,29,0,0,0-57.994,0,.929.929,0,0,0,.929.929H72.9a.929.929,0,1,0,0-1.857H70.537a26.954,26.954,0,0,1,1.935-9.173l1.838.866a.929.929,0,1,0,.791-1.681l-1.877-.884a27.251,27.251,0,0,1,4.652-6.756l1.446,1.446a.929.929,0,0,0,1.313-1.314l-1.443-1.442a27.254,27.254,0,0,1,6.6-4.534l.829,1.857a.929.929,0,1,0,1.7-.757l-.829-1.857a26.969,26.969,0,0,1,9.242-1.961v2.028a.929.929,0,0,0,1.857,0V70.564a26.993,26.993,0,0,1,7.875,1.449l-.728,1.9a.929.929,0,1,0,1.735.664l.727-1.9a27.221,27.221,0,0,1,7.929,5.139l-1.443,1.442A.929.929,0,0,0,116,80.572l1.446-1.446a27.234,27.234,0,0,1,4.887,7.255Z" transform="translate(-58.808 -58.831)" fill="#12263f"/>
      <path id="Trazado_822939" data-name="Trazado 822939" d="M43.85,5A38.6,38.6,0,0,0,16.381,16.376q-1.289,1.289-2.441,2.675a.929.929,0,0,0,1.426,1.19q.8-.965,1.676-1.882l2.826,2.825a33.109,33.109,0,0,0-6.336,9.606L9.816,29.312A36.552,36.552,0,0,1,11.9,25.186a.927.927,0,0,0-.3-1.251h0a.929.929,0,0,0-1.3.313A38.861,38.861,0,1,0,43.85,5ZM58.393,9.816a36.892,36.892,0,0,1,10.953,7.229L66.52,19.87a33.123,33.123,0,0,0-9.606-6.339ZM44.779,6.868A36.94,36.94,0,0,1,56.666,9.13l-1.476,3.71a32.832,32.832,0,0,0-10.411-1.993Zm-1.857,0v3.979a32.811,32.811,0,0,0-11.276,2.326L30.064,9.5A36.9,36.9,0,0,1,42.921,6.868ZM18.354,17.045a36.938,36.938,0,0,1,10-6.807l1.583,3.673A33.138,33.138,0,0,0,21.18,19.87ZM9.129,31.038l3.712,1.476a32.82,32.82,0,0,0-1.989,10.408H6.872A36.932,36.932,0,0,1,9.13,31.038ZM6.873,44.78h3.98A32.8,32.8,0,0,0,13.18,56.049L9.509,57.63A36.879,36.879,0,0,1,6.873,44.78Zm3.372,14.556,3.674-1.582a33.136,33.136,0,0,0,5.958,8.755l-2.825,2.825a36.934,36.934,0,0,1-6.806-10Zm19.07,18.533a36.892,36.892,0,0,1-10.949-7.222l2.825-2.825a33.116,33.116,0,0,0,9.6,6.333Zm13.607,2.946a36.944,36.944,0,0,1-11.881-2.26l1.477-3.711a32.826,32.826,0,0,0,10.4,1.99Zm.929-5.823A31.15,31.15,0,1,1,75,43.841,31.187,31.187,0,0,1,43.85,74.991Zm.929,5.823v-3.98a32.815,32.815,0,0,0,11.269-2.322l1.581,3.67A36.891,36.891,0,0,1,44.779,80.814Zm14.556-3.366-1.582-3.673a33.138,33.138,0,0,0,8.757-5.953l2.825,2.825a36.936,36.936,0,0,1-10,6.8ZM70.65,69.334l-2.825-2.825a33.114,33.114,0,0,0,6.338-9.6l3.715,1.478a36.891,36.891,0,0,1-7.228,10.945Zm7.914-12.673-3.711-1.477a32.81,32.81,0,0,0,1.995-10.4h3.98a36.929,36.929,0,0,1-2.264,11.881Zm2.264-13.739h-3.98A32.8,32.8,0,0,0,74.526,31.65l3.67-1.581A36.884,36.884,0,0,1,80.828,42.922ZM73.789,29.945a33.13,33.13,0,0,0-5.956-8.761l2.825-2.825a36.932,36.932,0,0,1,6.8,10Z" transform="translate(-4.992 -4.999)" fill="#12263f"/>
    </g>
  </g>
</svg>
