<svg xmlns="http://www.w3.org/2000/svg" width="83.476" height="83.476" viewBox="0 0 83.476 83.476">
  <g id="Grupo_1076315" data-name="Grupo 1076315" transform="translate(-624.491 -458.394)">
    <g id="contrato_3_" data-name="contrato (3)" transform="translate(624.491 458.394)">
      <rect id="Rectángulo_374197" data-name="Rectángulo 374197" width="57.064" height="81.03" transform="translate(13.206 1.223)" fill="#e0f3fc"/>
      <rect id="Rectángulo_374198" data-name="Rectángulo 374198" width="4.891" height="81.03" transform="translate(65.379 1.223)" fill="#abbfcf"/>
      <rect id="Rectángulo_374199" data-name="Rectángulo 374199" width="57.064" height="8.478" transform="translate(13.206 1.223)" fill="#e53366"/>
      <rect id="Rectángulo_374200" data-name="Rectángulo 374200" width="4.891" height="8.478" transform="translate(65.379 1.223)" fill="#ce2960"/>
      <rect id="Rectángulo_374201" data-name="Rectángulo 374201" width="9.815" height="9.815" transform="translate(26.491 17.501)" fill="#fac55a"/>
      <path id="Trazado_815137" data-name="Trazado 815137" d="M27.369,232.144l7.615-9.757a2.446,2.446,0,0,0,.508-1.719l.732-7.892a2.527,2.527,0,0,0-.167-.708c-.67-1.692-1.231-8.374-1.576-9.565a2.27,2.27,0,0,0-2.065-.924,4.168,4.168,0,0,0-2.283,3.8l-.272,7.228c-1.739,3.043-4.507,1.168-4.47-.053v-20.1l-2.943,1.756-4.739,8.6-3.1,11.129a.652.652,0,0,0-.039.365l2.656,14.73-1.141,6.44,9.746,2.69Z" transform="translate(-12.186 -161.085)" fill="#ffc9bd"/>
      <path id="Trazado_815138" data-name="Trazado 815138" d="M68.828,259.352a2.521,2.521,0,0,0-.167-.708c-.67-1.692-1.231-8.374-1.576-9.565a2.385,2.385,0,0,0-1.84-.966,35.292,35.292,0,0,0,.32,7.33c.909,4.839-1.293,9.444-2.705,11.737l-7.615,9.756-1.731,6.458,4.92,1.358,1.539-6.032,7.615-9.757a2.446,2.446,0,0,0,.508-1.719Z" transform="translate(-44.789 -207.66)" fill="#ffb0a2"/>
      <path id="Trazado_815139" data-name="Trazado 815139" d="M373.412,232.144l-7.615-9.757a2.446,2.446,0,0,1-.508-1.719l-.732-7.892a2.53,2.53,0,0,1,.168-.708c.67-1.692,1.231-8.374,1.576-9.565a2.27,2.27,0,0,1,2.065-.924,4.168,4.168,0,0,1,2.283,3.8l.272,7.228c1.739,3.043,4.507,1.168,4.47-.053v-20.1l2.943,1.756,4.739,8.6,3.1,11.129a.653.653,0,0,1,.039.365l-2.656,14.73,1.141,6.44-9.746,2.69Z" transform="translate(-305.12 -161.085)" fill="#ffc9bd"/>
      <path id="Trazado_815140" data-name="Trazado 815140" d="M441.781,213.952l-3.1-11.129-4.739-8.6L431,192.464v5.291l2.637,4.787a2.763,2.763,0,0,1,.241.589l3.015,10.82a.653.653,0,0,1,.039.365l-2.564,14.215a2.644,2.644,0,0,0,.017,1.026l1.532,7.141,4.39-1.212-1.141-6.44,2.656-14.73A.65.65,0,0,0,441.781,213.952Z" transform="translate(-360.728 -161.085)" fill="#ffb0a2"/>
      <path id="Trazado_815141" data-name="Trazado 815141" d="M24.485,451.623v4.6a.652.652,0,0,1-.652.652H8.148a.652.652,0,0,1-.633-.812l2.02-7.973a.652.652,0,0,1,.787-.474l9.027,2.23,4.638,1.146A.652.652,0,0,1,24.485,451.623Z" transform="translate(-6.274 -374.62)" fill="#5a6570"/>
      <path id="Trazado_815142" data-name="Trazado 815142" d="M83.243,463.169v4.6a.652.652,0,0,1-.652.652H77.7a.736.736,0,0,0,.652-.8v-5.615a.87.87,0,0,0-.243-.616l4.638,1.146A.652.652,0,0,1,83.243,463.169Z" transform="translate(-65.032 -386.165)" fill="#4a535c"/>
      <path id="Trazado_815143" data-name="Trazado 815143" d="M400.8,450.991l13.665-3.375a.652.652,0,0,1,.789.473l2.019,7.973a.652.652,0,0,1-.632.812H400.956a.652.652,0,0,1-.652-.652v-4.6A.652.652,0,0,1,400.8,450.991Z" transform="translate(-335.039 -374.62)" fill="#5a6570"/>
      <path id="Trazado_815144" data-name="Trazado 815144" d="M469.563,456.062l-2.019-7.973a.652.652,0,0,0-.789-.473l-3.974.982,1.89,7.465a.652.652,0,0,1-.632.812h4.891A.652.652,0,0,0,469.563,456.062Z" transform="translate(-387.33 -374.621)" fill="#4a535c"/>
      <path id="Trazado_815145" data-name="Trazado 815145" d="M166.017,112.1a1.223,1.223,0,0,0,1.223-1.223v-9.814a1.223,1.223,0,0,0-1.223-1.223H156.2a1.223,1.223,0,0,0-1.223,1.223v9.814A1.223,1.223,0,0,0,156.2,112.1Zm-8.592-9.814h7.369v7.369h-7.369Z" transform="translate(-129.712 -83.565)"/>
      <path id="Trazado_815146" data-name="Trazado 815146" d="M125.5,196.217a1.223,1.223,0,0,0,1.223,1.223h40.107a1.223,1.223,0,0,0,0-2.446H126.727A1.223,1.223,0,0,0,125.5,196.217Z" transform="translate(-105.042 -163.202)"/>
      <path id="Trazado_815147" data-name="Trazado 815147" d="M126.727,228.5h40.107a1.223,1.223,0,0,0,0-2.446H126.727a1.223,1.223,0,1,0,0,2.446Z" transform="translate(-105.042 -189.197)"/>
      <path id="Trazado_815148" data-name="Trazado 815148" d="M144.443,416.294H126.727a1.223,1.223,0,1,0,0,2.446h17.716a1.223,1.223,0,1,0,0-2.446Z" transform="translate(-105.042 -348.422)"/>
      <path id="Trazado_815149" data-name="Trazado 815149" d="M144.443,446.5H126.727a1.223,1.223,0,1,0,0,2.446h17.716a1.223,1.223,0,1,0,0-2.446Z" transform="translate(-105.042 -373.703)"/>
      <circle id="Elipse_9130" data-name="Elipse 9130" cx="1.223" cy="1.223" r="1.223" transform="translate(5.231 77.201)"/>
      <path id="Trazado_815150" data-name="Trazado 815150" d="M81.6,83.476a1.875,1.875,0,0,0,1.818-2.335L81.4,73.168a1.873,1.873,0,0,0-1.016-1.233l-.7-3.972.377-2.094a1.223,1.223,0,0,0-2.407-.434l-.416,2.309a1.225,1.225,0,0,0,0,.431l.7,3.93L70.3,73.989l-.825-3.232a1.228,1.228,0,0,0-.221-.45L61.64,60.551a1.214,1.214,0,0,1-.254-.857,1.222,1.222,0,0,0,0-.222l-.72-7.765a1.269,1.269,0,0,1,.074-.272A36.413,36.413,0,0,0,61.891,44.9c.145-1.133.307-2.4.419-2.95a2.063,2.063,0,0,1,.6-.262,3.068,3.068,0,0,1,1.407,2.468,1.235,1.235,0,0,0-.008.192l.271,7.228a1.225,1.225,0,0,0,.16.561c1.034,1.809,2.652,2.607,4.328,2.134a3.237,3.237,0,0,0,2.421-2.656c0-.037.006-.074.006-.112V33.533l.809.483L76.812,42.2l3.051,10.951-1.273,7.064A1.223,1.223,0,0,0,81,60.652l1.3-7.214a1.89,1.89,0,0,0-.081-.95L79.129,41.41a1.216,1.216,0,0,0-.107-.262l-4.74-8.6a1.224,1.224,0,0,0-.444-.46l-2.347-1.4V1.223h0A1.223,1.223,0,0,0,70.269,0H13.206a1.223,1.223,0,0,0-1.223,1.223V12.33a1.223,1.223,0,0,0,2.446,0V10.924h48.2a1.223,1.223,0,0,0,0-2.446h-48.2V2.446H69.046V8.478h-1.2a1.223,1.223,0,1,0,0,2.446h1.2V51.447h0a1.138,1.138,0,0,1-.823.5,1.434,1.434,0,0,1-1.215-.788l-.255-6.821a5.417,5.417,0,0,0-3.046-4.977,2.936,2.936,0,0,0-2.244.262,2.619,2.619,0,0,0-1.458,1.455,7.723,7.723,0,0,0-.173.84H23.644a7.779,7.779,0,0,0-.173-.84,2.62,2.62,0,0,0-1.458-1.456,2.936,2.936,0,0,0-2.246-.261,5.417,5.417,0,0,0-3.045,4.976l-.255,6.821a1.43,1.43,0,0,1-1.215.788,1.138,1.138,0,0,1-.823-.5V17.608h0a1.223,1.223,0,0,0-2.446,0V30.684l-2.347,1.4a1.225,1.225,0,0,0-.444.46l-4.74,8.6a1.223,1.223,0,0,0-.107.262L1.26,52.488a1.9,1.9,0,0,0-.079.961L3.8,67.963l-.7,3.972a1.873,1.873,0,0,0-1.016,1.233L.058,81.141a1.875,1.875,0,0,0,1.818,2.335H81.6M67.17,71.61l.757,2.966-2.459.607A1.871,1.871,0,0,0,64.042,77V81.03H19.434V77a1.871,1.871,0,0,0-1.426-1.82l-2.459-.607.757-2.966,7.458-9.555a3.652,3.652,0,0,0,.769-2.457l.723-7.793a1.223,1.223,0,0,0,0-.22,3.741,3.741,0,0,0-.248-1.051,7.2,7.2,0,0,1-.285-1.105H58.751a7.19,7.19,0,0,1-.285,1.106,3.742,3.742,0,0,0-.248,1.05,1.223,1.223,0,0,0,0,.22l.723,7.793a3.652,3.652,0,0,0,.77,2.458ZM59.494,44.365l-.028.221c-.092.717-.2,1.563-.318,2.4H24.328c-.118-.834-.226-1.68-.318-2.4l-.028-.221ZM3.613,53.155,6.664,42.2l4.511-8.187.809-.483V51.5c0,.038,0,.075.006.112a3.236,3.236,0,0,0,2.421,2.656c1.675.472,3.294-.325,4.328-2.134a1.223,1.223,0,0,0,.16-.561l.271-7.228a1.216,1.216,0,0,0-.008-.192,3.068,3.068,0,0,1,1.407-2.468,2.063,2.063,0,0,1,.6.262c.112.551.274,1.817.419,2.95a36.433,36.433,0,0,0,1.151,6.537,1.29,1.29,0,0,1,.074.272l-.72,7.765a1.221,1.221,0,0,0,0,.222,1.214,1.214,0,0,1-.253.856L14.22,70.306a1.222,1.222,0,0,0-.221.45l-.825,3.232L5.547,72.1l.7-3.93a1.225,1.225,0,0,0,0-.431ZM13.206,81.03H2.609l1.7-6.712,9.44,2.332.008,0,.009,0,3.222.8v3.58Zm53.281,0h0V77.45h.006l12.674-3.131,1.7,6.712Z" transform="translate(0)"/>
      <circle id="Elipse_9131" data-name="Elipse 9131" cx="1.223" cy="1.223" r="1.223" transform="translate(75.8 77.201)"/>
    </g>
  </g>
</svg>
