<svg id="Grupo_1074504" data-name="Grupo 1074504" xmlns="http://www.w3.org/2000/svg" width="82" height="72" viewBox="0 0 82 72">
  <rect id="Rectángulo_374603" data-name="Rectángulo 374603" width="82" height="72" rx="6" fill="#fff"/>
  <g id="datos" transform="translate(11.393 6.393)">
    <g id="Grupo_1074524" data-name="Grupo 1074524" transform="translate(1.923 1.923)">
      <g id="Grupo_1074508" data-name="Grupo 1074508" transform="translate(38.758)">
        <path id="Trazado_821815" data-name="Trazado 821815" d="M55.074,2V20.456H44V2Z" transform="translate(-44 -2)" fill="#e6e9ed"/>
      </g>
      <g id="Grupo_1074509" data-name="Grupo 1074509" transform="translate(22.148)">
        <path id="Trazado_821816" data-name="Trazado 821816" d="M37.074,11.228v9.228H26V2H37.074Z" transform="translate(-26 -2)" fill="#e6e9ed"/>
      </g>
      <g id="Grupo_1074510" data-name="Grupo 1074510" transform="translate(5.537)">
        <path id="Trazado_821817" data-name="Trazado 821817" d="M19.074,11.228v9.228H8V2H19.074Z" transform="translate(-8 -2)" fill="#e6e9ed"/>
      </g>
      <g id="Grupo_1074511" data-name="Grupo 1074511" transform="translate(31.376 46.141)">
        <path id="Trazado_821818" data-name="Trazado 821818" d="M45.228,52.3V61.1C40.476,60.684,36,59.244,36,57.537V52h3.691v1.347A1.417,1.417,0,0,0,41.9,54.529Z" transform="translate(-36 -52)" fill="#fcd770"/>
      </g>
      <g id="Grupo_1074512" data-name="Grupo 1074512" transform="translate(31.376 29.53)">
        <path id="Trazado_821819" data-name="Trazado 821819" d="M45.228,37.562v9.053L41.9,44.391a1.417,1.417,0,0,0-2.206,1.181v1.347H36V34c0,1.707,4.476,3.147,9.228,3.562Z" transform="translate(-36 -34)" fill="#fcd770"/>
      </g>
      <g id="Grupo_1074513" data-name="Grupo 1074513" transform="translate(46.141 29.53)">
        <path id="Trazado_821820" data-name="Trazado 821820" d="M52,37.562V59.71c4.753-.415,9.228-1.855,9.228-3.562V34C61.228,35.707,56.753,37.147,52,37.562Z" transform="translate(-52 -34)" fill="#fcd770"/>
      </g>
      <g id="Grupo_1074514" data-name="Grupo 1074514" transform="translate(14.765 46.141)">
        <path id="Trazado_821821" data-name="Trazado 821821" d="M27.228,52v5.537c0,1.707-4.476,3.147-9.228,3.562V56.577l.221.1,2.612-2.612-.609-1.31c.037-.083.065-.175.1-.258l1.366-.5Z" transform="translate(-18 -52)" fill="#fcd770"/>
      </g>
      <g id="Grupo_1074515" data-name="Grupo 1074515" transform="translate(14.765 29.53)">
        <path id="Trazado_821822" data-name="Trazado 821822" d="M18,37.562c4.753-.415,9.228-1.855,9.228-3.562V46.919H21.691l-1.366-.5c-.037-.083-.065-.175-.1-.258l.609-1.31-2.612-2.612-.221.1Z" transform="translate(-18 -34)" fill="#fcd770"/>
      </g>
      <g id="Grupo_1074516" data-name="Grupo 1074516" transform="translate(0 29.53)">
        <path id="Trazado_821823" data-name="Trazado 821823" d="M2,34V56.148c0,1.707,4.476,3.147,9.228,3.562V37.562C6.476,37.147,2,35.707,2,34Z" transform="translate(-2 -34)" fill="#fcd770"/>
      </g>
      <g id="Grupo_1074517" data-name="Grupo 1074517" transform="translate(31.376 25.839)">
        <path id="Trazado_821824" data-name="Trazado 821824" d="M59.993,33.691c0,1.707-4.476,3.147-9.228,3.562-.923.083-1.855.129-2.768.129s-1.846-.046-2.768-.129C40.476,36.838,36,35.4,36,33.691,36,31.652,42.386,30,48,30c.3,0,.609.009.923.018C54.281,30.185,59.993,31.763,59.993,33.691Z" transform="translate(-36 -30)" fill="#ffeaa7"/>
      </g>
      <g id="Grupo_1074518" data-name="Grupo 1074518" transform="translate(40.604 33.092)">
        <path id="Trazado_821825" data-name="Trazado 821825" d="M51.537,54.471v5.537c-.923.083-1.855.129-2.768.129s-1.846-.046-2.768-.129V51.213l1.08-.72a1.719,1.719,0,0,0,0-2.861L46,46.913V37.86c.923.083,1.855.129,2.768.129s1.846-.046,2.768-.129V54.471Z" transform="translate(-46 -37.86)" fill="#ffeaa7"/>
      </g>
      <g id="Grupo_1074519" data-name="Grupo 1074519" transform="translate(18.456 39.681)">
        <path id="Trazado_821826" data-name="Trazado 821826" d="M45.227,48.184a1.719,1.719,0,0,1,0,2.861l-1.08.72-3.331,2.224a1.417,1.417,0,0,1-2.206-1.181V51.46H22V47.768H38.611V46.421a1.417,1.417,0,0,1,2.206-1.181l3.331,2.224Z" transform="translate(-22 -45)" fill="#ff826e"/>
      </g>
      <g id="Grupo_1074520" data-name="Grupo 1074520" transform="translate(9.228 50.211)">
        <path id="Trazado_821827" data-name="Trazado 821827" d="M17.537,56.918v4.522c-.923.083-1.855.129-2.768.129s-1.846-.046-2.768-.129V57.877h3.691l.5-1.366c.083-.037.175-.065.258-.1Z" transform="translate(-12 -56.41)" fill="#ffeaa7"/>
      </g>
      <g id="Grupo_1074521" data-name="Grupo 1074521" transform="translate(9.228 33.092)">
        <path id="Trazado_821828" data-name="Trazado 821828" d="M17.537,37.86v4.78l-1.089.508c-.083-.037-.175-.065-.258-.1l-.5-1.366H12V37.86c.923.083,1.855.129,2.768.129S16.614,37.943,17.537,37.86Z" transform="translate(-12 -37.86)" fill="#ffeaa7"/>
      </g>
      <g id="Grupo_1074522" data-name="Grupo 1074522" transform="translate(0 25.839)">
        <path id="Trazado_821829" data-name="Trazado 821829" d="M25.993,33.691c0,1.707-4.476,3.147-9.228,3.562-.923.083-1.855.129-2.768.129s-1.846-.046-2.768-.129C6.476,36.838,2,35.4,2,33.691c0-1.929,5.712-3.507,11.074-3.673.314-.009.618-.018.923-.018C19.607,30,25.993,31.652,25.993,33.691Z" transform="translate(-2 -30)" fill="#ffeaa7"/>
      </g>
      <g id="Grupo_1074523" data-name="Grupo 1074523" transform="translate(9.228 36.913)">
        <path id="Trazado_821830" data-name="Trazado 821830" d="M21.228,47.537v3.691l-1.366.5c-.037.083-.065.175-.1.258l.609,1.31-2.612,2.612-.221-.1L16.448,55.3c-.083.037-.175.065-.258.1l-.5,1.366H12v-4.18a3.7,3.7,0,1,0,0-6.4V42h3.691l.5,1.366c.083.037.175.065.258.1l1.089-.508.221-.1L20.37,45.47l-.609,1.31c.037.083.065.175.1.258Z" transform="translate(-12 -42)" fill="#b4dd7f"/>
      </g>
    </g>
    <g id="Grupo_1074525" data-name="Grupo 1074525" transform="translate(1 1)">
      <path id="Trazado_821831" data-name="Trazado 821831" d="M47.141,26.9V21.3h5.537V1H39.758v9.228H36.067V1H23.148v9.228H19.456V1H6.537V21.3h5.537v5.6C7.066,27.193,1,28.66,1,31.453V53.6c0,3.148,7.709,4.614,12.919,4.614S26.839,56.748,26.839,53.6V48.987h5.537V53.6c0,3.148,7.709,4.614,12.919,4.614S58.215,56.748,58.215,53.6V31.453C58.215,28.66,52.149,27.193,47.141,26.9Zm9.228,4.555c0,.826-4.676,2.768-11.074,2.768s-11.074-1.943-11.074-2.768S38.9,28.685,45.3,28.685,56.369,30.627,56.369,31.453ZM43.093,46.885l-4.412,2.942a.511.511,0,0,1-.768-.412V47.141H21.3V45.3H37.913V43.021a.509.509,0,0,1,.768-.411l4.412,2.942a.8.8,0,0,1,0,1.333Zm-25.482-7.8V35.848a20.652,20.652,0,0,0,7.383-1.993V43.45H20.543l-.46-.167.549-1.175Zm.8,10.851-1.7,1.7-1.106-.517-1,.411L14.2,52.678H12.074V50.729a4.614,4.614,0,1,0,0-9.021V39.758H14.2l.276.759.187.408.951.393,1.107-.517,1.7,1.7-.519,1.108.413.994,1.15.419v2.4l-.759.277-.413.2-.39.94Zm-4.493-13.87c.588,0,1.209-.021,1.846-.059v2.665l-.276-.76H12.074v-1.9C12.711,36.046,13.332,36.067,13.919,36.067Zm-1.846,7.562a2.77,2.77,0,1,1,0,5.178ZM39.7,41.074a2.339,2.339,0,0,0-3.637,1.946v.429H34.222v-9.6A20.652,20.652,0,0,0,41.6,35.848V42.34ZM41.6,2.846h9.228V19.456H41.6Zm-16.611,0h9.228V19.456H24.993Zm-16.611,0h9.228V19.456H8.383ZM13.919,21.3h5.537V12.074h3.691V21.3H36.067V12.074h3.691V21.3H45.3v5.537c-5.21,0-12.919,1.466-12.919,4.614v12H26.839v-12c0-3.148-7.709-4.614-12.919-4.614Zm0,7.383c6.4,0,11.074,1.943,11.074,2.768s-4.676,2.768-11.074,2.768S2.846,32.279,2.846,31.453,7.522,28.685,13.919,28.685ZM2.846,33.854a20.652,20.652,0,0,0,7.383,1.993v3.684c-4.874-.582-7.383-2.008-7.383-2.541Zm0,5.549a22.561,22.561,0,0,0,7.383,1.982v3.684c-4.874-.583-7.383-2.009-7.383-2.542Zm0,5.537a22.561,22.561,0,0,0,7.383,1.982v3.684c-4.874-.583-7.383-2.009-7.383-2.542Zm0,8.661V50.477a22.561,22.561,0,0,0,7.383,1.982v3.688C5.8,55.615,2.846,54.257,2.846,53.6Zm9.228,2.709V54.524h3.415l.276-.76V56.31c-.6.035-1.211.059-1.846.059s-1.248-.024-1.846-.059ZM24.993,53.6c0,.656-2.959,2.015-7.383,2.546v-2.8l3.021-3.021-.549-1.175.46-.167h4.451Zm9.228,0V48.987h1.846v.429A2.339,2.339,0,0,0,39.7,51.362L41.6,50.1v6.051C37.18,55.615,34.222,54.257,34.222,53.6ZM43.45,56.31V48.866l.667-.445a2.648,2.648,0,0,0,0-4.406l-.667-.444V36.009c.637.037,1.258.058,1.846.058s1.209-.021,1.846-.059v20.3c-.6.035-1.211.059-1.846.059S44.048,56.345,43.45,56.31Zm5.537-.163V52.458a22.54,22.54,0,0,0,7.383-1.981V53.6c0,.656-2.959,2.015-7.383,2.546Zm0-5.542V46.921a22.533,22.533,0,0,0,7.383-1.982v3.125c0,.533-2.508,1.961-7.383,2.541Zm0-5.537V41.384A22.533,22.533,0,0,0,56.369,39.4v3.125c0,.532-2.508,1.96-7.383,2.541Zm0-5.537V35.848a20.652,20.652,0,0,0,7.383-1.993V36.99C56.369,37.522,53.861,38.95,48.987,39.531Z" transform="translate(-1 -1)"/>
      <path id="Trazado_821832" data-name="Trazado 821832" d="M47,5h5.537V6.846H47Z" transform="translate(-4.55 -1.309)"/>
      <path id="Trazado_821833" data-name="Trazado 821833" d="M47,9h5.537v1.846H47Z" transform="translate(-4.55 -1.617)"/>
      <path id="Trazado_821834" data-name="Trazado 821834" d="M47,13h5.537v1.846H47Z" transform="translate(-4.55 -1.926)"/>
      <path id="Trazado_821835" data-name="Trazado 821835" d="M47,17h5.537v1.846H47Z" transform="translate(-4.55 -2.235)"/>
      <path id="Trazado_821836" data-name="Trazado 821836" d="M29,5h5.537V6.846H29Z" transform="translate(-3.161 -1.309)"/>
      <path id="Trazado_821837" data-name="Trazado 821837" d="M29,9h5.537v1.846H29Z" transform="translate(-3.161 -1.617)"/>
      <path id="Trazado_821838" data-name="Trazado 821838" d="M29,13h5.537v1.846H29Z" transform="translate(-3.161 -1.926)"/>
      <path id="Trazado_821839" data-name="Trazado 821839" d="M29,17h5.537v1.846H29Z" transform="translate(-3.161 -2.235)"/>
      <path id="Trazado_821840" data-name="Trazado 821840" d="M11,5h5.537V6.846H11Z" transform="translate(-1.772 -1.309)"/>
      <path id="Trazado_821841" data-name="Trazado 821841" d="M11,9h5.537v1.846H11Z" transform="translate(-1.772 -1.617)"/>
      <path id="Trazado_821842" data-name="Trazado 821842" d="M11,13h5.537v1.846H11Z" transform="translate(-1.772 -1.926)"/>
      <path id="Trazado_821843" data-name="Trazado 821843" d="M11,17h5.537v1.846H11Z" transform="translate(-1.772 -2.235)"/>
    </g>
  </g>
</svg>
