<svg id="Grupo_1074507" data-name="Grupo 1074507" xmlns="http://www.w3.org/2000/svg" width="82" height="72" viewBox="0 0 82 72">
  <rect id="Rectángulo_374603" data-name="Rectángulo 374603" width="82" height="72" rx="6" fill="#fff"/>
  <g id="carpeta" transform="translate(0.615 10.021)">
    <path id="Trazado_821879" data-name="Trazado 821879" d="M132.168,251.237H118.2a1.627,1.627,0,0,1-1.15-.477l-2.063-2.063a2.44,2.44,0,0,0-1.726-.715h-7.124a2.441,2.441,0,0,0-2.441,2.441v21.152a2.441,2.441,0,0,0,2.441,2.441h26.033a2.441,2.441,0,0,0,2.441-2.441v-17.9A2.441,2.441,0,0,0,132.168,251.237Z" transform="translate(-78.766 -222.816)" fill="#ffe09f"/>
    <path id="Trazado_821880" data-name="Trazado 821880" d="M134.459,271.576H110.2a4.072,4.072,0,0,1-4.068-4.068V247.984a2.441,2.441,0,0,0-2.441,2.441v21.152a2.441,2.441,0,0,0,2.441,2.441h26.033a2.441,2.441,0,0,0,2.441-2.441h-.149Z" transform="translate(-78.766 -222.817)" fill="#f6d190"/>
    <path id="Trazado_821881" data-name="Trazado 821881" d="M138.536,329.969l5.6-16.785a.814.814,0,0,0-.772-1.071H115.333a2.441,2.441,0,0,0-2.315,1.669L107.446,330.5a2.433,2.433,0,0,0,2.06,1.142H136.22A2.441,2.441,0,0,0,138.536,329.969Z" transform="translate(-82.137 -280.438)" fill="#ecbd83"/>
    <path id="Trazado_821882" data-name="Trazado 821882" d="M30.854,7.5H24.346a.814.814,0,0,0-.814.814V21.33a.814.814,0,0,0,.814.814h9.762a.814.814,0,0,0,.814-.814V11.568Z" transform="translate(-6.739 -6.739)" fill="#eceaec"/>
    <circle id="Elipse_10491" data-name="Elipse 10491" cx="1.627" cy="1.627" r="1.627" transform="translate(38.758 18.659)" fill="#b6b1b7"/>
    <path id="Trazado_821883" data-name="Trazado 821883" d="M25.973,17.262V7.5H24.346a.814.814,0,0,0-.814.814V21.33a.814.814,0,0,0,.814.814h9.762a.814.814,0,0,0,.814-.814V19.7H28.413a2.441,2.441,0,0,1-2.441-2.441Z" transform="translate(-6.739 -6.739)" fill="#dad8db"/>
    <path id="Trazado_821884" data-name="Trazado 821884" d="M95.677,10.754a.814.814,0,0,0,.814.814h3.254L95.677,7.5Z" transform="translate(-71.562 -6.739)" fill="#dad8db"/>
    <path id="Trazado_821885" data-name="Trazado 821885" d="M113.573,437.236a4.072,4.072,0,0,1-4.068-4.068v-.814l-2.06,6.179a2.433,2.433,0,0,0,2.06,1.142h26.714a2.441,2.441,0,0,0,2.315-1.669l.257-.772Z" transform="translate(-82.136 -388.477)" fill="#e2a975"/>
    <path id="Trazado_821886" data-name="Trazado 821886" d="M207.209,7.5H200.7a.814.814,0,0,0-.814.814V21.33a.814.814,0,0,0,.814.814h9.762a.814.814,0,0,0,.814-.814V11.568Z" transform="translate(-165.196 -6.739)" fill="#eceaec"/>
    <path id="Trazado_821887" data-name="Trazado 821887" d="M202.328,17.262V7.5H200.7a.814.814,0,0,0-.814.814V21.33a.814.814,0,0,0,.814.814h9.762a.814.814,0,0,0,.813-.814V19.7h-6.508A2.441,2.441,0,0,1,202.328,17.262Z" transform="translate(-165.196 -6.739)" fill="#dad8db"/>
    <path id="Trazado_821888" data-name="Trazado 821888" d="M272.032,10.754a.814.814,0,0,0,.814.814H276.1L272.032,7.5Z" transform="translate(-230.02 -6.739)" fill="#dad8db"/>
    <path id="Trazado_821889" data-name="Trazado 821889" d="M383.564,7.5h-6.508a.814.814,0,0,0-.814.814V21.33a.814.814,0,0,0,.814.814h9.762a.814.814,0,0,0,.814-.814V11.568Z" transform="translate(-323.654 -6.739)" fill="#eceaec"/>
    <path id="Trazado_821890" data-name="Trazado 821890" d="M378.683,17.262V7.5h-1.627a.814.814,0,0,0-.814.814V21.33a.814.814,0,0,0,.814.814h9.762a.814.814,0,0,0,.814-.814V19.7h-6.508A2.441,2.441,0,0,1,378.683,17.262Z" transform="translate(-323.654 -6.739)" fill="#dad8db"/>
    <path id="Trazado_821891" data-name="Trazado 821891" d="M448.387,10.754a.813.813,0,0,0,.813.814h3.254L448.387,7.5Z" transform="translate(-388.477 -6.739)" fill="#dad8db"/>
    <path id="Trazado_821892" data-name="Trazado 821892" d="M319.085,456.919H313.39a.761.761,0,0,0,0,1.522h5.695a.761.761,0,1,0,0-1.522Z" transform="translate(-266.497 -410.548)"/>
    <path id="Trazado_821893" data-name="Trazado 821893" d="M335.117,424.854h-5.695a.761.761,0,1,0,0,1.522h5.695a.761.761,0,1,0,0-1.522Z" transform="translate(-280.901 -381.737)"/>
    <path id="Trazado_821894" data-name="Trazado 821894" d="M48.858,73.667h4.068a.761.761,0,1,0,0-1.522H48.858a.761.761,0,1,0,0,1.522Z" transform="translate(-28.811 -64.823)"/>
    <path id="Trazado_821895" data-name="Trazado 821895" d="M53.687,104.97a.761.761,0,0,0-.761-.761H48.858a.761.761,0,1,0,0,1.522h4.068A.761.761,0,0,0,53.687,104.97Z" transform="translate(-28.811 -93.633)"/>
    <path id="Trazado_821896" data-name="Trazado 821896" d="M225.213,73.667h4.068a.761.761,0,0,0,0-1.522h-4.068a.761.761,0,1,0,0,1.522Z" transform="translate(-187.268 -64.823)"/>
    <path id="Trazado_821897" data-name="Trazado 821897" d="M230.041,104.97a.761.761,0,0,0-.761-.761h-4.068a.761.761,0,1,0,0,1.522h4.068A.761.761,0,0,0,230.041,104.97Z" transform="translate(-187.267 -93.633)"/>
    <path id="Trazado_821898" data-name="Trazado 821898" d="M64.516,4.291,60.448.223A.761.761,0,0,0,59.91,0H53.4a1.576,1.576,0,0,0-1.575,1.575V14.591A1.576,1.576,0,0,0,53.4,16.166h4.12v2.493a.867.867,0,0,1-.866.866H42.649a2.4,2.4,0,0,0-1.5-1.5V16.166h4.12a1.576,1.576,0,0,0,1.575-1.575V4.829a.761.761,0,0,0-.223-.538L42.551.223A.761.761,0,0,0,42.012,0H35.5A1.576,1.576,0,0,0,33.93,1.575V14.591A1.576,1.576,0,0,0,35.5,16.166h4.12v1.857a2.4,2.4,0,0,0-1.5,1.5H24.115a.867.867,0,0,1-.866-.866V16.166h4.12a1.576,1.576,0,0,0,1.575-1.575V4.829a.761.761,0,0,0-.223-.538L24.653.223A.761.761,0,0,0,24.115,0H17.607a1.576,1.576,0,0,0-1.575,1.575V14.591a1.576,1.576,0,0,0,1.575,1.575h4.12v2.493a2.391,2.391,0,0,0,2.388,2.388H38.122a2.4,2.4,0,0,0,1.5,1.5v5.1a1.665,1.665,0,0,1-1.042-.485l-1.825-1.824a3.181,3.181,0,0,0-2.264-.938H27.369a3.205,3.205,0,0,0-3.2,3.2V48.759a3.205,3.205,0,0,0,3.2,3.2H54.083a3.2,3.2,0,0,0,3.037-2.189l5.6-16.785a1.575,1.575,0,0,0-1.494-2.073H56.6v-.052a3.205,3.205,0,0,0-3.2-3.2H43.639a.761.761,0,0,0,0,1.522H53.4a1.681,1.681,0,0,1,1.679,1.679v.052H41.147V22.549a2.4,2.4,0,0,0,1.5-1.5H56.656a2.391,2.391,0,0,0,2.388-2.388V16.166h4.12a1.576,1.576,0,0,0,1.575-1.575V4.829a.761.761,0,0,0-.223-.538ZM42.774,2.6l1.469,1.469H42.826a.052.052,0,0,1-.052-.052ZM35.452,14.591V1.575a.052.052,0,0,1,.052-.052h5.747V4.015A1.576,1.576,0,0,0,42.826,5.59h2.493v9a.052.052,0,0,1-.052.052H35.5a.052.052,0,0,1-.052-.052ZM24.876,2.6l1.469,1.469H24.928a.052.052,0,0,1-.052-.052ZM17.554,14.591V1.575a.052.052,0,0,1,.052-.052h5.747V4.015A1.576,1.576,0,0,0,24.928,5.59h2.493v9a.052.052,0,0,1-.052.052H17.607A.052.052,0,0,1,17.554,14.591ZM40.385,19.42a.867.867,0,0,1,.866.864h0a.866.866,0,1,1-.866-.867ZM61.264,32.458a.048.048,0,0,1,.007.047l-5.6,16.785a1.677,1.677,0,0,1-1.593,1.148H27.369a1.673,1.673,0,0,1-1.211-.519L31.6,33.585A1.677,1.677,0,0,1,33.2,32.436H61.222a.048.048,0,0,1,.042.022ZM33.2,30.914A3.2,3.2,0,0,0,30.158,33.1L25.69,46.509v-18.9a1.681,1.681,0,0,1,1.679-1.679h7.124a1.668,1.668,0,0,1,1.187.492l1.824,1.824a3.178,3.178,0,0,0,2.119.934v1.735ZM60.671,2.6,62.14,4.068H60.724a.052.052,0,0,1-.052-.052Zm2.493,12.045H53.4a.052.052,0,0,1-.052-.052V1.575a.052.052,0,0,1,.052-.052h5.747V4.015A1.576,1.576,0,0,0,60.724,5.59h2.493v9a.053.053,0,0,1-.052.052Z" transform="translate(0 0)"/>
    <path id="Trazado_821899" data-name="Trazado 821899" d="M405.635,72.145h-4.068a.761.761,0,1,0,0,1.522h4.068a.761.761,0,0,0,0-1.522Z" transform="translate(-345.725 -64.823)"/>
    <path id="Trazado_821900" data-name="Trazado 821900" d="M405.635,104.209h-4.068a.761.761,0,1,0,0,1.522h4.068a.761.761,0,0,0,0-1.522Z" transform="translate(-345.725 -93.633)"/>
  </g>
</svg>
