<svg id="Grupo_1074505" data-name="Grupo 1074505" xmlns="http://www.w3.org/2000/svg" width="82" height="72" viewBox="0 0 82 72">
  <rect id="Rectángulo_374603" data-name="Rectángulo 374603" width="82" height="72" rx="6" fill="#fff"/>
  <g id="database" transform="translate(14.299 7.299)">
    <path id="Trazado_821844" data-name="Trazado 821844" d="M35.042,28v8.9c0,2.457-7.174,4.45-16.021,4.45S3,39.357,3,36.9V28c0,2.457,7.174,4.45,16.021,4.45S35.042,30.457,35.042,28Z" transform="translate(-0.11 -2.859)" fill="#c0ab91"/>
    <path id="Trazado_821845" data-name="Trazado 821845" d="M58.581,28.461V33.8l-4.059.676A11.647,11.647,0,0,1,53.65,36.6l2.385,3.347-3.774,3.774L49.422,41.7a1.793,1.793,0,0,0,1.148-1.664v-7.12a1.753,1.753,0,0,0-.1-.579,7.635,7.635,0,0,0,.1-1.2A7.12,7.12,0,0,0,39,25.577V20.45a11.578,11.578,0,0,1,1.1-.392L40.78,16h5.34l.676,4.059a11.647,11.647,0,0,1,2.118.872l3.347-2.385,3.774,3.774L53.65,25.666a11.647,11.647,0,0,1,.872,2.118Z" transform="translate(-4.068 -1.539)" fill="#ffeb99"/>
    <rect id="Rectángulo_376386" data-name="Rectángulo 376386" width="35.971" height="10.58" rx="2" transform="translate(10.716 43.513)" fill="#57a4ff"/>
    <path id="Trazado_821846" data-name="Trazado 821846" d="M51.34,50.78V57.9a1.785,1.785,0,0,1-1.78,1.78H46a1.785,1.785,0,0,0,1.78-1.78V50.78A1.785,1.785,0,0,0,46,49h3.56A1.785,1.785,0,0,1,51.34,50.78Z" transform="translate(-4.838 -5.168)" fill="#2488ff"/>
    <path id="Trazado_821847" data-name="Trazado 821847" d="M50.571,32.121a7.636,7.636,0,0,1-.1,1.2,1.792,1.792,0,0,0-1.682-1.2H39V26.567a7.12,7.12,0,0,1,11.571,5.554Z" transform="translate(-4.068 -2.529)" fill="#c6c5ca"/>
    <path id="Trazado_821848" data-name="Trazado 821848" d="M50.9,32.12a7.636,7.636,0,0,1-.1,1.2,1.792,1.792,0,0,0-1.682-1.2h-1.78a7.136,7.136,0,0,0-5.322-6.9,7.12,7.12,0,0,1,8.883,6.9Z" transform="translate(-4.4 -2.529)" fill="#acabb1"/>
    <path id="Trazado_821849" data-name="Trazado 821849" d="M42,45h5.34v3.56H42Z" transform="translate(-4.398 -4.728)" fill="#c6c5ca"/>
    <path id="Trazado_821850" data-name="Trazado 821850" d="M35.042,18v8.9c0,2.457-7.174,4.45-16.021,4.45S3,29.357,3,26.9V18c0,2.457,7.174,4.45,16.021,4.45S35.042,20.457,35.042,18Z" transform="translate(-0.11 -1.759)" fill="#c0ab91"/>
    <path id="Trazado_821851" data-name="Trazado 821851" d="M35.042,8v8.9c0,2.457-7.174,4.45-16.021,4.45S3,19.357,3,16.9V8c0,2.457,7.174,4.45,16.021,4.45S35.042,10.457,35.042,8Z" transform="translate(-0.11 -0.66)" fill="#c0ab91"/>
    <ellipse id="Elipse_10490" data-name="Elipse 10490" cx="15.87" cy="4.232" rx="15.87" ry="4.232" transform="translate(3.31 3.31)" fill="#ffcd00"/>
    <g id="Grupo_1074526" data-name="Grupo 1074526" transform="translate(17.131 7.34)">
      <path id="Trazado_821852" data-name="Trazado 821852" d="M36.8,28v8.9c0,2.457-7.174,4.45-16.021,4.45-.605,0-1.193-.009-1.78-.036,8.01-.24,14.241-2.127,14.241-4.415V30.795C35.466,30.029,36.8,29.059,36.8,28Z" transform="translate(-19 -10.199)" fill="#b39a7c"/>
      <path id="Trazado_821853" data-name="Trazado 821853" d="M38.56,18v8.9c0,1.059-1.335,2.029-3.56,2.795v-8.9C37.225,20.029,38.56,19.059,38.56,18Z" transform="translate(-20.759 -9.1)" fill="#b39a7c"/>
      <path id="Trazado_821854" data-name="Trazado 821854" d="M38.56,8v8.9c0,1.059-1.335,2.029-3.56,2.795v-8.9c2.225-.765,3.56-1.736,3.56-2.795Z" transform="translate(-20.759 -8)" fill="#b39a7c"/>
    </g>
    <path id="Trazado_821855" data-name="Trazado 821855" d="M36.8,7.45c0,2.457-7.174,4.45-16.021,4.45-.605,0-1.193-.009-1.78-.036,8.01-.24,14.241-2.127,14.241-4.415S27.01,3.276,19,3.036C19.587,3.009,20.175,3,20.78,3,29.627,3,36.8,4.994,36.8,7.45Z" transform="translate(-1.869 -0.11)" fill="#ebbf00"/>
    <path id="Trazado_821856" data-name="Trazado 821856" d="M24,53h3.56v3.56H24Z" transform="translate(-2.419 -5.608)" fill="#ffeb99"/>
    <rect id="Rectángulo_376387" data-name="Rectángulo 376387" width="35.971" height="10.58" rx="2" transform="translate(10.716 29.759)" fill="#57a4ff"/>
    <path id="Trazado_821857" data-name="Trazado 821857" d="M51.34,34.78V41.9a1.785,1.785,0,0,1-1.78,1.78H46a1.785,1.785,0,0,0,1.78-1.78V34.78A1.785,1.785,0,0,0,46,33h3.56A1.785,1.785,0,0,1,51.34,34.78Z" transform="translate(-4.838 -3.409)" fill="#2488ff"/>
    <path id="Trazado_821858" data-name="Trazado 821858" d="M24,37h3.56v3.56H24Z" transform="translate(-2.419 -3.848)" fill="#ffeb99"/>
    <path id="Trazado_821859" data-name="Trazado 821859" d="M16,45h5.34v3.56H16Z" transform="translate(-1.539 -4.728)" fill="#c6c5ca"/>
    <path id="Trazado_821860" data-name="Trazado 821860" d="M16,53h3.56v3.56H16Z" transform="translate(-1.539 -5.608)" fill="#ffeb99"/>
    <path id="Trazado_821861" data-name="Trazado 821861" d="M16,37h3.56v3.56H16Z" transform="translate(-1.539 -3.848)" fill="#ffeb99"/>
    <path id="Trazado_821862" data-name="Trazado 821862" d="M19.45,36H15.89a.89.89,0,0,0-.89.89v3.56a.89.89,0,0,0,.89.89h3.56a.89.89,0,0,0,.89-.89V36.89A.89.89,0,0,0,19.45,36Zm-.89,3.56H16.78V37.78h1.78Z" transform="translate(-1.429 -3.738)"/>
    <path id="Trazado_821863" data-name="Trazado 821863" d="M27.45,36H23.89a.89.89,0,0,0-.89.89v3.56a.89.89,0,0,0,.89.89h3.56a.89.89,0,0,0,.89-.89V36.89A.89.89,0,0,0,27.45,36Zm-.89,3.56H24.78V37.78h1.78Z" transform="translate(-2.309 -3.738)"/>
    <path id="Trazado_821864" data-name="Trazado 821864" d="M31,36H43.461v1.78H31Z" transform="translate(-3.189 -3.738)"/>
    <path id="Trazado_821865" data-name="Trazado 821865" d="M47,36h1.78v1.78H47Z" transform="translate(-4.948 -3.738)"/>
    <path id="Trazado_821866" data-name="Trazado 821866" d="M31,40H43.461v1.78H31Z" transform="translate(-3.189 -4.178)"/>
    <path id="Trazado_821867" data-name="Trazado 821867" d="M47,40h1.78v1.78H47Z" transform="translate(-4.948 -4.178)"/>
    <path id="Trazado_821868" data-name="Trazado 821868" d="M15.89,57.34h3.56a.89.89,0,0,0,.89-.89V52.89a.89.89,0,0,0-.89-.89H15.89a.89.89,0,0,0-.89.89v3.56A.89.89,0,0,0,15.89,57.34Zm.89-3.56h1.78v1.78H16.78Z" transform="translate(-1.429 -5.498)"/>
    <path id="Trazado_821869" data-name="Trazado 821869" d="M23.89,57.34h3.56a.89.89,0,0,0,.89-.89V52.89a.89.89,0,0,0-.89-.89H23.89a.89.89,0,0,0-.89.89v3.56A.89.89,0,0,0,23.89,57.34Zm.89-3.56h1.78v1.78H24.78Z" transform="translate(-2.309 -5.498)"/>
    <path id="Trazado_821870" data-name="Trazado 821870" d="M31,52H43.461v1.78H31Z" transform="translate(-3.189 -5.498)"/>
    <path id="Trazado_821871" data-name="Trazado 821871" d="M47,52h1.78v1.78H47Z" transform="translate(-4.948 -5.498)"/>
    <path id="Trazado_821872" data-name="Trazado 821872" d="M31,56H43.461v1.78H31Z" transform="translate(-3.189 -5.937)"/>
    <path id="Trazado_821873" data-name="Trazado 821873" d="M47,56h1.78v1.78H47Z" transform="translate(-4.948 -5.937)"/>
    <path id="Trazado_821874" data-name="Trazado 821874" d="M54.655,26.04l-3.525-.587a10.192,10.192,0,0,0-.516-1.246l2.074-2.91a.89.89,0,0,0-.089-1.148l-3.774-3.774a.89.89,0,0,0-1.148-.089l-2.91,2.074a12.662,12.662,0,0,0-1.246-.516l-.587-3.525a.89.89,0,0,0-.881-.748h-5.34a.89.89,0,0,0-.881.748l-.009.071V7.34C35.822,3.833,27.313,2,18.911,2S2,3.833,2,7.34v26.7c0,2.7,4.735,4.014,8.028,4.61a2.662,2.662,0,0,0,2.652,2.51h.89v1.78h-.89a2.678,2.678,0,0,0-2.67,2.67v7.12a2.678,2.678,0,0,0,2.67,2.67H44.722a2.678,2.678,0,0,0,2.67-2.67v-7.12a2.678,2.678,0,0,0-2.67-2.67h-.89v-1.78h.89a2.434,2.434,0,0,0,.445-.044l2.51,1.789a.927.927,0,0,0,.516.16.911.911,0,0,0,.632-.258L52.6,39.035a.89.89,0,0,0,.089-1.148l-2.074-2.91a10.191,10.191,0,0,0,.516-1.246l3.525-.587a.89.89,0,0,0,.748-.881v-5.34a.89.89,0,0,0-.748-.881ZM35.822,24.509a6.194,6.194,0,0,1,9.746,4.343,2.681,2.681,0,0,0-.846-.151h-8.9ZM18.911,3.78c9.791,0,15.131,2.35,15.131,3.56S28.7,10.9,18.911,10.9,3.78,8.551,3.78,7.34,9.12,3.78,18.911,3.78ZM3.78,9.85c2.928,1.86,9.043,2.83,15.131,2.83s12.2-.97,15.131-2.83v6.391c0,1.21-5.34,3.56-15.131,3.56S3.78,17.451,3.78,16.241Zm6.23,21.521v5.465c-4.513-.854-6.23-2.145-6.23-2.795V27.651a19.12,19.12,0,0,0,6.729,2.172,2.657,2.657,0,0,0-.5,1.549Zm-6.23-6.23V18.751c2.928,1.86,9.043,2.83,15.131,2.83s12.2-.97,15.131-2.83v6.391c0,1.21-5.34,3.56-15.131,3.56S3.78,26.352,3.78,25.141Zm30.262,2.51V28.7H31.834a11.1,11.1,0,0,0,2.207-1.05ZM44.722,44.722a.89.89,0,0,1,.89.89v7.12a.89.89,0,0,1-.89.89H12.681a.89.89,0,0,1-.89-.89v-7.12a.89.89,0,0,1,.89-.89Zm-29.372-1.78v-1.78h3.56v1.78Zm5.34,0v-1.78H36.712v1.78Zm17.8,0v-1.78h3.56v1.78Zm7.12-4.45a.89.89,0,0,1-.89.89H12.681a.89.89,0,0,1-.89-.89v-7.12a.89.89,0,0,1,.89-.89H44.722a.89.89,0,0,1,.89.89Zm8.01-6.987-3.311.552a.912.912,0,0,0-.712.623,10.511,10.511,0,0,1-.8,1.958.869.869,0,0,0,.062.935l1.94,2.732L48.1,41.011l-1.264-.9a2.645,2.645,0,0,0,.561-1.62v-7.12a2.531,2.531,0,0,0-.089-.641,8.293,8.293,0,0,0,.089-1.139,7.993,7.993,0,0,0-11.571-7.165V19.543a4.386,4.386,0,0,1,.481-.169.915.915,0,0,0,.614-.712l.552-3.311H41.3l.552,3.311a.912.912,0,0,0,.623.712,10.77,10.77,0,0,1,1.958.8.89.89,0,0,0,.935-.062l2.732-1.94L50.8,20.878l-1.94,2.732a.869.869,0,0,0-.062.935,10.512,10.512,0,0,1,.8,1.958.912.912,0,0,0,.712.623l3.311.552Z" transform="translate(0)"/>
    <path id="Trazado_821875" data-name="Trazado 821875" d="M5.78,48H4v7.12a.89.89,0,0,0,.89.89H8.45V54.23H5.78Z" transform="translate(-0.22 -5.058)"/>
    <path id="Trazado_821876" data-name="Trazado 821876" d="M59.241,4H45V5.78H58.351v8.532l-2.409,2.409L57.2,17.98l2.67-2.67a.89.89,0,0,0,.261-.629V4.89A.89.89,0,0,0,59.241,4Z" transform="translate(-4.728 -0.22)"/>
    <path id="Trazado_821877" data-name="Trazado 821877" d="M41,4h1.78V5.78H41Z" transform="translate(-4.288 -0.22)"/>
    <path id="Trazado_821878" data-name="Trazado 821878" d="M4,44H5.78v1.78H4Z" transform="translate(-0.22 -4.618)"/>
  </g>
</svg>
