<svg xmlns="http://www.w3.org/2000/svg" width="82" height="72" viewBox="0 0 82 72">
  <g id="Grupo_1076241" data-name="Grupo 1076241" transform="translate(-521 -4433)">
    <rect id="Rectángulo_374603" data-name="Rectángulo 374603" width="82" height="72" rx="6" transform="translate(521 4433)" fill="#fff"/>
    <g id="escalabilidad-vertical_1_" data-name="escalabilidad-vertical (1)" transform="translate(539.536 4437.542)">
      <path id="Trazado_820687" data-name="Trazado 820687" d="M78.631,126.309v-4.85a2.714,2.714,0,0,0-2.714-2.714H37.59a2.714,2.714,0,0,0-2.714,2.714v4.85a2.714,2.714,0,0,0,2.714,2.714,2.714,2.714,0,0,0-2.714,2.714v4.85A2.714,2.714,0,0,0,37.59,139.3a2.714,2.714,0,0,0-2.714,2.714v4.85a2.714,2.714,0,0,0,2.714,2.714H75.918a2.714,2.714,0,0,0,2.714-2.714v-4.85a2.714,2.714,0,0,0-2.714-2.714,2.714,2.714,0,0,0,2.714-2.714v-4.85a2.714,2.714,0,0,0-2.714-2.714A2.714,2.714,0,0,0,78.631,126.309Z" transform="translate(-34.29 -91.675)" fill="#4da5d1"/>
      <path id="Trazado_820688" data-name="Trazado 820688" d="M99.759,18.893H93.832l-6.491-6.75-6.491,6.75H74.92L87.341,5.981Z" transform="translate(-64.926 -5.403)" fill="#a0e557"/>
      <path id="Trazado_820689" data-name="Trazado 820689" d="M107.987,31.233h-2.281l-6.491-6.75-6.491,6.75H90.44l8.775-9.122Z" transform="translate(-76.8 -17.743)" fill="#4aa525"/>
      <path id="Trazado_820690" data-name="Trazado 820690" d="M99.762,45.123H92.981v7.415l-11.278,0,0-7.418H74.924l5.929-6.163,6.491-6.749,6.491,6.749Z" transform="translate(-64.929 -25.47)" fill="#a0e557"/>
      <path id="Trazado_820691" data-name="Trazado 820691" d="M138.587,92.324a.588.588,0,0,1-.587-.587V88.918a.587.587,0,1,1,1.175,0v2.819A.588.588,0,0,1,138.587,92.324Zm0-5.169a.587.587,0,1,1,.587-.587A.588.588,0,0,1,138.587,87.156Z" transform="translate(-113.186 -66.608)" fill="#c3f88b"/>
      <g id="Grupo_1074223" data-name="Grupo 1074223" transform="translate(7.545 30.065)">
        <circle id="Elipse_9270" data-name="Elipse 9270" cx="2.144" cy="2.144" r="2.144" transform="translate(0 0)" fill="#f2e1d6"/>
        <circle id="Elipse_9271" data-name="Elipse 9271" cx="2.144" cy="2.144" r="2.144" transform="translate(0 20.554)" fill="#f2e1d6"/>
        <circle id="Elipse_9272" data-name="Elipse 9272" cx="2.144" cy="2.144" r="2.144" transform="translate(0 10.277)" fill="#f2e1d6"/>
      </g>
      <path id="Trazado_820692" data-name="Trazado 820692" d="M144.536,23.482a.587.587,0,1,0,.832.017A.6.6,0,0,0,144.536,23.482Z" transform="translate(-118.05 -18.67)"/>
      <path id="Trazado_820693" data-name="Trazado 820693" d="M110.967,138.118H100.4a.587.587,0,1,0,0,1.175h10.569a.587.587,0,1,0,0-1.175Z" transform="translate(-83.969 -106.496)"/>
      <path id="Trazado_820694" data-name="Trazado 820694" d="M163.363,132.646h-.322a.587.587,0,0,0,0,1.175h.322a.587.587,0,0,0,0-1.175Z" transform="translate(-131.895 -102.31)"/>
      <path id="Trazado_820695" data-name="Trazado 820695" d="M171.757,143.583h-.322a.587.587,0,0,0,0,1.175h.322a.587.587,0,0,0,0-1.175Z" transform="translate(-138.317 -110.677)"/>
      <path id="Trazado_820696" data-name="Trazado 820696" d="M180.15,132.646h-.322a.587.587,0,1,0,0,1.175h.322a.587.587,0,0,0,0-1.175Z" transform="translate(-144.739 -102.31)"/>
      <path id="Trazado_820697" data-name="Trazado 820697" d="M188.545,143.583h-.322a.587.587,0,1,0,0,1.175h.322a.587.587,0,1,0,0-1.175Z" transform="translate(-151.161 -110.677)"/>
      <path id="Trazado_820698" data-name="Trazado 820698" d="M64.727,128.991a2.732,2.732,0,1,0,2.732,2.732A2.735,2.735,0,0,0,64.727,128.991Zm0,4.289a1.557,1.557,0,1,1,1.557-1.557A1.559,1.559,0,0,1,64.727,133.28Z" transform="translate(-55.037 -99.514)"/>
      <circle id="Elipse_9273" data-name="Elipse 9273" cx="0.587" cy="0.587" r="0.587" transform="translate(20.305 52.177)"/>
      <path id="Trazado_820699" data-name="Trazado 820699" d="M133.741,226.2a.588.588,0,0,0-.587-.587H129.4a.587.587,0,1,0,0,1.175h3.757A.588.588,0,0,0,133.741,226.2Z" transform="translate(-106.155 -173.434)"/>
      <path id="Trazado_820700" data-name="Trazado 820700" d="M100.4,225.611a.587.587,0,1,0,0,1.175h2.114a.587.587,0,1,0,0-1.175Z" transform="translate(-83.969 -173.434)"/>
      <path id="Trazado_820701" data-name="Trazado 820701" d="M163.363,221.311a.587.587,0,1,0,0-1.175h-.322a.587.587,0,1,0,0,1.175Z" transform="translate(-131.895 -169.246)"/>
      <path id="Trazado_820702" data-name="Trazado 820702" d="M171.757,232.248a.587.587,0,0,0,0-1.175h-.322a.587.587,0,0,0,0,1.175Z" transform="translate(-138.317 -177.613)"/>
      <path id="Trazado_820703" data-name="Trazado 820703" d="M180.15,221.311a.587.587,0,0,0,0-1.175h-.322a.587.587,0,1,0,0,1.175Z" transform="translate(-144.739 -169.246)"/>
      <path id="Trazado_820704" data-name="Trazado 820704" d="M188.545,232.248a.587.587,0,1,0,0-1.175h-.322a.587.587,0,1,0,0,1.175Z" transform="translate(-151.161 -177.613)"/>
      <path id="Trazado_820705" data-name="Trazado 820705" d="M61.994,219.213a2.732,2.732,0,1,0,2.732-2.732A2.735,2.735,0,0,0,61.994,219.213Zm4.289,0a1.557,1.557,0,1,1-1.557-1.557A1.559,1.559,0,0,1,66.283,219.213Z" transform="translate(-55.037 -166.449)"/>
      <path id="Trazado_820706" data-name="Trazado 820706" d="M99.811,182.451a.587.587,0,0,0,.587.587h10.569a.587.587,0,1,0,0-1.175H100.4A.587.587,0,0,0,99.811,182.451Z" transform="translate(-83.969 -139.965)"/>
      <path id="Trazado_820707" data-name="Trazado 820707" d="M163.041,177.566h.322a.587.587,0,0,0,0-1.175h-.322a.587.587,0,1,0,0,1.175Z" transform="translate(-131.895 -135.778)"/>
      <path id="Trazado_820708" data-name="Trazado 820708" d="M171.435,188.5h.322a.587.587,0,0,0,0-1.175h-.322a.587.587,0,0,0,0,1.175Z" transform="translate(-138.317 -144.145)"/>
      <path id="Trazado_820709" data-name="Trazado 820709" d="M179.828,177.566h.322a.587.587,0,0,0,0-1.175h-.322a.587.587,0,1,0,0,1.175Z" transform="translate(-144.739 -135.778)"/>
      <path id="Trazado_820710" data-name="Trazado 820710" d="M188.223,188.5h.322a.587.587,0,1,0,0-1.175h-.322a.587.587,0,1,0,0,1.175Z" transform="translate(-151.161 -144.145)"/>
      <path id="Trazado_820711" data-name="Trazado 820711" d="M64.727,172.737a2.732,2.732,0,1,0,2.732,2.732A2.735,2.735,0,0,0,64.727,172.737Zm0,4.288a1.557,1.557,0,1,1,1.557-1.557A1.559,1.559,0,0,1,64.727,177.025Z" transform="translate(-55.037 -132.982)"/>
      <path id="Trazado_820712" data-name="Trazado 820712" d="M112.206,43.684a.588.588,0,1,0,.832-.016A.6.6,0,0,0,112.206,43.684Z" transform="translate(-93.327 -34.115)"/>
      <circle id="Elipse_9274" data-name="Elipse 9274" cx="0.587" cy="0.587" r="0.587" transform="translate(24.144 57.315)"/>
      <path id="Trazado_820713" data-name="Trazado 820713" d="M77.308,38.153V33.3a3.3,3.3,0,0,0-3.3-3.3H61.018V23.759h6.195a.587.587,0,0,0,.423-.994L62.665,17.6h4.548a.587.587,0,0,0,.423-.994l-6.31-6.564a.6.6,0,0,0-.829-.014.582.582,0,0,0-.016.829v0l5.354,5.566h-4.3L55.218,9.853a.6.6,0,0,0-.846,0l-1.485,1.541a.591.591,0,0,0,.016.832.6.6,0,0,0,.832-.016l1.06-1.1L65.834,22.585h-5.4a.59.59,0,0,0-.587.587V30l-10.1,0,0-6.829a.591.591,0,0,0-.587-.587h-5.4L50.477,15.6a.589.589,0,0,0-.014-.832.6.6,0,0,0-.832.016l-1.578,1.64h-4.3L54.795,4.945l2.427,2.523a.6.6,0,0,0,.832.016.591.591,0,0,0,.016-.832L55.218,3.691a.607.607,0,0,0-.846,0L41.951,16.6a.589.589,0,0,0,.423,1h4.549l-4.972,5.169a.587.587,0,0,0,.423.994h6.19l0,6.245H35.681a3.3,3.3,0,0,0-3.3,3.3v4.849A3.3,3.3,0,0,0,33.8,40.867,3.3,3.3,0,0,0,32.38,43.58v4.851A3.3,3.3,0,0,0,33.8,51.142a3.306,3.306,0,0,0-1.421,2.716v4.849a3.3,3.3,0,0,0,3.3,3.3H54.762a.587.587,0,1,0,0-1.175H35.681a2.135,2.135,0,0,1-2.126-2.126V53.858a2.135,2.135,0,0,1,2.111-2.128H74.022a2.133,2.133,0,0,1,2.111,2.128v4.849a2.134,2.134,0,0,1-2.126,2.126H59.46a.587.587,0,1,0,0,1.175H74.007a3.3,3.3,0,0,0,3.3-3.3V53.858a3.307,3.307,0,0,0-1.422-2.716,3.3,3.3,0,0,0,1.422-2.711V43.58a3.3,3.3,0,0,0-1.422-2.713,3.3,3.3,0,0,0,1.422-2.713Zm-1.175,0a2.134,2.134,0,0,1-2.126,2.126H49.777a.587.587,0,0,0,0,1.175H74.008a2.134,2.134,0,0,1,2.126,2.126v4.851a2.13,2.13,0,0,1-2.126,2.124H35.681a2.131,2.131,0,0,1-2.126-2.124V43.58a2.135,2.135,0,0,1,2.126-2.126h9.4a.587.587,0,0,0,0-1.175h-9.4a2.135,2.135,0,0,1-2.126-2.126V33.3a2.137,2.137,0,0,1,2.126-2.128H74.008A2.136,2.136,0,0,1,76.134,33.3v4.849Z" transform="translate(-32.38 -3.519)"/>
      <circle id="Elipse_9275" data-name="Elipse 9275" cx="0.587" cy="0.587" r="0.587" transform="translate(14.46 36.76)"/>
    </g>
  </g>
</svg>
