<svg xmlns="http://www.w3.org/2000/svg" width="82" height="72" viewBox="0 0 82 72">
  <g id="Grupo_1076264" data-name="Grupo 1076264" transform="translate(-836 -4433)">
    <g id="Grupo_1074219" data-name="Grupo 1074219" transform="translate(836 4433)">
      <rect id="Rectángulo_374603" data-name="Rectángulo 374603" width="82" height="72" rx="6" transform="translate(0)" fill="#fff"/>
      <g id="carga-en-la-nube" transform="translate(11 6)">
        <path id="Trazado_820670" data-name="Trazado 820670" d="M11,21H53V56H11Z" transform="translate(-2 -2)" fill="#ffb476"/>
        <path id="Trazado_820671" data-name="Trazado 820671" d="M32,21H53V56H32Z" transform="translate(-2 -2)" fill="#cfd2d3"/>
        <path id="Trazado_820672" data-name="Trazado 820672" d="M9,35h4v4H9Z" transform="translate(-2 -2)" fill="#f7c23c"/>
        <path id="Trazado_820673" data-name="Trazado 820673" d="M4,4H0V0H4Z" transform="translate(49 33)" fill="#f7c23c"/>
        <path id="Trazado_820674" data-name="Trazado 820674" d="M3,9H7v4H3Z" transform="translate(-2 -2)" fill="#f43b3b"/>
        <path id="Trazado_820675" data-name="Trazado 820675" d="M4,4H0V0H4Z" transform="translate(55 7)" fill="#f43b3b"/>
        <path id="Trazado_820676" data-name="Trazado 820676" d="M41,61H23L19,49H45Z" transform="translate(-2 -2)" fill="#8c93ba"/>
        <path id="Trazado_820677" data-name="Trazado 820677" d="M45,49H32V61h9Z" transform="translate(-2 -2)" fill="#72769b"/>
        <path id="Trazado_820678" data-name="Trazado 820678" d="M40,49V46a2,2,0,0,0-2-2H26a2,2,0,0,0-2,2v3" transform="translate(-2 -2)" fill="#a0e557"/>
        <path id="Trazado_820679" data-name="Trazado 820679" d="M40,46a2,2,0,0,0-2-2H32v5h8Z" transform="translate(-2 -2)" fill="#68ca44"/>
        <path id="Trazado_820686" data-name="Trazado 820686" d="M5,0A5,5,0,1,1,0,5,5,5,0,0,1,5,0Z" transform="translate(25 33)" fill="#a0e557"/>
        <path id="Trazado_820680" data-name="Trazado 820680" d="M32,35a5,5,0,0,1,0,10" transform="translate(-2 -2)" fill="#68ca44"/>
        <path id="Trazado_820681" data-name="Trazado 820681" d="M43,13H40V11a8,8,0,1,0-16,0v2H21a6,6,0,0,0,0,12H43a6,6,0,0,0,0-12Z" transform="translate(-2 -2)" fill="#5e667c"/>
        <path id="Trazado_820682" data-name="Trazado 820682" d="M43,13H40V11a8,8,0,0,0-8-8V25H43a6,6,0,0,0,0-12Z" transform="translate(-2 -2)" fill="#414a64"/>
        <path id="Trazado_820683" data-name="Trazado 820683" d="M38,21l-6-6-6,6h3V31h6V21Z" transform="translate(-2 -2)" fill="#f7c23c"/>
        <path id="Trazado_820684" data-name="Trazado 820684" d="M32,31h3V21h3l-6-6" transform="translate(-2 -2)" fill="#efaf22"/>
        <path id="Trazado_820685" data-name="Trazado 820685" d="M61,8H57a1,1,0,0,0-1,1v4a1,1,0,0,0,1,1h1v2H49.31A7,7,0,0,0,43,12H41V11a9,9,0,1,0-18,0v1H21a7,7,0,0,0-6.31,4H6V14H7a1,1,0,0,0,1-1V9A1,1,0,0,0,7,8H3A1,1,0,0,0,2,9v4a1,1,0,0,0,1,1H4v3a1,1,0,0,0,1,1h9.08a6.29,6.29,0,0,0,0,2H11a1,1,0,0,0-1,1V34H9a1,1,0,0,0-1,1v4a1,1,0,0,0,1,1h1V56a1,1,0,0,0,1,1h9.61l1.44,4.32A1,1,0,0,0,23,62H41a1,1,0,0,0,1-.68L43.39,57H53a1,1,0,0,0,1-1V40h1a1,1,0,0,0,1-1V35a1,1,0,0,0-1-1H54V21a1,1,0,0,0-1-1H49.92a6.29,6.29,0,0,0,0-2H59a1,1,0,0,0,1-1V14h1a1,1,0,0,0,1-1V9A1,1,0,0,0,61,8ZM4,10H6v2H4Zm17,4h3a1,1,0,0,0,1-1V11a7,7,0,1,1,14,0v2a1,1,0,0,0,1,1h3a5,5,0,0,1,0,10H36V22h2a1.006,1.006,0,0,0,.71-1.71l-6-6a1,1,0,0,0-1.42,0l-6,6A1.006,1.006,0,0,0,26,22h2v2H21a5,5,0,0,1,0-10Zm8,6h-.59L32,16.41,35.59,20H35a1,1,0,0,0-1,1v9H30V21A1,1,0,0,0,29,20ZM10,36h2v2H10ZM40.28,60H23.72L20.39,50H43.61ZM32,44a4,4,0,1,1,4-4A4,4,0,0,1,32,44Zm-3.31,1a6,6,0,0,0,6.62,0H38a1,1,0,0,1,1,1v2H25V46a1,1,0,0,1,1-1ZM54,38H52V36h2ZM52,22V34H51a1,1,0,0,0-1,1v4a1,1,0,0,0,1,1h1V55H44l2-5.68A1.009,1.009,0,0,0,45,48H41V46a3,3,0,0,0-3-3h-.81a6,6,0,1,0-10.38,0H26a3,3,0,0,0-3,3v2H19a1.008,1.008,0,0,0-.95,1.32L20,55H12V40h1a1,1,0,0,0,1-1V35a1,1,0,0,0-1-1H12V22h2.69A7,7,0,0,0,21,26h7v5a1,1,0,0,0,1,1h6a1,1,0,0,0,1-1V26h7a7,7,0,0,0,6.31-4Zm8-10H58V10h2Z" transform="translate(-2 -2)"/>
      </g>
    </g>
  </g>
</svg>
