<svg xmlns="http://www.w3.org/2000/svg" xmlns:xlink="http://www.w3.org/1999/xlink" width="133.538" height="114.997" viewBox="0 0 133.538 114.997">
  <defs>
    <clipPath id="clip-path">
      <rect id="Rectángulo_376236" data-name="Rectángulo 376236" width="114.09" height="113.311" fill="#ffb476"/>
    </clipPath>
    <clipPath id="clip-path-2">
      <rect id="Rectángulo_376235" data-name="Rectángulo 376235" width="114.09" height="108.122" fill="#ffb476"/>
    </clipPath>
    <clipPath id="clip-path-3">
      <rect id="Rectángulo_376230" data-name="Rectángulo 376230" width="114.09" height="103.021" fill="#ffb476"/>
    </clipPath>
    <clipPath id="clip-path-4">
      <rect id="Rectángulo_376232" data-name="Rectángulo 376232" width="12.22" height="7.606" fill="#ffb476"/>
    </clipPath>
    <clipPath id="clip-path-5">
      <rect id="Rectángulo_376231" data-name="Rectángulo 376231" width="20.861" height="15.677" fill="#ffb476"/>
    </clipPath>
    <clipPath id="clip-path-6">
      <rect id="Rectángulo_376233" data-name="Rectángulo 376233" width="4.72" height="4.389" fill="#ffb476"/>
    </clipPath>
    <clipPath id="clip-path-7">
      <rect id="Rectángulo_376234" data-name="Rectángulo 376234" width="13.45" height="7.098" fill="#ffb476"/>
    </clipPath>
    <clipPath id="clip-path-8">
      <path id="Trazado_165434" data-name="Trazado 165434" d="M0,1.776A1.775,1.775,0,1,0,1.774,0,1.775,1.775,0,0,0,0,1.776" fill="#2efec7"/>
    </clipPath>
    <clipPath id="clip-path-9">
      <path id="Trazado_165438" data-name="Trazado 165438" d="M1.774,0A1.774,1.774,0,1,0,3.549,1.775,1.774,1.774,0,0,0,1.774,0Z" fill="#2efec7"/>
    </clipPath>
    <clipPath id="clip-path-10">
      <path id="Trazado_165440" data-name="Trazado 165440" d="M0,1.776A1.774,1.774,0,1,0,1.774,0,1.775,1.775,0,0,0,0,1.776" fill="#2efec7"/>
    </clipPath>
    <clipPath id="clip-path-11">
      <path id="Trazado_165442" data-name="Trazado 165442" d="M0,1.775A1.774,1.774,0,1,0,1.774,0,1.774,1.774,0,0,0,0,1.775" fill="#2efec7"/>
    </clipPath>
    <clipPath id="clip-path-12">
      <path id="Trazado_165444" data-name="Trazado 165444" d="M1.774,0A1.774,1.774,0,1,0,3.548,1.775,1.774,1.774,0,0,0,1.774,0Z" fill="#2efec7"/>
    </clipPath>
    <clipPath id="clip-path-14">
      <path id="Trazado_165448" data-name="Trazado 165448" d="M0,1.775A1.775,1.775,0,1,0,1.775,0h0A1.777,1.777,0,0,0,0,1.775" fill="#2efec7"/>
    </clipPath>
    <clipPath id="clip-path-16">
      <path id="Trazado_165452" data-name="Trazado 165452" d="M0,1.776A1.774,1.774,0,1,0,1.774,0,1.774,1.774,0,0,0,0,1.776" fill="#2efec7"/>
    </clipPath>
    <clipPath id="clip-path-19">
      <path id="Trazado_165436" data-name="Trazado 165436" d="M0,1.775A1.775,1.775,0,1,0,1.775,0h0A1.776,1.776,0,0,0,0,1.775" fill="#2efec7"/>
    </clipPath>
  </defs>
  <g id="Grupo_1076267" data-name="Grupo 1076267" transform="translate(2214.122 6785)">
    <g id="Grupo_1074244" data-name="Grupo 1074244" transform="translate(-2214.122 -6785)">
      <g id="Grupo_1074240" data-name="Grupo 1074240" transform="translate(19.447)">
        <g id="Grupo_1072541" data-name="Grupo 1072541" transform="translate(0 0)">
          <g id="Grupo_1072558" data-name="Grupo 1072558" clip-path="url(#clip-path)">
            <g id="Grupo_1072557" data-name="Grupo 1072557" transform="translate(0 4.906)">
              <g id="Grupo_1072556" data-name="Grupo 1072556" clip-path="url(#clip-path-2)">
                <g id="Grupo_1072543" data-name="Grupo 1072543" transform="translate(0 5.384)" opacity="0.5" style="mix-blend-mode: multiply;isolation: isolate">
                  <g id="Grupo_1072542" data-name="Grupo 1072542">
                    <g id="Grupo_1072541-2" data-name="Grupo 1072541" clip-path="url(#clip-path-3)">
                      <path id="Trazado_821337" data-name="Trazado 821337" d="M86.276,85.747c-19.568,19.568-45.319,24.333-64.887,4.765C-5.16,63.964-8,44.567,18.547,18.019,32.48,4.086,41.516-.679,51.132.1c11,.888,22.714,9.849,44.019,20.439,34.41,17.1,16.1,40.228-8.875,65.208" transform="translate(0 0)" fill="#ffb476"/>
                    </g>
                  </g>
                </g>
                <g id="Grupo_1072549" data-name="Grupo 1072549" transform="translate(11.112 12.585)" opacity="0.5" style="mix-blend-mode: multiply;isolation: isolate">
                  <g id="Grupo_1072548" data-name="Grupo 1072548">
                    <g id="Grupo_1072547" data-name="Grupo 1072547" clip-path="url(#clip-path-4)">
                      <path id="Trazado_821339" data-name="Trazado 821339" d="M156.883,107.61a3.065,3.065,0,0,0,2.591,1.478,6.5,6.5,0,0,0,3-.741,23.311,23.311,0,0,0,4.957-3.3,4.279,4.279,0,0,0,1.232-1.394,1.549,1.549,0,0,0-.206-1.745,2.133,2.133,0,0,0-1.51-.418c-2.319.007-12.052,2.359-10.066,6.124" transform="translate(-156.618 -101.487)" fill="#ffb476"/>
                    </g>
                  </g>
                </g>
                <g id="Grupo_1072560" data-name="Grupo 1072560" transform="translate(64.145 0)">
                  <g id="Grupo_1072546" data-name="Grupo 1072546" transform="translate(6.833)" opacity="0.5" style="mix-blend-mode: multiply;isolation: isolate">
                    <g id="Grupo_1072545" data-name="Grupo 1072545">
                      <g id="Grupo_1072544" data-name="Grupo 1072544" clip-path="url(#clip-path-5)">
                        <path id="Trazado_821338" data-name="Trazado 821338" d="M1128.521,60.371c.446.252,1.109.456,1.385.025a.831.831,0,0,0,.061-.622,4.269,4.269,0,0,0-1.525-2.094c-2.732-2.464-5.476-4.923-8.392-7.17-1.471-1.134-2.984-2.216-4.555-3.209-1.13-.715-3.125-2.383-4.536-2.329-2.6.1-2.057,3.24-.606,4.353,2.045,1.568,4.67,2.365,6.811,3.829,3.71,2.538,7.44,5,11.357,7.218" transform="translate(-1109.138 -44.97)" fill="#ffb476"/>
                      </g>
                    </g>
                  </g>
                  <g id="Grupo_1072552" data-name="Grupo 1072552" transform="translate(0 0.579)" opacity="0.5" style="mix-blend-mode: multiply;isolation: isolate">
                    <g id="Grupo_1072551" data-name="Grupo 1072551">
                      <g id="Grupo_1072550" data-name="Grupo 1072550" clip-path="url(#clip-path-6)">
                        <path id="Trazado_821340" data-name="Trazado 821340" d="M1014.067,53.26a1.041,1.041,0,0,0-1.021.034.744.744,0,0,0-.2.7,1.9,1.9,0,0,0,.331.687,12.53,12.53,0,0,0,.773,1,5.014,5.014,0,0,0,2.391,1.785,1.08,1.08,0,0,0,.791-.033.993.993,0,0,0,.414-.953c-.09-1.377-2.32-2.809-3.477-3.228" transform="translate(-1012.827 -53.144)" fill="#ffb476"/>
                      </g>
                    </g>
                  </g>
                </g>
                <g id="Grupo_1072555" data-name="Grupo 1072555" transform="translate(75.388 99.923)" opacity="0.5" style="mix-blend-mode: multiply;isolation: isolate">
                  <g id="Grupo_1072554" data-name="Grupo 1072554">
                    <g id="Grupo_1072553" data-name="Grupo 1072553" clip-path="url(#clip-path-7)">
                      <path id="Trazado_821341" data-name="Trazado 821341" d="M1074.594,1333.094a6.932,6.932,0,0,0-2.716-.588c-1.487-.116-3.138-.184-4.291.762l-.424-.01a24.731,24.731,0,0,0-2.576,1.565,5.224,5.224,0,0,0-1.8,1.823,2.073,2.073,0,0,0,.27,2.4,3.056,3.056,0,0,0,2.591.388,52.389,52.389,0,0,0,7.578-1.814c1.2-.383,2.577-1.035,2.741-2.283a2.362,2.362,0,0,0-1.368-2.245" transform="translate(-1062.527 -1332.44)" fill="#ffb476"/>
                    </g>
                  </g>
                </g>
              </g>
            </g>
          </g>
        </g>
      </g>
      <rect id="Rectángulo_376241" data-name="Rectángulo 376241" width="5.151" height="30.302" rx="2.575" transform="translate(129.896 28.756) rotate(45)" fill="#ffb476"/>
      <rect id="Rectángulo_376240" data-name="Rectángulo 376240" width="5.555" height="35.833" rx="2.778" transform="translate(25.337 85.731) rotate(45)" fill="#ff6148"/>
      <g id="Grupo_1074245" data-name="Grupo 1074245" transform="translate(-1224.878 -5474.77)">
        <g id="lago-de-datos" transform="translate(1251.805 5491.138)">
          <path id="Trazado_821390" data-name="Trazado 821390" d="M101.032,102.179v5.181a5.375,5.375,0,0,1-3.125-1.536,5.4,5.4,0,0,0-7.644,0,5.409,5.409,0,0,1-7.641,0,5.393,5.393,0,0,0-7.641,0,5.406,5.406,0,0,1-7.641,0,5.393,5.393,0,0,0-7.641,0,5.409,5.409,0,0,1-7.641,0,5.4,5.4,0,0,0-7.644,0,5.375,5.375,0,0,1-3.125,1.536v-5.181A4.078,4.078,0,0,1,45.369,98.1H96.953a4.078,4.078,0,0,1,4.079,4.079Z" transform="translate(-24.772 -60.438)" fill="#72c1e8"/>
          <path id="Trazado_821391" data-name="Trazado 821391" d="M96.954,68.7H45.372a4.079,4.079,0,0,1-4.079-4.079v-7.29a4.079,4.079,0,0,1,4.079-4.079H96.953a4.079,4.079,0,0,1,4.079,4.079v7.29A4.079,4.079,0,0,1,96.954,68.7Z" transform="translate(-24.774 -31.037)" fill="#72c1e8"/>
          <path id="Trazado_821422" data-name="Trazado 821422" d="M3.223,0A3.223,3.223,0,1,1,0,3.223,3.223,3.223,0,0,1,3.223,0Z" transform="translate(23.961 26.712)" fill="#f2e1d6"/>
          <path id="Trazado_821392" data-name="Trazado 821392" d="M96.954,23.852H45.372a4.079,4.079,0,0,1-4.079-4.079V12.482A4.079,4.079,0,0,1,45.372,8.4H96.953a4.079,4.079,0,0,1,4.079,4.079v7.29a4.079,4.079,0,0,1-4.079,4.079Z" transform="translate(-24.774 -1.641)" fill="#72c1e8"/>
          <circle id="Elipse_10462" data-name="Elipse 10462" cx="3.223" cy="3.223" r="3.223" transform="translate(23.961 11.263)" fill="#f2e1d6"/>
          <path id="Trazado_821393" data-name="Trazado 821393" d="M90.056,117.5v44.639H6V117.5a5.4,5.4,0,0,1,7.641,0,5.405,5.405,0,0,0,7.641,0,5.4,5.4,0,0,1,7.644,0,5.409,5.409,0,0,0,7.641,0,5.393,5.393,0,0,1,7.641,0,5.406,5.406,0,0,0,7.641,0,5.393,5.393,0,0,1,7.641,0,5.409,5.409,0,0,0,7.641,0,5.4,5.4,0,0,1,7.644,0,5.405,5.405,0,0,0,7.641,0,5.393,5.393,0,0,1,7.641,0Z" transform="translate(-1.639 -72.116)" fill="#f0c020"/>
          <path id="Trazado_821394" data-name="Trazado 821394" d="M91.895,168.137H18.288a.861.861,0,0,1,0-1.722H91.034v-36.8a.861.861,0,0,1,1.722,0v37.664A.862.862,0,0,1,91.895,168.137Zm-77.051,0H13.7a.861.861,0,0,1,0-1.722h1.148a.861.861,0,0,1,0,1.722Z" transform="translate(-6.119 -80.529)" fill="#f9e5af"/>
          <path id="Trazado_821395" data-name="Trazado 821395" d="M100.025,74.892h3.441a.861.861,0,0,0,0-1.722h-3.441a.861.861,0,1,0,0,1.722Z" transform="translate(-62.706 -44.096)" fill="#3f3679"/>
          <circle id="Elipse_10463" data-name="Elipse 10463" cx="0.861" cy="0.861" r="0.861" transform="translate(43.344 29.074)" fill="#3f3679"/>
          <path id="Trazado_821396" data-name="Trazado 821396" d="M130.025,74.892h5.55a.861.861,0,0,0,0-1.722h-5.55a.861.861,0,1,0,0,1.722Z" transform="translate(-82.372 -44.096)" fill="#3f3679"/>
          <path id="Trazado_821397" data-name="Trazado 821397" d="M164.244,69.282h.484a.861.861,0,0,0,0-1.722h-.484a.861.861,0,1,0,0,1.722Z" transform="translate(-104.805 -40.419)" fill="#3f3679"/>
          <path id="Trazado_821398" data-name="Trazado 821398" d="M172.849,80.494h.484a.861.861,0,0,0,0-1.722h-.484a.861.861,0,1,0,0,1.722Z" transform="translate(-110.446 -47.768)" fill="#3f3679"/>
          <path id="Trazado_821399" data-name="Trazado 821399" d="M181.454,69.282h.484a.861.861,0,0,0,0-1.722h-.484a.861.861,0,1,0,0,1.722Z" transform="translate(-116.086 -40.419)" fill="#3f3679"/>
          <path id="Trazado_821400" data-name="Trazado 821400" d="M190.059,80.494h.484a.861.861,0,0,0,0-1.722h-.484a.861.861,0,0,0,0,1.722Z" transform="translate(-121.727 -47.768)" fill="#3f3679"/>
          <path id="Trazado_821401" data-name="Trazado 821401" d="M64.482,71.982A4.085,4.085,0,1,0,60.4,67.9,4.089,4.089,0,0,0,64.482,71.982Zm0-6.447A2.362,2.362,0,1,1,62.12,67.9,2.365,2.365,0,0,1,64.482,65.535Z" transform="translate(-37.298 -37.962)" fill="#3f3679"/>
          <path id="Trazado_821402" data-name="Trazado 821402" d="M99.165,29.186a.861.861,0,0,0,.861.861h15.887a.861.861,0,0,0,0-1.722H100.026A.861.861,0,0,0,99.165,29.186Z" transform="translate(-62.71 -14.7)" fill="#3f3679"/>
          <path id="Trazado_821403" data-name="Trazado 821403" d="M164.728,24.437a.861.861,0,1,0,0-1.722h-.484a.861.861,0,1,0,0,1.722Z" transform="translate(-104.805 -11.022)" fill="#3f3679"/>
          <path id="Trazado_821404" data-name="Trazado 821404" d="M173.333,35.649a.861.861,0,1,0,0-1.722h-.484a.861.861,0,1,0,0,1.722Z" transform="translate(-110.446 -18.372)" fill="#3f3679"/>
          <path id="Trazado_821405" data-name="Trazado 821405" d="M181.938,24.437a.861.861,0,0,0,0-1.722h-.484a.861.861,0,1,0,0,1.722Z" transform="translate(-116.086 -11.022)" fill="#3f3679"/>
          <path id="Trazado_821406" data-name="Trazado 821406" d="M190.543,35.649a.861.861,0,1,0,0-1.722h-.484a.861.861,0,1,0,0,1.722Z" transform="translate(-121.727 -18.372)" fill="#3f3679"/>
          <path id="Trazado_821407" data-name="Trazado 821407" d="M60.4,23.053a4.084,4.084,0,1,0,4.084-4.085A4.089,4.089,0,0,0,60.4,23.053Zm6.447,0a2.362,2.362,0,1,1-2.362-2.362A2.365,2.365,0,0,1,66.844,23.053Z" transform="translate(-37.297 -8.566)" fill="#3f3679"/>
          <path id="Trazado_821408" data-name="Trazado 821408" d="M113.388,5.9a.861.861,0,1,0,.861.861A.861.861,0,0,0,113.388,5.9Z" transform="translate(-71.47 0)"/>
          <path id="Trazado_821409" data-name="Trazado 821409" d="M15.141,205.7a.861.861,0,1,0,0,1.722H21.8a.861.861,0,1,0,0-1.722H19.33v-9.122a.86.86,0,0,0-1.247-.768l-3.131,1.571a.861.861,0,0,0-.382,1.158.878.878,0,0,0,1.154.382l1.884-.947V205.7Z" transform="translate(-7.067 -124.428)" fill="#3f3679"/>
          <path id="Trazado_821410" data-name="Trazado 821410" d="M22.658,151.449a4.189,4.189,0,1,0-8.378,0v3.328a4.189,4.189,0,1,0,8.378,0Zm-1.722,3.328a2.467,2.467,0,1,1-4.933,0v-3.328a2.467,2.467,0,1,1,4.933,0Z" transform="translate(-7.067 -92.662)" fill="#3f3679"/>
          <path id="Trazado_821411" data-name="Trazado 821411" d="M101.288,206.566a.862.862,0,0,0-.861-.861H97.96v-9.122a.863.863,0,0,0-1.251-.768l-3.128,1.571a.859.859,0,0,0-.386,1.158.884.884,0,0,0,1.157.382l1.884-.947V205.7H93.771a.861.861,0,1,0,0,1.722h6.656A.862.862,0,0,0,101.288,206.566Z" transform="translate(-58.609 -124.429)" fill="#3f3679"/>
          <path id="Trazado_821412" data-name="Trazado 821412" d="M101.288,151.449a4.189,4.189,0,1,0-8.378,0v3.328a4.189,4.189,0,1,0,8.378,0Zm-1.722,3.328a2.467,2.467,0,1,1-4.933,0v-3.328a2.467,2.467,0,1,1,4.933,0Z" transform="translate(-58.609 -92.662)" fill="#3f3679"/>
          <path id="Trazado_821413" data-name="Trazado 821413" d="M172.391,205.7a.861.861,0,0,0,0,1.722h6.656a.861.861,0,0,0,0-1.722H176.58v-9.122a.859.859,0,0,0-1.247-.768l-3.131,1.571a.859.859,0,0,0-.382,1.154.881.881,0,0,0,1.158.386l1.881-.947V205.7Z" transform="translate(-110.145 -124.429)" fill="#3f3679"/>
          <path id="Trazado_821414" data-name="Trazado 821414" d="M175.719,158.966a4.194,4.194,0,0,0,4.189-4.189v-3.328a4.189,4.189,0,1,0-8.378,0v3.328A4.2,4.2,0,0,0,175.719,158.966Zm-2.467-7.517a2.467,2.467,0,1,1,4.933,0v3.328a2.467,2.467,0,0,1-4.933,0Z" transform="translate(-110.145 -92.662)" fill="#3f3679"/>
          <path id="Trazado_821415" data-name="Trazado 821415" d="M61.107,157.243H58.64v-9.122a.859.859,0,0,0-1.247-.768l-3.131,1.571a.859.859,0,0,0-.382,1.154.881.881,0,0,0,1.157.386l1.881-.947v7.727H54.451a.861.861,0,1,0,0,1.722h6.656a.861.861,0,1,0,0-1.722Z" transform="translate(-32.835 -92.662)" fill="#3f3679"/>
          <path id="Trazado_821416" data-name="Trazado 821416" d="M57.779,195.72a4.2,4.2,0,0,0-4.189,4.189v3.328a4.189,4.189,0,0,0,8.378,0v-3.328A4.194,4.194,0,0,0,57.779,195.72Zm2.467,7.517a2.467,2.467,0,1,1-4.933,0v-3.328a2.467,2.467,0,0,1,4.933,0Z" transform="translate(-32.835 -124.428)" fill="#3f3679"/>
          <path id="Trazado_821417" data-name="Trazado 821417" d="M133.081,157.242a.861.861,0,0,0,0,1.722h6.656a.861.861,0,1,0,0-1.722H137.27V148.12a.86.86,0,0,0-1.247-.768l-3.131,1.571a.859.859,0,0,0-.382,1.154.878.878,0,0,0,1.154.386l1.884-.947v7.727Z" transform="translate(-84.377 -92.661)" fill="#3f3679"/>
          <path id="Trazado_821418" data-name="Trazado 821418" d="M132.22,203.237a4.189,4.189,0,0,0,8.378,0v-3.328a4.189,4.189,0,0,0-8.378,0Zm1.722-3.328a2.467,2.467,0,0,1,4.933,0v3.328a2.467,2.467,0,1,1-4.933,0Z" transform="translate(-84.377 -124.428)" fill="#3f3679"/>
          <path id="Trazado_821419" data-name="Trazado 821419" d="M211.711,157.244a.861.861,0,1,0,0,1.722h6.656a.861.861,0,1,0,0-1.722H215.9v-9.122a.863.863,0,0,0-1.251-.768l-3.128,1.571a.858.858,0,0,0-.386,1.154.881.881,0,0,0,1.157.386l1.884-.947v7.727Z" transform="translate(-135.92 -92.663)" fill="#3f3679"/>
          <path id="Trazado_821420" data-name="Trazado 821420" d="M215.039,207.426a4.2,4.2,0,0,0,4.189-4.189v-3.328a4.189,4.189,0,1,0-8.378,0v3.328A4.194,4.194,0,0,0,215.039,207.426Zm-2.467-7.517a2.467,2.467,0,0,1,4.933,0v3.328a2.467,2.467,0,0,1-4.933,0Z" transform="translate(-135.92 -124.428)" fill="#3f3679"/>
          <path id="Trazado_821421" data-name="Trazado 821421" d="M89.025,46a.861.861,0,0,0,0-1.218,6.254,6.254,0,0,0-8.86,0,4.567,4.567,0,0,1-3.047,1.32V41.739a4.938,4.938,0,0,0-2.159-4.08A4.937,4.937,0,0,0,77.12,33.58V26.29a4.938,4.938,0,0,0-2.158-4.079,4.939,4.939,0,0,0,2.159-4.078V10.84a4.949,4.949,0,0,0-4.94-4.94H45.362a.861.861,0,1,0,0,1.722H72.181A3.23,3.23,0,0,1,75.4,10.84v7.293a3.23,3.23,0,0,1-3.21,3.217h-51.6a3.23,3.23,0,0,1-3.21-3.217V10.84A3.23,3.23,0,0,1,20.6,7.622H38.476a.861.861,0,0,0,0-1.722H20.6a4.949,4.949,0,0,0-4.94,4.94v7.293a4.94,4.94,0,0,0,2.159,4.078,4.938,4.938,0,0,0-2.158,4.079v7.29a4.938,4.938,0,0,0,2.158,4.079,4.938,4.938,0,0,0-2.159,4.08V46.1a4.556,4.556,0,0,1-3.046-1.319,6.258,6.258,0,0,0-8.859,0,.861.861,0,0,0,1.218,1.218,4.537,4.537,0,0,1,6.423,0,6.269,6.269,0,0,0,8.86,0,4.539,4.539,0,0,1,6.425,0,6.282,6.282,0,0,0,8.86,0,4.532,4.532,0,0,1,6.422,0,6.263,6.263,0,0,0,8.859,0,4.531,4.531,0,0,1,6.423,0,6.281,6.281,0,0,0,8.858,0,4.536,4.536,0,0,1,6.427,0,6.271,6.271,0,0,0,8.86,0,4.531,4.531,0,0,1,6.421,0,.861.861,0,0,0,1.218,0ZM17.38,26.29a3.221,3.221,0,0,1,3.209-3.218h51.6A3.221,3.221,0,0,1,75.4,26.29v7.29A3.221,3.221,0,0,1,72.18,36.8H20.6A3.221,3.221,0,0,1,17.38,33.58Zm47.5,18.486a4.556,4.556,0,0,1-6.423,0,6.253,6.253,0,0,0-8.86,0,4.542,4.542,0,0,1-6.422,0,6.254,6.254,0,0,0-8.858,0,4.556,4.556,0,0,1-6.424,0,6.261,6.261,0,0,0-8.862,0,4.5,4.5,0,0,1-1.654,1.052v-4.09A3.221,3.221,0,0,1,20.6,38.522H72.181A3.221,3.221,0,0,1,75.4,41.739v4.09a4.5,4.5,0,0,1-1.653-1.051,6.258,6.258,0,0,0-8.863,0Z" transform="translate(0 0)" fill="#3f3679"/>
        </g>
        <path id="Trazado_821427" data-name="Trazado 821427" d="M234.915,242.646h-7.14a.595.595,0,0,0,0,1.19h7.14a.595.595,0,1,0,0-1.19Z" transform="translate(1108.53 5342.216)" fill="#3f3679"/>
        <path id="Trazado_821425" data-name="Trazado 821425" d="M130.58,242.646H36.8a.616.616,0,1,0,0,1.19H130.58a.616.616,0,1,0,0-1.19Z" transform="translate(1212.682 5339.771)" fill="#3f3679"/>
        <path id="Trazado_821428" data-name="Trazado 821428" d="M108.392,242.646H36.616a.595.595,0,0,0,0,1.19h71.776a.595.595,0,1,0,0-1.19Z" transform="translate(1223.867 5342.216)" fill="#3f3679"/>
      </g>
      <g id="Grupo_1074241" data-name="Grupo 1074241" transform="translate(17.755 66.775) rotate(-90)">
        <g id="Group_881454" data-name="Group 881454" transform="translate(0 28.84)">
          <g id="Grupo_108438" data-name="Grupo 108438">
            <path id="Trazado_165433" data-name="Trazado 165433" d="M0,1.776A1.775,1.775,0,1,0,1.774,0,1.775,1.775,0,0,0,0,1.776" fill="#2efec7"/>
            <g id="Grupo_108437" data-name="Grupo 108437" clip-path="url(#clip-path-8)">
              <g id="Group_881453" data-name="Group 881453" transform="translate(0 0)">
                <rect id="Rectangle_298909" data-name="Rectangle 298909" width="3.549" height="3.549" fill="#2efec7"/>
              </g>
            </g>
          </g>
        </g>
        <g id="Group_881458" data-name="Group 881458" transform="translate(0 0)">
          <g id="Grupo_108442" data-name="Grupo 108442">
            <path id="Trazado_165437" data-name="Trazado 165437" d="M1.774,0A1.774,1.774,0,1,0,3.549,1.775,1.774,1.774,0,0,0,1.774,0Z" fill="#2efec7"/>
            <g id="Grupo_108441" data-name="Grupo 108441" clip-path="url(#clip-path-9)">
              <g id="Group_881457" data-name="Group 881457" transform="translate(0 0.001)">
                <rect id="Rectangle_298911" data-name="Rectangle 298911" width="3.549" height="3.548" fill="#2efec7"/>
              </g>
            </g>
          </g>
        </g>
        <g id="Group_881460" data-name="Group 881460" transform="translate(12.028 28.84)">
          <g id="Grupo_108444" data-name="Grupo 108444">
            <path id="Trazado_165439" data-name="Trazado 165439" d="M0,1.776A1.774,1.774,0,1,0,1.774,0,1.775,1.775,0,0,0,0,1.776" fill="#2efec7"/>
            <g id="Grupo_108443" data-name="Grupo 108443" clip-path="url(#clip-path-10)">
              <g id="Group_881459" data-name="Group 881459" transform="translate(0 0)">
                <rect id="Rectangle_298912" data-name="Rectangle 298912" width="3.549" height="3.549" fill="#2efec7"/>
              </g>
            </g>
          </g>
        </g>
        <g id="Group_881462" data-name="Group 881462" transform="translate(12.028 15.011)">
          <g id="Grupo_108446" data-name="Grupo 108446">
            <path id="Trazado_165441" data-name="Trazado 165441" d="M0,1.775A1.774,1.774,0,1,0,1.774,0,1.774,1.774,0,0,0,0,1.775" fill="#2efec7"/>
            <g id="Grupo_108445" data-name="Grupo 108445" clip-path="url(#clip-path-11)">
              <g id="Group_881461" data-name="Group 881461" transform="translate(0 0)">
                <rect id="Rectangle_298913" data-name="Rectangle 298913" width="3.549" height="3.549" fill="#2efec7"/>
              </g>
            </g>
          </g>
        </g>
        <g id="Group_881464" data-name="Group 881464" transform="translate(12.028 0)">
          <g id="Grupo_108448" data-name="Grupo 108448">
            <path id="Trazado_165443" data-name="Trazado 165443" d="M1.774,0A1.774,1.774,0,1,0,3.548,1.775,1.774,1.774,0,0,0,1.774,0Z" fill="#2efec7"/>
            <g id="Grupo_108447" data-name="Grupo 108447" clip-path="url(#clip-path-12)">
              <g id="Group_881463" data-name="Group 881463" transform="translate(-0.001 0.001)">
                <rect id="Rectangle_298914" data-name="Rectangle 298914" width="3.549" height="3.548" fill="#2efec7"/>
              </g>
            </g>
          </g>
        </g>
        <g id="Group_881454-2" data-name="Group 881454" transform="translate(24.575 28.84)">
          <g id="Grupo_108450" data-name="Grupo 108450">
            <path id="Trazado_165445" data-name="Trazado 165445" d="M0,1.776A1.775,1.775,0,1,0,1.774,0,1.775,1.775,0,0,0,0,1.776" fill="#2efec7"/>
            <g id="Grupo_108449" data-name="Grupo 108449" clip-path="url(#clip-path-8)">
              <g id="Group_881453-2" data-name="Group 881453" transform="translate(0 0)">
                <rect id="Rectangle_298909-2" data-name="Rectangle 298909" width="3.549" height="3.549" fill="#2efec7"/>
              </g>
            </g>
          </g>
        </g>
        <g id="Group_881456" data-name="Group 881456" transform="translate(24.575 15.011)">
          <g id="Grupo_108452" data-name="Grupo 108452">
            <path id="Trazado_165447" data-name="Trazado 165447" d="M0,1.775A1.775,1.775,0,1,0,1.775,0h0A1.777,1.777,0,0,0,0,1.775" fill="#2efec7"/>
            <g id="Grupo_108451" data-name="Grupo 108451" clip-path="url(#clip-path-14)">
              <g id="Group_881455" data-name="Group 881455" transform="translate(0 0)">
                <rect id="Rectangle_298910" data-name="Rectangle 298910" width="3.549" height="3.549" fill="#2efec7"/>
              </g>
            </g>
          </g>
        </g>
        <g id="Group_881458-2" data-name="Group 881458" transform="translate(24.576 0)">
          <g id="Grupo_108454" data-name="Grupo 108454">
            <path id="Trazado_165449" data-name="Trazado 165449" d="M1.774,0A1.774,1.774,0,1,0,3.548,1.775,1.774,1.774,0,0,0,1.774,0Z" fill="#2efec7"/>
            <g id="Grupo_108453" data-name="Grupo 108453" clip-path="url(#clip-path-12)">
              <g id="Group_881457-2" data-name="Group 881457" transform="translate(-0.001 0.001)">
                <rect id="Rectangle_298911-2" data-name="Rectangle 298911" width="3.549" height="3.548" fill="#2efec7"/>
              </g>
            </g>
          </g>
        </g>
        <g id="Group_881460-2" data-name="Group 881460" transform="translate(36.603 28.84)">
          <g id="Grupo_108456" data-name="Grupo 108456">
            <path id="Trazado_165451" data-name="Trazado 165451" d="M0,1.776A1.774,1.774,0,1,0,1.774,0,1.774,1.774,0,0,0,0,1.776" fill="#2efec7"/>
            <g id="Grupo_108455" data-name="Grupo 108455" clip-path="url(#clip-path-16)">
              <g id="Group_881459-2" data-name="Group 881459" transform="translate(0 0)">
                <rect id="Rectangle_298912-2" data-name="Rectangle 298912" width="3.549" height="3.549" fill="#2efec7"/>
              </g>
            </g>
          </g>
        </g>
        <g id="Group_881462-2" data-name="Group 881462" transform="translate(36.603 15.011)">
          <g id="Grupo_108458" data-name="Grupo 108458">
            <path id="Trazado_165453" data-name="Trazado 165453" d="M0,1.775A1.774,1.774,0,1,0,1.774,0,1.774,1.774,0,0,0,0,1.775" fill="#2efec7"/>
            <g id="Grupo_108457" data-name="Grupo 108457" clip-path="url(#clip-path-11)">
              <g id="Group_881461-2" data-name="Group 881461" transform="translate(0 0)">
                <rect id="Rectangle_298913-2" data-name="Rectangle 298913" width="3.549" height="3.549" fill="#2efec7"/>
              </g>
            </g>
          </g>
        </g>
        <g id="Group_881464-2" data-name="Group 881464" transform="translate(36.603 0)">
          <g id="Grupo_108460" data-name="Grupo 108460">
            <path id="Trazado_165455" data-name="Trazado 165455" d="M1.774,0A1.774,1.774,0,1,0,3.548,1.775,1.774,1.774,0,0,0,1.774,0Z" fill="#2efec7"/>
            <g id="Grupo_108459" data-name="Grupo 108459" clip-path="url(#clip-path-12)">
              <g id="Group_881463-2" data-name="Group 881463" transform="translate(0 0.001)">
                <rect id="Rectangle_298914-2" data-name="Rectangle 298914" width="3.549" height="3.548" fill="#2efec7"/>
              </g>
            </g>
          </g>
        </g>
        <g id="Group_881456-2" data-name="Group 881456" transform="translate(0 15.011)">
          <g id="Grupo_108440" data-name="Grupo 108440">
            <path id="Trazado_165435" data-name="Trazado 165435" d="M0,1.775A1.775,1.775,0,1,0,1.775,0h0A1.776,1.776,0,0,0,0,1.775" fill="#2efec7"/>
            <g id="Grupo_108439" data-name="Grupo 108439" clip-path="url(#clip-path-19)">
              <g id="Group_881455-2" data-name="Group 881455" transform="translate(0 0)">
                <rect id="Rectangle_298910-2" data-name="Rectangle 298910" width="3.549" height="3.549" fill="#2efec7"/>
              </g>
            </g>
          </g>
        </g>
      </g>
    </g>
  </g>
</svg>
