<svg xmlns="http://www.w3.org/2000/svg" xmlns:xlink="http://www.w3.org/1999/xlink" width="133.538" height="118.215" viewBox="0 0 133.538 118.215">
  <defs>
    <clipPath id="clip-path">
      <rect id="Rectángulo_376236" data-name="Rectángulo 376236" width="114.09" height="113.311" fill="#ffb476"/>
    </clipPath>
    <clipPath id="clip-path-2">
      <rect id="Rectángulo_376235" data-name="Rectángulo 376235" width="114.09" height="108.122" fill="#ffb476"/>
    </clipPath>
    <clipPath id="clip-path-3">
      <rect id="Rectángulo_376230" data-name="Rectángulo 376230" width="114.09" height="103.021" fill="#ffb476"/>
    </clipPath>
    <clipPath id="clip-path-4">
      <rect id="Rectángulo_376232" data-name="Rectángulo 376232" width="12.22" height="7.606" fill="#ffb476"/>
    </clipPath>
    <clipPath id="clip-path-5">
      <rect id="Rectángulo_376231" data-name="Rectángulo 376231" width="20.861" height="15.677" fill="#ffb476"/>
    </clipPath>
    <clipPath id="clip-path-6">
      <rect id="Rectángulo_376233" data-name="Rectángulo 376233" width="4.72" height="4.389" fill="#ffb476"/>
    </clipPath>
    <clipPath id="clip-path-7">
      <rect id="Rectángulo_376234" data-name="Rectángulo 376234" width="13.45" height="7.098" fill="#ffb476"/>
    </clipPath>
    <clipPath id="clip-path-8">
      <path id="Trazado_165434" data-name="Trazado 165434" d="M0,1.776A1.775,1.775,0,1,0,1.774,0,1.775,1.775,0,0,0,0,1.776" fill="#2efec7"/>
    </clipPath>
    <clipPath id="clip-path-9">
      <path id="Trazado_165438" data-name="Trazado 165438" d="M1.774,0A1.774,1.774,0,1,0,3.549,1.775,1.774,1.774,0,0,0,1.774,0Z" fill="#2efec7"/>
    </clipPath>
    <clipPath id="clip-path-10">
      <path id="Trazado_165440" data-name="Trazado 165440" d="M0,1.776A1.774,1.774,0,1,0,1.774,0,1.775,1.775,0,0,0,0,1.776" fill="#2efec7"/>
    </clipPath>
    <clipPath id="clip-path-11">
      <path id="Trazado_165442" data-name="Trazado 165442" d="M0,1.775A1.774,1.774,0,1,0,1.774,0,1.774,1.774,0,0,0,0,1.775" fill="#2efec7"/>
    </clipPath>
    <clipPath id="clip-path-12">
      <path id="Trazado_165444" data-name="Trazado 165444" d="M1.774,0A1.774,1.774,0,1,0,3.548,1.775,1.774,1.774,0,0,0,1.774,0Z" fill="#2efec7"/>
    </clipPath>
    <clipPath id="clip-path-14">
      <path id="Trazado_165448" data-name="Trazado 165448" d="M0,1.775A1.775,1.775,0,1,0,1.775,0h0A1.777,1.777,0,0,0,0,1.775" fill="#2efec7"/>
    </clipPath>
    <clipPath id="clip-path-16">
      <path id="Trazado_165452" data-name="Trazado 165452" d="M0,1.776A1.774,1.774,0,1,0,1.774,0,1.774,1.774,0,0,0,0,1.776" fill="#2efec7"/>
    </clipPath>
    <clipPath id="clip-path-19">
      <path id="Trazado_165436" data-name="Trazado 165436" d="M0,1.775A1.775,1.775,0,1,0,1.775,0h0A1.776,1.776,0,0,0,0,1.775" fill="#2efec7"/>
    </clipPath>
  </defs>
  <g id="Grupo_1076266" data-name="Grupo 1076266" transform="translate(-1225.878 -4918.025)">
    <g id="Grupo_1074243" data-name="Grupo 1074243" transform="translate(0 -40.867)">
      <g id="Grupo_1074239" data-name="Grupo 1074239" transform="translate(8.366 4.334)">
        <g id="Grupo_1072541" data-name="Grupo 1072541" transform="translate(1236.96 4954.559)">
          <g id="Grupo_1072558" data-name="Grupo 1072558" transform="translate(0 0)" clip-path="url(#clip-path)">
            <g id="Grupo_1072557" data-name="Grupo 1072557" transform="translate(0 4.906)">
              <g id="Grupo_1072556" data-name="Grupo 1072556" clip-path="url(#clip-path-2)">
                <g id="Grupo_1072543" data-name="Grupo 1072543" transform="translate(0 5.384)" opacity="0.5" style="mix-blend-mode: multiply;isolation: isolate">
                  <g id="Grupo_1072542" data-name="Grupo 1072542">
                    <g id="Grupo_1072541-2" data-name="Grupo 1072541" clip-path="url(#clip-path-3)">
                      <path id="Trazado_821337" data-name="Trazado 821337" d="M86.276,85.747c-19.568,19.568-45.319,24.333-64.887,4.765C-5.16,63.964-8,44.567,18.547,18.019,32.48,4.086,41.516-.679,51.132.1c11,.888,22.714,9.849,44.019,20.439,34.41,17.1,16.1,40.228-8.875,65.208" transform="translate(0 0)" fill="#ffb476"/>
                    </g>
                  </g>
                </g>
                <g id="Grupo_1072549" data-name="Grupo 1072549" transform="translate(11.112 12.585)" opacity="0.5" style="mix-blend-mode: multiply;isolation: isolate">
                  <g id="Grupo_1072548" data-name="Grupo 1072548">
                    <g id="Grupo_1072547" data-name="Grupo 1072547" clip-path="url(#clip-path-4)">
                      <path id="Trazado_821339" data-name="Trazado 821339" d="M156.883,107.61a3.065,3.065,0,0,0,2.591,1.478,6.5,6.5,0,0,0,3-.741,23.311,23.311,0,0,0,4.957-3.3,4.279,4.279,0,0,0,1.232-1.394,1.549,1.549,0,0,0-.206-1.745,2.133,2.133,0,0,0-1.51-.418c-2.319.007-12.052,2.359-10.066,6.124" transform="translate(-156.618 -101.487)" fill="#ffb476"/>
                    </g>
                  </g>
                </g>
                <g id="Grupo_1072560" data-name="Grupo 1072560" transform="translate(64.145 0)">
                  <g id="Grupo_1072546" data-name="Grupo 1072546" transform="translate(6.833)" opacity="0.5" style="mix-blend-mode: multiply;isolation: isolate">
                    <g id="Grupo_1072545" data-name="Grupo 1072545">
                      <g id="Grupo_1072544" data-name="Grupo 1072544" clip-path="url(#clip-path-5)">
                        <path id="Trazado_821338" data-name="Trazado 821338" d="M1128.521,60.371c.446.252,1.109.456,1.385.025a.831.831,0,0,0,.061-.622,4.269,4.269,0,0,0-1.525-2.094c-2.732-2.464-5.476-4.923-8.392-7.17-1.471-1.134-2.984-2.216-4.555-3.209-1.13-.715-3.125-2.383-4.536-2.329-2.6.1-2.057,3.24-.606,4.353,2.045,1.568,4.67,2.365,6.811,3.829,3.71,2.538,7.44,5,11.357,7.218" transform="translate(-1109.138 -44.97)" fill="#ffb476"/>
                      </g>
                    </g>
                  </g>
                  <g id="Grupo_1072552" data-name="Grupo 1072552" transform="translate(0 0.579)" opacity="0.5" style="mix-blend-mode: multiply;isolation: isolate">
                    <g id="Grupo_1072551" data-name="Grupo 1072551">
                      <g id="Grupo_1072550" data-name="Grupo 1072550" clip-path="url(#clip-path-6)">
                        <path id="Trazado_821340" data-name="Trazado 821340" d="M1014.067,53.26a1.041,1.041,0,0,0-1.021.034.744.744,0,0,0-.2.7,1.9,1.9,0,0,0,.331.687,12.53,12.53,0,0,0,.773,1,5.014,5.014,0,0,0,2.391,1.785,1.08,1.08,0,0,0,.791-.033.993.993,0,0,0,.414-.953c-.09-1.377-2.32-2.809-3.477-3.228" transform="translate(-1012.827 -53.144)" fill="#ffb476"/>
                      </g>
                    </g>
                  </g>
                </g>
                <g id="Grupo_1072555" data-name="Grupo 1072555" transform="translate(75.388 99.923)" opacity="0.5" style="mix-blend-mode: multiply;isolation: isolate">
                  <g id="Grupo_1072554" data-name="Grupo 1072554">
                    <g id="Grupo_1072553" data-name="Grupo 1072553" clip-path="url(#clip-path-7)">
                      <path id="Trazado_821341" data-name="Trazado 821341" d="M1074.594,1333.094a6.932,6.932,0,0,0-2.716-.588c-1.487-.116-3.138-.184-4.291.762l-.424-.01a24.731,24.731,0,0,0-2.576,1.565,5.224,5.224,0,0,0-1.8,1.823,2.073,2.073,0,0,0,.27,2.4,3.056,3.056,0,0,0,2.591.388,52.389,52.389,0,0,0,7.578-1.814c1.2-.383,2.577-1.035,2.741-2.283a2.362,2.362,0,0,0-1.368-2.245" transform="translate(-1062.527 -1332.44)" fill="#ffb476"/>
                    </g>
                  </g>
                </g>
              </g>
            </g>
          </g>
        </g>
        <g id="complementos" transform="translate(1243.057 4979.714)">
          <path id="Trazado_821342" data-name="Trazado 821342" d="M53.4,118.473V80.732a9.3,9.3,0,0,1,9.3-9.3h40.6l-6.354-8.368H77.419l-9.3-10.072H46.431a9.3,9.3,0,0,0-9.3,9.3v56.181a8.133,8.133,0,0,0,16.266,0Z" transform="translate(-24.437 -38.948)" fill="#cecece"/>
          <g id="Grupo_1074229" data-name="Grupo 1074229" transform="translate(12.695 14.045)">
            <path id="Trazado_821343" data-name="Trazado 821343" d="M39.948,118.472V62.291a9.3,9.3,0,0,1,9.3-9.3H46.432a9.3,9.3,0,0,0-9.3,9.3v56.181a8.095,8.095,0,0,0,9.542,8l-.057-.008a8.129,8.129,0,0,1-6.67-7.994Z" transform="translate(-37.133 -52.992)" fill="#afafaf"/>
          </g>
          <path id="Trazado_821344" data-name="Trazado 821344" d="M60.789,22.062h58.216v78.821H60.789Z" transform="translate(-37.849 -21.412)" fill="#f8af23"/>
          <g id="Grupo_1074230" data-name="Grupo 1074230" transform="translate(22.94 0.65)">
            <path id="Trazado_821345" data-name="Trazado 821345" d="M60.789,22.062H63.6v78.821H60.789Z" transform="translate(-60.789 -22.062)" fill="#f87023"/>
          </g>
          <g id="Grupo_1074231" data-name="Grupo 1074231" transform="translate(78.341 0.65)">
            <path id="Trazado_821346" data-name="Trazado 821346" d="M188.711,22.062h2.815v78.821h-2.815Z" transform="translate(-188.711 -22.062)" fill="#f8d323"/>
          </g>
          <path id="Trazado_821347" data-name="Trazado 821347" d="M113.946,95.573h-40.6a9.3,9.3,0,0,0-9.3,9.3v37.74a8.132,8.132,0,0,1-8.132,8.132h62.442a8.131,8.131,0,0,0,8.132-8.132V95.573Z" transform="translate(-35.084 -63.087)" fill="#63bce7"/>
          <g id="Grupo_1074232" data-name="Grupo 1074232" transform="translate(80.454 32.486)">
            <path id="Trazado_821348" data-name="Trazado 821348" d="M201.723,95.573v47.04a8.131,8.131,0,0,1-8.132,8.132h2.815a8.131,8.131,0,0,0,8.132-8.132V95.573Z" transform="translate(-193.591 -95.573)" fill="#63e2e7"/>
          </g>
          <circle id="Elipse_10455" data-name="Elipse 10455" cx="20.607" cy="20.607" r="20.607" transform="translate(39.574 39.464)" fill="#f46275"/>
          <g id="Grupo_1074234" data-name="Grupo 1074234" transform="translate(49.967 52.764)">
            <path id="Trazado_821349" data-name="Trazado 821349" d="M123.195,149.144h20.427v11.693H123.195Z" transform="translate(-123.195 -146.221)" fill="#cecece"/>
            <g id="Grupo_1074233" data-name="Grupo 1074233" transform="translate(2.178 0)">
              <path id="Trazado_821350" data-name="Trazado 821350" d="M128.224,142.394h4.945v2.923h-4.945Z" transform="translate(-128.224 -142.394)" fill="#cecece"/>
              <path id="Trazado_821351" data-name="Trazado 821351" d="M153.64,142.394h4.945v2.923H153.64Z" transform="translate(-142.633 -142.394)" fill="#cecece"/>
            </g>
          </g>
          <g id="Grupo_1074235" data-name="Grupo 1074235" transform="translate(0 0)">
            <path id="Trazado_821352" data-name="Trazado 821352" d="M76.65,38.611h43.742a.65.65,0,0,0,0-1.3H76.65a.65.65,0,1,0,0,1.3Z" transform="translate(-46.472 -30.058)" fill="#3f3679"/>
            <path id="Trazado_821353" data-name="Trazado 821353" d="M76.65,52.791h43.742a.65.65,0,0,0,0-1.3H76.65a.65.65,0,0,0,0,1.3Z" transform="translate(-46.472 -38.097)" fill="#3f3679"/>
            <path id="Trazado_821354" data-name="Trazado 821354" d="M76.65,66.973h43.742a.65.65,0,0,0,0-1.3H76.65a.65.65,0,1,0,0,1.3Z" transform="translate(-46.472 -46.137)" fill="#3f3679"/>
            <path id="Trazado_821355" data-name="Trazado 821355" d="M76.65,81.153h43.742a.65.65,0,0,0,0-1.3H76.65a.65.65,0,0,0,0,1.3Z" transform="translate(-46.472 -54.176)" fill="#3f3679"/>
            <path id="Trazado_821356" data-name="Trazado 821356" d="M16.266,232.438H8.47a.65.65,0,0,0,0,1.3h7.8a.65.65,0,0,0,0-1.3Z" transform="translate(-7.82 -140.678)" fill="#3f3679"/>
            <path id="Trazado_821357" data-name="Trazado 821357" d="M235.623,232.438h-7.8a.65.65,0,1,0,0,1.3h7.8a.65.65,0,1,0,0-1.3Z" transform="translate(-132.177 -140.678)" fill="#3f3679"/>
            <path id="Trazado_821358" data-name="Trazado 821358" d="M115.041,232.438H36.671a.65.65,0,0,0,0,1.3h78.37a.65.65,0,1,0,0-1.3Z" transform="translate(-23.808 -140.678)" fill="#3f3679"/>
            <path id="Trazado_821359" data-name="Trazado 821359" d="M8.47,108.87h102.8a.65.65,0,0,0,0-1.3h-15.6a8.775,8.775,0,0,0,4.208-7.482V53.048a.65.65,0,0,0-.65-.65h-9.6V21.212a.65.65,0,0,0-.65-.65H30.76a.65.65,0,0,0-.65.65V33.958h-.3a9.96,9.96,0,0,0-9.948,9.948v56.181a8.768,8.768,0,0,0,4.2,7.483H8.47a.649.649,0,1,0,0,1.3Zm90.1-8.782a7.49,7.49,0,0,1-7.482,7.482H33.241a8.785,8.785,0,0,0,4.189-7.483V62.346A8.659,8.659,0,0,1,46.079,53.7H98.572v46.391ZM31.41,21.861H88.326V52.4H46.079a9.96,9.96,0,0,0-9.948,9.948V99.384H31.41ZM27.3,107.443a7.472,7.472,0,0,1-6.137-7.356V43.906a8.659,8.659,0,0,1,8.649-8.649h.3v64.776a.65.65,0,0,0,.65.65H36.1a7.449,7.449,0,0,1-8.8,6.76Z" transform="translate(-7.82 -20.562)" fill="#3f3679"/>
            <path id="Trazado_821360" data-name="Trazado 821360" d="M118.953,152.7A21.257,21.257,0,1,0,97.7,131.444,21.281,21.281,0,0,0,118.953,152.7Zm0-41.215A19.958,19.958,0,1,1,99,131.444a19.981,19.981,0,0,1,19.957-19.958Z" transform="translate(-58.772 -71.372)" fill="#3f3679"/>
            <path id="Trazado_821361" data-name="Trazado 821361" d="M122.345,156.811h20.427a.65.65,0,0,0,.65-.65V144.468a.65.65,0,0,0-.65-.65h-1.648v-2.274a.65.65,0,0,0-.65-.65H135.53a.65.65,0,0,0-.65.65v2.274h-4.764v-2.274a.65.65,0,0,0-.65-.65h-4.945a.65.65,0,0,0-.65.65v2.274h-1.528a.65.65,0,0,0-.65.65v11.693A.65.65,0,0,0,122.345,156.811Zm13.835-14.617h3.645v1.624H136.18Zm-11.008,0h3.645v1.624h-3.645Zm-2.178,2.923h19.128v10.394H122.994Z" transform="translate(-72.378 -88.781)" fill="#3f3679"/>
          </g>
        </g>
      </g>
      <rect id="Rectángulo_376237" data-name="Rectángulo 376237" width="5.151" height="30.302" rx="2.575" transform="translate(1355.774 4987.649) rotate(45)" fill="#ffb476"/>
      <g id="Grupo_1074236" data-name="Grupo 1074236" transform="translate(1243.633 5025.667) rotate(-90)">
        <g id="Group_881454" data-name="Group 881454" transform="translate(0 28.84)">
          <g id="Grupo_108438" data-name="Grupo 108438">
            <path id="Trazado_165433" data-name="Trazado 165433" d="M0,1.776A1.775,1.775,0,1,0,1.774,0,1.775,1.775,0,0,0,0,1.776" fill="#2efec7"/>
            <g id="Grupo_108437" data-name="Grupo 108437" clip-path="url(#clip-path-8)">
              <g id="Group_881453" data-name="Group 881453" transform="translate(0 0)">
                <rect id="Rectangle_298909" data-name="Rectangle 298909" width="3.549" height="3.549" fill="#2efec7"/>
              </g>
            </g>
          </g>
        </g>
        <g id="Group_881458" data-name="Group 881458" transform="translate(0)">
          <g id="Grupo_108442" data-name="Grupo 108442">
            <path id="Trazado_165437" data-name="Trazado 165437" d="M1.774,0A1.774,1.774,0,1,0,3.549,1.775,1.774,1.774,0,0,0,1.774,0Z" fill="#2efec7"/>
            <g id="Grupo_108441" data-name="Grupo 108441" clip-path="url(#clip-path-9)">
              <g id="Group_881457" data-name="Group 881457" transform="translate(0 0.001)">
                <rect id="Rectangle_298911" data-name="Rectangle 298911" width="3.549" height="3.548" fill="#2efec7"/>
              </g>
            </g>
          </g>
        </g>
        <g id="Group_881460" data-name="Group 881460" transform="translate(12.028 28.84)">
          <g id="Grupo_108444" data-name="Grupo 108444">
            <path id="Trazado_165439" data-name="Trazado 165439" d="M0,1.776A1.774,1.774,0,1,0,1.774,0,1.775,1.775,0,0,0,0,1.776" fill="#2efec7"/>
            <g id="Grupo_108443" data-name="Grupo 108443" clip-path="url(#clip-path-10)">
              <g id="Group_881459" data-name="Group 881459" transform="translate(0 0)">
                <rect id="Rectangle_298912" data-name="Rectangle 298912" width="3.549" height="3.549" fill="#2efec7"/>
              </g>
            </g>
          </g>
        </g>
        <g id="Group_881462" data-name="Group 881462" transform="translate(12.028 15.011)">
          <g id="Grupo_108446" data-name="Grupo 108446">
            <path id="Trazado_165441" data-name="Trazado 165441" d="M0,1.775A1.774,1.774,0,1,0,1.774,0,1.774,1.774,0,0,0,0,1.775" fill="#2efec7"/>
            <g id="Grupo_108445" data-name="Grupo 108445" clip-path="url(#clip-path-11)">
              <g id="Group_881461" data-name="Group 881461" transform="translate(0 0)">
                <rect id="Rectangle_298913" data-name="Rectangle 298913" width="3.549" height="3.549" fill="#2efec7"/>
              </g>
            </g>
          </g>
        </g>
        <g id="Group_881464" data-name="Group 881464" transform="translate(12.028)">
          <g id="Grupo_108448" data-name="Grupo 108448">
            <path id="Trazado_165443" data-name="Trazado 165443" d="M1.774,0A1.774,1.774,0,1,0,3.548,1.775,1.774,1.774,0,0,0,1.774,0Z" fill="#2efec7"/>
            <g id="Grupo_108447" data-name="Grupo 108447" clip-path="url(#clip-path-12)">
              <g id="Group_881463" data-name="Group 881463" transform="translate(-0.001 0.001)">
                <rect id="Rectangle_298914" data-name="Rectangle 298914" width="3.549" height="3.548" fill="#2efec7"/>
              </g>
            </g>
          </g>
        </g>
        <g id="Group_881454-2" data-name="Group 881454" transform="translate(24.575 28.84)">
          <g id="Grupo_108450" data-name="Grupo 108450">
            <path id="Trazado_165445" data-name="Trazado 165445" d="M0,1.776A1.775,1.775,0,1,0,1.774,0,1.775,1.775,0,0,0,0,1.776" fill="#2efec7"/>
            <g id="Grupo_108449" data-name="Grupo 108449" clip-path="url(#clip-path-8)">
              <g id="Group_881453-2" data-name="Group 881453" transform="translate(0 0)">
                <rect id="Rectangle_298909-2" data-name="Rectangle 298909" width="3.549" height="3.549" fill="#2efec7"/>
              </g>
            </g>
          </g>
        </g>
        <g id="Group_881456" data-name="Group 881456" transform="translate(24.575 15.011)">
          <g id="Grupo_108452" data-name="Grupo 108452">
            <path id="Trazado_165447" data-name="Trazado 165447" d="M0,1.775A1.775,1.775,0,1,0,1.775,0h0A1.777,1.777,0,0,0,0,1.775" fill="#2efec7"/>
            <g id="Grupo_108451" data-name="Grupo 108451" clip-path="url(#clip-path-14)">
              <g id="Group_881455" data-name="Group 881455" transform="translate(0 0)">
                <rect id="Rectangle_298910" data-name="Rectangle 298910" width="3.549" height="3.549" fill="#2efec7"/>
              </g>
            </g>
          </g>
        </g>
        <g id="Group_881458-2" data-name="Group 881458" transform="translate(24.576)">
          <g id="Grupo_108454" data-name="Grupo 108454">
            <path id="Trazado_165449" data-name="Trazado 165449" d="M1.774,0A1.774,1.774,0,1,0,3.548,1.775,1.774,1.774,0,0,0,1.774,0Z" fill="#2efec7"/>
            <g id="Grupo_108453" data-name="Grupo 108453" clip-path="url(#clip-path-12)">
              <g id="Group_881457-2" data-name="Group 881457" transform="translate(-0.001 0.001)">
                <rect id="Rectangle_298911-2" data-name="Rectangle 298911" width="3.549" height="3.548" fill="#2efec7"/>
              </g>
            </g>
          </g>
        </g>
        <g id="Group_881460-2" data-name="Group 881460" transform="translate(36.603 28.84)">
          <g id="Grupo_108456" data-name="Grupo 108456">
            <path id="Trazado_165451" data-name="Trazado 165451" d="M0,1.776A1.774,1.774,0,1,0,1.774,0,1.774,1.774,0,0,0,0,1.776" fill="#2efec7"/>
            <g id="Grupo_108455" data-name="Grupo 108455" clip-path="url(#clip-path-16)">
              <g id="Group_881459-2" data-name="Group 881459" transform="translate(0 0)">
                <rect id="Rectangle_298912-2" data-name="Rectangle 298912" width="3.549" height="3.549" fill="#2efec7"/>
              </g>
            </g>
          </g>
        </g>
        <g id="Group_881462-2" data-name="Group 881462" transform="translate(36.603 15.011)">
          <g id="Grupo_108458" data-name="Grupo 108458">
            <path id="Trazado_165453" data-name="Trazado 165453" d="M0,1.775A1.774,1.774,0,1,0,1.774,0,1.774,1.774,0,0,0,0,1.775" fill="#2efec7"/>
            <g id="Grupo_108457" data-name="Grupo 108457" clip-path="url(#clip-path-11)">
              <g id="Group_881461-2" data-name="Group 881461" transform="translate(0 0)">
                <rect id="Rectangle_298913-2" data-name="Rectangle 298913" width="3.549" height="3.549" fill="#2efec7"/>
              </g>
            </g>
          </g>
        </g>
        <g id="Group_881464-2" data-name="Group 881464" transform="translate(36.603)">
          <g id="Grupo_108460" data-name="Grupo 108460">
            <path id="Trazado_165455" data-name="Trazado 165455" d="M1.774,0A1.774,1.774,0,1,0,3.548,1.775,1.774,1.774,0,0,0,1.774,0Z" fill="#2efec7"/>
            <g id="Grupo_108459" data-name="Grupo 108459" clip-path="url(#clip-path-12)">
              <g id="Group_881463-2" data-name="Group 881463" transform="translate(0 0.001)">
                <rect id="Rectangle_298914-2" data-name="Rectangle 298914" width="3.549" height="3.548" fill="#2efec7"/>
              </g>
            </g>
          </g>
        </g>
        <g id="Group_881456-2" data-name="Group 881456" transform="translate(0 15.011)">
          <g id="Grupo_108440" data-name="Grupo 108440">
            <path id="Trazado_165435" data-name="Trazado 165435" d="M0,1.775A1.775,1.775,0,1,0,1.775,0h0A1.776,1.776,0,0,0,0,1.775" fill="#2efec7"/>
            <g id="Grupo_108439" data-name="Grupo 108439" clip-path="url(#clip-path-19)">
              <g id="Group_881455-2" data-name="Group 881455" transform="translate(0 0)">
                <rect id="Rectangle_298910-2" data-name="Rectangle 298910" width="3.549" height="3.549" fill="#2efec7"/>
              </g>
            </g>
          </g>
        </g>
      </g>
      <rect id="Rectángulo_376238" data-name="Rectángulo 376238" width="5.555" height="35.833" rx="2.778" transform="translate(1251.216 5044.624) rotate(45)" fill="#ff6148"/>
    </g>
  </g>
</svg>
