<svg xmlns="http://www.w3.org/2000/svg" xmlns:xlink="http://www.w3.org/1999/xlink" width="133.538" height="118.215" viewBox="0 0 133.538 118.215">
  <defs>
    <clipPath id="clip-path">
      <rect id="Rectángulo_376236" data-name="Rectángulo 376236" width="114.09" height="113.311" fill="#ffb476"/>
    </clipPath>
    <clipPath id="clip-path-2">
      <rect id="Rectángulo_376235" data-name="Rectángulo 376235" width="114.09" height="108.122" fill="#ffb476"/>
    </clipPath>
    <clipPath id="clip-path-3">
      <rect id="Rectángulo_376230" data-name="Rectángulo 376230" width="114.09" height="103.021" fill="#ffb476"/>
    </clipPath>
    <clipPath id="clip-path-4">
      <rect id="Rectángulo_376232" data-name="Rectángulo 376232" width="12.22" height="7.606" fill="#ffb476"/>
    </clipPath>
    <clipPath id="clip-path-5">
      <rect id="Rectángulo_376231" data-name="Rectángulo 376231" width="20.861" height="15.677" fill="#ffb476"/>
    </clipPath>
    <clipPath id="clip-path-6">
      <rect id="Rectángulo_376233" data-name="Rectángulo 376233" width="4.72" height="4.389" fill="#ffb476"/>
    </clipPath>
    <clipPath id="clip-path-7">
      <rect id="Rectángulo_376234" data-name="Rectángulo 376234" width="13.45" height="7.098" fill="#ffb476"/>
    </clipPath>
    <clipPath id="clip-path-8">
      <path id="Trazado_165434" data-name="Trazado 165434" d="M0,1.776A1.775,1.775,0,1,0,1.774,0,1.775,1.775,0,0,0,0,1.776" fill="#2efec7"/>
    </clipPath>
    <clipPath id="clip-path-9">
      <path id="Trazado_165438" data-name="Trazado 165438" d="M1.774,0A1.774,1.774,0,1,0,3.549,1.775,1.774,1.774,0,0,0,1.774,0Z" fill="#2efec7"/>
    </clipPath>
    <clipPath id="clip-path-10">
      <path id="Trazado_165440" data-name="Trazado 165440" d="M0,1.776A1.774,1.774,0,1,0,1.774,0,1.775,1.775,0,0,0,0,1.776" fill="#2efec7"/>
    </clipPath>
    <clipPath id="clip-path-11">
      <path id="Trazado_165442" data-name="Trazado 165442" d="M0,1.775A1.774,1.774,0,1,0,1.774,0,1.774,1.774,0,0,0,0,1.775" fill="#2efec7"/>
    </clipPath>
    <clipPath id="clip-path-12">
      <path id="Trazado_165444" data-name="Trazado 165444" d="M1.774,0A1.774,1.774,0,1,0,3.548,1.775,1.774,1.774,0,0,0,1.774,0Z" fill="#2efec7"/>
    </clipPath>
    <clipPath id="clip-path-14">
      <path id="Trazado_165448" data-name="Trazado 165448" d="M0,1.775A1.775,1.775,0,1,0,1.775,0h0A1.777,1.777,0,0,0,0,1.775" fill="#2efec7"/>
    </clipPath>
    <clipPath id="clip-path-16">
      <path id="Trazado_165452" data-name="Trazado 165452" d="M0,1.776A1.774,1.774,0,1,0,1.774,0,1.774,1.774,0,0,0,0,1.776" fill="#2efec7"/>
    </clipPath>
    <clipPath id="clip-path-19">
      <path id="Trazado_165436" data-name="Trazado 165436" d="M0,1.775A1.775,1.775,0,1,0,1.775,0h0A1.776,1.776,0,0,0,0,1.775" fill="#2efec7"/>
    </clipPath>
  </defs>
  <g id="Grupo_1076268" data-name="Grupo 1076268" transform="translate(2214.122 6553.607)">
    <g id="Grupo_1074242" data-name="Grupo 1074242" transform="translate(-2214.122 -6553.607)">
      <g id="Grupo_1074240" data-name="Grupo 1074240" transform="translate(19.447)">
        <g id="Grupo_1072541" data-name="Grupo 1072541" transform="translate(0 0)">
          <g id="Grupo_1072558" data-name="Grupo 1072558" clip-path="url(#clip-path)">
            <g id="Grupo_1072557" data-name="Grupo 1072557" transform="translate(0 4.906)">
              <g id="Grupo_1072556" data-name="Grupo 1072556" clip-path="url(#clip-path-2)">
                <g id="Grupo_1072543" data-name="Grupo 1072543" transform="translate(0 5.384)" opacity="0.5" style="mix-blend-mode: multiply;isolation: isolate">
                  <g id="Grupo_1072542" data-name="Grupo 1072542">
                    <g id="Grupo_1072541-2" data-name="Grupo 1072541" clip-path="url(#clip-path-3)">
                      <path id="Trazado_821337" data-name="Trazado 821337" d="M86.276,85.747c-19.568,19.568-45.319,24.333-64.887,4.765C-5.16,63.964-8,44.567,18.547,18.019,32.48,4.086,41.516-.679,51.132.1c11,.888,22.714,9.849,44.019,20.439,34.41,17.1,16.1,40.228-8.875,65.208" transform="translate(0 0)" fill="#ffb476"/>
                    </g>
                  </g>
                </g>
                <g id="Grupo_1072549" data-name="Grupo 1072549" transform="translate(11.112 12.585)" opacity="0.5" style="mix-blend-mode: multiply;isolation: isolate">
                  <g id="Grupo_1072548" data-name="Grupo 1072548">
                    <g id="Grupo_1072547" data-name="Grupo 1072547" clip-path="url(#clip-path-4)">
                      <path id="Trazado_821339" data-name="Trazado 821339" d="M156.883,107.61a3.065,3.065,0,0,0,2.591,1.478,6.5,6.5,0,0,0,3-.741,23.311,23.311,0,0,0,4.957-3.3,4.279,4.279,0,0,0,1.232-1.394,1.549,1.549,0,0,0-.206-1.745,2.133,2.133,0,0,0-1.51-.418c-2.319.007-12.052,2.359-10.066,6.124" transform="translate(-156.618 -101.487)" fill="#ffb476"/>
                    </g>
                  </g>
                </g>
                <g id="Grupo_1072560" data-name="Grupo 1072560" transform="translate(64.145 0)">
                  <g id="Grupo_1072546" data-name="Grupo 1072546" transform="translate(6.833)" opacity="0.5" style="mix-blend-mode: multiply;isolation: isolate">
                    <g id="Grupo_1072545" data-name="Grupo 1072545">
                      <g id="Grupo_1072544" data-name="Grupo 1072544" clip-path="url(#clip-path-5)">
                        <path id="Trazado_821338" data-name="Trazado 821338" d="M1128.521,60.371c.446.252,1.109.456,1.385.025a.831.831,0,0,0,.061-.622,4.269,4.269,0,0,0-1.525-2.094c-2.732-2.464-5.476-4.923-8.392-7.17-1.471-1.134-2.984-2.216-4.555-3.209-1.13-.715-3.125-2.383-4.536-2.329-2.6.1-2.057,3.24-.606,4.353,2.045,1.568,4.67,2.365,6.811,3.829,3.71,2.538,7.44,5,11.357,7.218" transform="translate(-1109.138 -44.97)" fill="#ffb476"/>
                      </g>
                    </g>
                  </g>
                  <g id="Grupo_1072552" data-name="Grupo 1072552" transform="translate(0 0.579)" opacity="0.5" style="mix-blend-mode: multiply;isolation: isolate">
                    <g id="Grupo_1072551" data-name="Grupo 1072551">
                      <g id="Grupo_1072550" data-name="Grupo 1072550" clip-path="url(#clip-path-6)">
                        <path id="Trazado_821340" data-name="Trazado 821340" d="M1014.067,53.26a1.041,1.041,0,0,0-1.021.034.744.744,0,0,0-.2.7,1.9,1.9,0,0,0,.331.687,12.53,12.53,0,0,0,.773,1,5.014,5.014,0,0,0,2.391,1.785,1.08,1.08,0,0,0,.791-.033.993.993,0,0,0,.414-.953c-.09-1.377-2.32-2.809-3.477-3.228" transform="translate(-1012.827 -53.144)" fill="#ffb476"/>
                      </g>
                    </g>
                  </g>
                </g>
                <g id="Grupo_1072555" data-name="Grupo 1072555" transform="translate(75.388 99.923)" opacity="0.5" style="mix-blend-mode: multiply;isolation: isolate">
                  <g id="Grupo_1072554" data-name="Grupo 1072554">
                    <g id="Grupo_1072553" data-name="Grupo 1072553" clip-path="url(#clip-path-7)">
                      <path id="Trazado_821341" data-name="Trazado 821341" d="M1074.594,1333.094a6.932,6.932,0,0,0-2.716-.588c-1.487-.116-3.138-.184-4.291.762l-.424-.01a24.731,24.731,0,0,0-2.576,1.565,5.224,5.224,0,0,0-1.8,1.823,2.073,2.073,0,0,0,.27,2.4,3.056,3.056,0,0,0,2.591.388,52.389,52.389,0,0,0,7.578-1.814c1.2-.383,2.577-1.035,2.741-2.283a2.362,2.362,0,0,0-1.368-2.245" transform="translate(-1062.527 -1332.44)" fill="#ffb476"/>
                    </g>
                  </g>
                </g>
              </g>
            </g>
          </g>
        </g>
        <g id="piton" transform="translate(9.376 24.888)">
          <rect id="Rectángulo_376240" data-name="Rectángulo 376240" width="86.968" height="59.935" rx="13.665" transform="translate(4.185 16.007)" fill="#cecece"/>
          <path id="Trazado_821362" data-name="Trazado 821362" d="M22.336,105.227v-49.1a5.426,5.426,0,0,1,5.42-5.42H23.79a5.426,5.426,0,0,0-5.42,5.42v49.1a5.426,5.426,0,0,0,5.42,5.42h3.966A5.427,5.427,0,0,1,22.336,105.227Z" transform="translate(-14.185 -34.704)" fill="#afafaf"/>
          <path id="Trazado_821363" data-name="Trazado 821363" d="M219.385,105.227v-49.1a5.426,5.426,0,0,0-5.42-5.42h3.966a5.426,5.426,0,0,1,5.42,5.42v49.1a5.427,5.427,0,0,1-5.42,5.42h-3.966a5.426,5.426,0,0,0,5.42-5.42Z" transform="translate(-132.199 -34.704)" fill="#e2e2e2"/>
          <rect id="Rectángulo_376241" data-name="Rectángulo 376241" width="80.297" height="48.505" rx="5.256" transform="translate(7.52 19.343)" fill="#63bce7"/>
          <path id="Trazado_821364" data-name="Trazado 821364" d="M30.745,105.54V61.2A2.091,2.091,0,0,1,32.83,59.12H28.864A2.091,2.091,0,0,0,26.779,61.2V105.54a2.091,2.091,0,0,0,2.085,2.085H32.83A2.091,2.091,0,0,1,30.745,105.54Z" transform="translate(-19.259 -39.777)" fill="#6377e7"/>
          <path id="Trazado_821365" data-name="Trazado 821365" d="M216.05,105.54V61.2a2.091,2.091,0,0,0-2.085-2.085h3.966a2.091,2.091,0,0,1,2.085,2.085V105.54a2.091,2.091,0,0,1-2.085,2.085h-3.966A2.091,2.091,0,0,0,216.05,105.54Z" transform="translate(-132.199 -39.777)" fill="#63e2e7"/>
          <path id="Trazado_821366" data-name="Trazado 821366" d="M89.809,223.975h30.3v3.648h-30.3Z" transform="translate(-57.289 -139.243)" fill="#9e9e9e"/>
          <path id="Trazado_821367" data-name="Trazado 821367" d="M89.809,223.975h3.966v3.648H89.809Z" transform="translate(-57.289 -139.243)" fill="#707070"/>
          <path id="Trazado_821368" data-name="Trazado 821368" d="M100.67,201.817h21.68v8.789H100.67Z" transform="translate(-63.842 -125.874)" fill="#cecece"/>
          <path id="Trazado_821369" data-name="Trazado 821369" d="M100.67,201.817h3.966v8.789H100.67Z" transform="translate(-63.842 -125.874)" fill="#afafaf"/>
          <circle id="Elipse_10456" data-name="Elipse 10456" cx="1.785" cy="1.785" r="1.785" transform="translate(45.884 70.11)" fill="#9e9e9e"/>
          <rect id="Rectángulo_376242" data-name="Rectángulo 376242" width="61.276" height="52.493" rx="10.6" transform="translate(17.031 0.595)" fill="#cecece"/>
          <path id="Trazado_821370" data-name="Trazado 821370" d="M54.723,60.144V16.058a4.2,4.2,0,0,1,4.2-4.2H54.961a4.2,4.2,0,0,0-4.2,4.2V60.144a4.2,4.2,0,0,0,4.2,4.2h3.966a4.2,4.2,0,0,1-4.2-4.2Z" transform="translate(-33.726 -11.259)" fill="#afafaf"/>
          <path id="Trazado_821371" data-name="Trazado 821371" d="M188.847,60.144V16.058a4.2,4.2,0,0,0-4.2-4.2h3.966a4.2,4.2,0,0,1,4.2,4.2V60.144a4.2,4.2,0,0,1-4.2,4.2h-3.966A4.2,4.2,0,0,0,188.847,60.144Z" transform="translate(-114.507 -11.259)" fill="#e2e2e2"/>
          <path id="Trazado_821372" data-name="Trazado 821372" d="M112.034,16.06a4.2,4.2,0,0,0-4.2-4.2H54.963a4.2,4.2,0,0,0-4.2,4.2v7.318h61.275Z" transform="translate(-33.727 -11.26)" fill="#f8af23"/>
          <path id="Trazado_821373" data-name="Trazado 821373" d="M58.93,11.854H54.963a4.2,4.2,0,0,0-4.2,4.2v7.318h3.966V16.059a4.2,4.2,0,0,1,4.205-4.205Z" transform="translate(-33.727 -11.259)" fill="#f87023"/>
          <path id="Trazado_821374" data-name="Trazado 821374" d="M184.64,11.854h3.966a4.2,4.2,0,0,1,4.2,4.2v7.318h-3.966V16.059a4.2,4.2,0,0,0-4.205-4.205Z" transform="translate(-114.505 -11.259)" fill="#f8d323"/>
          <circle id="Elipse_10457" data-name="Elipse 10457" cx="1.921" cy="1.921" r="1.921" transform="translate(22.617 4.436)" fill="#f46275"/>
          <circle id="Elipse_10458" data-name="Elipse 10458" cx="1.921" cy="1.921" r="1.921" transform="translate(30.014 4.436)" fill="#f46275"/>
          <circle id="Elipse_10459" data-name="Elipse 10459" cx="1.921" cy="1.921" r="1.921" transform="translate(37.411 4.436)" fill="#f46275"/>
          <rect id="Rectángulo_376243" data-name="Rectángulo 376243" width="27.227" height="2.926" rx="1.463" transform="translate(45.494 5.019)" fill="#f46275"/>
          <path id="Trazado_821375" data-name="Trazado 821375" d="M110.307,57.782h-4.943V52.839a5.227,5.227,0,0,0-5.221-5.221H95.27a5.227,5.227,0,0,0-5.221,5.221v4.943H85.105A5.227,5.227,0,0,0,79.884,63v4.873A5.227,5.227,0,0,0,85.105,73.1h4.943v4.943a5.227,5.227,0,0,0,5.221,5.221h4.873a5.227,5.227,0,0,0,5.221-5.221V73.1h4.943a5.227,5.227,0,0,0,5.221-5.221V63a5.227,5.227,0,0,0-5.221-5.221ZM85.105,71.01a3.136,3.136,0,0,1-3.133-3.133V63a3.136,3.136,0,0,1,3.133-3.133h12.6a1.044,1.044,0,1,0,0-2.089h-5.57V52.839a3.136,3.136,0,0,1,3.133-3.133h4.873a3.136,3.136,0,0,1,3.133,3.133V64.4H91.093a1.044,1.044,0,0,0-1.044,1.044v5.57Zm28.335-3.133a3.136,3.136,0,0,1-3.133,3.133h-12.6a1.044,1.044,0,0,0,0,2.089h5.57v4.943a3.136,3.136,0,0,1-3.133,3.133H95.27a3.136,3.136,0,0,1-3.133-3.133V66.485H104.32a1.044,1.044,0,0,0,1.044-1.044V59.871h4.943A3.136,3.136,0,0,1,113.44,63Z" transform="translate(-51.3 -32.837)" fill="#3f3679"/>
          <path id="Trazado_821376" data-name="Trazado 821376" d="M118.13,61.826a1.044,1.044,0,1,1-1.044-1.044A1.044,1.044,0,0,1,118.13,61.826Z" transform="translate(-73.116 -40.78)" fill="#3f3679"/>
          <path id="Trazado_821377" data-name="Trazado 821377" d="M130.416,120.1a1.044,1.044,0,1,1-1.044-1.044A1.044,1.044,0,0,1,130.416,120.1Z" transform="translate(-80.529 -75.939)" fill="#3f3679"/>
          <circle id="Elipse_10460" data-name="Elipse 10460" cx="13.542" cy="13.542" r="13.542" transform="translate(60.733 40.764)" fill="#f8af23"/>
          <path id="Trazado_821378" data-name="Trazado 821378" d="M192.062,113.125a13.646,13.646,0,0,0-1.983.146,13.542,13.542,0,0,1,0,26.792,13.542,13.542,0,1,0,1.983-26.938Z" transform="translate(-117.787 -72.361)" fill="#f8d323"/>
          <g id="Grupo_1074241" data-name="Grupo 1074241">
            <path id="Trazado_821379" data-name="Trazado 821379" d="M124.38,190.373a2.38,2.38,0,1,0-2.38-2.38A2.38,2.38,0,0,0,124.38,190.373Zm0-3.57a1.19,1.19,0,1,1-1.19,1.19A1.19,1.19,0,0,1,124.38,186.8Z" transform="translate(-76.711 -116.098)" fill="#3f3679"/>
            <path id="Trazado_821380" data-name="Trazado 821380" d="M15.558,242.646H8.418a.595.595,0,0,0,0,1.19h7.14a.595.595,0,1,0,0-1.19Z" transform="translate(-7.822 -150.509)" fill="#3f3679"/>
            <path id="Trazado_821381" data-name="Trazado 821381" d="M234.915,242.646h-7.14a.595.595,0,0,0,0,1.19h7.14a.595.595,0,1,0,0-1.19Z" transform="translate(-140.172 -150.509)" fill="#3f3679"/>
            <path id="Trazado_821382" data-name="Trazado 821382" d="M108.392,242.646H36.616a.595.595,0,0,0,0,1.19h71.776a.595.595,0,1,0,0-1.19Z" transform="translate(-24.835 -150.509)" fill="#3f3679"/>
            <path id="Trazado_821383" data-name="Trazado 821383" d="M8.415,99.329h94.147a.595.595,0,1,0,0-1.19H71.232V95.085a.6.6,0,0,0-.595-.595H66.924v-7.6h26.63a6.022,6.022,0,0,0,6.015-6.015v-49.1a6.022,6.022,0,0,0-6.015-6.015H86.721V15.153a4.8,4.8,0,0,0-4.8-4.8H29.055a4.8,4.8,0,0,0-4.8,4.8V25.766H17.425a6.022,6.022,0,0,0-6.015,6.015v49.1a6.022,6.022,0,0,0,6.015,6.015H44.053v7.6H40.34a.6.6,0,0,0-.595.595V98.14H8.415a.595.595,0,0,0,0,1.19ZM95.042,58.99A14.208,14.208,0,0,0,86.721,51.3V30.292h6.832a1.491,1.491,0,0,1,1.489,1.49ZM82.095,77.605A12.947,12.947,0,1,1,95.042,64.658,12.947,12.947,0,0,1,82.095,77.605Zm12.947-7.279v5.791a1.491,1.491,0,0,1-1.489,1.49H87.762a14.218,14.218,0,0,0,7.281-7.28ZM85.531,50.946a14.132,14.132,0,0,0-17.452,11.9H29.055a3.614,3.614,0,0,1-3.609-3.609V23.067H85.531ZM29.055,64.035H67.973c-.009.207-.016.414-.016.622A14.155,14.155,0,0,0,76.426,77.6h-59a1.491,1.491,0,0,1-1.49-1.49V31.782a1.491,1.491,0,0,1,1.49-1.49h6.831V59.239a4.8,4.8,0,0,0,4.8,4.8ZM81.921,11.544a3.614,3.614,0,0,1,3.609,3.609v6.724H25.446V15.154a3.614,3.614,0,0,1,3.609-3.609ZM12.6,80.877v-49.1a4.83,4.83,0,0,1,4.825-4.825h6.831V29.1H17.425a2.683,2.683,0,0,0-2.68,2.68V76.117a2.683,2.683,0,0,0,2.68,2.68H93.553a2.683,2.683,0,0,0,2.679-2.68V31.782a2.683,2.683,0,0,0-2.679-2.68H86.721V26.956h6.832a4.83,4.83,0,0,1,4.825,4.825v49.1A4.83,4.83,0,0,1,93.553,85.7H17.425A4.831,4.831,0,0,1,12.6,80.877Zm32.644,6.015h20.49v7.6H45.243Zm-4.308,8.789H70.042V98.14H40.935Z" transform="translate(-7.82 -10.354)" fill="#3f3679"/>
            <path id="Trazado_821384" data-name="Trazado 821384" d="M65.856,25.069a2.516,2.516,0,1,0-2.516-2.516,2.516,2.516,0,0,0,2.516,2.516Zm0-3.841a1.326,1.326,0,1,1-1.326,1.326A1.326,1.326,0,0,1,65.856,21.228Z" transform="translate(-41.318 -16.197)" fill="#3f3679"/>
            <path id="Trazado_821385" data-name="Trazado 821385" d="M84.506,25.069a2.516,2.516,0,1,0-2.516-2.516,2.516,2.516,0,0,0,2.516,2.516Zm0-3.841a1.326,1.326,0,1,1-1.326,1.326,1.326,1.326,0,0,1,1.326-1.326Z" transform="translate(-52.571 -16.197)" fill="#3f3679"/>
            <path id="Trazado_821386" data-name="Trazado 821386" d="M103.155,25.069a2.516,2.516,0,1,0-2.516-2.516,2.516,2.516,0,0,0,2.516,2.516Zm0-3.841a1.326,1.326,0,1,1-1.326,1.326,1.326,1.326,0,0,1,1.326-1.326Z" transform="translate(-63.823 -16.197)" fill="#3f3679"/>
            <path id="Trazado_821387" data-name="Trazado 821387" d="M123.075,25.624h24.3a2.058,2.058,0,1,0,0-4.116h-24.3a2.058,2.058,0,1,0,0,4.116Zm0-2.926h24.3a.868.868,0,1,1,0,1.737h-24.3a.868.868,0,1,1,0-1.737Z" transform="translate(-76.118 -17.084)" fill="#3f3679"/>
            <path id="Trazado_821388" data-name="Trazado 821388" d="M173.6,141.135V143.8a.6.6,0,0,1-.6.6h-1.462a.6.6,0,0,1-.6-.6v-9.809a.6.6,0,0,1,.6-.6h3.713a4.19,4.19,0,0,1,2.99.973,3.443,3.443,0,0,1,1.028,2.623,3.613,3.613,0,0,1-.46,1.83,3.184,3.184,0,0,1-1.362,1.261,4.8,4.8,0,0,1-2.2.459H174.2a.6.6,0,0,0-.6.6Zm2.958-4.15q0-1.448-1.6-1.448H174.2a.6.6,0,0,0-.6.6V137.8a.6.6,0,0,0,.6.6h.754q1.6,0,1.6-1.419Z" transform="translate(-106.238 -84.586)" fill="#3f3679"/>
            <path id="Trazado_821389" data-name="Trazado 821389" d="M203.675,134.266l-3.292,6.342a.6.6,0,0,0-.067.278V143.8a.6.6,0,0,1-.6.6h-1.478a.6.6,0,0,1-.6-.6v-2.912a.6.6,0,0,0-.067-.278l-3.292-6.342a.6.6,0,0,1,.533-.877h1.683a.6.6,0,0,1,.543.344l1.412,2.99a.6.6,0,0,0,1.086,0l1.412-2.99a.6.6,0,0,1,.543-.344h1.652a.6.6,0,0,1,.533.877Z" transform="translate(-120.279 -84.588)" fill="#3f3679"/>
          </g>
        </g>
      </g>
      <rect id="Rectángulo_376241-2" data-name="Rectángulo 376241" width="5.151" height="30.302" rx="2.575" transform="translate(129.896 28.756) rotate(45)" fill="#ffb476"/>
      <g id="Grupo_1074241-2" data-name="Grupo 1074241" transform="translate(17.755 66.775) rotate(-90)">
        <g id="Group_881454" data-name="Group 881454" transform="translate(0 28.84)">
          <g id="Grupo_108438" data-name="Grupo 108438">
            <path id="Trazado_165433" data-name="Trazado 165433" d="M0,1.776A1.775,1.775,0,1,0,1.774,0,1.775,1.775,0,0,0,0,1.776" fill="#2efec7"/>
            <g id="Grupo_108437" data-name="Grupo 108437" clip-path="url(#clip-path-8)">
              <g id="Group_881453" data-name="Group 881453" transform="translate(0 0)">
                <rect id="Rectangle_298909" data-name="Rectangle 298909" width="3.549" height="3.549" fill="#2efec7"/>
              </g>
            </g>
          </g>
        </g>
        <g id="Group_881458" data-name="Group 881458" transform="translate(0 0)">
          <g id="Grupo_108442" data-name="Grupo 108442">
            <path id="Trazado_165437" data-name="Trazado 165437" d="M1.774,0A1.774,1.774,0,1,0,3.549,1.775,1.774,1.774,0,0,0,1.774,0Z" fill="#2efec7"/>
            <g id="Grupo_108441" data-name="Grupo 108441" clip-path="url(#clip-path-9)">
              <g id="Group_881457" data-name="Group 881457" transform="translate(0 0.001)">
                <rect id="Rectangle_298911" data-name="Rectangle 298911" width="3.549" height="3.548" fill="#2efec7"/>
              </g>
            </g>
          </g>
        </g>
        <g id="Group_881460" data-name="Group 881460" transform="translate(12.028 28.84)">
          <g id="Grupo_108444" data-name="Grupo 108444">
            <path id="Trazado_165439" data-name="Trazado 165439" d="M0,1.776A1.774,1.774,0,1,0,1.774,0,1.775,1.775,0,0,0,0,1.776" fill="#2efec7"/>
            <g id="Grupo_108443" data-name="Grupo 108443" clip-path="url(#clip-path-10)">
              <g id="Group_881459" data-name="Group 881459" transform="translate(0 0)">
                <rect id="Rectangle_298912" data-name="Rectangle 298912" width="3.549" height="3.549" fill="#2efec7"/>
              </g>
            </g>
          </g>
        </g>
        <g id="Group_881462" data-name="Group 881462" transform="translate(12.028 15.011)">
          <g id="Grupo_108446" data-name="Grupo 108446">
            <path id="Trazado_165441" data-name="Trazado 165441" d="M0,1.775A1.774,1.774,0,1,0,1.774,0,1.774,1.774,0,0,0,0,1.775" fill="#2efec7"/>
            <g id="Grupo_108445" data-name="Grupo 108445" clip-path="url(#clip-path-11)">
              <g id="Group_881461" data-name="Group 881461" transform="translate(0 0)">
                <rect id="Rectangle_298913" data-name="Rectangle 298913" width="3.549" height="3.549" fill="#2efec7"/>
              </g>
            </g>
          </g>
        </g>
        <g id="Group_881464" data-name="Group 881464" transform="translate(12.028 0)">
          <g id="Grupo_108448" data-name="Grupo 108448">
            <path id="Trazado_165443" data-name="Trazado 165443" d="M1.774,0A1.774,1.774,0,1,0,3.548,1.775,1.774,1.774,0,0,0,1.774,0Z" fill="#2efec7"/>
            <g id="Grupo_108447" data-name="Grupo 108447" clip-path="url(#clip-path-12)">
              <g id="Group_881463" data-name="Group 881463" transform="translate(-0.001 0.001)">
                <rect id="Rectangle_298914" data-name="Rectangle 298914" width="3.549" height="3.548" fill="#2efec7"/>
              </g>
            </g>
          </g>
        </g>
        <g id="Group_881454-2" data-name="Group 881454" transform="translate(24.575 28.84)">
          <g id="Grupo_108450" data-name="Grupo 108450">
            <path id="Trazado_165445" data-name="Trazado 165445" d="M0,1.776A1.775,1.775,0,1,0,1.774,0,1.775,1.775,0,0,0,0,1.776" fill="#2efec7"/>
            <g id="Grupo_108449" data-name="Grupo 108449" clip-path="url(#clip-path-8)">
              <g id="Group_881453-2" data-name="Group 881453" transform="translate(0 0)">
                <rect id="Rectangle_298909-2" data-name="Rectangle 298909" width="3.549" height="3.549" fill="#2efec7"/>
              </g>
            </g>
          </g>
        </g>
        <g id="Group_881456" data-name="Group 881456" transform="translate(24.575 15.011)">
          <g id="Grupo_108452" data-name="Grupo 108452">
            <path id="Trazado_165447" data-name="Trazado 165447" d="M0,1.775A1.775,1.775,0,1,0,1.775,0h0A1.777,1.777,0,0,0,0,1.775" fill="#2efec7"/>
            <g id="Grupo_108451" data-name="Grupo 108451" clip-path="url(#clip-path-14)">
              <g id="Group_881455" data-name="Group 881455" transform="translate(0 0)">
                <rect id="Rectangle_298910" data-name="Rectangle 298910" width="3.549" height="3.549" fill="#2efec7"/>
              </g>
            </g>
          </g>
        </g>
        <g id="Group_881458-2" data-name="Group 881458" transform="translate(24.576 0)">
          <g id="Grupo_108454" data-name="Grupo 108454">
            <path id="Trazado_165449" data-name="Trazado 165449" d="M1.774,0A1.774,1.774,0,1,0,3.548,1.775,1.774,1.774,0,0,0,1.774,0Z" fill="#2efec7"/>
            <g id="Grupo_108453" data-name="Grupo 108453" clip-path="url(#clip-path-12)">
              <g id="Group_881457-2" data-name="Group 881457" transform="translate(-0.001 0.001)">
                <rect id="Rectangle_298911-2" data-name="Rectangle 298911" width="3.549" height="3.548" fill="#2efec7"/>
              </g>
            </g>
          </g>
        </g>
        <g id="Group_881460-2" data-name="Group 881460" transform="translate(36.603 28.84)">
          <g id="Grupo_108456" data-name="Grupo 108456">
            <path id="Trazado_165451" data-name="Trazado 165451" d="M0,1.776A1.774,1.774,0,1,0,1.774,0,1.774,1.774,0,0,0,0,1.776" fill="#2efec7"/>
            <g id="Grupo_108455" data-name="Grupo 108455" clip-path="url(#clip-path-16)">
              <g id="Group_881459-2" data-name="Group 881459" transform="translate(0 0)">
                <rect id="Rectangle_298912-2" data-name="Rectangle 298912" width="3.549" height="3.549" fill="#2efec7"/>
              </g>
            </g>
          </g>
        </g>
        <g id="Group_881462-2" data-name="Group 881462" transform="translate(36.603 15.011)">
          <g id="Grupo_108458" data-name="Grupo 108458">
            <path id="Trazado_165453" data-name="Trazado 165453" d="M0,1.775A1.774,1.774,0,1,0,1.774,0,1.774,1.774,0,0,0,0,1.775" fill="#2efec7"/>
            <g id="Grupo_108457" data-name="Grupo 108457" clip-path="url(#clip-path-11)">
              <g id="Group_881461-2" data-name="Group 881461" transform="translate(0 0)">
                <rect id="Rectangle_298913-2" data-name="Rectangle 298913" width="3.549" height="3.549" fill="#2efec7"/>
              </g>
            </g>
          </g>
        </g>
        <g id="Group_881464-2" data-name="Group 881464" transform="translate(36.603 0)">
          <g id="Grupo_108460" data-name="Grupo 108460">
            <path id="Trazado_165455" data-name="Trazado 165455" d="M1.774,0A1.774,1.774,0,1,0,3.548,1.775,1.774,1.774,0,0,0,1.774,0Z" fill="#2efec7"/>
            <g id="Grupo_108459" data-name="Grupo 108459" clip-path="url(#clip-path-12)">
              <g id="Group_881463-2" data-name="Group 881463" transform="translate(0 0.001)">
                <rect id="Rectangle_298914-2" data-name="Rectangle 298914" width="3.549" height="3.548" fill="#2efec7"/>
              </g>
            </g>
          </g>
        </g>
        <g id="Group_881456-2" data-name="Group 881456" transform="translate(0 15.011)">
          <g id="Grupo_108440" data-name="Grupo 108440">
            <path id="Trazado_165435" data-name="Trazado 165435" d="M0,1.775A1.775,1.775,0,1,0,1.775,0h0A1.776,1.776,0,0,0,0,1.775" fill="#2efec7"/>
            <g id="Grupo_108439" data-name="Grupo 108439" clip-path="url(#clip-path-19)">
              <g id="Group_881455-2" data-name="Group 881455" transform="translate(0 0)">
                <rect id="Rectangle_298910-2" data-name="Rectangle 298910" width="3.549" height="3.549" fill="#2efec7"/>
              </g>
            </g>
          </g>
        </g>
      </g>
      <rect id="Rectángulo_376240-2" data-name="Rectángulo 376240" width="5.555" height="35.833" rx="2.778" transform="translate(25.337 85.731) rotate(45)" fill="#ff6148"/>
    </g>
  </g>
</svg>
