<svg xmlns="http://www.w3.org/2000/svg" xmlns:xlink="http://www.w3.org/1999/xlink" width="82" height="72" viewBox="0 0 82 72">
  <defs>
    <clipPath id="clip-path">
      <path id="path9927" d="M0-682.665H55.373v55.373H0Z" transform="translate(0 682.665)"/>
    </clipPath>
  </defs>
  <g id="Grupo_1076243" data-name="Grupo 1076243" transform="translate(-1151 -4433)">
    <rect id="Rectángulo_374603" data-name="Rectángulo 374603" width="82" height="72" rx="6" transform="translate(1151 4433)" fill="#fff"/>
    <g id="g9921" transform="translate(1164.313 5123.978)">
      <g id="g9923" transform="translate(0 -682.665)">
        <g id="g9925" clip-path="url(#clip-path)">
          <g id="g9931" transform="translate(12.238 0.811)">
            <path id="path9933" d="M-391.967-566.655h-32.812a1.788,1.788,0,0,1-1.788-1.788v-46.444a1.788,1.788,0,0,1,1.788-1.788h32.812a1.788,1.788,0,0,1,1.788,1.788v46.444a1.788,1.788,0,0,1-1.788,1.788" transform="translate(426.567 616.676)" fill="#ffe5c2"/>
          </g>
          <g id="g9935" transform="translate(41.308 0.811)">
            <path id="path9937" d="M-62.643,0h-5.53a1.788,1.788,0,0,1,1.788,1.788V48.232a1.788,1.788,0,0,1-1.788,1.788h5.53a1.788,1.788,0,0,0,1.788-1.788V1.788A1.788,1.788,0,0,0-62.643,0" transform="translate(68.173)" fill="#fed2a4"/>
          </g>
          <g id="g9939" transform="translate(9.047 18.735)">
            <path id="path9941" d="M-404.285-17.177V1.449h-35.688V-17.177a1.517,1.517,0,0,1,1.516-1.516H-405.8a1.517,1.517,0,0,1,1.516,1.516" transform="translate(439.972 18.693)" fill="#fed2a4"/>
          </g>
          <g id="g9943" transform="translate(9.047 28.323)">
            <path id="path9945" d="M-404.285-.2V10.341h-35.688V4.188h23.96l1.085-2.827a2.455,2.455,0,0,1,2.292-1.575h8.1a1.7,1.7,0,0,1,.248.017" transform="translate(439.972 0.213)" fill="#ffbd86"/>
          </g>
          <g id="g9947" transform="translate(37.688 18.735)">
            <path id="path9949" d="M-62.645,0h-5.53a1.517,1.517,0,0,1,1.517,1.517V20.142h5.53V1.517A1.517,1.517,0,0,0-62.645,0" transform="translate(68.174)" fill="#ffbd86"/>
          </g>
          <g id="g9951" transform="translate(16.328 5.361)">
            <path id="path9953" d="M-126.658-107.456h-9.788a1.392,1.392,0,0,1-1.392-1.392v-6.7a1.393,1.393,0,0,1,1.392-1.392h9.788a1.393,1.393,0,0,1,1.392,1.392v6.7a1.392,1.392,0,0,1-1.392,1.392" transform="translate(137.838 116.941)" fill="#fed2a4"/>
          </g>
          <g id="g9955" transform="translate(14.107 22.129)">
            <path id="path9957" d="M-98.6-83.654h-7.62a1.084,1.084,0,0,1-1.084-1.084v-5.217a1.084,1.084,0,0,1,1.084-1.084h7.62a1.084,1.084,0,0,1,1.084,1.084v5.217A1.084,1.084,0,0,1-98.6-83.654" transform="translate(107.308 91.038)" fill="#f6a96c"/>
          </g>
          <g id="g9959" transform="translate(9.047 28.323)">
            <path id="path9961" d="M-464.119-297.253h-39.169a1.8,1.8,0,0,1-1.8-1.8V-317.29a1.8,1.8,0,0,1,1.8-1.8h27.69l1.085-2.827a2.454,2.454,0,0,1,2.291-1.575h8.1a1.8,1.8,0,0,1,1.8,1.8v22.639a1.8,1.8,0,0,1-1.8,1.8" transform="translate(505.088 323.493)" fill="#7ca1b1"/>
          </g>
          <g id="g9963" transform="translate(44.487 28.323)">
            <path id="path9965" d="M-62.643,0h-5.53a1.8,1.8,0,0,1,1.8,1.8V24.439a1.8,1.8,0,0,1-1.8,1.8h5.53a1.8,1.8,0,0,0,1.8-1.8V1.8a1.8,1.8,0,0,0-1.8-1.8" transform="translate(68.173)" fill="#678d98"/>
          </g>
          <g id="g9967" transform="translate(3.556 32.724)">
            <path id="path9969" d="M-149.048-174.967h-10.869a2.288,2.288,0,0,1-2.288-2.288v-10.869a2.288,2.288,0,0,1,2.288-2.288h10.869a2.288,2.288,0,0,1,2.288,2.288v10.869a2.288,2.288,0,0,1-2.288,2.288" transform="translate(162.205 190.412)" fill="#fd4755"/>
          </g>
          <g id="g9971" transform="translate(13.411 32.724)">
            <path id="path9973" d="M-37.411,0h-3.3a2.288,2.288,0,0,1,2.288,2.288V13.157a2.288,2.288,0,0,1-2.288,2.288h3.3a2.288,2.288,0,0,0,2.288-2.288V2.288A2.288,2.288,0,0,0-37.411,0" transform="translate(40.713)" fill="#fb2b3a"/>
          </g>
          <g id="g9975" transform="translate(8.241 39.877)">
            <path id="path9977" d="M-58.394-56.4h-4.234a.921.921,0,0,1-.921-.921v-3.137a.921.921,0,0,1,.921-.921h4.234a.921.921,0,0,1,.921.921v3.137a.921.921,0,0,1-.921.921" transform="translate(63.549 61.379)" fill="#a0e557"/>
          </g>
          <g id="g9979" transform="translate(10.093 39.877)">
            <path id="path9981" d="M-37.411,0h-3.3a.921.921,0,0,1,.921.921V4.058a.921.921,0,0,1-.921.921h3.3a.921.921,0,0,0,.921-.921V.921A.921.921,0,0,0-37.411,0" transform="translate(40.713)" fill="#a0e557"/>
          </g>
          <g id="g9983" transform="translate(12.238 0.811)">
            <path id="path9985" d="M0-159.837v-12.321a1.788,1.788,0,0,1,1.789-1.789H34.6a1.788,1.788,0,0,1,1.789,1.789v25.723" transform="translate(0 173.946)" fill="none" stroke="#000" stroke-linecap="round" stroke-linejoin="round" stroke-miterlimit="10" stroke-width="1.2"/>
          </g>
          <g id="g9987" transform="translate(8.241 39.877)">
            <path id="path9989" d="M-58.394-56.4h-4.234a.921.921,0,0,1-.921-.921v-3.137a.921.921,0,0,1,.921-.921h4.234a.921.921,0,0,1,.921.921v3.137A.921.921,0,0,1-58.394-56.4Z" transform="translate(63.549 61.379)" fill="none" stroke="#000" stroke-linecap="round" stroke-linejoin="round" stroke-miterlimit="10" stroke-width="1.2"/>
          </g>
          <g id="g9991" transform="translate(9.359 36.038)">
            <path id="path9993" d="M-21.748,0h0a1.92,1.92,0,0,0-1.92,1.92V3.84h3.84V1.92A1.92,1.92,0,0,0-21.748,0Z" transform="translate(23.668)" fill="none" stroke="#000" stroke-linecap="round" stroke-linejoin="round" stroke-miterlimit="10" stroke-width="1.2"/>
          </g>
          <g id="g9995" transform="translate(3.556 32.724)">
            <path id="path9997" d="M-149.048-174.967h-10.869a2.288,2.288,0,0,1-2.288-2.288v-10.869a2.288,2.288,0,0,1,2.288-2.288h10.869a2.288,2.288,0,0,1,2.288,2.288v10.869A2.288,2.288,0,0,1-149.048-174.967Z" transform="translate(162.205 190.412)" fill="none" stroke="#000" stroke-linecap="round" stroke-linejoin="round" stroke-miterlimit="10" stroke-width="1.2"/>
          </g>
          <g id="g9999" transform="translate(10.847 28.323)">
            <path id="path10001" d="M-464.122-200.98v-15.942a1.8,1.8,0,0,0-1.8-1.8h-8.1a2.455,2.455,0,0,0-2.292,1.575l-1.085,2.827h-27.69" transform="translate(505.092 218.721)" fill="none" stroke="#000" stroke-linecap="round" stroke-linejoin="round" stroke-miterlimit="10" stroke-width="1.2"/>
          </g>
          <g id="g10003" transform="translate(9.047 48.169)">
            <path id="path10005" d="M0,0V4.593a1.8,1.8,0,0,0,1.8,1.8H40.97a1.8,1.8,0,0,0,1.8-1.8V1.706" fill="none" stroke="#000" stroke-linecap="round" stroke-linejoin="round" stroke-miterlimit="10" stroke-width="1.2"/>
          </g>
          <g id="g10007" transform="translate(42.882 32.724)">
            <path id="path10009" d="M0,0H5.744" fill="none" stroke="#000" stroke-linecap="round" stroke-linejoin="round" stroke-miterlimit="10" stroke-width="1.2"/>
          </g>
          <g id="g10011" transform="translate(16.328 5.361)">
            <path id="path10013" d="M-126.658-107.456h-9.788a1.392,1.392,0,0,1-1.392-1.392v-6.7a1.393,1.393,0,0,1,1.392-1.392h9.788a1.393,1.393,0,0,1,1.392,1.392v6.7A1.392,1.392,0,0,1-126.658-107.456Z" transform="translate(137.838 116.941)" fill="none" stroke="#000" stroke-linecap="round" stroke-linejoin="round" stroke-miterlimit="10" stroke-width="1.2"/>
          </g>
          <g id="g10015" transform="translate(16.328 6.753)">
            <path id="path10017" d="M-142.432,0-155,6.7" transform="translate(155.005)" fill="none" stroke="#000" stroke-linecap="round" stroke-linejoin="round" stroke-miterlimit="10" stroke-width="1.2"/>
          </g>
          <g id="g10019" transform="translate(14.107 22.129)">
            <path id="path10021" d="M-98.6-83.654h-7.62a1.084,1.084,0,0,1-1.084-1.084v-5.217a1.084,1.084,0,0,1,1.084-1.084h7.62a1.084,1.084,0,0,1,1.084,1.084v5.217A1.084,1.084,0,0,1-98.6-83.654Z" transform="translate(107.308 91.038)" fill="none" stroke="#000" stroke-linecap="round" stroke-linejoin="round" stroke-miterlimit="10" stroke-width="1.2"/>
          </g>
          <g id="g10023" transform="translate(14.107 23.213)">
            <path id="path10025" d="M-110.884,0l-9.788,5.217" transform="translate(120.672)" fill="none" stroke="#000" stroke-linecap="round" stroke-linejoin="round" stroke-miterlimit="10" stroke-width="1.2"/>
          </g>
          <g id="g10027" transform="translate(34.329 5.361)">
            <path id="path10029" d="M0,0,3.278,3.278" fill="none" stroke="#000" stroke-linecap="round" stroke-linejoin="round" stroke-miterlimit="10" stroke-width="1.2"/>
          </g>
          <g id="g10031" transform="translate(34.329 5.361)">
            <path id="path10033" d="M-37.129,0l-3.278,3.278" transform="translate(40.407)" fill="none" stroke="#000" stroke-linecap="round" stroke-linejoin="round" stroke-miterlimit="10" stroke-width="1.2"/>
          </g>
          <g id="g10035" transform="translate(41.457 5.361)">
            <path id="path10037" d="M0,0,3.278,3.278" fill="none" stroke="#000" stroke-linecap="round" stroke-linejoin="round" stroke-miterlimit="10" stroke-width="1.2"/>
          </g>
          <g id="g10039" transform="translate(41.457 5.361)">
            <path id="path10041" d="M-37.129,0l-3.278,3.278" transform="translate(40.407)" fill="none" stroke="#000" stroke-linecap="round" stroke-linejoin="round" stroke-miterlimit="10" stroke-width="1.2"/>
          </g>
          <g id="g10043" transform="translate(9.047 18.735)">
            <path id="path10045" d="M0-158.477V-170.95a1.517,1.517,0,0,1,1.516-1.516H34.171a1.517,1.517,0,0,1,1.516,1.516v8.071" transform="translate(0 172.466)" fill="none" stroke="#000" stroke-linecap="round" stroke-linejoin="round" stroke-miterlimit="10" stroke-width="1.2"/>
          </g>
          <g id="g10047" transform="translate(28.901 22.129)">
            <path id="path10049" d="M0,0H4.522" fill="none" stroke="#000" stroke-linecap="round" stroke-linejoin="round" stroke-miterlimit="10" stroke-width="1.2"/>
          </g>
          <g id="g10051" transform="translate(28.901 25.436)">
            <path id="path10053" d="M0,0H7.5" fill="none" stroke="#000" stroke-linecap="round" stroke-linejoin="round" stroke-miterlimit="10" stroke-width="1.2"/>
          </g>
        </g>
      </g>
    </g>
  </g>
</svg>
