<svg xmlns="http://www.w3.org/2000/svg" width="61.203" height="61.197" viewBox="0 0 61.203 61.197">
  <g id="Grupo_1076304" data-name="Grupo 1076304" transform="translate(-222.299 4459.651)">
    <g id="KA0koK.tif" transform="translate(-2475.43 -3681.9)">
      <g id="Grupo_155225" data-name="Grupo 155225" transform="translate(2697.729 -777.751)">
        <path id="Trazado_197012" data-name="Trazado 197012" d="M2946.358-717.163a1.713,1.713,0,0,1-1.507.608c-4.5-.024-9-.013-13.5-.013-.976,0-1.334-.349-1.337-1.323-.006-1.692,0-3.384,0-5.076v-.733h-.747c-3.742,0-7.485.007-11.227,0a4.061,4.061,0,0,1-4.238-3.276,5.792,5.792,0,0,1-.072-1.187q-.006-8.122,0-16.244v-.711c-.688,0-1.319.008-1.95,0a1.044,1.044,0,0,1-1.128-1.043,1.048,1.048,0,0,1,1.128-.986c.631-.008,1.262,0,1.951,0v-.764q0-8.271,0-16.542a3.993,3.993,0,0,1,3.176-4.008,5.9,5.9,0,0,1,1.3-.1q5.494-.011,10.989,0h.775c.014-.247.036-.456.037-.665,0-2.369.013-4.738-.007-7.107a1.481,1.481,0,0,1,.7-1.407h6.812a5.963,5.963,0,0,1,.74.9c.494.905.952,1.831,1.39,2.766a.633.633,0,0,0,.682.414c1.55-.016,3.1.014,4.651-.018a1.357,1.357,0,0,1,1.381.721v12.906a1.477,1.477,0,0,1-1.4.7c-4.5-.016-9-.008-13.5-.009-1.085,0-1.438-.35-1.44-1.426,0-1.692,0-3.385,0-5.077,0-.208-.018-.417-.028-.651h-11.773c-1.683,0-2.449.761-2.449,2.435q0,8.123,0,16.246v.657h14.253v-.67q0-3.554,0-7.107c0-1.042.355-1.386,1.408-1.387,1.812,0,3.624.019,5.435-.01a1.348,1.348,0,0,1,1.4.88c.413.9.9,1.771,1.317,2.673a.788.788,0,0,0,.849.541c1.512-.033,3.026.007,4.539-.022a1.438,1.438,0,0,1,1.4.71v12.906a1.413,1.413,0,0,1-1.39.718c-4.521-.019-9.042-.009-13.563-.011-1.039,0-1.386-.352-1.389-1.408,0-1.693,0-3.386,0-5.079,0-.21-.018-.42-.028-.627h-14.2c-.012.119-.026.2-.026.275q0,8.455,0,16.909a2.036,2.036,0,0,0,2.2,2.136q5.736.005,11.472,0c.173,0,.347-.02.574-.034v-.677q0-3.555,0-7.11c0-1,.377-1.363,1.381-1.365,1.852,0,3.7.005,5.556,0a1.24,1.24,0,0,1,1.238.754c.467.966.972,1.914,1.427,2.885a.677.677,0,0,0,.724.452c1.533-.02,3.067.005,4.6-.015a1.483,1.483,0,0,1,1.415.684Zm-2.061-11.614h-1.49q-3.614,0-7.228,0a3.09,3.09,0,0,1-.594-.031,1.021,1.021,0,0,1-.862-1.057,1.009,1.009,0,0,1,1.01-.982c.769-.037,1.54-.009,2.406-.009-.325-.661-.595-1.231-.89-1.787a.446.446,0,0,0-.325-.2c-1.386-.014-2.773-.009-4.179-.009v14.213H2944.3Zm-.012-32.711v-10.146h-.679q-4.091,0-8.183,0c-.848,0-1.319-.386-1.3-1.043.015-.639.476-1,1.289-1,.686,0,1.372,0,2.129,0a3.8,3.8,0,0,1-.235-.506,1.916,1.916,0,0,0-2.438-1.552,18.42,18.42,0,0,1-2.71.025v14.227Zm-6.75,9.208a8.2,8.2,0,0,1-.482-1.007,1.343,1.343,0,0,0-1.632-1.029c-1.08.094-2.175.023-3.276.023v14.233h12.136V-750.2h-.752c-2.725,0-5.451.006-8.176,0-.785,0-1.252-.432-1.231-1.07.021-.616.482-1,1.237-1.005C2936.052-752.285,2936.747-752.28,2937.535-752.28Z" transform="translate(-2885.155 777.751)" fill="#12263f"/>
        <path id="Trazado_197013" data-name="Trazado 197013" d="M2697.748-665.377c0-4.659.02-9.318-.014-13.977a3.012,3.012,0,0,1,1.31-2.595,10.438,10.438,0,0,1,4.33-1.748,25.283,25.283,0,0,1,13.471.68,9.248,9.248,0,0,1,2.268,1.282,2.663,2.663,0,0,1,1.1,2.272q-.014,13.948,0,27.895a3.2,3.2,0,0,1-1.473,2.822,12.386,12.386,0,0,1-5.294,1.868,25.657,25.657,0,0,1-11-.469,14.481,14.481,0,0,1-3.107-1.322,3.036,3.036,0,0,1-1.607-2.909C2697.779-656.177,2697.748-660.777,2697.748-665.377Zm20.376,10.049a25.448,25.448,0,0,1-18.342-.009c0,1.23.029,2.484-.013,3.735a1.247,1.247,0,0,0,.7,1.266,11.684,11.684,0,0,0,1.955.856,23.635,23.635,0,0,0,11.5.39,19.1,19.1,0,0,0,3.507-1.257,1.208,1.208,0,0,0,.658-.831C2718.162-652.562,2718.124-653.952,2718.124-655.328Zm-.037-14.375a20.241,20.241,0,0,1-9.168,1.774,20.249,20.249,0,0,1-9.136-1.8c0,1.228.065,2.363-.02,3.486a1.737,1.737,0,0,0,1.14,1.867,16.219,16.219,0,0,0,5.614,1.393,24.733,24.733,0,0,0,6.652-.234,11.2,11.2,0,0,0,4.2-1.375c.294-.184.67-.529.685-.817C2718.125-666.808,2718.087-668.216,2718.087-669.7Zm-18.3-7.159c0,1.357.012,2.642-.006,3.928a1.1,1.1,0,0,0,.589,1.087,10.957,10.957,0,0,0,1.821.856,23.369,23.369,0,0,0,12.1.391,17.173,17.173,0,0,0,3.1-1.141,1.226,1.226,0,0,0,.671-.821c.07-1.4.031-2.808.031-4.268a20.6,20.6,0,0,1-9.106,1.763A20.638,20.638,0,0,1,2699.782-676.862Zm0,14.383c0,1.06.084,2.158-.023,3.238a1.923,1.923,0,0,0,1.392,2.134,15.214,15.214,0,0,0,5.766,1.273,52.651,52.651,0,0,0,6.006-.227,10.931,10.931,0,0,0,4.4-1.336,1.421,1.421,0,0,0,.814-1.4c-.029-1.114-.006-2.23-.011-3.345a1.435,1.435,0,0,0-.051-.3A25.584,25.584,0,0,1,2699.782-662.479Zm9.137-14.7.018.146c1.727-.212,3.463-.372,5.178-.654a8.087,8.087,0,0,0,3.566-1.383c.545-.4.573-.823.023-1.2a6.68,6.68,0,0,0-1.68-.87,23.167,23.167,0,0,0-13.726-.134,8.1,8.1,0,0,0-1.933.9c-.749.455-.736.907.005,1.393a7.153,7.153,0,0,0,1.427.716A19.785,19.785,0,0,0,2708.92-677.179Z" transform="translate(-2697.729 695.482)" fill="#12263f"/>
        <path id="Trazado_197014" data-name="Trazado 197014" d="M3118.144-349.979c-.615,0-1.231.009-1.846,0a1.063,1.063,0,0,1-1.167-1.011,1.016,1.016,0,0,1,1.118-1.046q1.935-.032,3.871,0a1.009,1.009,0,0,1,1.13,1.03,1.035,1.035,0,0,1-1.141,1.028C3119.455-349.968,3118.8-349.979,3118.144-349.979Z" transform="translate(-3065.153 403.025)" fill="#12263f"/>
        <path id="Trazado_197015" data-name="Trazado 197015" d="M3118.216-315.823c-.655,0-1.31.009-1.965,0a1.039,1.039,0,0,1-1.117-1.051,1,1,0,0,1,1.109-.987q1.935-.021,3.87,0a1.007,1.007,0,0,1,1.14,1.012,1.027,1.027,0,0,1-1.131,1.031h-1.905Z" transform="translate(-3065.155 372.94)" fill="#12263f"/>
        <path id="Trazado_197016" data-name="Trazado 197016" d="M3118.232-675.788c.615,0,1.231-.011,1.846,0,.741.016,1.184.427,1.174,1.059a1.032,1.032,0,0,1-1.152,1.02q-1.906.028-3.812,0a1.045,1.045,0,0,1-1.152-1.027,1.069,1.069,0,0,1,1.19-1.051C3116.961-675.8,3117.6-675.788,3118.232-675.788Z" transform="translate(-3065.157 688.001)" fill="#12263f"/>
        <path id="Trazado_197017" data-name="Trazado 197017" d="M3118.2-709.8c.635,0,1.271-.01,1.906,0a1.035,1.035,0,0,1,1.148,1.02,1.008,1.008,0,0,1-1.123,1.038q-1.935.029-3.871,0a1.018,1.018,0,0,1-1.125-1.04,1.06,1.06,0,0,1,1.159-1.017C3116.928-709.812,3117.563-709.8,3118.2-709.8Z" transform="translate(-3065.155 717.942)" fill="#12263f"/>
        <path id="Trazado_197018" data-name="Trazado 197018" d="M3118.266-531.019c.616,0,1.232-.016,1.847,0a1.039,1.039,0,0,1,1.138,1.036,1.029,1.029,0,0,1-1.129,1.044c-1.291.02-2.582.021-3.872,0a1.039,1.039,0,0,1-1.116-1.063,1.046,1.046,0,0,1,1.107-1.012C3116.915-531.038,3117.591-531.019,3118.266-531.019Z" transform="translate(-3065.154 560.568)" fill="#12263f"/>
        <path id="Trazado_197019" data-name="Trazado 197019" d="M3118.152-494.837c-.615,0-1.231.01-1.846,0a1.069,1.069,0,0,1-1.176-1.005c-.022-.62.426-1.055,1.168-1.066q1.906-.029,3.812,0a1.019,1.019,0,0,1,1.138,1.029c0,.629-.447,1.029-1.19,1.042C3119.423-494.828,3118.788-494.837,3118.152-494.837Z" transform="translate(-3065.151 530.551)" fill="#12263f"/>
      </g>
    </g>
  </g>
</svg>
