<svg xmlns="http://www.w3.org/2000/svg" xmlns:xlink="http://www.w3.org/1999/xlink" width="82" height="72" viewBox="0 0 82 72">
  <defs>
    <clipPath id="clip-path">
      <path id="path6084" d="M0-682.665H60.912v60.912H0Z" transform="translate(0 682.665)"/>
    </clipPath>
  </defs>
  <g id="Grupo_1076240" data-name="Grupo 1076240" transform="translate(-206 -4433)">
    <g id="Grupo_1076239" data-name="Grupo 1076239" transform="translate(206.417 4432.645)">
      <rect id="Rectángulo_374603" data-name="Rectángulo 374603" width="82" height="72" rx="6" transform="translate(-0.417 0.355)" fill="#fff"/>
    </g>
    <g id="g6078" transform="translate(216.544 5121.209)">
      <g id="g6080" transform="translate(0 -682.665)">
        <g id="g6082" transform="translate(0 0)" clip-path="url(#clip-path)">
          <g id="g6088" transform="translate(16.077 9.102)">
            <path id="path6090" d="M-448.544-260.715v-22.626a2.916,2.916,0,0,0-2.916-2.916h-38.112a2.916,2.916,0,0,0-2.916,2.916v22.626l21.77,4.4Z" transform="translate(492.487 286.257)" fill="#313a52"/>
          </g>
          <g id="g6092" transform="translate(54.916 9.102)">
            <path id="path6094" d="M-22.337,0h-2.188a2.916,2.916,0,0,1,2.916,2.916V25.542h2.188V2.916A2.916,2.916,0,0,0-22.337,0" transform="translate(24.525)" fill="#222b42"/>
          </g>
          <g id="g6096" transform="translate(16.077 34.644)">
            <path id="path6098" d="M-408.924-87.393H-445.1a3.881,3.881,0,0,1-3.881-3.881v-4.68h43.943v4.68a3.881,3.881,0,0,1-3.882,3.881" transform="translate(448.986 95.954)" fill="#ccd5d8"/>
          </g>
          <g id="g6100" transform="translate(53.95 34.644)">
            <path id="path6102" d="M-39.62,0V4.68A3.882,3.882,0,0,1-43.5,8.562h2.188A3.882,3.882,0,0,0-37.432,4.68V0Z" transform="translate(43.501)" fill="#9bacb2"/>
          </g>
          <g id="g6104" transform="translate(19.584 12.432)">
            <path id="path6106" d="M-376.946-226.73h-36.929v-21.683a.529.529,0,0,1,.529-.529h35.871a.529.529,0,0,1,.529.529Z" transform="translate(413.875 248.942)" fill="#d6f6fd"/>
          </g>
          <g id="g6108" transform="translate(53.783 12.432)">
            <path id="path6110" d="M-22.462,0h-2.2a.529.529,0,0,1,.529.529V22.212h2.2V.529A.529.529,0,0,0-22.462,0" transform="translate(24.663)" fill="#b7efff"/>
          </g>
          <g id="g6112" transform="translate(19.584 12.432)">
            <path id="path6114" d="M-376.946-226.73h-36.929v-21.683a.529.529,0,0,1,.529-.529h35.871a.529.529,0,0,1,.529.529Z" transform="translate(413.875 248.942)" fill="none" stroke="#000" stroke-linecap="round" stroke-linejoin="round" stroke-miterlimit="10" stroke-width="1.2"/>
          </g>
          <g id="g6116" transform="translate(32.409 43.206)">
            <path id="path6118" d="M0-81.191a8.289,8.289,0,0,0,0-7.954H11.278a8.289,8.289,0,0,0,0,7.954Z" transform="translate(0 89.145)" fill="#313a52"/>
          </g>
          <g id="g6120" transform="translate(32.409 43.206)">
            <path id="path6122" d="M-7.733-20.122H2.03a9.581,9.581,0,0,1,.758-1.971H-8.491a9.594,9.594,0,0,1,.758,1.971" transform="translate(8.491 22.093)" fill="#222b42"/>
          </g>
          <g id="g6124" transform="translate(32.409 43.206)">
            <path id="path6126" d="M0-81.191a8.289,8.289,0,0,0,0-7.954H11.278a8.289,8.289,0,0,0,0,7.954Z" transform="translate(0 89.145)" fill="none" stroke="#000" stroke-linecap="round" stroke-linejoin="round" stroke-miterlimit="10" stroke-width="1.2"/>
          </g>
          <g id="g6128" transform="translate(28.535 51.16)">
            <path id="path6130" d="M0,0H19.026" fill="none" stroke="#000" stroke-linecap="round" stroke-linejoin="round" stroke-miterlimit="10" stroke-width="1.2"/>
          </g>
          <g id="g6132" transform="translate(37.223 38.14)">
            <path id="path6134" d="M0,0H1.65" fill="none" stroke="#000" stroke-linecap="round" stroke-linejoin="round" stroke-miterlimit="10" stroke-width="1.2"/>
          </g>
          <g id="g6136" transform="translate(38.048 46.3)">
            <path id="path6138" d="M0,0V1.307" fill="none" stroke="#000" stroke-linecap="round" stroke-linejoin="round" stroke-miterlimit="10" stroke-width="1.2"/>
          </g>
          <g id="g6140" transform="translate(16.077 9.102)">
            <path id="path6142" d="M-302.031,0H-328.7a2.916,2.916,0,0,0-2.916,2.916V25.542h43.943V2.916A2.916,2.916,0,0,0-290.593,0h-7.988" transform="translate(331.621)" fill="none" stroke="#000" stroke-linecap="round" stroke-linejoin="round" stroke-miterlimit="10" stroke-width="1.2"/>
          </g>
          <g id="g6144" transform="translate(16.077 34.644)">
            <path id="path6146" d="M-382.832-87.391h2.556a3.881,3.881,0,0,0,3.882-3.881v-4.68h-43.943v4.68a3.881,3.881,0,0,0,3.881,3.881h30.174" transform="translate(420.338 95.953)" fill="none" stroke="#000" stroke-linecap="round" stroke-linejoin="round" stroke-miterlimit="10" stroke-width="1.2"/>
          </g>
          <g id="g6148" transform="translate(29.365 17.72)">
            <path id="path6150" d="M-126.767-34.041h-11.662a.757.757,0,0,1-.757-.757v-1.821a.757.757,0,0,1,.757-.757h11.662Z" transform="translate(139.186 37.376)" fill="#9ff497"/>
          </g>
          <path id="path6152" d="M444.354-480.74h2.136v-3.335h-2.136Z" transform="translate(-404.705 501.794)" fill="#6ce79a"/>
          <g id="g6154" transform="translate(29.365 17.72)">
            <path id="path6156" d="M-126.767-34.041h-11.662a.757.757,0,0,1-.757-.757v-1.821a.757.757,0,0,1,.757-.757h11.662Z" transform="translate(139.186 37.376)" fill="none" stroke="#000" stroke-linecap="round" stroke-linejoin="round" stroke-miterlimit="10" stroke-width="1.2"/>
          </g>
          <g id="g6158" transform="translate(41.785 17.72)">
            <path id="path6160" d="M0-34.041H4.189a.757.757,0,0,0,.757-.757v-1.821a.757.757,0,0,0-.757-.757H0Z" transform="translate(0 37.376)" fill="#e7e2e6"/>
          </g>
          <g id="g6162" transform="translate(41.785 17.72)">
            <path id="path6164" d="M0-34.041H4.189a.757.757,0,0,0,.757-.757v-1.821a.757.757,0,0,0-.757-.757H0Z" transform="translate(0 37.376)" fill="none" stroke="#000" stroke-linecap="round" stroke-linejoin="round" stroke-miterlimit="10" stroke-width="1.2"/>
          </g>
          <g id="g6166" transform="translate(1.353 19.988)">
            <path id="path6168" d="M-162.528,0h-8.609a4.64,4.64,0,0,0-4.606,4.07c-.889,7.185-2.264,19.792-2.557,21.663l-.151.888h23.29l-.151-.888-2.608-21.646A4.641,4.641,0,0,0-162.528,0" transform="translate(178.45)" fill="#68ca44"/>
          </g>
          <g id="g6170" transform="translate(1.353 42.839)">
            <path id="path6172" d="M-1.541-29.4l-.151.888H21.6l-.151-.888L21.1-32.285H-1.176c-.168,1.412-.3,2.442-.365,2.881" transform="translate(1.692 32.285)" fill="#4aa525"/>
          </g>
          <g id="g6174" transform="translate(1.353 19.988)">
            <path id="path6176" d="M-162.528,0h-8.609a4.64,4.64,0,0,0-4.606,4.07c-.889,7.185-2.264,19.792-2.557,21.663l-.151.888h23.29l-.151-.888-2.608-21.646A4.641,4.641,0,0,0-162.528,0Z" transform="translate(178.45)" fill="none" stroke="#000" stroke-linecap="round" stroke-linejoin="round" stroke-miterlimit="10" stroke-width="1.2"/>
          </g>
          <g id="g6178" transform="translate(0.892 45.224)">
            <path id="path6180" d="M-226.592-67.223H-246.78a2.012,2.012,0,0,1-2.012-2.012V-71.8a2.012,2.012,0,0,1,2.012-2.012h20.187A2.012,2.012,0,0,1-224.58-71.8v2.562a2.012,2.012,0,0,1-2.012,2.012" transform="translate(248.791 73.809)" fill="#ccd5d8"/>
          </g>
          <g id="g6182" transform="translate(20.551 45.224)">
            <path id="path6184" d="M-25.931,0h-2.54A2.012,2.012,0,0,1-26.46,2.012V4.574a2.012,2.012,0,0,1-2.012,2.012h2.54a2.012,2.012,0,0,0,2.012-2.012V2.012A2.012,2.012,0,0,0-25.931,0" transform="translate(28.472)" fill="#9bacb2"/>
          </g>
          <g id="g6186" transform="translate(4.444 48.135)">
            <path id="path6188" d="M0,0V.764" fill="none" stroke="#000" stroke-linecap="round" stroke-linejoin="round" stroke-miterlimit="10" stroke-width="1.2"/>
          </g>
          <g id="g6190" transform="translate(7.711 48.135)">
            <path id="path6192" d="M0,0V.764" fill="none" stroke="#000" stroke-linecap="round" stroke-linejoin="round" stroke-miterlimit="10" stroke-width="1.2"/>
          </g>
          <g id="g6194" transform="translate(14.27 48.517)">
            <path id="path6196" d="M0,0H5.3" fill="none" stroke="#000" stroke-linecap="round" stroke-linejoin="round" stroke-miterlimit="10" stroke-width="1.2"/>
          </g>
          <g id="g6198" transform="translate(6.091 40.041)">
            <path id="path6200" d="M0,0H2.026" fill="none" stroke="#000" stroke-linecap="round" stroke-linejoin="round" stroke-miterlimit="10" stroke-width="1.2"/>
          </g>
          <g id="g6202" transform="translate(0.892 45.224)">
            <path id="path6204" d="M-193.671-67.223h3.225a2.012,2.012,0,0,0,2.012-2.012V-71.8a2.012,2.012,0,0,0-2.012-2.012h-20.187a2.012,2.012,0,0,0-2.012,2.012v2.562a2.012,2.012,0,0,0,2.012,2.012h13.512" transform="translate(212.645 73.809)" fill="none" stroke="#000" stroke-linecap="round" stroke-linejoin="round" stroke-miterlimit="10" stroke-width="1.2"/>
          </g>
          <g id="g6206" transform="translate(11.848 23.144)">
            <path id="path6208" d="M-55.774-1.487l-5.293,4.949a.54.54,0,0,0,0,.788L-55.774,9.2a.54.54,0,0,0,.865-.182l1.073-2.509a.54.54,0,0,1,.5-.328h11.348a.54.54,0,0,0,.54-.54V2.072a.54.54,0,0,0-.54-.54H-53.34a.54.54,0,0,1-.5-.328L-54.909-1.3a.54.54,0,0,0-.865-.182" transform="translate(61.238 1.632)" fill="#9ff497"/>
          </g>
          <g id="g6210" transform="translate(28.856 26.309)">
            <path id="path6212" d="M-22.838,0h-2.237a.54.54,0,0,1,.54.54V4.11a.54.54,0,0,1-.54.54h2.237a.54.54,0,0,0,.54-.54V.54a.54.54,0,0,0-.54-.54" transform="translate(25.076)" fill="#6ce79a"/>
          </g>
          <g id="g6214" transform="translate(11.848 23.144)">
            <path id="path6216" d="M-55.774-1.487l-5.293,4.949a.54.54,0,0,0,0,.788L-55.774,9.2a.54.54,0,0,0,.865-.182l1.073-2.509a.54.54,0,0,1,.5-.328h11.348a.54.54,0,0,0,.54-.54V2.072a.54.54,0,0,0-.54-.54H-53.34a.54.54,0,0,1-.5-.328L-54.909-1.3A.54.54,0,0,0-55.774-1.487Z" transform="translate(61.238 1.632)" fill="none" stroke="#000" stroke-linecap="round" stroke-linejoin="round" stroke-miterlimit="10" stroke-width="1.2"/>
          </g>
        </g>
      </g>
    </g>
  </g>
</svg>
