<svg xmlns="http://www.w3.org/2000/svg" width="74.606" height="74.605" viewBox="0 0 74.606 74.605">
  <g id="Grupo_1076339" data-name="Grupo 1076339" transform="translate(-181 -9337.332)">
    <g id="Grupo_1074809" data-name="Grupo 1074809" transform="translate(181 9337.332)">
      <g id="Grupo_18423" data-name="Grupo 18423" transform="translate(0 0)">
        <g id="Grupo_18421" data-name="Grupo 18421">
          <g id="Grupo_18420" data-name="Grupo 18420">
            <g id="Grupo_18419" data-name="Grupo 18419">
              <path id="Trazado_40936" data-name="Trazado 40936" d="M269.229,2183.023a37.3,37.3,0,1,1-37.3-37.3A37.3,37.3,0,0,1,269.229,2183.023Z" transform="translate(-194.623 -2145.721)" fill="#d2d6d8"/>
            </g>
          </g>
        </g>
        <path id="Trazado_40937" data-name="Trazado 40937" d="M269.13,2182.915a37.3,37.3,0,1,0-37.3,37.3A37.155,37.155,0,0,0,269.13,2182.915Z" transform="translate(-194.524 -2145.613)" fill="#e4e9eb"/>
        <path id="Trazado_40938" data-name="Trazado 40938" d="M259.508,2182.135a28.473,28.473,0,1,0-28.473,28.473A28.368,28.368,0,0,0,259.508,2182.135Z" transform="translate(-193.618 -2144.709)" fill="none" stroke="#f7872b" stroke-miterlimit="10" stroke-width="4"/>
        <g id="Grupo_18422" data-name="Grupo 18422" transform="translate(6.609 20.943)">
          <path id="Trazado_40939" data-name="Trazado 40939" d="M264.77,2164.488a37.307,37.307,0,0,1-64.225,37.148,37.189,37.189,0,0,0,64.225-37.148Z" transform="translate(-200.545 -2164.488)" fill="#d2d6d8"/>
        </g>
        <g id="eUbNtw" transform="translate(18.149 18.702)">
          <g id="Grupo_155243" data-name="Grupo 155243">
            <path id="Trazado_197069" data-name="Trazado 197069" d="M3357.849,3157.779c.39.055.874.109,1.351.2a.316.316,0,0,0,.359-.135,9.023,9.023,0,0,1,5.1-3.156,9.114,9.114,0,0,1,10.012,4.611,15.977,15.977,0,0,1,.665,1.591.348.348,0,0,0,.256.244,6.45,6.45,0,0,1,4.67,4.745.33.33,0,0,0,.265.26,6.556,6.556,0,0,1,2.846,11.05.736.736,0,0,1-.581.309.535.535,0,0,1-.483-.355.548.548,0,0,1,.135-.6,11.067,11.067,0,0,0,.88-1.008,5.432,5.432,0,0,0-3.538-8.427.575.575,0,0,1-.5-.521,5.422,5.422,0,0,0-4.332-4.463.651.651,0,0,1-.561-.524,7.936,7.936,0,0,0-6.667-5.937,7.851,7.851,0,0,0-7.575,3.226.6.6,0,0,1-.8.267,5.44,5.44,0,0,0-6.9,3.944,4.786,4.786,0,0,0-.121.842.708.708,0,0,1-.488.677,6.886,6.886,0,0,0-2.085,11.552.622.622,0,0,1,.267.59.545.545,0,0,1-.94.29,9.324,9.324,0,0,1-1.01-1.055,7.54,7.54,0,0,1-1.731-5.1,7.815,7.815,0,0,1,4.62-7.1.463.463,0,0,0,.313-.393,6.5,6.5,0,0,1,5.532-5.512C3357.118,3157.834,3357.435,3157.818,3357.849,3157.779Z" transform="translate(-3346.335 -3154.467)" fill="#12263f"/>
            <path id="Trazado_197070" data-name="Trazado 197070" d="M3432.448,3493.928q0-2.451,0-4.9a1.059,1.059,0,0,1,1.16-1.168c1.049-.007,2.1,0,3.146,0,1.293,0,2.586.021,3.879-.007a1.14,1.14,0,0,1,1.268,1.249c-.014,3.244-.01,6.489,0,9.733a1.1,1.1,0,0,1-1.117,1.12c-2.406-.018-4.814-.007-7.221-.009a1.013,1.013,0,0,1-1.1-1.086c-.006-1.643,0-3.285,0-4.927Zm1.121,4.9h7.193v-5.961h-7.193Zm7.2-9.855h-7.2v2.749h7.2Z" transform="translate(-3428.243 -3471.575)" fill="#12263f"/>
            <path id="Trazado_197071" data-name="Trazado 197071" d="M3893.349,3494.054q0,2.44,0,4.88a1.038,1.038,0,0,1-1.148,1.144h-7.147a1.027,1.027,0,0,1-1.134-1.107q-.006-4.294,0-8.588c0-.542.008-1.085.063-1.623a.883.883,0,0,1,.816-.747c.265-.021.534,0,.8,0l6.511-.027c.671,0,1.037.231,1.2.776a1.29,1.29,0,0,1,.042.359q0,2.464,0,4.928Zm-8.325,4.913h7.2v-5.958h-7.2Zm7.205-9.869h-7.206v2.763h7.206Z" transform="translate(-3857.675 -3471.71)" fill="#12263f"/>
            <path id="Trazado_197072" data-name="Trazado 197072" d="M3658.131,3493.991q0-2.428,0-4.855a1.059,1.059,0,0,1,1.167-1.184q3.549-.008,7.1,0a1.056,1.056,0,0,1,1.173,1.179q0,4.889,0,9.778a1.032,1.032,0,0,1-1.112,1.131q-3.623,0-7.245,0a1.022,1.022,0,0,1-1.077-1.069c-.006-1.659,0-3.318,0-4.977Zm8.34-1.036h-7.21v5.975c.073.005.128.012.184.012,2.27,0,4.54,0,6.809,0,.2,0,.22-.084.22-.249q-.007-2.489,0-4.979Zm-.016-1.111v-2.777h-7.191v2.777Z" transform="translate(-3642.911 -3471.669)" fill="#12263f"/>
            <path id="Trazado_197073" data-name="Trazado 197073" d="M3521.384,3746.722v-1.485c0-.179,0-.358,0-.537a.555.555,0,1,1,1.11,0c.009.577,0,1.155,0,1.733v.292h9.169c.517,0,.749-.229.749-.739,0-.374,0-.749,0-1.123,0-.391.216-.624.562-.62a.551.551,0,0,1,.551.61,14.771,14.771,0,0,1-.045,1.558,1.626,1.626,0,0,1-1.551,1.4c-.6.019-1.2.008-1.806.008h-7.6a1.155,1.155,0,0,0-.027.173c0,.7,0,1.4,0,2.1,0,.149.058.206.188.257a1.932,1.932,0,1,1-1.495.005.272.272,0,0,0,.2-.3c-.009-.731,0-1.463,0-2.233h-.369c-2.978,0-5.955-.005-8.932,0a1.8,1.8,0,0,1-1.485-.636,1.7,1.7,0,0,1-.385-1.081c-.01-.415,0-.83,0-1.245a.551.551,0,0,1,.566-.618c.337,0,.543.244.545.64s0,.781,0,1.172a.611.611,0,0,0,.643.669c.268.01.537,0,.805,0h8.61Zm.545,4.623a.738.738,0,0,0-.807.789.818.818,0,0,0,1.636,0A.752.752,0,0,0,3521.929,3751.345Z" transform="translate(-3502.208 -3715.348)" fill="#12263f"/>
            <path id="Trazado_197074" data-name="Trazado 197074" d="M3467.452,3604.688c-.293,0-.585,0-.878,0a.535.535,0,0,1-.562-.544.529.529,0,0,1,.546-.562q.89-.017,1.781,0a.536.536,0,0,1,.563.571.543.543,0,0,1-.6.537c-.146,0-.293,0-.439,0Z" transform="translate(-3460.17 -3581.649)" fill="#12263f"/>
            <path id="Trazado_197075" data-name="Trazado 197075" d="M3467.468,3639.4c.292,0,.585,0,.878,0a.535.535,0,0,1,.571.536.543.543,0,0,1-.566.569q-.891.012-1.78,0a.552.552,0,1,1,.02-1.1c.146,0,.292,0,.439,0Z" transform="translate(-3460.183 -3615.727)" fill="#12263f"/>
            <path id="Trazado_197076" data-name="Trazado 197076" d="M3467.457,3676.2c-.3,0-.6,0-.9,0a.526.526,0,0,1-.531-.543.519.519,0,0,1,.531-.544q.9-.011,1.8,0a.545.545,0,1,1-.024,1.09c-.293,0-.585,0-.877,0Z" transform="translate(-3460.182 -3649.696)" fill="#12263f"/>
            <path id="Trazado_197077" data-name="Trazado 197077" d="M3515.561,3525.024a.736.736,0,1,1-.721-.75A.719.719,0,0,1,3515.561,3525.024Z" transform="translate(-3505.901 -3506.222)" fill="#12263f"/>
            <path id="Trazado_197078" data-name="Trazado 197078" d="M3563.632,3525.807a.725.725,0,0,1-.746-.727.714.714,0,0,1,.725-.745.736.736,0,1,1,.021,1.472Z" transform="translate(-3552.316 -3506.281)" fill="#12263f"/>
            <path id="Trazado_197079" data-name="Trazado 197079" d="M3466.668,3525.039a.714.714,0,0,1-.718.733.736.736,0,1,1-.018-1.472A.716.716,0,0,1,3466.668,3525.039Z" transform="translate(-3459.391 -3506.248)" fill="#12263f"/>
            <path id="Trazado_197080" data-name="Trazado 197080" d="M3918.629,3640.5c-.285,0-.569,0-.854,0a.562.562,0,0,1-.6-.569.55.55,0,0,1,.6-.537q.854-.005,1.708,0a.553.553,0,1,1,.02,1.1c-.292.01-.585,0-.878,0Z" transform="translate(-3889.314 -3615.717)" fill="#12263f"/>
            <path id="Trazado_197081" data-name="Trazado 197081" d="M3918.647,3604.629c-.292,0-.585,0-.877,0a.553.553,0,1,1-.027-1.106c.6-.014,1.2-.015,1.8,0a.545.545,0,0,1,.551.564.559.559,0,0,1-.6.543c-.284,0-.568,0-.853,0Z" transform="translate(-3889.328 -3581.591)" fill="#12263f"/>
            <path id="Trazado_197082" data-name="Trazado 197082" d="M3918.631,3676.243c-.3,0-.6,0-.9,0a.541.541,0,0,1-.557-.525.532.532,0,0,1,.545-.56q.927-.014,1.853,0a.542.542,0,0,1-.012,1.083c-.309.008-.618,0-.926,0Z" transform="translate(-3889.308 -3649.735)" fill="#12263f"/>
            <path id="Trazado_197083" data-name="Trazado 197083" d="M3966,3525.767a.741.741,0,0,1-.75-.734.745.745,0,0,1,1.49-.01A.741.741,0,0,1,3966,3525.767Z" transform="translate(-3935.039 -3506.24)" fill="#12263f"/>
            <path id="Trazado_197084" data-name="Trazado 197084" d="M4015.6,3525.073a.717.717,0,0,1-.747.724.732.732,0,0,1-.726-.753.718.718,0,0,1,.753-.719A.708.708,0,0,1,4015.6,3525.073Z" transform="translate(-3981.534 -3506.271)" fill="#12263f"/>
            <path id="Trazado_197085" data-name="Trazado 197085" d="M3917.223,3525.778a.741.741,0,0,1-.739-.743.745.745,0,0,1,1.49.01A.748.748,0,0,1,3917.223,3525.778Z" transform="translate(-3888.653 -3506.252)" fill="#12263f"/>
            <path id="Trazado_197086" data-name="Trazado 197086" d="M3692.939,3639.375c.284,0,.568.009.851,0a.564.564,0,0,1,.6.57.542.542,0,0,1-.572.539c-.577.007-1.155.007-1.732,0a.557.557,0,0,1-.6-.565.565.565,0,0,1,.626-.54c.276,0,.553,0,.829,0Z" transform="translate(-3674.636 -3615.702)" fill="#12263f"/>
            <path id="Trazado_197087" data-name="Trazado 197087" d="M3692.976,3604.707c-.276,0-.552,0-.828,0a.555.555,0,0,1-.575-.539.515.515,0,0,1,.5-.555c.632-.026,1.266-.026,1.9-.008a.539.539,0,0,1,.509.531.478.478,0,0,1-.435.522,10.411,10.411,0,0,1-1.064.069Z" transform="translate(-3674.72 -3581.668)" fill="#12263f"/>
            <path id="Trazado_197088" data-name="Trazado 197088" d="M3692.891,3676.245c-.3,0-.6,0-.9,0a.55.55,0,0,1-.55-.536.54.54,0,0,1,.537-.548c.617-.008,1.235-.008,1.852,0a.541.541,0,0,1-.011,1.081C3693.509,3676.252,3693.2,3676.245,3692.891,3676.245Z" transform="translate(-3674.594 -3649.738)" fill="#12263f"/>
            <path id="Trazado_197089" data-name="Trazado 197089" d="M3789.062,3524.309a.737.737,0,1,1-.75.732A.74.74,0,0,1,3789.062,3524.309Z" transform="translate(-3766.738 -3506.256)" fill="#12263f"/>
            <path id="Trazado_197090" data-name="Trazado 197090" d="M3691.747,3524.326a.736.736,0,0,1-.01,1.472.736.736,0,1,1,.01-1.472Z" transform="translate(-3674.174 -3506.272)" fill="#12263f"/>
            <path id="Trazado_197091" data-name="Trazado 197091" d="M3740.5,3525.758a.736.736,0,1,1,.01-1.473.736.736,0,1,1-.01,1.473Z" transform="translate(-3720.56 -3506.233)" fill="#12263f"/>
          </g>
        </g>
      </g>
    </g>
  </g>
</svg>
