<svg id="Grupo_1074313" data-name="Grupo 1074313" xmlns="http://www.w3.org/2000/svg" width="84.998" height="6.103" viewBox="0 0 84.998 6.103">
  <path id="Uni贸n_21" data-name="Uni贸n 21" d="M78.631,2.051a2.188,2.188,0,0,1,4.367,0,2.188,2.188,0,0,1-4.367,0Zm-19.657,0a2.188,2.188,0,0,1,4.367,0,2.188,2.188,0,0,1-4.367,0Zm-19.66,0a2.188,2.188,0,0,1,4.367,0,2.188,2.188,0,0,1-4.367,0Zm-19.657,0a2.19,2.19,0,0,1,4.371,0,2.19,2.19,0,0,1-4.371,0ZM0,2.051A2.119,2.119,0,0,1,2.185,0,2.122,2.122,0,0,1,4.37,2.051,2.123,2.123,0,0,1,2.185,4.1,2.12,2.12,0,0,1,0,2.051Z" transform="translate(1 1)" fill="#ff6148"/>
  <path id="Uni贸n_21_-_Contorno" data-name="Uni贸n 21 - Contorno" d="M2.2-1a3.133,3.133,0,0,1,3.2,3.051A3.134,3.134,0,0,1,2.2,5.1,3.133,3.133,0,0,1-1,2.052,3.133,3.133,0,0,1,2.2-1Zm0,4.1A1.115,1.115,0,0,0,3.369,2.052,1.114,1.114,0,0,0,2.2,1,1.114,1.114,0,0,0,1.038,2.052,1.114,1.114,0,0,0,2.2,3.1ZM21.851-1a3.133,3.133,0,0,1,3.2,3.051,3.207,3.207,0,0,1-6.406,0A3.133,3.133,0,0,1,21.851-1Zm0,4.1a1.115,1.115,0,0,0,1.166-1.052,1.173,1.173,0,0,0-2.333,0A1.115,1.115,0,0,0,21.851,3.1ZM41.5-1a3.131,3.131,0,0,1,3.2,3.051,3.2,3.2,0,0,1-6.4,0A3.133,3.133,0,0,1,41.5-1Zm0,4.1a1.113,1.113,0,0,0,1.162-1.052,1.171,1.171,0,0,0-2.329,0A1.115,1.115,0,0,0,41.5,3.1ZM61.148-1a3.133,3.133,0,0,1,3.2,3.051,3.2,3.2,0,0,1-6.4,0A3.131,3.131,0,0,1,61.148-1Zm0,4.1a1.115,1.115,0,0,0,1.166-1.052,1.171,1.171,0,0,0-2.329,0A1.113,1.113,0,0,0,61.148,3.1ZM80.8-1A3.131,3.131,0,0,1,84,2.052a3.2,3.2,0,0,1-6.4,0A3.133,3.133,0,0,1,80.8-1Zm0,4.1a1.113,1.113,0,0,0,1.162-1.052,1.171,1.171,0,0,0-2.329,0A1.115,1.115,0,0,0,80.8,3.1Z" transform="translate(0.999 0.999)" fill="#ff6148"/>
</svg>
