<svg xmlns="http://www.w3.org/2000/svg" width="90.774" height="77.431" viewBox="0 0 90.774 77.431">
  <g id="base-de-datos_12_" data-name="base-de-datos (12)" transform="translate(-1.988 -20.51)">
    <path id="Trazado_821756" data-name="Trazado 821756" d="M133.8,161.749a4.133,4.133,0,0,0-5.845,0l-9.591,9.384a3.544,3.544,0,0,1-2.505,1.038H97.6a4.215,4.215,0,0,1-4.251-3.945,4.14,4.14,0,0,1,4.135-4.333h7.4a3.812,3.812,0,0,0,3.839-3.675,3.762,3.762,0,0,0-3.761-3.85H89.324a15.448,15.448,0,0,0-11.889,5.584,8.084,8.084,0,0,1-6.35,3.081H69.434v16.876H117.4a4.536,4.536,0,0,0,3.207-1.329L133.8,167.593A4.132,4.132,0,0,0,133.8,161.749Z" transform="translate(-43.153 -86.925)" fill="#ffb69f"/>
    <path id="Trazado_821757" data-name="Trazado 821757" d="M26.508,170.772H4.489v22.41H26.508a1.373,1.373,0,0,0,1.373-1.373V172.145A1.373,1.373,0,0,0,26.508,170.772Z" transform="translate(-1.6 -96.141)" fill="#72c1e8"/>
    <path id="Trazado_821758" data-name="Trazado 821758" d="M122.451,192.7H83.959a.9.9,0,0,1,0-1.8h38.447l13.169-12.962a.9.9,0,0,1,1.264,1.284l-13.173,12.967A1.7,1.7,0,0,1,122.451,192.7Zm-42.094,0H78.225a.9.9,0,0,1,0-1.8h2.132a.9.9,0,0,1,0,1.8Z" transform="translate(-48.202 -100.562)" fill="#fbe0e2"/>
    <path id="Trazado_821759" data-name="Trazado 821759" d="M55.458,193.717a.9.9,0,0,1-.9-.9v-.71a.9.9,0,1,1,1.8,0v.71A.9.9,0,0,1,55.458,193.717Zm0-4.312a.9.9,0,0,1-.9-.9V179.14a.9.9,0,1,1,1.8,0v9.365A.9.9,0,0,1,55.458,189.406Z" transform="translate(-33.635 -100.919)" fill="#c5e5ff"/>
    <path id="Trazado_821760" data-name="Trazado 821760" d="M145.7,112.392H100.153a3.6,3.6,0,0,1-3.6-3.6v-6.437a3.6,3.6,0,0,1,3.6-3.6H145.7a3.6,3.6,0,0,1,3.6,3.6v6.437A3.6,3.6,0,0,1,145.7,112.392Z" transform="translate(-60.503 -50.061)" fill="#f0c020"/>
    <circle id="Elipse_10484" data-name="Elipse 10484" cx="2.846" cy="2.846" r="2.846" transform="translate(42.619 52.665)" fill="#f2e1d6"/>
    <path id="Trazado_821761" data-name="Trazado 821761" d="M145.7,74.521H100.153a3.6,3.6,0,0,1-3.6-3.6V64.482a3.6,3.6,0,0,1,3.6-3.6H145.7a3.6,3.6,0,0,1,3.6,3.6v6.437A3.6,3.6,0,0,1,145.7,74.521Z" transform="translate(-60.503 -25.83)" fill="#f0c020"/>
    <circle id="Elipse_10485" data-name="Elipse 10485" cx="2.846" cy="2.846" r="2.846" transform="translate(42.619 39.025)" fill="#f2e1d6"/>
    <path id="Trazado_821762" data-name="Trazado 821762" d="M145.7,36.649H100.153a3.6,3.6,0,0,1-3.6-3.6V26.611a3.6,3.6,0,0,1,3.6-3.6H145.7a3.6,3.6,0,0,1,3.6,3.6v6.437a3.6,3.6,0,0,1-3.6,3.6Z" transform="translate(-60.503 -1.599)" fill="#f0c020"/>
    <circle id="Elipse_10486" data-name="Elipse 10486" cx="2.846" cy="2.846" r="2.846" transform="translate(42.619 25.384)" fill="#f2e1d6"/>
    <path id="Trazado_821763" data-name="Trazado 821763" d="M84.177,159.507l-9.592,9.386-.007.007a2.676,2.676,0,0,1-1.869.774H54.448a3.322,3.322,0,0,1-3.35-3.087,3.249,3.249,0,0,1,3.234-3.393h7.4a4.663,4.663,0,1,0,.08-9.325H46.171c-5.3,0-8.993,2.143-12.589,5.919-1.529,1.6-3.023,2.743-5.65,2.743h-.753v-1.2a2.277,2.277,0,0,0-2.273-2.273H16.575a.9.9,0,1,0,0,1.8h8.331a.471.471,0,0,1,.472.472V181a.471.471,0,0,1-.472.472H2.888a.9.9,0,1,0,0,1.8H24.906a2.276,2.276,0,0,0,2.262-2.057H74.247a5.4,5.4,0,0,0,3.843-1.592,0,0,0,0,0,0,0l2.435-2.4a.9.9,0,0,0,.011-1.271.919.919,0,0,0-1.271-.011l-2.446,2.406,0,0a3.61,3.61,0,0,1-2.572,1.066H27.183V164.333h.749a8.992,8.992,0,0,0,7.052-3.418,14.505,14.505,0,0,1,11.187-5.244H61.81A2.871,2.871,0,0,1,64.67,158.6a2.91,2.91,0,0,1-2.939,2.795h-7.4a5.049,5.049,0,0,0-5.035,5.277,5.11,5.11,0,0,0,5.151,4.8H72.709a4.407,4.407,0,0,0,3.141-1.3h0l9.581-9.375.007-.007a3.231,3.231,0,1,1,4.571,4.567s0,0,0,0L84.4,170.881a.9.9,0,0,0-.011,1.275.924.924,0,0,0,1.275.007l5.615-5.529.008,0a5.033,5.033,0,0,0-7.111-7.124Z" transform="translate(0 -85.327)"/>
    <path id="Trazado_821764" data-name="Trazado 821764" d="M224.457,208.955a.9.9,0,0,0,.011-1.275.924.924,0,0,0-1.275-.007.9.9,0,0,0,1.264,1.282Z" transform="translate(-141.36 -119.59)"/>
    <circle id="Elipse_10487" data-name="Elipse 10487" cx="0.9" cy="0.9" r="0.9" transform="translate(12.073 73.73)"/>
    <path id="Trazado_821765" data-name="Trazado 821765" d="M2.888,168.27a.9.9,0,0,0,0,1.8H9.372a.9.9,0,0,0,0-1.8Z" transform="translate(0 -94.54)"/>
    <path id="Trazado_821766" data-name="Trazado 821766" d="M145.935,116.988h14.027a.9.9,0,1,0,0-1.8H145.935a.9.9,0,0,0,0,1.8Z" transform="translate(-91.525 -60.576)"/>
    <path id="Trazado_821767" data-name="Trazado 821767" d="M200.167,112.25h.428a.9.9,0,1,0,0-1.8h-.428a.9.9,0,0,0,0,1.8Z" transform="translate(-126.223 -57.545)"/>
    <path id="Trazado_821768" data-name="Trazado 821768" d="M207.434,121.719h.428a.9.9,0,1,0,0-1.8h-.428a.9.9,0,0,0,0,1.8Z" transform="translate(-130.873 -63.603)"/>
    <path id="Trazado_821769" data-name="Trazado 821769" d="M214.7,112.25h.428a.9.9,0,0,0,0-1.8H214.7a.9.9,0,1,0,0,1.8Z" transform="translate(-135.522 -57.545)"/>
    <path id="Trazado_821770" data-name="Trazado 821770" d="M221.967,121.719h.428a.9.9,0,0,0,0-1.8h-.428a.9.9,0,1,0,0,1.8Z" transform="translate(-140.172 -63.603)"/>
    <path id="Trazado_821771" data-name="Trazado 821771" d="M116.042,114.779a3.746,3.746,0,1,0-3.747-3.747A3.751,3.751,0,0,0,116.042,114.779Zm0-5.692a1.946,1.946,0,1,1-1.946,1.945A1.948,1.948,0,0,1,116.042,109.087Z" transform="translate(-70.577 -55.521)"/>
    <path id="Trazado_821772" data-name="Trazado 821772" d="M159.963,77.316H145.935a.9.9,0,0,0,0,1.8h14.027a.9.9,0,1,0,0-1.8Z" transform="translate(-91.525 -36.346)"/>
    <path id="Trazado_821773" data-name="Trazado 821773" d="M200.595,72.578h-.428a.9.9,0,0,0,0,1.8h.428a.9.9,0,1,0,0-1.8Z" transform="translate(-126.223 -33.314)"/>
    <path id="Trazado_821774" data-name="Trazado 821774" d="M207.861,82.047h-.428a.9.9,0,0,0,0,1.8h.428a.9.9,0,1,0,0-1.8Z" transform="translate(-130.872 -39.373)"/>
    <path id="Trazado_821775" data-name="Trazado 821775" d="M215.128,72.578H214.7a.9.9,0,1,0,0,1.8h.428a.9.9,0,0,0,0-1.8Z" transform="translate(-135.522 -33.314)"/>
    <path id="Trazado_821776" data-name="Trazado 821776" d="M222.395,82.047h-.428a.9.9,0,1,0,0,1.8h.428a.9.9,0,0,0,0-1.8Z" transform="translate(-140.172 -39.373)"/>
    <path id="Trazado_821777" data-name="Trazado 821777" d="M116.042,69.414a3.747,3.747,0,1,0,3.747,3.747A3.751,3.751,0,0,0,116.042,69.414Zm0,5.692a1.946,1.946,0,1,1,1.946-1.946A1.948,1.948,0,0,1,116.042,75.106Z" transform="translate(-70.577 -31.29)"/>
    <path id="Trazado_821778" data-name="Trazado 821778" d="M145.035,40.345a.9.9,0,0,0,.9.9h14.027a.9.9,0,1,0,0-1.8H145.935A.9.9,0,0,0,145.035,40.345Z" transform="translate(-91.525 -12.115)"/>
    <path id="Trazado_821779" data-name="Trazado 821779" d="M200.595,36.508a.9.9,0,1,0,0-1.8h-.428a.9.9,0,0,0,0,1.8Z" transform="translate(-126.223 -9.084)"/>
    <path id="Trazado_821780" data-name="Trazado 821780" d="M207.861,45.977a.9.9,0,1,0,0-1.8h-.428a.9.9,0,0,0,0,1.8Z" transform="translate(-130.872 -15.142)"/>
    <path id="Trazado_821781" data-name="Trazado 821781" d="M215.128,36.508a.9.9,0,0,0,0-1.8H214.7a.9.9,0,1,0,0,1.8Z" transform="translate(-135.522 -9.084)"/>
    <path id="Trazado_821782" data-name="Trazado 821782" d="M222.395,45.977a.9.9,0,0,0,0-1.8h-.428a.9.9,0,1,0,0,1.8Z" transform="translate(-140.172 -15.142)"/>
    <path id="Trazado_821783" data-name="Trazado 821783" d="M112.3,35.29a3.747,3.747,0,1,0,3.747-3.746A3.751,3.751,0,0,0,112.3,35.29Zm5.692,0a1.946,1.946,0,1,1-1.946-1.945A1.948,1.948,0,0,1,117.988,35.29Z" transform="translate(-70.578 -7.06)"/>
    <path id="Trazado_821784" data-name="Trazado 821784" d="M148.6,31.449V25.012a4.508,4.508,0,0,0-4.5-4.5h-22.4a.9.9,0,1,0,0,1.8h22.4a2.712,2.712,0,0,1,2.7,2.7v6.436a2.712,2.712,0,0,1-2.7,2.7H98.551a2.714,2.714,0,0,1-2.7-2.7V25.012a2.714,2.714,0,0,1,2.7-2.7h15.938a.9.9,0,0,0,0-1.8H98.551a4.508,4.508,0,0,0-4.5,4.5v6.436a4.494,4.494,0,0,0,1.813,3.6,4.494,4.494,0,0,0-1.812,3.6v6.437a4.493,4.493,0,0,0,1.812,3.6,4.494,4.494,0,0,0-1.812,3.6V58.73a4.507,4.507,0,0,0,4.5,4.5H144.1a4.507,4.507,0,0,0,4.5-4.5V52.292a4.493,4.493,0,0,0-1.812-3.6,4.494,4.494,0,0,0,1.812-3.6V38.653a4.494,4.494,0,0,0-1.813-3.6,4.5,4.5,0,0,0,1.813-3.6Zm-1.8,20.844V58.73a2.7,2.7,0,0,1-2.7,2.7H98.552a2.7,2.7,0,0,1-2.7-2.7V52.293a2.7,2.7,0,0,1,2.7-2.7H144.1A2.7,2.7,0,0,1,146.8,52.293Zm0-7.2a2.7,2.7,0,0,1-2.7,2.7H98.552a2.7,2.7,0,0,1-2.7-2.7V38.653a2.7,2.7,0,0,1,2.7-2.7H144.1a2.7,2.7,0,0,1,2.7,2.7Z" transform="translate(-58.903 0)"/>
    <circle id="Elipse_10488" data-name="Elipse 10488" cx="0.9" cy="0.9" r="0.9" transform="translate(58.287 20.51)"/>
  </g>
</svg>
