<svg xmlns="http://www.w3.org/2000/svg" width="63.985" height="63.983" viewBox="0 0 63.985 63.983">
  <g id="Grupo_1076258" data-name="Grupo 1076258" transform="translate(-197.644 -3143.535)">
    <g id="Grupo_1074205" data-name="Grupo 1074205" transform="translate(0 -12.826)">
      <g id="persona-de-libre-dedicacion" transform="translate(197.644 3156.353)">
        <path id="Trazado_820644" data-name="Trazado 820644" d="M246.408,117.934h-1.894a2.328,2.328,0,0,0-2.328,2.328,4.574,4.574,0,0,0,4.574,4.574h.088Z" transform="translate(-211.921 -103.188)" fill="#ffe4c1"/>
        <path id="Trazado_820645" data-name="Trazado 820645" d="M428.11,117.934h-1.894l-.44,6.9h.088a4.574,4.574,0,0,0,4.574-4.574A2.328,2.328,0,0,0,428.11,117.934Z" transform="translate(-372.566 -103.188)" fill="#f1d0a5"/>
        <path id="Trazado_820646" data-name="Trazado 820646" d="M394.58,80.533l.862.862a1.878,1.878,0,0,1,.453.734l2.111,6.334.543-8.5a9.7,9.7,0,0,0-.347-3.274.213.213,0,0,0-.2-.153H394.03v2.673A1.877,1.877,0,0,0,394.58,80.533Z" transform="translate(-344.788 -66.961)" fill="#86a0af"/>
        <path id="Trazado_820647" data-name="Trazado 820647" d="M278.035,81.394l.862-.862a1.877,1.877,0,0,0,.55-1.327V76.532h-3.964a.213.213,0,0,0-.2.153,9.7,9.7,0,0,0-.347,3.274l.542,8.495,2.109-6.327A1.877,1.877,0,0,1,278.035,81.394Z" transform="translate(-240.555 -66.96)" fill="#86a0af"/>
        <path id="Trazado_820648" data-name="Trazado 820648" d="M290.061,13.915a10.2,10.2,0,0,0-11.577-6.186,1.7,1.7,0,0,0-1.337,1.665v1.564A1.706,1.706,0,0,0,274.4,9.611a10.18,10.18,0,0,0-3.264,4.3l-.814,2.036a.133.133,0,0,0,.124.183h20.309a.133.133,0,0,0,.124-.183Z" transform="translate(-236.529 -6.562)" fill="#617881"/>
        <path id="Trazado_820649" data-name="Trazado 820649" d="M316.395,394.048v3.267a.184.184,0,0,1-.184.184h-9.1a.185.185,0,0,1-.166-.1,2.936,2.936,0,0,0-2.626-1.623h-4.152a2.749,2.749,0,0,0-2.749,2.749v.7h6.421a2.205,2.205,0,0,1,2.205,2.205v1.245H323.3v-8.628Z" transform="translate(-260.249 -344.796)" fill="#fff1dd"/>
        <path id="Trazado_820650" data-name="Trazado 820650" d="M200.778,394.048h6.9v5.176h-6.9Z" transform="translate(-175.687 -344.796)" fill="#fff1dd"/>
        <path id="Trazado_820651" data-name="Trazado 820651" d="M287.046,282.754a6.929,6.929,0,0,0-5.248-6.722l-5.678-1.419a3.808,3.808,0,0,1-.427-.134,8.629,8.629,0,0,1-12.8,2.868v9.538a2.537,2.537,0,0,1-2.537,2.537h-4.365V294.6h5.177v-.7a2.749,2.749,0,0,1,2.749-2.749h4.152a2.936,2.936,0,0,1,2.626,1.623.185.185,0,0,0,.166.1h9.1a.184.184,0,0,0,.184-.184v-3.267h6.9Z" transform="translate(-224 -240.169)" fill="#4073c8"/>
        <path id="Trazado_820652" data-name="Trazado 820652" d="M321.573,231.448v-2.089a9.159,9.159,0,0,1-10.351,0v8.506a8.629,8.629,0,0,0,12.8-2.868A3.8,3.8,0,0,1,321.573,231.448Z" transform="translate(-272.328 -200.688)" fill="#f1d0a5"/>
        <path id="Trazado_820653" data-name="Trazado 820653" d="M295.6,82.128a1.877,1.877,0,0,0-.453-.734l-.862-.862a1.877,1.877,0,0,1-.55-1.327V76.532h-10.35v2.673a1.877,1.877,0,0,1-.55,1.327l-.862.862a1.876,1.876,0,0,0-.453.734l-2.109,6.327.01.153h1.429a2.537,2.537,0,0,1,2.537,2.537v4.487A9.157,9.157,0,0,0,297.7,88.661l.013-.2Z" transform="translate(-244.491 -66.96)" fill="#fff1dd"/>
        <path id="Trazado_820654" data-name="Trazado 820654" d="M42.919,173.159H10.037A2.537,2.537,0,0,0,7.5,175.7v22.53a2.537,2.537,0,0,0,2.537,2.537h12.3l.69-3.451h6.9l.69,3.451h12.3a2.537,2.537,0,0,0,2.537-2.537V175.7A2.537,2.537,0,0,0,42.919,173.159Z" transform="translate(-6.563 -151.511)" fill="#d0e2e7"/>
        <path id="Trazado_820655" data-name="Trazado 820655" d="M323.437,82.128a1.876,1.876,0,0,0-.453-.734l-.862-.862a1.877,1.877,0,0,1-.55-1.327V76.532h-4.95a3.751,3.751,0,0,0,1.05,2.05,3.753,3.753,0,0,1,.906,1.467l1.908,5.725a1.02,1.02,0,0,1,.05.388,9.156,9.156,0,0,1-9.138,8.573l-.176,0v.9a9.157,9.157,0,0,0,14.312-6.971l.013-.2Z" transform="translate(-272.329 -66.96)" fill="#ffe4c1"/>
        <path id="Trazado_820656" data-name="Trazado 820656" d="M100.679,438.916H62.722V437.67a2.205,2.205,0,0,1,2.205-2.205H98.473a2.205,2.205,0,0,1,2.205,2.205v1.245Z" transform="translate(-54.884 -381.036)" fill="#617881"/>
        <path id="Trazado_820657" data-name="Trazado 820657" d="M69.611,468.119a.132.132,0,0,1-.132.132H7.632a.132.132,0,0,1-.132-.132v-4.912a.132.132,0,0,1,.132-.132H69.611Z" transform="translate(-6.563 -405.196)" fill="#e28424"/>
        <path id="Trazado_820658" data-name="Trazado 820658" d="M107.586,438.916H90.333v-2.041a1.41,1.41,0,0,1,1.41-1.41h14.433a1.41,1.41,0,0,1,1.41,1.41v2.041Z" transform="translate(-79.044 -381.036)" fill="#d0e2e7"/>
        <path id="Trazado_820659" data-name="Trazado 820659" d="M128.3,375.064H117.945l1.725-8.626h6.9Z" transform="translate(-103.205 -320.635)" fill="#9bb9c1"/>
        <path id="Trazado_820660" data-name="Trazado 820660" d="M95.509,202.5a1.725,1.725,0,0,1,1.725-1.725h-6.9a1.725,1.725,0,1,1,0,3.451h6.9a1.725,1.725,0,0,1-1.725-1.725Z" transform="translate(-79.044 -175.672)" fill="#b4d0d5"/>
        <path id="Trazado_820661" data-name="Trazado 820661" d="M178.343,202.5a1.725,1.725,0,0,1,1.725-1.725h-6.9a1.725,1.725,0,1,1,0,3.451h6.9a1.725,1.725,0,0,1-1.725-1.725Z" transform="translate(-151.526 -175.672)" fill="#b4d0d5"/>
        <g id="Grupo_1074187" data-name="Grupo 1074187" transform="translate(6.113 25.098)">
          <path id="Trazado_820662" data-name="Trazado 820662" d="M136.926,204.22h-3.451a1.725,1.725,0,0,1,0-3.451h3.451a1.725,1.725,0,1,1,0,3.451Z" transform="translate(-121.398 -200.769)" fill="#617881"/>
          <path id="Trazado_820663" data-name="Trazado 820663" d="M54.092,204.22H50.641a1.725,1.725,0,0,1,0-3.451h3.451a1.725,1.725,0,1,1,0,3.451Z" transform="translate(-48.916 -200.769)" fill="#617881"/>
          <path id="Trazado_820664" data-name="Trazado 820664" d="M219.759,204.22h-3.451a1.725,1.725,0,1,1,0-3.451h3.451a1.725,1.725,0,0,1,0,3.451Z" transform="translate(-193.879 -200.769)" fill="#617881"/>
        </g>
        <path id="Trazado_820665" data-name="Trazado 820665" d="M201.294,173.159h-2.462c0,.013,0,.025,0,.038v18.8a6.271,6.271,0,0,1-6.271,6.271h-4.067l.5,2.5h12.3a2.537,2.537,0,0,0,2.537-2.537V175.7A2.537,2.537,0,0,0,201.294,173.159Z" transform="translate(-164.938 -151.511)" fill="#b4d0d5"/>
        <path id="Trazado_820666" data-name="Trazado 820666" d="M7.5,374.047a2.537,2.537,0,0,0,2.537,2.5h12.3l.5-2.5Z" transform="translate(-6.565 -327.294)" fill="#b4d0d5"/>
        <path id="Trazado_820667" data-name="Trazado 820667" d="M339.166,143.715h.232a2.433,2.433,0,0,0,2.43-2.43v-1.958a.937.937,0,0,0-1.875,0v1.958a.556.556,0,0,1-.556.556h-.232a.937.937,0,0,0,0,1.875Z" transform="translate(-295.96 -121.087)"/>
        <path id="Trazado_820668" data-name="Trazado 820668" d="M63.984,42.585a7.854,7.854,0,0,0-5.958-7.631l-5.677-1.419a2.869,2.869,0,0,1-2.167-2.774V29.141a10.1,10.1,0,0,0,3.881-6.609,5.519,5.519,0,0,0,4.746-5.458,3.269,3.269,0,0,0-3.265-3.265h-.895l.048-.749a10.673,10.673,0,0,0-.15-2.6,1.071,1.071,0,0,0,.671-1.418L54.4,7.006A11.132,11.132,0,0,0,41.761.25a2.638,2.638,0,0,0-1.919,1.674A2.635,2.635,0,0,0,37.3,2.3a11.132,11.132,0,0,0-3.564,4.7L32.92,9.042a1.071,1.071,0,0,0,.671,1.418,10.672,10.672,0,0,0-.15,2.6l.048.749h-.895a3.269,3.269,0,0,0-3.265,3.265A5.488,5.488,0,0,0,30.7,20.711H9.564a.937.937,0,0,0,0,1.875H36.357a1.6,1.6,0,0,1,1.6,1.6v22.53a1.6,1.6,0,0,1-1.6,1.6H24.825l-.315-1.576h2.307a.937.937,0,0,0,0-1.875h-13.8a.937.937,0,1,0,0,1.875h2.307l-.315,1.576H3.475a1.6,1.6,0,0,1-1.6-1.6V24.185a1.6,1.6,0,0,1,1.6-1.6H5.19a.937.937,0,1,0,0-1.875H3.475A3.479,3.479,0,0,0,0,24.185v22.53A3.479,3.479,0,0,0,3.475,50.19H14.632l-.66,3.3H10.044A3.146,3.146,0,0,0,6.9,56.634v.308H1.069A1.071,1.071,0,0,0,0,58.011v4.912a1.071,1.071,0,0,0,1.069,1.069H62.916a1.071,1.071,0,0,0,1.069-1.069c0-16.3,0-11.821,0-20.338ZM50.377,34.672a7.693,7.693,0,0,1-10.546,2.021V30.281a10.088,10.088,0,0,0,8.476-.006v.485a4.763,4.763,0,0,0,2.07,3.912Zm-.2-24.162h2.465a8.787,8.787,0,0,1,.181,2.431l-.237,3.709L52,14.872a2.829,2.829,0,0,0-.68-1.1l-.862-.862a.946.946,0,0,1-.275-.664V10.51Zm5.364,5.174a1.392,1.392,0,0,1,1.39,1.39,3.643,3.643,0,0,1-2.718,3.519l.313-4.909ZM35.475,7.7a9.256,9.256,0,0,1,2.964-3.909.769.769,0,0,1,.817-.082.744.744,0,0,1,.425.686.937.937,0,1,0,1.875,0V2.832a.762.762,0,0,1,.594-.748A9.259,9.259,0,0,1,52.662,7.7l.373.934H35.1Zm.073,8.941-.236-3.7a8.782,8.782,0,0,1,.181-2.431h2.462v1.736a.945.945,0,0,1-.275.664l-.862.862a2.83,2.83,0,0,0-.68,1.1Zm-2.954-.959h1.014l.313,4.909A3.643,3.643,0,0,1,31.2,17.074,1.392,1.392,0,0,1,32.594,15.684Zm3.763,5.027h-.189l1.749-5.246a.944.944,0,0,1,.227-.367l.862-.862a2.8,2.8,0,0,0,.824-1.99V10.51h8.476v1.736a2.8,2.8,0,0,0,.824,1.99l.862.862a.943.943,0,0,1,.227.367l2.053,6.16a8.22,8.22,0,0,1-12.441,6.536v-2.68a.933.933,0,0,0,.286.283,7.441,7.441,0,0,0,7.9,0,.937.937,0,1,0-1-1.586,5.557,5.557,0,0,1-5.9,0,.938.938,0,0,0-1.286.283v-.276a3.479,3.479,0,0,0-3.475-3.475Zm3.475,26V42.3a9.567,9.567,0,0,0,9.976-.927.937.937,0,0,0-1.126-1.5,7.687,7.687,0,0,1-8.85.265v-1.29a9.574,9.574,0,0,0,12.3-3.439l5.436,1.359a5.983,5.983,0,0,1,4.538,5.813v5.73H57.084V44.077a.937.937,0,0,0-1.875,0v7.689h-2.89a.937.937,0,0,0,0,1.875h3.643q.048,0,.1,0c.029,0,.058,0,.088,0h1.725a.937.937,0,0,0,0-1.875h-.788V50.19h5.027v6.752H46.732v-.308a3.146,3.146,0,0,0-3.143-3.143H38.121a1.814,1.814,0,0,1,1.8-1.576H44.07a1.988,1.988,0,0,1,1.787,1.1,1.117,1.117,0,0,0,1,.621h1.084a.937.937,0,0,0,0-1.875h-.652A3.849,3.849,0,0,0,44.07,50.04H39.918a3.691,3.691,0,0,0-3.679,3.451h-3.31v-3.3h3.428a3.478,3.478,0,0,0,3.474-3.475ZM27.6,55.838v1.1H12.226v-1.1a.473.473,0,0,1,.473-.473H27.132A.473.473,0,0,1,27.6,55.838Zm-1.576-2.347v-3.3h5.026v3.3Zm-8.8-6.752H22.6l1.35,6.752H15.883ZM8.776,56.634a1.269,1.269,0,0,1,1.268-1.268H10.4a2.347,2.347,0,0,0-.048.473v1.1H8.776Zm53.335,5.484H1.875v-3.3h32.8a.937.937,0,0,0,0-1.875h-5.2v-1.1a2.348,2.348,0,0,0-.048-.473H43.59a1.269,1.269,0,0,1,1.268,1.268v.308h-5.68a.937.937,0,0,0,0,1.875H62.111Z" transform="translate(0 0)"/>
        <path id="Trazado_820669" data-name="Trazado 820669" d="M41.417,195.933A2.666,2.666,0,0,0,44.08,198.6H68.234a2.663,2.663,0,1,0,0-5.325H44.08A2.666,2.666,0,0,0,41.417,195.933Zm16.465-.788a.788.788,0,0,1,0,1.576H54.431a.788.788,0,1,1,0-1.576Zm2.544,0H62.24a2.668,2.668,0,0,0,0,1.576H60.425A2.667,2.667,0,0,0,60.425,195.145Zm-8.538,1.576H50.074a2.666,2.666,0,0,0,0-1.576h1.814A2.668,2.668,0,0,0,51.888,196.721Zm17.134-.788a.789.789,0,0,1-.788.788H64.783a.788.788,0,1,1,0-1.576h3.451A.789.789,0,0,1,69.022,195.933Zm-24.942-.788H47.53a.788.788,0,1,1,0,1.576H44.08a.788.788,0,0,1,0-1.576Z" transform="translate(-36.241 -169.109)"/>
      </g>
    </g>
  </g>
</svg>
