<svg xmlns="http://www.w3.org/2000/svg" width="96" height="86" viewBox="0 0 96 86">
  <g id="Grupo_1076284" data-name="Grupo 1076284" transform="translate(-845 -2078.523)">
    <g id="Grupo_1074334" data-name="Grupo 1074334" transform="translate(845 2078.523)">
      <path id="Trazado_821568" data-name="Trazado 821568" d="M9,0H87a9,9,0,0,1,9,9V77a9,9,0,0,1-9,9H9a9,9,0,0,1-9-9V9A9,9,0,0,1,9,0Z" fill="#fff"/>
      <g id="UyrgcM.tif" transform="translate(-1914.464 40.956)">
        <g id="Grupo_151394" data-name="Grupo 151394" transform="translate(1933.769 -26.659)">
          <path id="Trazado_193789" data-name="Trazado 193789" d="M1973.883,22.394c.532.281,1.054.582,1.6.84a5.053,5.053,0,0,1,2.346,6.276,2.189,2.189,0,0,1-2.3,1.235c-6.215-.017-12.431-.008-18.647-.008-2.486,0-4.973.007-7.459,0-1.773-.007-2.434-.719-2.542-2.445-.162-2.582.69-4.481,3.265-5.382a7,7,0,0,0,1.1-.679c-.515-.047-.788-.093-1.062-.093-3.923-.007-7.847,0-11.77-.013a4.269,4.269,0,0,1-4.634-4.646q-.015-17.481,0-34.963a4.262,4.262,0,0,1,4.475-4.58,6.219,6.219,0,0,1,.932,0,3.762,3.762,0,0,0,3.673-1.41,2.381,2.381,0,0,1,3.353-.465c.84.466,1.28.229,1.526-.659a2.461,2.461,0,0,1,2.7-2.051c.816-.013,1.632-.02,2.447,0a2.423,2.423,0,0,1,2.535,1.975c.242,1,.713,1.147,1.56.69a2.441,2.441,0,0,1,3.354.549,3.992,3.992,0,0,0,3.45,1.4c7.536-.064,15.072-.033,22.608-.031,3.055,0,4.764,1.7,4.765,4.759q.008,17.365,0,34.73c0,2.956-1.749,4.7-4.711,4.7q-6.233.01-12.465,0Zm14.972-9.77c0-.452,0-.8,0-1.144q0-14.218,0-28.435c0-2.264-.571-2.834-2.818-2.834-7.186,0-14.373.028-21.559-.02-1.05-.007-1.683.143-2.085,1.243-.334.913-.293,1.332.7,1.585a2.393,2.393,0,0,1,1.973,2.527c.024.776.012,1.554,0,2.331a2.51,2.51,0,0,1-2.135,2.871c-.755.234-1.011.624-.625,1.362.861,1.646.743,2.386-.582,3.717-.548.551-1.082,1.119-1.663,1.632a2.467,2.467,0,0,1-2.924.349c-1.144-.564-1.355-.485-1.744.735a2.417,2.417,0,0,1-2.543,1.816c-1.8-.1-3.937.741-5.021-1.614a1,1,0,0,1-.035-.111c-.45-1.343-.618-1.419-1.823-.826a2.37,2.37,0,0,1-2.986-.429c-.63-.633-1.282-1.245-1.894-1.9a2.432,2.432,0,0,1-.428-3.093c.538-1.07.422-1.338-.737-1.712a2.414,2.414,0,0,1-1.859-2.624c.069-1.766-.694-3.856,1.6-4.916.14-.065.328-.059.436-.152.315-.272.905-.687.846-.853-.241-.677-.561-1.688-1.074-1.844-2.479-.753-3.8.338-3.8,2.916q0,14.1,0,28.2v1.216Zm0,2.417h-52.777c0,.754,0,1.443,0,2.133.009,2.035.6,2.64,2.627,2.641q16.139.006,32.278,0,7.749,0,15.5,0c1.657,0,2.343-.69,2.371-2.316C1988.863,16.725,1988.852,15.952,1988.852,15.042ZM1953.044-1.924c.819-2.869,2.66-3.632,5.369-2.31l2.119-2.079c-1.63-2.3-.39-4.7,2.161-5.4v-2.962c-2.631-.526-3.534-2.746-2.187-5.338l-2.068-2.1a3.38,3.38,0,0,1-5.419-2.15h-2.956c-.249,2.463-3.247,3.648-5.606,2.036a9.224,9.224,0,0,1-1.1,1.41,1.233,1.233,0,0,0-.305,1.771,3,3,0,0,1,.087,1.989,2.739,2.739,0,0,1-2.709,2.348v3.11a3.354,3.354,0,0,1,2.313,5.25l1.984,2.177c.342-.194.63-.387.94-.527,1.31-.592,3.625.123,3.956,1.48.345,1.411,1.159,1.37,2.19,1.3C1952.2-1.947,1952.587-1.924,1953.044-1.924Zm22.54,30.29c.33-2.022.058-2.394-1.563-3.3a11.8,11.8,0,0,1-2.8-2.2,2.025,2.025,0,0,0-1.665-.751c-4.62.025-9.241.037-13.86-.006a2.433,2.433,0,0,0-2.156.956,8.841,8.841,0,0,1-2.547,1.968c-1.734.944-2.009,1.348-1.643,3.331Z" transform="translate(-1933.769 26.659)" fill="#12263f"/>
          <path id="Trazado_193790" data-name="Trazado 193790" d="M2076.657,51.647c-1.333-1.013-2.136-.3-2.782,1.2-.167.389-.972.636-1.514.7a13.393,13.393,0,0,1-2.9.03,2.092,2.092,0,0,1-1.916-1.633c-.2-.793-.482-1.048-1.29-.608a2.31,2.31,0,0,1-2.967-.493c-.408-.416-.83-.817-1.238-1.233-1.176-1.2-1.279-1.658-.591-3.2.292-.652.184-.952-.527-1.183a2.307,2.307,0,0,1-1.835-2.6c-.009-.621-.012-1.243,0-1.864a2.247,2.247,0,0,1,1.806-2.5c.681-.223.854-.479.5-1.169a2.308,2.308,0,0,1,.53-3.141c.487-.5.979-1,1.493-1.472a2.144,2.144,0,0,1,2.678-.414c.915.541,1.244.259,1.417-.646a1.342,1.342,0,0,1,.306-.618c1.336-1.483,3.1-.926,4.717-.9a2.061,2.061,0,0,1,1.913,1.77c.183.7.471.855,1.156.5a2.314,2.314,0,0,1,3.145.531c.474.459.942.926,1.4,1.4a2.249,2.249,0,0,1,.42,2.875c-.435.766-.283,1.144.584,1.277a1.379,1.379,0,0,1,.635.267c1.528,1.24,1.047,2.971,1.031,4.554a2.1,2.1,0,0,1-1.716,2.1c-.925.224-.92.621-.483,1.309a2.1,2.1,0,0,1,.3.985C2081.005,48.955,2078.4,51.619,2076.657,51.647Zm-13.271-3.983,1.549,1.6c2.38-.985,3.391-.6,4.765,1.7a.909.909,0,0,0,.638.336c.6.046,1.211.016,1.775.016.76-2.406,2.505-3.126,4.82-2.046l1.579-1.6c-1.118-1.732-.53-3.964,1.974-4.894V40.633c-2.136-.544-3.133-2.626-2.03-4.918l-1.515-1.548c-1.965,1.271-4.2.275-4.925-2a11.921,11.921,0,0,0-1.475.017,1.227,1.227,0,0,0-.835.377c-1.3,2.238-2.214,2.582-4.769,1.673l-1.523,1.515c1.035,2.191.5,3.73-1.533,4.7a.966.966,0,0,0-.445.665,14.91,14.91,0,0,0-.02,1.7C2063.827,43.8,2064.582,45.635,2063.386,47.664Z" transform="translate(-2029.752 -16.576)" fill="#12263f"/>
          <path id="Trazado_193791" data-name="Trazado 193791" d="M2052.747,156.382a1.578,1.578,0,1,1-1.583-1.538A1.617,1.617,0,0,1,2052.747,156.382Z" transform="translate(-2022.479 -112.356)" fill="#12263f"/>
          <path id="Trazado_193792" data-name="Trazado 193792" d="M1992.054,18.816a5.411,5.411,0,1,1,5.434-5.379A5.415,5.415,0,0,1,1992.054,18.816Zm.062-8.537a3.116,3.116,0,1,0,3.077,3.148A3.152,3.152,0,0,0,1992.116,10.279Z" transform="translate(-1974.26 0.118)" fill="#12263f"/>
          <path id="Trazado_193793" data-name="Trazado 193793" d="M2089.1,64.928a4.859,4.859,0,0,1,9.718-.072,4.859,4.859,0,1,1-9.718.072Zm2.31-.046a2.54,2.54,0,0,0,2.532,2.6,2.6,2.6,0,0,0,2.583-2.582,2.556,2.556,0,0,0-2.5-2.525A2.5,2.5,0,0,0,2091.415,64.882Z" transform="translate(-2052.743 -39.764)" fill="#12263f"/>
        </g>
      </g>
    </g>
  </g>
</svg>
