<svg xmlns="http://www.w3.org/2000/svg" width="96" height="86" viewBox="0 0 96 86">
  <g id="Grupo_1076283" data-name="Grupo 1076283" transform="translate(-215 -2078.523)">
    <path id="Trazado_821568" data-name="Trazado 821568" d="M9,0H87a9,9,0,0,1,9,9V77a9,9,0,0,1-9,9H9a9,9,0,0,1-9-9V9A9,9,0,0,1,9,0Z" transform="translate(215 2078.523)" fill="#fff"/>
    <g id="_5KWReG.tif" data-name="5KWReG.tif" transform="translate(-1581.108 2245.745)">
      <g id="Grupo_151395" data-name="Grupo 151395" transform="translate(1810.245 -159.446)">
        <path id="Trazado_193794" data-name="Trazado 193794" d="M1840.671-89c-1.2-.175-2.4-.307-3.587-.533a29.824,29.824,0,0,1-19.039-12.057,29.643,29.643,0,0,1-5.694-20.541,28.791,28.791,0,0,1,3.078-10.768c.113-.223.225-.447.3-.6-.92-1.02-1.891-1.936-2.674-2.992a14.434,14.434,0,0,1,9.923-22.856,14.381,14.381,0,0,1,15.2,9.233c.166.443.335.57.83.524,1.5-.141,3.016-.261,4.526-.268,6.1-.029,12.2-.012,18.3-.012.932,0,.915,0,.946-.912a2.908,2.908,0,0,1,.2-1.13,1.4,1.4,0,0,1,2.062-.528q3.543,2.308,7.041,4.684a1.434,1.434,0,0,1-.021,2.44q-3.467,2.36-6.985,4.645a1.46,1.46,0,0,1-2.3-1.259c-.02-.407,0-.815,0-1.288h-.82c-6.307,0-12.614-.012-18.92.011-1.211,0-2.423.132-3.631.245a.681.681,0,0,0-.489.41,14.578,14.578,0,0,1-4.919,8.582c.656.645,1.3,1.287,1.956,1.906a.525.525,0,0,0,.417.032c.2-.054.367-.216.563-.247,1.441-.231,1.736-1.146,1.563-2.436a11.935,11.935,0,0,1-.009-1.993,1.849,1.849,0,0,1,1.825-1.946c1.553-.067,3.112-.067,4.664,0a1.858,1.858,0,0,1,1.861,1.983c.023,1.032.034,2.065-.006,3.1-.02.51.089.822.631.934a2.358,2.358,0,0,1,.889.353c.671.485,1.114.253,1.6-.31.6-.692,1.277-1.316,1.937-1.953a1.827,1.827,0,0,1,2.707-.118,42.848,42.848,0,0,1,3.17,3.137c.98,1.086.883,2.013-.171,3.067-.81.811-1.633,1.608-2.453,2.415.3.761.57,1.486.894,2.184a.707.707,0,0,0,.542.259c1.055.025,2.11,0,3.165.014,1.342.013,2.056.57,2.128,1.9a44.97,44.97,0,0,1-.019,4.731,1.777,1.777,0,0,1-1.9,1.69c-1.124.018-2.248-.014-3.371.023a.808.808,0,0,0-.59.373c-.308.636-.544,1.307-.837,2.037.807.806,1.65,1.643,2.487,2.486.99,1,1.1,1.937.178,2.964a40,40,0,0,1-3.213,3.19,1.836,1.836,0,0,1-2.761-.156c-.773-.751-1.538-1.511-2.286-2.287a.53.53,0,0,0-.772-.125,4.119,4.119,0,0,1-.622.29c-1.318.556-1.318.556-1.318,2.018,0,.711.008,1.422,0,2.133a1.869,1.869,0,0,1-1.869,2.114,38.72,38.72,0,0,1-4.731-.022,1.815,1.815,0,0,1-1.755-2c-.018-1.055-.026-2.111.006-3.165.013-.43-.084-.7-.534-.784a1.284,1.284,0,0,1-.513-.188c-1.041-.771-1.784-.373-2.494.531a14.566,14.566,0,0,1-1.549,1.562,1.8,1.8,0,0,1-2.6.132,48.594,48.594,0,0,1-3.441-3.445,1.784,1.784,0,0,1,.17-2.6c.879-.9,1.785-1.778,2.651-2.638-.3-.743-.561-1.425-.845-2.1a1.49,1.49,0,0,0-.285-.337,1.465,1.465,0,0,0-.331.3,3.135,3.135,0,0,1-3.033,1.635c-.779-.026-1.559.007-2.339-.008a3.02,3.02,0,0,1-2.911-2.29,18.059,18.059,0,0,1-.482-2.214c-.085-.649-.368-.875-1.039-.716a19.692,19.692,0,0,0,.928,5.725c3.1,9.423,9.518,15.2,19.292,16.884,12.371,2.13,24.563-6.564,26.847-18.916a35.425,35.425,0,0,0,.42-3.613,1.863,1.863,0,0,1,2.125-1.97c.917.015,1.834.032,2.751.065a1.74,1.74,0,0,1,1.805,1.9,30.352,30.352,0,0,1-7.465,19.009,1.064,1.064,0,0,1-1.566.246c-.5-.426-.5-1,.042-1.633a28.058,28.058,0,0,0,6.355-12.93c.292-1.454.428-2.939.649-4.507h-2.471a50.4,50.4,0,0,1-1,5.393c-3.106,10.513-10.038,17.049-20.847,18.922a25.637,25.637,0,0,1-29.437-20.353,48.735,48.735,0,0,1-.511-5.258,2.3,2.3,0,0,0-.078-.74,3.476,3.476,0,0,1,.513-4.012c-1.406-2.188-1.22-3.762.666-5.353l-.694-2.179c-.252.521-.445.895-.616,1.279A28.249,28.249,0,0,0,1824-98.086a27.889,27.889,0,0,0,19.588,7A27.839,27.839,0,0,0,1860-97c.182-.139.357-.288.545-.42a1.035,1.035,0,0,1,1.521.138,1.008,1.008,0,0,1-.289,1.5c-1.4.989-2.783,2.029-4.27,2.878a29.38,29.38,0,0,1-12.45,3.795,4.321,4.321,0,0,0-.534.108Zm-8.515-35.283c.041.06.146.207.246.357a3.425,3.425,0,0,1-2.062,5.275c-.878.213-.936.3-.892,1.3a2.119,2.119,0,0,1,1.842,1.692,12.26,12.26,0,0,0,.679,1.648,2.006,2.006,0,0,1-.439,2.723c-.822.826-1.649,1.648-2.567,2.564l3.026,3c.97-.991,1.807-1.87,2.672-2.723a1.875,1.875,0,0,1,2.382-.387c.668.3,1.344.581,2.028.839a1.929,1.929,0,0,1,1.477,2.12c0,.482,0,.963,0,1.445v2.191h4.237c0-1.375-.009-2.635,0-3.894a1.79,1.79,0,0,1,1.2-1.751c.823-.342,1.648-.682,2.469-1.03a1.849,1.849,0,0,1,2.152.406c.579.555,1.136,1.134,1.707,1.7.335.331.677.654,1.156,1.115l3-2.957c-1.052-1.037-1.938-1.9-2.805-2.773a1.9,1.9,0,0,1-.4-2.384c.291-.646.578-1.3.822-1.961a1.991,1.991,0,0,1,2.2-1.57c1.166,0,2.333,0,3.627,0,0-1.241-.007-2.426,0-3.611,0-.488-.235-.609-.685-.6-.985.026-1.972.018-2.958,0a1.989,1.989,0,0,1-2.191-1.585c-.2-.559-.417-1.116-.672-1.653a2.066,2.066,0,0,1,.51-2.936c.789-.787,1.581-1.57,2.479-2.461l-2.966-3.047c-1.021,1.032-1.866,1.9-2.727,2.754a1.9,1.9,0,0,1-2.44.416c-.581-.268-1.163-.545-1.765-.759-1.394-.5-1.718-.928-1.719-2.423,0-1.117,0-2.234,0-3.419h-4.235c0,1.331.008,2.565,0,3.8a1.861,1.861,0,0,1-1.361,1.921c-.662.254-1.327.5-1.968.8a1.973,1.973,0,0,1-2.714-.462c-.64-.642-1.267-1.3-2.039-2.089-.344.963-.6,1.737-.9,2.5a.6.6,0,0,0,.226.809,3.179,3.179,0,0,1,1.143,3.2A10.432,10.432,0,0,1,1832.157-124.28Zm-6.453-5.912c1.078,0,2.04-.044,3,.016a.775.775,0,0,0,.938-.717,8.749,8.749,0,0,1,3.069-4.745,11.73,11.73,0,0,0,4.161-11.4,12.269,12.269,0,0,0-14.08-10.214,12.475,12.475,0,0,0-10.467,11.677,12.224,12.224,0,0,0,4.67,10.238,7.346,7.346,0,0,1,2.523,3.756,8.4,8.4,0,0,0,.349,1.04c.06.139.228.326.35.329,1.117.025,2.235.015,3.42.015,0-1.976.01-3.875-.022-5.772,0-.131-.31-.336-.5-.373a8.845,8.845,0,0,1-7.06-10.439,8.781,8.781,0,0,1,10.31-6.866,8.5,8.5,0,0,1,6.611,5.692,1.028,1.028,0,0,1-.552,1.422,1.041,1.041,0,0,1-1.345-.631c-.076-.166-.125-.344-.2-.513a6.739,6.739,0,0,0-6.244-4.077,6.742,6.742,0,0,0-6.181,4.173,6.728,6.728,0,0,0,1.455,7.313,6.477,6.477,0,0,0,3.695,1.885V-140.7c-.265-.108-.522-.2-.77-.317a4.414,4.414,0,0,1-2.216-5.738,4.432,4.432,0,0,1,5.675-2.379,4.446,4.446,0,0,1,2.813,4.115,4.494,4.494,0,0,1-2.813,4.125c-.228.095-.538.324-.561.519a18.156,18.156,0,0,0-.027,1.992c.266-.046.465-.065.655-.116a6.577,6.577,0,0,0,4.438-3.7c.137-.289.229-.6.368-.887a.959.959,0,0,1,1.257-.545.958.958,0,0,1,.665,1.2,2.806,2.806,0,0,1-.193.585,8.765,8.765,0,0,1-6.63,5.508c-.207.045-.532.271-.535.418C1825.691-134.043,1825.7-132.168,1825.7-130.192Zm13.467-14.88c.847-.069,1.623-.184,2.4-.186q10.9-.029,21.8-.021a1.342,1.342,0,0,1,1.462,1.395c.02.257.026.516.044.884l5.326-3.549-5.309-3.528c-.026.231-.048.362-.053.494-.05,1.38-.464,1.783-1.852,1.787-1.055,0-2.11,0-3.164,0q-9.286.017-18.572.045c-.766,0-1.531.129-2.318.2Zm-14.532,24.439c1.581,0,3.162.007,4.744,0,.972-.006,1.549-.526,1.543-1.362a1.344,1.344,0,0,0-1.495-1.352q-4.744-.022-9.488,0a1.386,1.386,0,0,0-1.527,1.406,1.391,1.391,0,0,0,1.548,1.308C1821.521-120.627,1823.08-120.633,1824.638-120.633Zm.048-4.795v.006c1.558,0,3.116.01,4.674,0,.988-.008,1.561-.516,1.567-1.343s-.569-1.341-1.547-1.358c-.5-.008-1.008,0-1.512,0-2.612,0-5.224.006-7.836,0a1.449,1.449,0,0,0-1.448.718,1.332,1.332,0,0,0,1.223,1.976C1821.432-125.4,1823.059-125.428,1824.686-125.428Zm-.014-17.239a2.369,2.369,0,0,0,2.366-2.358,2.353,2.353,0,0,0-2.314-2.335,2.311,2.311,0,0,0-2.383,2.317A2.325,2.325,0,0,0,1824.672-142.667Zm-2.765,24.128a20.06,20.06,0,0,0,.6,2.484,1.285,1.285,0,0,0,.93.621,24.126,24.126,0,0,0,2.536.029.919.919,0,0,0,.979-.7c.2-.788.35-1.592.529-2.431Z" transform="translate(-1810.245 159.446)" fill="#12263f"/>
        <path id="Trazado_193795" data-name="Trazado 193795" d="M2188.1,8.074c-1.031,0-2.064-.012-3.1,0a1.9,1.9,0,0,1-1.81-1.022q-1.574-2.741-3.161-5.475a1.871,1.871,0,0,1-.011-2.017q1.6-2.764,3.2-5.533a1.817,1.817,0,0,1,1.693-.974q3.2.011,6.4,0a1.863,1.863,0,0,1,1.741,1.014q1.579,2.739,3.163,5.475a1.931,1.931,0,0,1-.022,2.082q-1.573,2.7-3.129,5.414a1.906,1.906,0,0,1-1.8,1.038C2190.212,8.065,2189.157,8.074,2188.1,8.074Zm.009-2.064c.894,0,1.79.027,2.682-.018a.977.977,0,0,0,.693-.379q1.4-2.326,2.712-4.7a.873.873,0,0,0-.012-.722q-1.3-2.342-2.679-4.642a.955.955,0,0,0-.678-.406q-2.717-.05-5.434,0a.879.879,0,0,0-.624.374q-1.378,2.3-2.682,4.64a.954.954,0,0,0-.012.791q1.3,2.345,2.682,4.64a1.049,1.049,0,0,0,.739.406C2186.366,6.041,2187.24,6.01,2188.111,6.01Z" transform="translate(-2128.785 27.974)" fill="#12263f"/>
        <path id="Trazado_193796" data-name="Trazado 193796" d="M1987.306,63.507a9.246,9.246,0,0,1,8.977,6.691c.22.774-.009,1.334-.616,1.507-.634.181-1.093-.132-1.35-.918a7.2,7.2,0,0,0-13.852,3.965,7.2,7.2,0,0,0,13.474,1.009c.1-.208.168-.427.274-.629a1.036,1.036,0,0,1,1.333-.523.965.965,0,0,1,.536,1.317,15.328,15.328,0,0,1-1.837,3.033,9.133,9.133,0,0,1-10.291,2.415,9.261,9.261,0,0,1,3.351-17.866Z" transform="translate(-1954.969 -32.763)" fill="#12263f"/>
        <path id="Trazado_193797" data-name="Trazado 193797" d="M2018.082,98.173a5.2,5.2,0,1,1-5.171-5.231A5.215,5.215,0,0,1,2018.082,98.173Zm-2.064,0a3.131,3.131,0,1,0-3.15,3.134A3.126,3.126,0,0,0,2016.018,98.168Z" transform="translate(-1980.465 -58.14)" fill="#12263f"/>
        <path id="Trazado_193798" data-name="Trazado 193798" d="M2212.306,23.043a3.909,3.909,0,1,1,3.882,3.9A3.9,3.9,0,0,1,2212.306,23.043Zm3.887,1.836a1.85,1.85,0,0,0,.062-3.7,1.85,1.85,0,1,0-.062,3.7Z" transform="translate(-2156.865 5.509)" fill="#12263f"/>
      </g>
    </g>
  </g>
</svg>
