<svg xmlns="http://www.w3.org/2000/svg" width="129.494" height="129.501" viewBox="0 0 129.494 129.501">
  <g id="Grupo_1076285" data-name="Grupo 1076285" transform="translate(-627.506 -2762.73)">
    <path id="Trazado_821694" data-name="Trazado 821694" d="M195.612,25.7s1.835,6.823,7.157,7.15c0,0-7.11,2.423-7.24,7.636,0,0-1.384-7.314-6.995-7.587,0,0,6.537-.97,7.078-7.2Z" transform="translate(538.393 2743.183)" fill="#d7e057"/>
    <path id="Trazado_821695" data-name="Trazado 821695" d="M194.887,40.706a.859.859,0,0,1-.844-.7c-.013-.065-1.333-6.652-6.194-6.889a.859.859,0,0,1-.085-1.708c.238-.036,5.875-.962,6.349-6.423a.859.859,0,0,1,1.685-.149c.017.062,1.747,6.232,6.38,6.517a.859.859,0,0,1,.226,1.671c-.065.022-6.545,2.3-6.659,6.844a.86.86,0,0,1-.79.835l-.069,0Zm-4.071-8.532a9.493,9.493,0,0,1,4,4.681,11.585,11.585,0,0,1,4.747-4.417,9.954,9.954,0,0,1-4.4-4.6,8.744,8.744,0,0,1-4.349,4.338Z" transform="translate(539.034 2743.823)" fill="#3a312a"/>
    <path id="Trazado_821696" data-name="Trazado 821696" d="M176.58,41.63s1.3,4.826,5.062,5.057c0,0-5.029,1.714-5.121,5.4,0,0-.979-5.173-4.948-5.367C171.573,46.722,176.2,46.035,176.58,41.63Z" transform="translate(545.638 2736.378)" fill="#d7e057"/>
    <path id="Trazado_821697" data-name="Trazado 821697" d="M175.879,52.305a.859.859,0,0,1-.844-.7c-.009-.044-.908-4.51-4.145-4.668a.859.859,0,0,1-.085-1.708c.159-.025,3.959-.657,4.277-4.316a.859.859,0,0,1,1.685-.151c.011.042,1.191,4.235,4.285,4.424a.859.859,0,0,1,.225,1.671c-.044.015-4.464,1.571-4.539,4.609a.86.86,0,0,1-.79.835l-.069,0Zm-2.344-6.262a6.959,6.959,0,0,1,2.315,2.751,8.537,8.537,0,0,1,2.811-2.576,7.287,7.287,0,0,1-2.574-2.723,6.5,6.5,0,0,1-2.552,2.548Z" transform="translate(546.279 2737.02)" fill="#3a312a"/>
    <path id="Trazado_821698" data-name="Trazado 821698" d="M176.417,16.456s1.308,4.823,5.072,5.047c0,0-5.025,1.724-5.11,5.411,0,0-.989-5.171-4.958-5.357,0,0,4.622-.7,5-5.1Z" transform="translate(545.703 2747.133)" fill="#d7e057"/>
    <path id="Trazado_821699" data-name="Trazado 821699" d="M175.736,27.134a.86.86,0,0,1-.844-.7c-.009-.044-.917-4.508-4.154-4.66a.859.859,0,0,1-.088-1.707c.159-.025,3.958-.664,4.268-4.325a.859.859,0,0,1,1.685-.154c.012.042,1.2,4.232,4.294,4.416a.859.859,0,0,1,.227,1.671c-.043.015-4.46,1.58-4.529,4.618a.859.859,0,0,1-.788.836Zm-2.354-6.258a6.97,6.97,0,0,1,2.32,2.746,8.531,8.531,0,0,1,2.806-2.582,7.285,7.285,0,0,1-2.579-2.718A6.508,6.508,0,0,1,173.382,20.876Z" transform="translate(546.345 2747.771)" fill="#3a312a"/>
    <path id="Trazado_821700" data-name="Trazado 821700" d="M0,0H7.029V86.242H0Z" transform="translate(663.581 2819.448) rotate(-89.885)" fill="#87796f"/>
    <path id="Trazado_821701" data-name="Trazado 821701" d="M163.54,109.124h0L77.3,108.953a.859.859,0,0,1-.858-.861l.014-7.029a.859.859,0,0,1,.859-.857h0l86.242.171a.86.86,0,0,1,.857.861l-.014,7.029A.859.859,0,0,1,163.54,109.124ZM78.16,107.236l84.523.168.01-5.31-84.523-.168Z" transform="translate(586.28 2711.354)" fill="#3a312a"/>
    <path id="Trazado_821702" data-name="Trazado 821702" d="M0,0H7.029V86.242H0Z" transform="translate(663.535 2842.698) rotate(-89.885)" fill="#87796f"/>
    <path id="Trazado_821703" data-name="Trazado 821703" d="M163.46,149.714h0l-86.242-.171a.86.86,0,0,1-.858-.861l.014-7.029a.859.859,0,0,1,.859-.857h0l86.242.171a.86.86,0,0,1,.858.86l-.014,7.029A.859.859,0,0,1,163.46,149.714ZM78.08,147.826l84.523.168.011-5.31-84.523-.168Z" transform="translate(586.314 2694.014)" fill="#3a312a"/>
    <path id="Trazado_821704" data-name="Trazado 821704" d="M161.785,170.96a3.862,3.862,0,0,0,3.87-3.854l.017-8.5a3.862,3.862,0,0,0-3.855-3.87l-91.081-.18a3.862,3.862,0,0,0-3.87,3.854l-.017,8.5a3.862,3.862,0,0,0,3.855,3.87Z" transform="translate(590.377 2688.134)" fill="#fce8cb"/>
    <path id="Trazado_821705" data-name="Trazado 821705" d="M161.152,171.178h-.009L70.063,171a4.721,4.721,0,0,1-4.712-4.731l.017-8.5a4.728,4.728,0,0,1,4.721-4.712h.01l91.081.18a4.721,4.721,0,0,1,4.712,4.731l-.017,8.5a4.723,4.723,0,0,1-4.722,4.713Zm-.006-1.718a3.044,3.044,0,0,0,2.125-.876,2.983,2.983,0,0,0,.884-2.122l.017-8.5a3,3,0,0,0-3-3.009l-91.081-.18h-.006a3.006,3.006,0,0,0-3,3l-.017,8.5a3,3,0,0,0,3,3.009Z" transform="translate(591.017 2688.775)" fill="#3a312a"/>
    <path id="Trazado_821706" data-name="Trazado 821706" d="M222.916,166.4a3.515,3.515,0,1,1-3.508-3.522,3.514,3.514,0,0,1,3.508,3.522Z" transform="translate(526.707 2684.581)" fill="#8ac6dd"/>
    <path id="Trazado_821707" data-name="Trazado 821707" d="M218.76,170.124h-.009a4.374,4.374,0,0,1,.009-8.748h.009a4.374,4.374,0,0,1-.009,8.748Zm0-7.029a2.655,2.655,0,0,0-.005,5.31h.006a2.655,2.655,0,0,0,.005-5.31h-.006Z" transform="translate(527.348 2685.222)" fill="#3a312a"/>
    <path id="Trazado_821708" data-name="Trazado 821708" d="M201.2,166.355a3.515,3.515,0,1,1-3.508-3.522A3.515,3.515,0,0,1,201.2,166.355Z" transform="translate(535.983 2684.6)" fill="#d7e057"/>
    <path id="Trazado_821709" data-name="Trazado 821709" d="M197.05,170.081h-.009a4.374,4.374,0,0,1,.009-8.748h.009a4.374,4.374,0,0,1-.009,8.748Zm0-7.029a2.655,2.655,0,0,0-.005,5.311h.006a2.655,2.655,0,0,0,.005-5.31Z" transform="translate(536.623 2685.24)" fill="#3a312a"/>
    <path id="Trazado_821710" data-name="Trazado 821710" d="M179.493,166.312a3.515,3.515,0,1,1-3.508-3.522A3.515,3.515,0,0,1,179.493,166.312Z" transform="translate(545.258 2684.617)" fill="#ef6d7a"/>
    <path id="Trazado_821711" data-name="Trazado 821711" d="M175.338,170.038h-.009a4.374,4.374,0,0,1,.008-8.748h.009a4.374,4.374,0,0,1-.008,8.748Zm0-7.029a2.655,2.655,0,0,0-.005,5.311h.006a2.655,2.655,0,0,0,.005-5.31h-.006Z" transform="translate(545.898 2685.258)" fill="#3a312a"/>
    <path id="Trazado_821712" data-name="Trazado 821712" d="M125.009,169.04h0l-47.581-.094a.859.859,0,0,1,0-1.718h0l47.581.095a.859.859,0,0,1,0,1.718Z" transform="translate(586.225 2682.722)" fill="#3a312a"/>
    <path id="Trazado_821713" data-name="Trazado 821713" d="M71.048,113.969l90.622.179a4.091,4.091,0,0,1,4.083,4.1l-.016,8.038a4.091,4.091,0,0,1-4.1,4.083l-90.622-.18a4.091,4.091,0,0,1-4.083-4.1l.016-8.038A4.091,4.091,0,0,1,71.048,113.969Z" transform="translate(590.342 2705.475)" fill="#fce8cb"/>
    <path id="Trazado_821714" data-name="Trazado 821714" d="M161,130.589h-.01l-90.622-.179a4.956,4.956,0,0,1-4.941-4.96l.016-8.038A4.951,4.951,0,0,1,70.4,112.47h.01l90.622.179a4.956,4.956,0,0,1,4.941,4.96l-.016,8.038A4.957,4.957,0,0,1,161,130.589ZM70.4,114.188a3.232,3.232,0,0,0-3.232,3.226l-.016,8.038a3.236,3.236,0,0,0,3.226,3.239L161,128.87H161a3.236,3.236,0,0,0,3.232-3.226l.016-8.038a3.233,3.233,0,0,0-3.226-3.239l-90.622-.179H70.4Z" transform="translate(590.983 2706.114)" fill="#3a312a"/>
    <path id="Trazado_821715" data-name="Trazado 821715" d="M223,125.807a3.515,3.515,0,1,1-3.508-3.522A3.514,3.514,0,0,1,223,125.807Z" transform="translate(526.673 2701.922)" fill="#8ac6dd"/>
    <path id="Trazado_821716" data-name="Trazado 821716" d="M218.841,129.534h-.009a4.374,4.374,0,0,1,.008-8.748h.009a4.374,4.374,0,0,1-.008,8.748Zm0-7.029a2.655,2.655,0,0,0-.005,5.31h.006a2.655,2.655,0,0,0,.005-5.31Z" transform="translate(527.314 2702.563)" fill="#3a312a"/>
    <path id="Trazado_821717" data-name="Trazado 821717" d="M201.285,125.764a3.515,3.515,0,1,1-3.508-3.522A3.514,3.514,0,0,1,201.285,125.764Z" transform="translate(535.948 2701.939)" fill="#d7e057"/>
    <path id="Trazado_821718" data-name="Trazado 821718" d="M197.13,129.491h-.009a4.374,4.374,0,0,1,.009-8.747h.009a4.374,4.374,0,0,1-.009,8.747Zm0-7.029a2.655,2.655,0,0,0,0,5.31h.006a2.655,2.655,0,0,0,.005-5.311Zm3.515,2.662h.006Z" transform="translate(536.589 2702.58)" fill="#3a312a"/>
    <circle id="Elipse_10483" data-name="Elipse 10483" cx="3.515" cy="3.515" r="3.515" transform="translate(716.97 2830.1) rotate(-73.921)" fill="#ef6d7a"/>
    <path id="Trazado_821719" data-name="Trazado 821719" d="M175.419,129.448h-.009a4.374,4.374,0,0,1,.009-8.748h.009a4.374,4.374,0,0,1-.009,8.748Zm0-7.029a2.655,2.655,0,0,0-.005,5.311h.005a2.659,2.659,0,0,0,2.655-2.65l.859,0-.859,0a2.655,2.655,0,0,0-2.65-2.661Z" transform="translate(545.864 2702.599)" fill="#3a312a"/>
    <path id="Trazado_821720" data-name="Trazado 821720" d="M125.09,128.449h0l-47.581-.095a.859.859,0,0,1,0-1.718h0l47.581.095a.859.859,0,0,1,0,1.718Z" transform="translate(586.19 2700.063)" fill="#3a312a"/>
    <path id="Trazado_821721" data-name="Trazado 821721" d="M117.019,73.469,70.9,73.377a3.862,3.862,0,0,0-3.87,3.855l-.017,8.5a3.862,3.862,0,0,0,3.855,3.87l91.081.18a3.862,3.862,0,0,0,3.87-3.854l.017-8.5a3.862,3.862,0,0,0-3.855-3.87l-35.3-.07Z" transform="translate(590.307 2722.815)" fill="#fce8cb"/>
    <path id="Trazado_821722" data-name="Trazado 821722" d="M161.314,90h-.01l-91.081-.18a4.721,4.721,0,0,1-4.712-4.731l.017-8.5a4.721,4.721,0,0,1,4.721-4.712h.01l46.12.091a.859.859,0,0,1,0,1.718h0L70.256,73.6H70.25a3,3,0,0,0-3,3l-.017,8.5a3,3,0,0,0,3,3.009l91.081.18h.006a3.006,3.006,0,0,0,3-3l.017-8.5a3,3,0,0,0-3-3.009l-35.3-.07a.859.859,0,0,1,0-1.718l35.3.07a4.721,4.721,0,0,1,4.712,4.731l-.017,8.5A4.728,4.728,0,0,1,161.314,90Z" transform="translate(590.948 2723.456)" fill="#3a312a"/>
    <path id="Trazado_821723" data-name="Trazado 821723" d="M223.077,85.217a3.515,3.515,0,1,1-3.508-3.522A3.515,3.515,0,0,1,223.077,85.217Z" transform="translate(526.638 2719.262)" fill="#8ac6dd"/>
    <path id="Trazado_821724" data-name="Trazado 821724" d="M218.922,88.943h-.009a4.374,4.374,0,0,1,.009-8.748h.009a4.374,4.374,0,0,1-.009,8.748Zm0-7.029a2.655,2.655,0,0,0-.005,5.311h.005a2.659,2.659,0,0,0,2.655-2.65l.859,0-.859,0a2.655,2.655,0,0,0-2.65-2.661h-.006Z" transform="translate(527.279 2719.902)" fill="#3a312a"/>
    <path id="Trazado_821725" data-name="Trazado 821725" d="M201.365,85.175a3.515,3.515,0,1,1-3.508-3.522A3.515,3.515,0,0,1,201.365,85.175Z" transform="translate(535.914 2719.279)" fill="#d7e057"/>
    <path id="Trazado_821726" data-name="Trazado 821726" d="M197.21,88.9H197.2a4.374,4.374,0,0,1,.009-8.748h.009a4.374,4.374,0,0,1-.009,8.748Zm0-7.029a2.655,2.655,0,0,0-.006,5.311h.005a2.659,2.659,0,0,0,2.656-2.65l.859,0-.859,0a2.659,2.659,0,0,0-2.65-2.661Z" transform="translate(536.555 2719.921)" fill="#3a312a"/>
    <path id="Trazado_821727" data-name="Trazado 821727" d="M179.654,85.131a3.515,3.515,0,1,1-3.508-3.522A3.515,3.515,0,0,1,179.654,85.131Z" transform="translate(545.189 2719.299)" fill="#ef6d7a"/>
    <path id="Trazado_821728" data-name="Trazado 821728" d="M175.5,88.857h-.009a4.374,4.374,0,0,1,.009-8.748h.009a4.374,4.374,0,0,1-.009,8.748Zm0-7.029a2.655,2.655,0,0,0-.005,5.311h.005a2.655,2.655,0,0,0,.006-5.311Zm3.515,2.662h.006Z" transform="translate(545.829 2719.939)" fill="#3a312a"/>
    <path id="Trazado_821729" data-name="Trazado 821729" d="M125.17,87.859h0l-47.581-.094a.859.859,0,0,1,0-1.718h0l47.581.094a.859.859,0,0,1,0,1.718Z" transform="translate(586.156 2717.402)" fill="#3a312a"/>
    <path id="Trazado_821730" data-name="Trazado 821730" d="M135.743,104.839a6.666,6.666,0,1,1-6.666-6.662A6.664,6.664,0,0,1,135.743,104.839Z" transform="translate(566.64 2712.221)" fill="#f7e3c7" fill-rule="evenodd"/>
    <path id="Trazado_821731" data-name="Trazado 821731" d="M128.435,111.719a7.522,7.522,0,1,1,7.525-7.522A7.532,7.532,0,0,1,128.435,111.719Zm0-13.324a5.8,5.8,0,1,0,5.807,5.8A5.812,5.812,0,0,0,128.435,98.395Z" transform="translate(567.282 2712.861)" fill="#3a312a"/>
    <path id="Trazado_821732" data-name="Trazado 821732" d="M44.6,207.831H92.907V192.205a17.227,17.227,0,0,0-17.241-17.23h-11.4V165.32H45.113v9.656H33.72a17.241,17.241,0,0,0-17.258,17.23v15.626H44.6Z" transform="translate(611.903 2683.537)" fill="#f6e2c6"/>
    <path id="Trazado_821733" data-name="Trazado 821733" d="M92.267,208.049H43.96a.859.859,0,1,1,0-1.718H91.408V191.564a16.4,16.4,0,0,0-16.382-16.37h-11.4a.859.859,0,0,1-.859-.859v-8.8H45.333v8.8a.859.859,0,0,1-.859.859H33.08a16.4,16.4,0,0,0-16.4,16.37v14.767H33.774a.859.859,0,0,1,0,1.718H15.822a.859.859,0,0,1-.859-.859V191.564A18.124,18.124,0,0,1,33.08,173.476H43.614v-8.8a.859.859,0,0,1,.859-.859H63.628a.859.859,0,0,1,.859.859v8.8H75.026a18.115,18.115,0,0,1,18.1,18.089V207.19A.86.86,0,0,1,92.267,208.049Z" transform="translate(612.543 2684.178)" fill="#3a312a"/>
    <path id="Trazado_821734" data-name="Trazado 821734" d="M44.6,215.032H92.909V199.407a17.227,17.227,0,0,0-17.241-17.23H63.044l-8.363,11.1-8.357-11.1h-12.6a17.241,17.241,0,0,0-17.258,17.23v15.626H44.6Z" transform="translate(611.902 2676.335)" fill="#8ac6dd"/>
    <path id="Trazado_821735" data-name="Trazado 821735" d="M92.268,215.251H43.96a.859.859,0,1,1,0-1.718H91.409V198.766A16.4,16.4,0,0,0,75.027,182.4h-12.2l-8.1,10.753a.859.859,0,0,1-1.372,0l-8.1-10.752H33.081a16.4,16.4,0,0,0-16.4,16.37v14.767H33.774a.859.859,0,1,1,0,1.718H15.823a.859.859,0,0,1-.859-.859V198.766a18.124,18.124,0,0,1,18.117-18.089h12.6a.858.858,0,0,1,.686.343L54.041,191.2l7.676-10.184a.86.86,0,0,1,.686-.342H75.027a18.115,18.115,0,0,1,18.1,18.089v15.626A.859.859,0,0,1,92.268,215.251Z" transform="translate(612.543 2676.977)" fill="#3a312a"/>
    <path id="Trazado_821736" data-name="Trazado 821736" d="M69.772,189.821l-6.14,4.619L51.79,178.723l6.14-4.631Z" transform="translate(596.81 2679.789)" fill="#87796f"/>
    <path id="Trazado_821737" data-name="Trazado 821737" d="M62.991,194.658a.858.858,0,0,1-.687-.342L50.463,178.6a.86.86,0,0,1,.169-1.2l6.14-4.631a.859.859,0,0,1,1.2.169l11.841,15.729a.859.859,0,0,1-.17,1.2l-6.14,4.619a.85.85,0,0,1-.516.173ZM52.353,178.251,63.16,192.6l4.767-3.586L57.12,174.655Z" transform="translate(597.451 2680.43)" fill="#3a312a"/>
    <path id="Trazado_821738" data-name="Trazado 821738" d="M101.176,178.723,89.335,194.44l-6.152-4.619,11.853-15.729Z" transform="translate(583.399 2679.789)" fill="#87796f"/>
    <g id="Grupo_1074500" data-name="Grupo 1074500" transform="translate(641.476 2853.022)">
      <path id="Trazado_821739" data-name="Trazado 821739" d="M88.693,194.658a.856.856,0,0,1-.515-.172l-6.152-4.619a.86.86,0,0,1-.171-1.2l11.853-15.728a.859.859,0,0,1,1.2-.169l6.14,4.631a.86.86,0,0,1,.169,1.2L89.38,194.317a.859.859,0,0,1-.687.341Zm-4.947-5.649,4.778,3.587,10.808-14.346-4.768-3.6Z" transform="translate(-57.436 -172.592)" fill="#3a312a"/>
      <path id="Trazado_821740" data-name="Trazado 821740" d="M40.211,230.553a.859.859,0,0,1-.859-.859V217.346a.859.859,0,1,1,1.718,0v12.348A.859.859,0,0,1,40.211,230.553Z" transform="translate(-39.352 -191.344)" fill="#3a312a"/>
      <path id="Trazado_821741" data-name="Trazado 821741" d="M124.892,230.553a.859.859,0,0,1-.859-.859V217.346a.859.859,0,0,1,1.718,0v12.348A.86.86,0,0,1,124.892,230.553Z" transform="translate(-75.528 -191.344)" fill="#3a312a"/>
    </g>
    <path id="Trazado_821742" data-name="Trazado 821742" d="M34.168,104.839A6.666,6.666,0,1,1,27.5,98.177,6.664,6.664,0,0,1,34.168,104.839Z" transform="translate(610.034 2712.221)" fill="#f7e3c7" fill-rule="evenodd"/>
    <path id="Trazado_821743" data-name="Trazado 821743" d="M26.861,111.719a7.522,7.522,0,1,1,7.525-7.522A7.532,7.532,0,0,1,26.861,111.719Zm0-13.324a5.8,5.8,0,1,0,5.807,5.8A5.812,5.812,0,0,0,26.861,98.395Z" transform="translate(610.675 2712.861)" fill="#3a312a"/>
    <path id="Trazado_821744" data-name="Trazado 821744" d="M90.772,82.134c0,16.311-15.718,41.349-29.55,41.349-13.2,0-29.55-25.037-29.55-41.349a29.55,29.55,0,0,1,59.1,0Z" transform="translate(605.405 2731.691)" fill="#f7e3c7"/>
    <path id="Trazado_821745" data-name="Trazado 821745" d="M60.581,123.7c-6.332,0-13.971-5.581-20.433-14.929-6.154-8.9-9.976-19.354-9.976-27.28a30.41,30.41,0,0,1,60.819,0c0,8.016-3.731,18.467-9.738,27.276C74.782,118.258,67.247,123.7,60.581,123.7Zm0-70.884A28.716,28.716,0,0,0,31.889,81.493c0,7.6,3.706,17.674,9.672,26.3,6.141,8.883,13.252,14.188,19.02,14.188,6,0,13.2-5.3,19.252-14.182,5.822-8.538,9.439-18.619,9.439-26.308A28.716,28.716,0,0,0,60.581,52.817Z" transform="translate(606.046 2732.333)" fill="#3a312a"/>
    <path id="Trazado_821746" data-name="Trazado 821746" d="M65.78,101.43A2.884,2.884,0,1,1,62.9,98.547,2.883,2.883,0,0,1,65.78,101.43Z" transform="translate(593.298 2712.063)" fill="#3a312a"/>
    <path id="Trazado_821747" data-name="Trazado 821747" d="M102.208,101.43a2.884,2.884,0,1,1-2.884-2.883A2.883,2.883,0,0,1,102.208,101.43Z" transform="translate(577.736 2712.063)" fill="#3a312a"/>
    <path id="Trazado_821748" data-name="Trazado 821748" d="M56.246,115.773c0,2.051-2.225,3.712-4.968,3.712s-4.968-1.662-4.968-3.712,2.225-3.712,4.968-3.712S56.246,113.723,56.246,115.773Z" transform="translate(599.152 2706.289)" fill="#f59689"/>
    <path id="Trazado_821749" data-name="Trazado 821749" d="M112.8,115.773c0,2.051-2.224,3.712-4.968,3.712s-4.968-1.662-4.968-3.712,2.225-3.712,4.968-3.712S112.8,113.723,112.8,115.773Z" transform="translate(574.991 2706.289)" fill="#f59689"/>
    <path id="Trazado_821750" data-name="Trazado 821750" d="M61.044,41.218c-16.892,0-30.585,13.085-30.585,29.227a12.432,12.432,0,0,0,.884,4.571c.271.75,4.651-1.644,5.023-1.907a15.9,15.9,0,0,0,4.528-5.057,17.288,17.288,0,0,0,1.18-2.482c1.008-2.655,3.747-10.043,6.529-9.463a61.562,61.562,0,0,0,12.442,1.216,61.567,61.567,0,0,0,12.442-1.216c2.781-.58,5.521,6.808,6.529,9.463a17.2,17.2,0,0,0,1.18,2.482c1.882,3.253,5.059,6.35,8.926,6.913.01-.187.245-.25.422-.314,1.266-.459,1.088-3.193,1.088-4.207,0-16.141-13.694-29.226-30.587-29.226Z" transform="translate(605.923 2736.554)" fill="#87796f"/>
    <path id="Trazado_821751" data-name="Trazado 821751" d="M30.954,75.368a1.237,1.237,0,0,1-.37-.049,1.064,1.064,0,0,1-.691-.65,13.229,13.229,0,0,1-.935-4.864c0-16.59,14.106-30.087,31.445-30.087S91.848,53.215,91.848,69.8l0,.329c.021,1.419.06,4.062-1.657,4.685l-.016.006a.856.856,0,0,1-.823.352c-3.627-.529-7.2-3.27-9.545-7.333a18.079,18.079,0,0,1-1.24-2.607l-.063-.167c-3.027-7.982-4.727-8.913-5.487-8.76A62.059,62.059,0,0,1,60.4,57.543a62.065,62.065,0,0,1-12.617-1.234c-.757-.153-2.46.777-5.487,8.76l-.063.167A18.111,18.111,0,0,1,41,67.841a16.815,16.815,0,0,1-4.778,5.331c-.036.025-3.63,2.2-5.266,2.2Zm59.383-1v0ZM60.4,41.436c-16.391,0-29.726,12.726-29.726,28.368a11.134,11.134,0,0,0,.664,3.8,22.146,22.146,0,0,0,3.891-1.84,15.092,15.092,0,0,0,4.277-4.784,16.368,16.368,0,0,0,1.12-2.356l.063-.167c1.978-5.218,4.416-10.468,7.444-9.833a60.362,60.362,0,0,0,12.267,1.2,60.4,60.4,0,0,0,12.266-1.2c3.036-.638,5.466,4.616,7.444,9.833l.063.167A16.309,16.309,0,0,0,81.3,66.983c1.991,3.443,4.906,5.81,7.87,6.416a2,2,0,0,1,.4-.181c.251-.091.6-.589.566-3.059l0-.355c0-15.642-13.334-28.368-29.726-28.368Z" transform="translate(606.564 2737.194)" fill="#3a312a"/>
    <path id="Trazado_821752" data-name="Trazado 821752" d="M76.528,142.416a9.209,9.209,0,0,1-8.941-5.57.859.859,0,0,1,1.552-.739,7.518,7.518,0,0,0,7.389,4.59,7.721,7.721,0,0,0,7.362-4.522.859.859,0,1,1,1.609.6,9.471,9.471,0,0,1-8.971,5.637Z" transform="translate(590.097 2696.226)" fill="#3a312a"/>
    <path id="Trazado_821753" data-name="Trazado 821753" d="M33.242,36.641c4.661,6.691,10.721,12.65,18.574,14.882C63.489,54.84,84.149,50.7,84.149,33.91c0-10.738-9-23.715-25.81-13.834-20.83,12.249-32.921-11.3-32.921-.559,0,3.674,1.781,6.955,3.5,10.092a77.218,77.218,0,0,0,4.325,7.032Z" transform="translate(608.077 2747.088)" fill="#87796f"/>
    <path id="Trazado_821754" data-name="Trazado 821754" d="M59.354,52.794a31.267,31.267,0,0,1-8.413-1.086C43.957,49.724,37.549,44.6,31.9,36.491a78.685,78.685,0,0,1-4.374-7.111c-1.69-3.084-3.605-6.579-3.605-10.505,0-1.3.141-2.879,1.244-3.5,1.313-.745,3.007.269,5.57,1.806,5.391,3.232,14.414,8.641,26.531,1.516,8.866-5.212,14.992-3.868,18.568-1.822,5.9,3.374,8.536,10.666,8.536,16.4a17.133,17.133,0,0,1-7.009,14.157C72.365,51.2,65.557,52.794,59.354,52.794ZM33.307,35.509c5.42,7.779,11.511,12.673,18.1,14.546,7.084,2.013,17.914,1.285,24.911-4a15.279,15.279,0,0,0,6.327-12.786c0-5.235-2.372-11.874-7.671-14.906-4.564-2.611-10.388-1.984-16.844,1.812-13,7.643-22.943,1.681-28.287-1.523-1.433-.859-3.393-2.033-3.839-1.785-.015.009-.372.231-.372,2.009,0,3.485,1.725,6.634,3.394,9.679a76.792,76.792,0,0,0,4.276,6.954Z" transform="translate(608.717 2747.73)" fill="#3a312a"/>
    <path id="Trazado_821755" data-name="Trazado 821755" d="M133.783,200.045v14.767h-8.592V200.045a16.379,16.379,0,0,0-11.038-15.465l.682-.905H117.4A16.394,16.394,0,0,1,133.783,200.045Z" transform="translate(570.168 2675.695)" fill="#6ca6be"/>
  </g>
</svg>
