<svg id="Grupo_139997" data-name="Grupo 139997" xmlns="http://www.w3.org/2000/svg" width="85" height="39.469" viewBox="0 0 85 39.469">
  <g id="Grupo_89382" data-name="Grupo 89382" transform="translate(0.002)">
    <path id="Uni贸n_21" data-name="Uni贸n 21" d="M78.631,2.051a2.188,2.188,0,0,1,4.367,0,2.188,2.188,0,0,1-4.367,0Zm-19.657,0a2.188,2.188,0,0,1,4.367,0,2.188,2.188,0,0,1-4.367,0Zm-19.66,0a2.188,2.188,0,0,1,4.367,0,2.188,2.188,0,0,1-4.367,0Zm-19.657,0a2.19,2.19,0,0,1,4.371,0,2.19,2.19,0,0,1-4.371,0ZM0,2.051A2.119,2.119,0,0,1,2.185,0,2.122,2.122,0,0,1,4.37,2.051,2.123,2.123,0,0,1,2.185,4.1,2.12,2.12,0,0,1,0,2.051Z" transform="translate(1 1)" fill="#ff6148"/>
    <path id="Uni贸n_21_-_Contorno" data-name="Uni贸n 21 - Contorno" d="M2.2-1a3.133,3.133,0,0,1,3.2,3.051A3.134,3.134,0,0,1,2.2,5.1,3.133,3.133,0,0,1-1,2.052,3.133,3.133,0,0,1,2.2-1Zm0,4.1A1.115,1.115,0,0,0,3.369,2.052,1.114,1.114,0,0,0,2.2,1,1.114,1.114,0,0,0,1.038,2.052,1.114,1.114,0,0,0,2.2,3.1ZM21.851-1a3.133,3.133,0,0,1,3.2,3.051,3.207,3.207,0,0,1-6.406,0A3.133,3.133,0,0,1,21.851-1Zm0,4.1a1.115,1.115,0,0,0,1.166-1.052,1.173,1.173,0,0,0-2.333,0A1.115,1.115,0,0,0,21.851,3.1ZM41.5-1a3.131,3.131,0,0,1,3.2,3.051,3.2,3.2,0,0,1-6.4,0A3.133,3.133,0,0,1,41.5-1Zm0,4.1a1.113,1.113,0,0,0,1.162-1.052,1.171,1.171,0,0,0-2.329,0A1.115,1.115,0,0,0,41.5,3.1ZM61.148-1a3.133,3.133,0,0,1,3.2,3.051,3.2,3.2,0,0,1-6.4,0A3.131,3.131,0,0,1,61.148-1Zm0,4.1a1.115,1.115,0,0,0,1.166-1.052,1.171,1.171,0,0,0-2.329,0A1.113,1.113,0,0,0,61.148,3.1ZM80.8-1A3.131,3.131,0,0,1,84,2.052a3.2,3.2,0,0,1-6.4,0A3.133,3.133,0,0,1,80.8-1Zm0,4.1a1.113,1.113,0,0,0,1.162-1.052,1.171,1.171,0,0,0-2.329,0A1.115,1.115,0,0,0,80.8,3.1Z" transform="translate(0.999 0.999)" fill="#ff6148"/>
  </g>
  <g id="Grupo_89383" data-name="Grupo 89383" transform="translate(0 16.064)">
    <ellipse id="Elipse_4804" data-name="Elipse 4804" cx="2.183" cy="2.05" rx="2.183" ry="2.05" transform="translate(1.018 1)" fill="#ff6148"/>
    <path id="Elipse_4804_-_Contorno" data-name="Elipse 4804 - Contorno" d="M2.2-1A3.132,3.132,0,0,1,5.4,2.05,3.132,3.132,0,0,1,2.2,5.1,3.132,3.132,0,0,1-1,2.05,3.132,3.132,0,0,1,2.2-1Zm0,4.1A1.113,1.113,0,0,0,3.367,2.05,1.113,1.113,0,0,0,2.2,1,1.113,1.113,0,0,0,1.037,2.05,1.113,1.113,0,0,0,2.2,3.1Z" transform="translate(1 1)" fill="#ff6148"/>
    <path id="Trazado_122445" data-name="Trazado 122445" d="M427.026,112.336a2.188,2.188,0,1,1-2.182-2.049A2.121,2.121,0,0,1,427.026,112.336Z" transform="translate(-401.993 -109.286)" fill="#ff6148"/>
    <path id="Trazado_122445_-_Contorno" data-name="Trazado 122445 - Contorno" d="M424.863,109.287a3.054,3.054,0,1,1-3.2,3.049A3.131,3.131,0,0,1,424.863,109.287Zm0,4.1a1.056,1.056,0,1,0-1.166-1.052A1.113,1.113,0,0,0,424.863,113.388Z" transform="translate(-402.011 -109.286)" fill="#ff6148"/>
    <ellipse id="Elipse_4805" data-name="Elipse 4805" cx="2.183" cy="2.05" rx="2.183" ry="2.05" transform="translate(40.315 1)" fill="#ff6148"/>
    <path id="Elipse_4805_-_Contorno" data-name="Elipse 4805 - Contorno" d="M2.2-1A3.132,3.132,0,0,1,5.4,2.05,3.132,3.132,0,0,1,2.2,5.1,3.132,3.132,0,0,1-1,2.05,3.132,3.132,0,0,1,2.2-1Zm0,4.1A1.113,1.113,0,0,0,3.367,2.05,1.113,1.113,0,0,0,2.2,1,1.113,1.113,0,0,0,1.037,2.05,1.113,1.113,0,0,0,2.2,3.1Z" transform="translate(40.297 1)" fill="#ff6148"/>
    <path id="Trazado_122446" data-name="Trazado 122446" d="M443.92,112.336a2.188,2.188,0,1,1-2.185-2.049A2.121,2.121,0,0,1,443.92,112.336Z" transform="translate(-379.587 -109.286)" fill="#ff6148"/>
    <path id="Trazado_122446_-_Contorno" data-name="Trazado 122446 - Contorno" d="M441.753,109.287a3.054,3.054,0,1,1-3.2,3.049A3.132,3.132,0,0,1,441.753,109.287Zm0,4.1a1.056,1.056,0,1,0-1.164-1.052A1.115,1.115,0,0,0,441.753,113.388Z" transform="translate(-379.605 -109.286)" fill="#ff6148"/>
    <path id="Trazado_122447" data-name="Trazado 122447" d="M452.366,112.336a2.188,2.188,0,1,1-2.182-2.049A2.121,2.121,0,0,1,452.366,112.336Z" transform="translate(-368.385 -109.286)" fill="#ff6148"/>
    <path id="Trazado_122447_-_Contorno" data-name="Trazado 122447 - Contorno" d="M450.2,109.287a3.054,3.054,0,1,1-3.2,3.049A3.131,3.131,0,0,1,450.2,109.287Zm0,4.1a1.056,1.056,0,1,0-1.166-1.052A1.113,1.113,0,0,0,450.2,113.388Z" transform="translate(-368.404 -109.286)" fill="#ff6148"/>
  </g>
  <g id="Grupo_89384" data-name="Grupo 89384" transform="translate(0 33.366)">
    <path id="Trazado_122448" data-name="Trazado 122448" d="M418.581,119.846a2.188,2.188,0,1,1-2.184-2.052A2.121,2.121,0,0,1,418.581,119.846Z" transform="translate(-413.196 -116.794)" fill="#ff6148"/>
    <path id="Trazado_122448_-_Contorno" data-name="Trazado 122448 - Contorno" d="M416.414,122.9a3.055,3.055,0,1,1,3.2-3.052A3.132,3.132,0,0,1,416.414,122.9Zm0-4.1a1.057,1.057,0,1,0,1.166,1.052A1.113,1.113,0,0,0,416.414,118.794Z" transform="translate(-413.214 -116.794)" fill="#ff6148"/>
    <path id="Trazado_122449" data-name="Trazado 122449" d="M427.026,119.846a2.187,2.187,0,1,1-2.182-2.052A2.121,2.121,0,0,1,427.026,119.846Z" transform="translate(-401.993 -116.794)" fill="#ff6148"/>
    <path id="Trazado_122449_-_Contorno" data-name="Trazado 122449 - Contorno" d="M424.863,122.9a3.055,3.055,0,1,1,3.2-3.052A3.133,3.133,0,0,1,424.863,122.9Zm0-4.1a1.057,1.057,0,1,0,1.164,1.052A1.115,1.115,0,0,0,424.863,118.794Z" transform="translate(-402.011 -116.794)" fill="#ff6148"/>
    <path id="Trazado_122450" data-name="Trazado 122450" d="M435.473,119.846a2.188,2.188,0,1,1-2.182-2.052A2.121,2.121,0,0,1,435.473,119.846Z" transform="translate(-390.791 -116.794)" fill="#ff6148"/>
    <path id="Trazado_122450_-_Contorno" data-name="Trazado 122450 - Contorno" d="M433.309,122.9a3.055,3.055,0,1,1,3.2-3.052A3.133,3.133,0,0,1,433.309,122.9Zm0-4.1a1.057,1.057,0,1,0,1.164,1.052A1.115,1.115,0,0,0,433.309,118.794Z" transform="translate(-390.81 -116.794)" fill="#ff6148"/>
    <path id="Trazado_122451" data-name="Trazado 122451" d="M443.92,119.846a2.187,2.187,0,1,1-2.185-2.052A2.121,2.121,0,0,1,443.92,119.846Z" transform="translate(-379.587 -116.794)" fill="#ff6148"/>
    <path id="Trazado_122451_-_Contorno" data-name="Trazado 122451 - Contorno" d="M441.753,122.9a3.055,3.055,0,1,1,3.2-3.052A3.132,3.132,0,0,1,441.753,122.9Zm0-4.1a1.057,1.057,0,1,0,1.166,1.052A1.113,1.113,0,0,0,441.753,118.794Z" transform="translate(-379.606 -116.794)" fill="#ff6148"/>
    <path id="Trazado_122452" data-name="Trazado 122452" d="M452.366,119.846a2.188,2.188,0,1,1-2.182-2.052A2.121,2.121,0,0,1,452.366,119.846Z" transform="translate(-368.385 -116.794)" fill="#ff6148"/>
    <path id="Trazado_122452_-_Contorno" data-name="Trazado 122452 - Contorno" d="M450.2,122.9a3.055,3.055,0,1,1,3.2-3.052A3.133,3.133,0,0,1,450.2,122.9Zm0-4.1a1.057,1.057,0,1,0,1.164,1.052A1.115,1.115,0,0,0,450.2,118.794Z" transform="translate(-368.404 -116.794)" fill="#ff6148"/>
  </g>
</svg>
