<svg xmlns="http://www.w3.org/2000/svg" width="95.302" height="86.226" viewBox="0 0 95.302 86.226">
  <g id="Grupo_1076251" data-name="Grupo 1076251" transform="translate(-843 -4681.557)">
    <rect id="Rectángulo_374605" data-name="Rectángulo 374605" width="95.302" height="86.225" rx="9" transform="translate(843 4681.557)" fill="#fff"/>
    <g id="macbook-pro_1_" data-name="macbook-pro (1)" transform="translate(863 4697.687)">
      <path id="Trazado_813535" data-name="Trazado 813535" d="M132.779,188.893H101a.987.987,0,0,1-.984-.984h0a.987.987,0,0,1,.984-.984h31.783a.987.987,0,0,1,.984.984h0A.987.987,0,0,1,132.779,188.893Z" transform="translate(-89.072 -167.497)" fill="#444443"/>
      <path id="Trazado_813536" data-name="Trazado 813536" d="M88.067,197.17c-.258-.053-44.491-.038-44.677,0a1.346,1.346,0,0,0-1.072,1.314c0,31.228-.006,29.918.007,30.047a1.345,1.345,0,0,0,1.334,1.2c.193,0,44.172.021,44.408-.027a1.346,1.346,0,0,0,1.072-1.314V198.484A1.346,1.346,0,0,0,88.067,197.17Z" transform="translate(-37.688 -176.591)" fill="#9bacb2"/>
      <path id="Trazado_813537" data-name="Trazado 813537" d="M45.107,228.444c0-31.228-.006-29.918.007-30.047a1.346,1.346,0,0,1,1.334-1.2,27.96,27.96,0,0,0-3.059.027,1.346,1.346,0,0,0-1.072,1.314c0,31.228-.006,29.919.007,30.047a1.345,1.345,0,0,0,1.334,1.2h2.79A1.345,1.345,0,0,1,45.107,228.444Z" transform="translate(-37.687 -176.641)" fill="#567681"/>
      <path id="Trazado_813538" data-name="Trazado 813538" d="M60.36,16.8H9.013a1.509,1.509,0,0,0-1.471,1.841l3.775,16.716a1.509,1.509,0,0,0,1.471,1.176h5.725a1.3,1.3,0,0,1,1.14-.67H49.72a1.3,1.3,0,0,1,1.14.67h5.725a1.508,1.508,0,0,0,1.471-1.176l3.775-16.716A1.509,1.509,0,0,0,60.36,16.8Z" transform="translate(-6.683 -15.983)" fill="#666"/>
      <path id="Trazado_813539" data-name="Trazado 813539" d="M14.407,35.358,10.632,18.642A1.509,1.509,0,0,1,12.1,16.8H9.013a1.509,1.509,0,0,0-1.471,1.841l3.775,16.716a1.509,1.509,0,0,0,1.471,1.176h3.09A1.508,1.508,0,0,1,14.407,35.358Z" transform="translate(-6.683 -15.983)" fill="#535454"/>
      <path id="Trazado_813540" data-name="Trazado 813540" d="M75.329,255.976v11.809h39.6V255.976Z" transform="translate(-67.089 -228.995)" fill="#efefef"/>
      <path id="Trazado_813541" data-name="Trazado 813541" d="M78.1,255.976H75.328v11.809H78.1V255.976Z" transform="translate(-67.088 -228.995)" fill="#ddd"/>
      <path id="Trazado_813542" data-name="Trazado 813542" d="M78.929,229.175h-3.6v2.932h39.6v-2.932Z" transform="translate(-67.089 -205.126)" fill="#b6adf7"/>
      <path id="Trazado_813543" data-name="Trazado 813543" d="M75.329,229.175v2.932h2.78v-2.932Z" transform="translate(-67.089 -205.126)" fill="#a695f4"/>
      <path id="Trazado_813544" data-name="Trazado 813544" d="M191.46,229.175v2.932h13.745v-2.932Z" transform="translate(-170.517 -205.126)" fill="#8970e5"/>
      <path id="Trazado_813545" data-name="Trazado 813545" d="M156.579,388.549h-1.333a.6.6,0,0,0-.6.6V400.21h22.174V389.077a.528.528,0,0,0-.528-.528Z" transform="translate(-137.731 -347.067)" fill="#ccc"/>
      <path id="Trazado_813546" data-name="Trazado 813546" d="M158.528,388.549h-3.282a.6.6,0,0,0-.6.6V400.21h3.282V389.148A.6.6,0,0,1,158.528,388.549Z" transform="translate(-137.731 -347.067)" fill="#bababa"/>
      <path id="Trazado_813547" data-name="Trazado 813547" d="M83.733,58.082H43.253a.566.566,0,0,1-.552-.441L39.863,45.074a.566.566,0,0,1,.552-.691H86.571a.566.566,0,0,1,.552.691L84.285,57.641A.566.566,0,0,1,83.733,58.082Z" transform="translate(-35.49 -40.548)" fill="#a4d9f4"/>
      <path id="Trazado_813548" data-name="Trazado 813548" d="M45.982,57.641,43.145,45.074a.566.566,0,0,1,.552-.691H40.415a.566.566,0,0,0-.552.691L42.7,57.641a.566.566,0,0,0,.552.441h3.282A.566.566,0,0,1,45.982,57.641Z" transform="translate(-35.49 -40.548)" fill="#7cc9e8"/>
      <path id="Trazado_813549" data-name="Trazado 813549" d="M87.123,45.074a.566.566,0,0,0-.552-.691H40.415a.566.566,0,0,0-.552.691l.545,2.413H86.578Z" transform="translate(-35.49 -40.548)" fill="#70b5e8"/>
      <path id="Trazado_813550" data-name="Trazado 813550" d="M43.69,47.471l-.545-2.413a.566.566,0,0,1,.552-.691c-3.57,0-3.343-.015-3.479.036a.567.567,0,0,0-.355.655l.545,2.413Z" transform="translate(-35.49 -40.532)" fill="#52a5d8"/>
      <path id="Trazado_813551" data-name="Trazado 813551" d="M55.948,12.164a2.329,2.329,0,0,0-2.272-2.842H2.329A2.329,2.329,0,0,0,.058,12.164c4.082,17.686,3.62,16.9,4.229,17.662A2.155,2.155,0,0,0,3.783,31c-.021.208-.007-1.353-.011,23.727a.82.82,0,0,0,1.641,0c0-24.585,0-23.511,0-23.56a.526.526,0,0,1,.414-.457c.1-.021-1.675-.01,38.347-.01,6.3,0,5.922-.005,6,.01a.525.525,0,0,1,.417.51c0,31.3,0,29.912,0,29.964a.524.524,0,0,1-.518.467H39.91V51.609a1.624,1.624,0,0,0-1.622-1.622H17.667A1.573,1.573,0,0,0,16.1,51.558v10.09c-10.83,0-10.169.009-10.266-.011a.525.525,0,0,1-.417-.51V58.552a.82.82,0,1,0-1.641,0c0,2.721-.009,2.6.011,2.8a2.174,2.174,0,0,0,2.15,1.941H50.072a2.173,2.173,0,0,0,2.161-2.161c0-31.876.01-29.924-.011-30.131a2.155,2.155,0,0,0-.5-1.171,2.333,2.333,0,0,0,.455-.946ZM38.269,61.648H17.736V51.627H38.269V61.648Zm12.3-33.129a.684.684,0,0,1-.671.537H44.585a2.128,2.128,0,0,0-1.549-.67H12.969a2.128,2.128,0,0,0-1.549.67H6.1a.685.685,0,0,1-.671-.537C1.605,11.133,1.4,11.711,1.792,11.221s-2.713-.159,51.884-.258a.688.688,0,0,1,.671.84Z" transform="translate(0.001 -9.322)"/>
      <path id="Trazado_813552" data-name="Trazado 813552" d="M80.276,36.915c-.348-.1-46.69-.049-46.7-.048a1.386,1.386,0,0,0-1.195,1.683l2.838,12.567A1.379,1.379,0,0,0,36.569,52.2H77.05A1.379,1.379,0,0,0,78.4,51.117L81.24,38.55A1.382,1.382,0,0,0,80.276,36.915Zm-1.036,3.046H73.16a.82.82,0,1,0,0,1.641h5.708l-2.022,8.955H36.773L34.751,41.6H69.332a.82.82,0,1,0,0-1.641H34.38L34.05,38.5H79.569Z" transform="translate(-28.807 -33.841)"/>
      <path id="Trazado_813553" data-name="Trazado 813553" d="M73.935,223.336a.82.82,0,1,0,0-1.641H69.387a1.559,1.559,0,0,0-1.558,1.558v13.016a1.811,1.811,0,0,0,1.809,1.809h37.722a1.712,1.712,0,0,0,1.71-1.71v-13a1.672,1.672,0,0,0-1.67-1.67H77.764a.82.82,0,1,0,0,1.641c30.928.014,29.665-.029,29.665.03v1.261H69.47v-1.291Zm-2.506,13.1H69.638a.168.168,0,0,1-.168-.168v-1.3h1.959v1.464Zm3.6,0H73.07v-1.464h1.959Zm0-3.105H69.47v-1.26h5.559Zm3.6,3.105H76.67v-1.464h1.959Zm0-3.105H76.67v-1.26h1.959Zm18,3.105H80.27v-1.464H96.628v1.464ZM80.27,233.331v-1.26h1.959v1.26Zm3.6,0v-1.26h1.959v1.26Zm3.6,0v-1.26h1.959v1.26Zm3.6,0v-1.26h1.959v1.26Zm5.559,0H94.669v-1.26h1.959Zm3.6,3.105H98.269v-1.464h1.959Zm0-3.105H98.269v-1.26h1.959v1.26Zm3.6,3.105h-1.959v-1.464h1.959Zm3.531,0h-1.89v-1.464h1.959C107.4,236.288,107.49,236.436,107.359,236.436Zm.069-3.105h-5.559v-1.26h5.559v1.26Zm0-2.9h-3.759v-1.26h3.759Zm-5.559-4.162h5.559v1.26h-5.559Zm.159,2.9v1.26h-1.959v-1.26h1.959Zm-3.759-2.9h1.959v1.26H98.269Zm.159,2.9v1.26H96.469v-1.26h1.959Zm-3.759-2.9h1.959v1.26H94.669Zm.159,2.9v1.26H92.869v-1.26h1.959Zm-3.759-2.9h1.959v1.26H91.069Zm.159,2.9v1.26H89.269v-1.26h1.959Zm-3.759-2.9h1.959v1.26H87.47v-1.26Zm.159,2.9v1.26H85.67v-1.26h1.959Zm-3.759-2.9h1.959v1.26H83.869Zm.159,2.9v1.26H82.07v-1.26h1.959Zm-3.759-2.9h1.959v1.26H80.27Zm.159,2.9v1.26H78.47v-1.26h1.959Zm-3.759-2.9h1.959v1.26H76.67Zm.159,2.9v1.26H74.87v-1.26h1.959Zm-3.759-2.9h1.959v1.26H73.07Zm.159,2.9v1.26H69.47v-1.26h3.759Zm-1.8-2.9v1.26H69.47v-1.26Z" transform="translate(-60.409 -198.464)"/>
    </g>
  </g>
</svg>
