<svg xmlns="http://www.w3.org/2000/svg" width="96" height="86" viewBox="0 0 96 86">
  <g id="Grupo_1076250" data-name="Grupo 1076250" transform="translate(-215 -4683)">
    <rect id="Rectángulo_374603" data-name="Rectángulo 374603" width="96" height="86" rx="9" transform="translate(215 4683)" fill="#fff"/>
    <g id="_x35_18_x2C__Chip_x2C__Electronic_x2C__Memory_x2C__Ram" transform="translate(230.738 4694.599)">
      <g id="Grupo_1069949" data-name="Grupo 1069949" transform="translate(0 0)">
        <path id="Trazado_816498" data-name="Trazado 816498" d="M194.875,50H176.659a4.159,4.159,0,0,0-4.159,4.159V106.8a4.159,4.159,0,0,0,4.159,4.159h18.216a4.159,4.159,0,0,0,4.159-4.159V54.159A4.159,4.159,0,0,0,194.875,50Z" transform="translate(-153.137 -48.303)" fill="#68ca44"/>
        <path id="Trazado_816499" data-name="Trazado 816499" d="M212.5,155v31.7h15.06V155Z" transform="translate(-187.4 -138.243)" fill="#a0e557"/>
        <path id="Trazado_816500" data-name="Trazado 816500" d="M220.03,215a7.53,7.53,0,1,0,7.53,7.53A7.529,7.529,0,0,0,220.03,215Z" transform="translate(-187.4 -189.638)" fill="#d7deed"/>
        <g id="Grupo_1069948" data-name="Grupo 1069948" transform="translate(12.191 8.868)">
          <path id="Trazado_816503" data-name="Trazado 816503" d="M383.934,400a2.151,2.151,0,0,1,0,4.3H382.5V400Z" transform="translate(-345.208 -356.971)" fill="#313a52"/>
          <path id="Trazado_816504" data-name="Trazado 816504" d="M383.934,350a2.151,2.151,0,0,1,0,4.3H382.5V350Z" transform="translate(-345.208 -314.143)" fill="#313a52"/>
          <path id="Trazado_816505" data-name="Trazado 816505" d="M383.934,300a2.151,2.151,0,0,1,0,4.3H382.5V300Z" transform="translate(-345.208 -271.314)" fill="#313a52"/>
          <path id="Trazado_816506" data-name="Trazado 816506" d="M383.934,250a2.151,2.151,0,0,1,0,4.3H382.5V250Z" transform="translate(-345.208 -228.486)" fill="#313a52"/>
          <path id="Trazado_816507" data-name="Trazado 816507" d="M383.934,150a2.151,2.151,0,0,1,0,4.3H382.5V150Z" transform="translate(-345.208 -142.829)" fill="#313a52"/>
          <path id="Trazado_816508" data-name="Trazado 816508" d="M383.934,200a2.151,2.151,0,0,1,0,4.3H382.5V200Z" transform="translate(-345.208 -185.657)" fill="#313a52"/>
          <path id="Trazado_816509" data-name="Trazado 816509" d="M383.934,100a2.151,2.151,0,0,1,0,4.3H382.5V100Z" transform="translate(-345.208 -100)" fill="#313a52"/>
          <path id="Trazado_816510" data-name="Trazado 816510" d="M126.086,400v4.3h-1.434a2.151,2.151,0,0,1,0-4.3Z" transform="translate(-122.5 -356.971)" fill="#313a52"/>
          <path id="Trazado_816511" data-name="Trazado 816511" d="M126.086,350v4.3h-1.434a2.151,2.151,0,1,1,0-4.3Z" transform="translate(-122.5 -314.143)" fill="#313a52"/>
          <path id="Trazado_816512" data-name="Trazado 816512" d="M126.086,300v4.3h-1.434a2.151,2.151,0,1,1,0-4.3Z" transform="translate(-122.5 -271.314)" fill="#313a52"/>
          <path id="Trazado_816513" data-name="Trazado 816513" d="M126.086,250v4.3h-1.434a2.151,2.151,0,0,1,0-4.3Z" transform="translate(-122.5 -228.486)" fill="#313a52"/>
          <path id="Trazado_816514" data-name="Trazado 816514" d="M126.086,200v4.3h-1.434a2.151,2.151,0,1,1,0-4.3Z" transform="translate(-122.5 -185.657)" fill="#313a52"/>
          <path id="Trazado_816515" data-name="Trazado 816515" d="M126.086,150v4.3h-1.434a2.151,2.151,0,1,1,0-4.3Z" transform="translate(-122.5 -142.829)" fill="#313a52"/>
          <path id="Trazado_816516" data-name="Trazado 816516" d="M126.086,100v4.3h-1.434a2.151,2.151,0,1,1,0-4.3Z" transform="translate(-122.5 -100)" fill="#313a52"/>
        </g>
        <path id="Trazado_816517" data-name="Trazado 816517" d="M361.086,134.483v2.008H357.5V85h3.586v49.483Z" transform="translate(-311.603 -78.283)" fill="#4aa525"/>
        <path id="Trazado_816518" data-name="Trazado 816518" d="M151.086,91.454v45.037H147.5V85h3.586v6.454Z" transform="translate(-131.723 -78.283)" fill="#4aa525"/>
        <path id="Trazado_816519" data-name="Trazado 816519" d="M245.727,245a3.227,3.227,0,1,1-3.227,3.227A3.227,3.227,0,0,1,245.727,245Z" transform="translate(-213.097 -215.335)" fill="#232b3f"/>
        <ellipse id="Elipse_9166" data-name="Elipse 9166" cx="1.076" cy="1.076" rx="1.076" ry="1.076" transform="translate(59.523 30.741)"/>
        <ellipse id="Elipse_9167" data-name="Elipse 9167" cx="0.837" cy="0.837" rx="0.837" ry="0.837" transform="translate(59.125 58.61)"/>
        <ellipse id="Elipse_9168" data-name="Elipse 9168" cx="1.256" cy="1.256" rx="1.256" ry="1.256" transform="translate(56.613 14.234)"/>
        <ellipse id="Elipse_9169" data-name="Elipse 9169" cx="0.837" cy="1.256" rx="0.837" ry="1.256" transform="translate(13.911 59.447)"/>
        <ellipse id="Elipse_9170" data-name="Elipse 9170" cx="1.256" cy="1.256" rx="1.256" ry="1.256" transform="translate(10.562 0)"/>
        <ellipse id="Elipse_9171" data-name="Elipse 9171" cx="0.837" cy="1.256" rx="0.837" ry="1.256" transform="translate(3.864 35.166)"/>
        <ellipse id="Elipse_9172" data-name="Elipse 9172" cx="1.256" cy="0.837" rx="1.256" ry="0.837" transform="translate(2.189 17.583)"/>
        <path id="Trazado_816520" data-name="Trazado 816520" d="M194.752,51.454a.717.717,0,0,1-.717-.717v-.861a3.446,3.446,0,0,0-3.442-3.442H172.377a3.446,3.446,0,0,0-3.442,3.442v.861a.717.717,0,0,1-1.434,0v-.861A4.882,4.882,0,0,1,172.377,45h18.215a4.882,4.882,0,0,1,4.877,4.877v.861A.717.717,0,0,1,194.752,51.454Z" transform="translate(-148.854 -44.02)"/>
        <path id="Trazado_816521" data-name="Trazado 816521" d="M190.592,444.881H172.377A4.882,4.882,0,0,1,167.5,440v-.287a.717.717,0,0,1,1.434,0V440a3.446,3.446,0,0,0,3.442,3.442h18.215A3.446,3.446,0,0,0,194.034,440v-.287a.717.717,0,0,1,1.434,0V440A4.882,4.882,0,0,1,190.592,444.881Z" transform="translate(-148.854 -381.509)"/>
        <path id="Trazado_816522" data-name="Trazado 816522" d="M378.217,379.3a.717.717,0,0,1-.717-.717v-2.869a.717.717,0,0,1,1.434,0v2.869A.717.717,0,0,1,378.217,379.3Z" transform="translate(-328.734 -326.689)"/>
        <path id="Trazado_816523" data-name="Trazado 816523" d="M378.217,329.3a.717.717,0,0,1-.717-.717v-2.869a.717.717,0,0,1,1.434,0v2.869A.717.717,0,0,1,378.217,329.3Z" transform="translate(-328.734 -283.86)"/>
        <path id="Trazado_816524" data-name="Trazado 816524" d="M378.217,279.3a.717.717,0,0,1-.717-.717v-2.869a.717.717,0,0,1,1.434,0v2.869A.717.717,0,0,1,378.217,279.3Z" transform="translate(-328.734 -241.032)"/>
        <path id="Trazado_816525" data-name="Trazado 816525" d="M378.217,229.3a.717.717,0,0,1-.717-.717v-2.869a.717.717,0,0,1,1.434,0v2.869A.717.717,0,0,1,378.217,229.3Z" transform="translate(-328.734 -198.203)"/>
        <path id="Trazado_816526" data-name="Trazado 816526" d="M378.217,179.3a.717.717,0,0,1-.717-.717v-2.869a.717.717,0,0,1,1.434,0v2.869A.717.717,0,0,1,378.217,179.3Z" transform="translate(-328.734 -155.375)"/>
        <path id="Trazado_816527" data-name="Trazado 816527" d="M378.217,129.3a.717.717,0,0,1-.717-.717v-2.869a.717.717,0,0,1,1.434,0v2.869A.717.717,0,0,1,378.217,129.3Z" transform="translate(-328.734 -112.546)"/>
        <path id="Trazado_816528" data-name="Trazado 816528" d="M356.8,132.925h-3.586a.717.717,0,0,1-.717-.717V80.717a.717.717,0,0,1,.717-.717H356.8a.717.717,0,0,1,.717.717v2.151a.717.717,0,1,1-1.434,0V81.434h-2.151v50.057h2.151V130.2a.717.717,0,1,1,1.434,0v2.008A.717.717,0,0,1,356.8,132.925Z" transform="translate(-307.32 -74)"/>
        <path id="Trazado_816529" data-name="Trazado 816529" d="M379.651,100.737h-1.434a.717.717,0,0,1-.717-.717v-4.3a.717.717,0,0,1,.717-.717h1.434a2.872,2.872,0,0,1,2.869,2.869,2.872,2.872,0,0,1-2.869,2.869Zm-.717-1.434h.717a1.438,1.438,0,0,0,1.434-1.434,1.436,1.436,0,0,0-1.434-1.434h-.717Z" transform="translate(-328.734 -86.849)"/>
        <path id="Trazado_816530" data-name="Trazado 816530" d="M405.369,111.434h-2.151a.717.717,0,0,1,0-1.434h2.151a.717.717,0,1,1,0,1.434Z" transform="translate(-350.148 -99.698)"/>
        <path id="Trazado_816531" data-name="Trazado 816531" d="M379.651,150.737h-1.434a.717.717,0,0,1-.717-.717v-4.3a.717.717,0,0,1,.717-.717h1.434a2.867,2.867,0,0,1,2.026,4.9A2.843,2.843,0,0,1,379.651,150.737Zm-.717-1.434h.717a1.438,1.438,0,0,0,1.434-1.434,1.436,1.436,0,0,0-1.434-1.434h-.717Z" transform="translate(-328.734 -129.678)"/>
        <path id="Trazado_816532" data-name="Trazado 816532" d="M405.369,161.434h-2.151a.717.717,0,0,1,0-1.434h2.151a.717.717,0,1,1,0,1.434Z" transform="translate(-350.148 -142.526)"/>
        <path id="Trazado_816533" data-name="Trazado 816533" d="M379.651,200.737h-1.434a.717.717,0,0,1-.717-.717v-4.3a.717.717,0,0,1,.717-.717h1.434a2.867,2.867,0,0,1,2.026,4.9A2.843,2.843,0,0,1,379.651,200.737Zm-.717-1.434h.717a1.438,1.438,0,0,0,1.434-1.434,1.436,1.436,0,0,0-1.434-1.434h-.717Z" transform="translate(-328.734 -172.506)"/>
        <path id="Trazado_816534" data-name="Trazado 816534" d="M405.369,211.434h-2.151a.717.717,0,0,1,0-1.434h2.151a.717.717,0,1,1,0,1.434Z" transform="translate(-350.148 -185.355)"/>
        <path id="Trazado_816535" data-name="Trazado 816535" d="M379.651,250.737h-1.434a.717.717,0,0,1-.717-.717v-4.3a.717.717,0,0,1,.717-.717h1.434a2.867,2.867,0,0,1,2.026,4.9A2.842,2.842,0,0,1,379.651,250.737Zm-.717-1.434h.717a1.438,1.438,0,0,0,1.434-1.434,1.436,1.436,0,0,0-1.434-1.434h-.717Z" transform="translate(-328.734 -215.335)"/>
        <path id="Trazado_816536" data-name="Trazado 816536" d="M405.369,261.434h-2.151a.717.717,0,0,1,0-1.434h2.151a.717.717,0,1,1,0,1.434Z" transform="translate(-350.148 -228.183)"/>
        <path id="Trazado_816537" data-name="Trazado 816537" d="M379.651,300.737h-1.434a.717.717,0,0,1-.717-.717v-4.3a.717.717,0,0,1,.717-.717h1.434a2.867,2.867,0,0,1,2.026,4.9A2.842,2.842,0,0,1,379.651,300.737Zm-.717-1.434h.717a1.438,1.438,0,0,0,1.434-1.434,1.436,1.436,0,0,0-1.434-1.434h-.717Z" transform="translate(-328.734 -258.163)"/>
        <path id="Trazado_816538" data-name="Trazado 816538" d="M405.369,311.434h-2.151a.717.717,0,0,1,0-1.434h2.151a.717.717,0,1,1,0,1.434Z" transform="translate(-350.148 -271.012)"/>
        <path id="Trazado_816539" data-name="Trazado 816539" d="M379.651,350.737h-1.434a.717.717,0,0,1-.717-.717v-4.3a.717.717,0,0,1,.717-.717h1.434a2.867,2.867,0,0,1,2.026,4.9A2.842,2.842,0,0,1,379.651,350.737Zm-.717-1.434h.717a1.438,1.438,0,0,0,1.434-1.434,1.436,1.436,0,0,0-1.434-1.434h-.717Z" transform="translate(-328.734 -300.992)"/>
        <path id="Trazado_816540" data-name="Trazado 816540" d="M405.369,361.434h-2.151a.717.717,0,0,1,0-1.434h2.151a.717.717,0,1,1,0,1.434Z" transform="translate(-350.148 -313.84)"/>
        <path id="Trazado_816541" data-name="Trazado 816541" d="M379.651,400.737h-1.434a.717.717,0,0,1-.717-.717v-4.3a.717.717,0,0,1,.717-.717h1.434a2.867,2.867,0,0,1,2.026,4.9A2.842,2.842,0,0,1,379.651,400.737Zm-.717-1.434h.717a1.438,1.438,0,0,0,1.434-1.434,1.436,1.436,0,0,0-1.434-1.434h-.717Z" transform="translate(-328.734 -343.82)"/>
        <path id="Trazado_816542" data-name="Trazado 816542" d="M405.369,411.434h-2.151a.717.717,0,0,1,0-1.434h2.151a.717.717,0,1,1,0,1.434Z" transform="translate(-350.148 -356.669)"/>
        <path id="Trazado_816543" data-name="Trazado 816543" d="M143.217,379.3a.717.717,0,0,1-.717-.717v-2.869a.717.717,0,0,1,1.434,0v2.869A.717.717,0,0,1,143.217,379.3Z" transform="translate(-127.44 -326.689)"/>
        <path id="Trazado_816544" data-name="Trazado 816544" d="M143.217,329.3a.717.717,0,0,1-.717-.717v-2.869a.717.717,0,0,1,1.434,0v2.869A.717.717,0,0,1,143.217,329.3Z" transform="translate(-127.44 -283.86)"/>
        <path id="Trazado_816545" data-name="Trazado 816545" d="M143.217,279.3a.717.717,0,0,1-.717-.717v-2.869a.717.717,0,0,1,1.434,0v2.869A.717.717,0,0,1,143.217,279.3Z" transform="translate(-127.44 -241.032)"/>
        <path id="Trazado_816546" data-name="Trazado 816546" d="M143.217,229.3a.717.717,0,0,1-.717-.717v-2.869a.717.717,0,0,1,1.434,0v2.869A.717.717,0,0,1,143.217,229.3Z" transform="translate(-127.44 -198.203)"/>
        <path id="Trazado_816547" data-name="Trazado 816547" d="M143.217,179.3a.717.717,0,0,1-.717-.717v-2.869a.717.717,0,0,1,1.434,0v2.869A.717.717,0,0,1,143.217,179.3Z" transform="translate(-127.44 -155.375)"/>
        <path id="Trazado_816548" data-name="Trazado 816548" d="M143.217,129.3a.717.717,0,0,1-.717-.717v-2.869a.717.717,0,0,1,1.434,0v2.869A.717.717,0,0,1,143.217,129.3Z" transform="translate(-127.44 -112.546)"/>
        <path id="Trazado_816549" data-name="Trazado 816549" d="M146.8,132.925h-3.586a.717.717,0,0,1-.717-.717V130.2a.717.717,0,0,1,1.434,0v1.291h2.151V81.434h-2.151v1.434a.717.717,0,0,1-1.434,0V80.717a.717.717,0,0,1,.717-.717H146.8a.717.717,0,0,1,.717.717v51.491A.717.717,0,0,1,146.8,132.925Z" transform="translate(-127.44 -74)"/>
        <path id="Trazado_816550" data-name="Trazado 816550" d="M121.8,100.737h-1.434a2.869,2.869,0,1,1,0-5.737H121.8a.717.717,0,0,1,.717.717v4.3A.717.717,0,0,1,121.8,100.737Zm-1.434-4.3a1.436,1.436,0,0,0-1.434,1.434,1.438,1.438,0,0,0,1.434,1.434h.717V96.434Z" transform="translate(-106.026 -86.849)"/>
        <path id="Trazado_816551" data-name="Trazado 816551" d="M105.369,111.434h-2.151a.717.717,0,1,1,0-1.434h2.151a.717.717,0,1,1,0,1.434Z" transform="translate(-93.177 -99.698)"/>
        <path id="Trazado_816552" data-name="Trazado 816552" d="M121.8,150.737h-1.434a2.869,2.869,0,1,1,0-5.737H121.8a.717.717,0,0,1,.717.717v4.3A.717.717,0,0,1,121.8,150.737Zm-1.434-4.3a1.436,1.436,0,0,0-1.434,1.434,1.438,1.438,0,0,0,1.434,1.434h.717v-2.869Z" transform="translate(-106.026 -129.678)"/>
        <path id="Trazado_816553" data-name="Trazado 816553" d="M105.369,161.434h-2.151a.717.717,0,1,1,0-1.434h2.151a.717.717,0,1,1,0,1.434Z" transform="translate(-93.177 -142.526)"/>
        <path id="Trazado_816554" data-name="Trazado 816554" d="M121.8,200.737h-1.434a2.869,2.869,0,1,1,0-5.737H121.8a.717.717,0,0,1,.717.717v4.3A.717.717,0,0,1,121.8,200.737Zm-1.434-4.3a1.436,1.436,0,0,0-1.434,1.434,1.438,1.438,0,0,0,1.434,1.434h.717v-2.869Z" transform="translate(-106.026 -172.506)"/>
        <path id="Trazado_816555" data-name="Trazado 816555" d="M105.369,211.434h-2.151a.717.717,0,0,1,0-1.434h2.151a.717.717,0,0,1,0,1.434Z" transform="translate(-93.177 -185.355)"/>
        <path id="Trazado_816556" data-name="Trazado 816556" d="M121.8,250.737h-1.434a2.869,2.869,0,1,1,0-5.737H121.8a.717.717,0,0,1,.717.717v4.3A.717.717,0,0,1,121.8,250.737Zm-1.434-4.3a1.436,1.436,0,0,0-1.434,1.434,1.437,1.437,0,0,0,1.434,1.434h.717v-2.869Z" transform="translate(-106.026 -215.335)"/>
        <path id="Trazado_816557" data-name="Trazado 816557" d="M105.369,261.434h-2.151a.717.717,0,1,1,0-1.434h2.151a.717.717,0,1,1,0,1.434Z" transform="translate(-93.177 -228.183)"/>
        <path id="Trazado_816558" data-name="Trazado 816558" d="M121.8,300.737h-1.434a2.869,2.869,0,1,1,0-5.737H121.8a.717.717,0,0,1,.717.717v4.3A.717.717,0,0,1,121.8,300.737Zm-1.434-4.3a1.436,1.436,0,0,0-1.434,1.434,1.438,1.438,0,0,0,1.434,1.434h.717v-2.869Z" transform="translate(-106.026 -258.163)"/>
        <path id="Trazado_816559" data-name="Trazado 816559" d="M105.369,311.434h-2.151a.717.717,0,0,1,0-1.434h2.151a.717.717,0,0,1,0,1.434Z" transform="translate(-93.177 -271.012)"/>
        <path id="Trazado_816560" data-name="Trazado 816560" d="M121.8,350.737h-1.434a2.872,2.872,0,0,1-2.869-2.869A2.872,2.872,0,0,1,120.369,345H121.8a.717.717,0,0,1,.717.717v4.3A.717.717,0,0,1,121.8,350.737Zm-1.434-4.3a1.436,1.436,0,0,0-1.434,1.434,1.438,1.438,0,0,0,1.434,1.434h.717v-2.869Z" transform="translate(-106.026 -300.992)"/>
        <path id="Trazado_816561" data-name="Trazado 816561" d="M105.369,361.434h-2.151a.717.717,0,0,1,0-1.434h2.151a.717.717,0,1,1,0,1.434Z" transform="translate(-93.177 -313.84)"/>
        <path id="Trazado_816562" data-name="Trazado 816562" d="M121.8,400.737h-1.434a2.869,2.869,0,1,1,0-5.737H121.8a.717.717,0,0,1,.717.717v4.3A.717.717,0,0,1,121.8,400.737Zm-1.434-4.3a1.436,1.436,0,0,0-1.434,1.434,1.437,1.437,0,0,0,1.434,1.434h.717v-2.869Z" transform="translate(-106.026 -343.82)"/>
        <path id="Trazado_816563" data-name="Trazado 816563" d="M105.369,411.434h-2.151a.717.717,0,0,1,0-1.434h2.151a.717.717,0,0,1,0,1.434Z" transform="translate(-93.177 -356.669)"/>
        <path id="Trazado_816564" data-name="Trazado 816564" d="M223.277,183.132h-15.06a.717.717,0,0,1-.717-.717v-31.7a.717.717,0,0,1,.717-.717h15.06a.717.717,0,0,1,.717.717v31.7A.717.717,0,0,1,223.277,183.132ZM208.934,181.7H222.56V151.434H208.934Z" transform="translate(-183.117 -133.96)"/>
        <path id="Trazado_816565" data-name="Trazado 816565" d="M215.747,226.494a8.247,8.247,0,1,1,8.247-8.247A8.256,8.256,0,0,1,215.747,226.494Zm0-15.06a6.813,6.813,0,1,0,6.813,6.813A6.821,6.821,0,0,0,215.747,211.434Z" transform="translate(-183.117 -185.355)"/>
        <path id="Trazado_816566" data-name="Trazado 816566" d="M241.444,247.889a3.944,3.944,0,1,1,3.944-3.944A3.949,3.949,0,0,1,241.444,247.889Zm0-6.454a2.51,2.51,0,1,0,2.51,2.51A2.513,2.513,0,0,0,241.444,241.434Z" transform="translate(-208.814 -211.052)"/>
        <path id="Trazado_816569" data-name="Trazado 816569" d="M176.823,106.434h-8.606a.717.717,0,1,1,0-1.434h8.606a.717.717,0,0,1,0,1.434Z" transform="translate(-148.854 -95.415)"/>
        <path id="Trazado_816570" data-name="Trazado 816570" d="M188.3,126.434h-20.08a.717.717,0,1,1,0-1.434H188.3a.717.717,0,1,1,0,1.434Z" transform="translate(-148.854 -112.546)"/>
        <path id="Trazado_816571" data-name="Trazado 816571" d="M301.823,416.434h-8.606a.717.717,0,0,1,0-1.434h8.606a.717.717,0,1,1,0,1.434Z" transform="translate(-255.926 -360.952)"/>
        <path id="Trazado_816572" data-name="Trazado 816572" d="M233.3,396.434h-20.08a.717.717,0,1,1,0-1.434H233.3a.717.717,0,1,1,0,1.434Z" transform="translate(-187.4 -343.82)"/>
      </g>
    </g>
  </g>
</svg>
