<svg id="Grupo_89383" data-name="Grupo 89383" xmlns="http://www.w3.org/2000/svg" width="84.999" height="6.102" viewBox="0 0 84.999 6.102">
  <ellipse id="Elipse_4804" data-name="Elipse 4804" cx="2.183" cy="2.05" rx="2.183" ry="2.05" transform="translate(1.018 1)" fill="#ff6148"/>
  <path id="Elipse_4804_-_Contorno" data-name="Elipse 4804 - Contorno" d="M2.2-1A3.132,3.132,0,0,1,5.4,2.05,3.132,3.132,0,0,1,2.2,5.1,3.132,3.132,0,0,1-1,2.05,3.132,3.132,0,0,1,2.2-1Zm0,4.1A1.113,1.113,0,0,0,3.367,2.05,1.113,1.113,0,0,0,2.2,1,1.113,1.113,0,0,0,1.037,2.05,1.113,1.113,0,0,0,2.2,3.1Z" transform="translate(1 1)" fill="#ff6148"/>
  <path id="Trazado_122445" data-name="Trazado 122445" d="M427.026,112.336a2.188,2.188,0,1,1-2.182-2.049A2.121,2.121,0,0,1,427.026,112.336Z" transform="translate(-401.993 -109.286)" fill="#ff6148"/>
  <path id="Trazado_122445_-_Contorno" data-name="Trazado 122445 - Contorno" d="M424.863,109.287a3.054,3.054,0,1,1-3.2,3.049A3.131,3.131,0,0,1,424.863,109.287Zm0,4.1a1.056,1.056,0,1,0-1.166-1.052A1.113,1.113,0,0,0,424.863,113.388Z" transform="translate(-402.011 -109.286)" fill="#ff6148"/>
  <ellipse id="Elipse_4805" data-name="Elipse 4805" cx="2.183" cy="2.05" rx="2.183" ry="2.05" transform="translate(40.315 1)" fill="#ff6148"/>
  <path id="Elipse_4805_-_Contorno" data-name="Elipse 4805 - Contorno" d="M2.2-1A3.132,3.132,0,0,1,5.4,2.05,3.132,3.132,0,0,1,2.2,5.1,3.132,3.132,0,0,1-1,2.05,3.132,3.132,0,0,1,2.2-1Zm0,4.1A1.113,1.113,0,0,0,3.367,2.05,1.113,1.113,0,0,0,2.2,1,1.113,1.113,0,0,0,1.037,2.05,1.113,1.113,0,0,0,2.2,3.1Z" transform="translate(40.297 1)" fill="#ff6148"/>
  <path id="Trazado_122446" data-name="Trazado 122446" d="M443.92,112.336a2.188,2.188,0,1,1-2.185-2.049A2.121,2.121,0,0,1,443.92,112.336Z" transform="translate(-379.587 -109.286)" fill="#ff6148"/>
  <path id="Trazado_122446_-_Contorno" data-name="Trazado 122446 - Contorno" d="M441.753,109.287a3.054,3.054,0,1,1-3.2,3.049A3.132,3.132,0,0,1,441.753,109.287Zm0,4.1a1.056,1.056,0,1,0-1.164-1.052A1.115,1.115,0,0,0,441.753,113.388Z" transform="translate(-379.605 -109.286)" fill="#ff6148"/>
  <path id="Trazado_122447" data-name="Trazado 122447" d="M452.366,112.336a2.188,2.188,0,1,1-2.182-2.049A2.121,2.121,0,0,1,452.366,112.336Z" transform="translate(-368.385 -109.286)" fill="#ff6148"/>
  <path id="Trazado_122447_-_Contorno" data-name="Trazado 122447 - Contorno" d="M450.2,109.287a3.054,3.054,0,1,1-3.2,3.049A3.131,3.131,0,0,1,450.2,109.287Zm0,4.1a1.056,1.056,0,1,0-1.166-1.052A1.113,1.113,0,0,0,450.2,113.388Z" transform="translate(-368.404 -109.286)" fill="#ff6148"/>
</svg>
