<svg xmlns="http://www.w3.org/2000/svg" xmlns:xlink="http://www.w3.org/1999/xlink" width="61" height="61" viewBox="0 0 61 61">
  <defs>
    <clipPath id="clip-path">
      <path id="path5560" d="M0-682.665H40.483v40.483H0Z" transform="translate(0 682.665)"/>
    </clipPath>
  </defs>
  <g id="Grupo_1074566" data-name="Grupo 1074566" transform="translate(-0.5)">
    <circle id="Elipse_4868" data-name="Elipse 4868" cx="30.5" cy="30.5" r="30.5" transform="translate(0.5 0)" fill="#fff"/>
    <g id="g5526" transform="translate(9.818 693.983)">
      <g id="g5528" transform="translate(20.914 -682.072)">
        <path id="path5530" d="M-56.442-94.07V-100h-2.372L-60-94.07Z" transform="translate(60 100)" fill="#d0cdcd"/>
      </g>
      <path id="path5532" d="M335.038-672.665h-2.372v5.93h2.372Z" transform="translate(-312.938 -9.407)" fill="#e7e6e6"/>
      <g id="g5534" transform="translate(0.593 -662.937)">
        <path id="path5536" d="M-94.07,0H-100V2.372l5.93,1.186Z" transform="translate(100)" fill="#d0cdcd"/>
      </g>
      <path id="path5538" d="M15.93-310H10v2.372h5.93Z" transform="translate(-9.407 -350.566)" fill="#e7e6e6"/>
      <g id="g5540" transform="translate(6.054 -676.611)">
        <path id="path5542" d="M-106.428-53.213l-3.355-3.355-3.355,1.677,4.193,4.193Z" transform="translate(113.137 56.568)" fill="#7f7c7b"/>
      </g>
      <g id="g5544" transform="translate(6.054 -675.773)">
        <path id="path5546" d="M-79.82-66.517l-4.193-4.193-.839,2.516L-81.5-64.84Z" transform="translate(84.852 70.71)" fill="#9c9897"/>
      </g>
      <g id="g5548" transform="translate(6.054 -678.289)">
        <path id="path5550" d="M-26.607,0l-1.677,1.677V3.355h1.677l1.677-1.677Z" transform="translate(28.284)" fill="#33d6f5"/>
      </g>
      <g id="g5552" transform="translate(4.376 -676.611)">
        <path id="path5554" d="M0-26.607l1.677,1.677,1.677-1.677L1.677-28.284Z" transform="translate(0 28.284)" fill="#33d6f5"/>
      </g>
      <g id="g5556" transform="translate(0 -682.665)">
        <g id="g5558" clip-path="url(#clip-path)">
          <g id="g5564" transform="translate(22.1 4.309)">
            <path id="path5566" d="M0,0V35.581A17.791,17.791,0,0,0,17.791,17.791,17.791,17.791,0,0,0,0,0" fill="#9c9897"/>
          </g>
          <g id="g5568" transform="translate(4.309 4.309)">
            <path id="path5570" d="M-526.789-282.209c0-9.825-6.9-17.79-15.419-17.79A17.791,17.791,0,0,0-560-282.209a17.791,17.791,0,0,0,17.791,17.791c8.515,0,15.419-7.965,15.419-17.791" transform="translate(559.999 299.999)" fill="#b8b4b3"/>
          </g>
          <g id="g5572" transform="translate(22.1 6.681)">
            <path id="path5574" d="M0,0V30.837A15.418,15.418,0,0,0,15.418,15.418,15.418,15.418,0,0,0,0,0" transform="translate(0 0)" fill="#e7e6e6"/>
          </g>
          <g id="g5576" transform="translate(6.681 6.681)">
            <path id="path5578" d="M-451.534-244.581c0-8.515-5.841-15.418-13.046-15.418A15.419,15.419,0,0,0-480-244.581a15.419,15.419,0,0,0,15.418,15.418c7.205,0,13.046-6.9,13.046-15.418" transform="translate(479.999 259.999)" fill="#bddce8"/>
          </g>
          <g id="g5580" transform="translate(22.1 11.425)">
            <path id="path5582" d="M0,0,4.744,10.674,0,21.349A10.674,10.674,0,1,0,0,0" fill="#0db7d8"/>
          </g>
          <g id="g5584" transform="translate(11.425 11.425)">
            <path id="path5586" d="M-301.023-169.325c0-5.9-3.717-10.674-8.3-10.674v10.674H-320a10.674,10.674,0,0,0,10.674,10.674c4.585,0,8.3-4.779,8.3-10.674" transform="translate(319.999 180)" fill="#33d6f5"/>
          </g>
          <g id="g5588" transform="translate(21.507 8.46)">
            <path id="path5590" d="M-9.407,0a.593.593,0,0,1,.593.593.593.593,0,0,1-.593.593A.593.593,0,0,1-10,.593.593.593,0,0,1-9.407,0" transform="translate(10)"/>
          </g>
          <g id="g5592" transform="translate(21.507 34.553)">
            <path id="path5594" d="M-9.407,0a.593.593,0,0,1,.593.593.593.593,0,0,1-.593.593A.593.593,0,0,1-10,.593.593.593,0,0,1-9.407,0" transform="translate(10)"/>
          </g>
          <g id="g5596" transform="translate(14.983 10.208)">
            <path id="path5598" d="M-4.7-1.261a.593.593,0,0,1,.81.217.593.593,0,0,1-.217.81.593.593,0,0,1-.81-.217.593.593,0,0,1,.217-.81" transform="translate(5.001 1.341)"/>
          </g>
          <g id="g5600" transform="translate(28.03 32.805)">
            <path id="path5602" d="M-4.7-1.262a.593.593,0,0,1,.81.217.593.593,0,0,1-.217.81.593.593,0,0,1-.81-.217.593.593,0,0,1,.217-.81" transform="translate(5.001 1.342)"/>
          </g>
          <g id="g5604" transform="translate(10.208 14.983)">
            <path id="path5606" d="M-1.262-4.7a.593.593,0,0,1,.81-.217.593.593,0,0,1,.217.81.593.593,0,0,1-.81.217.593.593,0,0,1-.217-.81" transform="translate(1.341 5.001)"/>
          </g>
          <g id="g5608" transform="translate(32.805 28.03)">
            <path id="path5610" d="M-1.262-4.7a.593.593,0,0,1,.81-.217.593.593,0,0,1,.217.81.593.593,0,0,1-.81.217.593.593,0,0,1-.217-.81" transform="translate(1.341 5.001)"/>
          </g>
          <g id="g5612" transform="translate(8.46 21.507)">
            <path id="path5614" d="M0-9.407A.593.593,0,0,1,.593-10a.593.593,0,0,1,.593.593.593.593,0,0,1-.593.593A.593.593,0,0,1,0-9.407" transform="translate(0 10)"/>
          </g>
          <g id="g5616" transform="translate(34.553 21.507)">
            <path id="path5618" d="M0-9.407A.593.593,0,0,1,.593-10a.593.593,0,0,1,.593.593.593.593,0,0,1-.593.593A.593.593,0,0,1,0-9.407" transform="translate(0 10)"/>
          </g>
          <g id="g5620" transform="translate(10.208 28.03)">
            <path id="path5622" d="M-1.262-14.112a.593.593,0,0,1,.217-.81.593.593,0,0,1,.81.217.593.593,0,0,1-.217.81.593.593,0,0,1-.81-.217" transform="translate(1.341 15.001)"/>
          </g>
          <g id="g5624" transform="translate(32.805 14.983)">
            <path id="path5626" d="M-1.262-14.112a.593.593,0,0,1,.217-.81.593.593,0,0,1,.81.217.593.593,0,0,1-.217.81.593.593,0,0,1-.81-.217" transform="translate(1.341 15.001)"/>
          </g>
          <g id="g5628" transform="translate(14.983 32.805)">
            <path id="path5630" d="M-4.7-17.556a.593.593,0,0,1-.217-.81.593.593,0,0,1,.81-.217.593.593,0,0,1,.217.81.593.593,0,0,1-.81.217" transform="translate(5.001 18.662)"/>
          </g>
          <g id="g5632" transform="translate(28.03 10.208)">
            <path id="path5634" d="M-4.7-17.555a.593.593,0,0,1-.217-.81.593.593,0,0,1,.81-.217.593.593,0,0,1,.217.81.593.593,0,0,1-.81.217" transform="translate(5.001 18.661)"/>
          </g>
          <g id="g5636" transform="translate(22.1 0.593)">
            <path id="path5638" d="M0-58.95v-3.716" transform="translate(0 62.667)" fill="none" stroke="#000" stroke-linecap="round" stroke-linejoin="round" stroke-miterlimit="10" stroke-width="1"/>
          </g>
          <g id="g5640" transform="translate(19.728 0.593)">
            <path id="path5642" d="M-75.256-61.454v-3.874H-80v3.874" transform="translate(80 65.328)" fill="none" stroke="#000" stroke-linecap="round" stroke-linejoin="round" stroke-miterlimit="10" stroke-width="1"/>
          </g>
          <g id="g5644" transform="translate(0.593 19.728)">
            <path id="path5646" d="M-61.454,0h-3.874V4.744h3.874" transform="translate(65.328)" fill="none" stroke="#000" stroke-linecap="round" stroke-linejoin="round" stroke-miterlimit="10" stroke-width="1"/>
          </g>
          <g id="g5648" transform="translate(0.593 22.1)">
            <path id="path5650" d="M-58.95,0h-3.716" transform="translate(62.667)" fill="none" stroke="#000" stroke-linecap="round" stroke-linejoin="round" stroke-miterlimit="10" stroke-width="1"/>
          </g>
          <g id="g5652" transform="translate(6.054 6.054)">
            <path id="path5654" d="M0-53.213l3.355-3.355" transform="translate(0 56.568)" fill="none" stroke="#000" stroke-linecap="round" stroke-linejoin="round" stroke-miterlimit="10" stroke-width="1"/>
          </g>
          <g id="g5656" transform="translate(7.731 7.731)">
            <path id="path5658" d="M-28.38-28.381l-1.789-1.789" transform="translate(30.169 30.171)" fill="none" stroke="#000" stroke-linecap="round" stroke-linejoin="round" stroke-miterlimit="10" stroke-width="1"/>
          </g>
          <g id="g5660" transform="translate(11.425 11.425)">
            <path id="path5662" d="M-338.65-169.325A10.674,10.674,0,0,0-349.325-180v10.674H-360a10.674,10.674,0,0,0,10.674,10.674A10.674,10.674,0,0,0-338.65-169.325Z" transform="translate(359.999 180)" fill="none" stroke="#000" stroke-linecap="round" stroke-linejoin="round" stroke-miterlimit="10" stroke-width="1"/>
          </g>
          <g id="g5664" transform="translate(6.681 6.681)">
            <path id="path5666" d="M-85.457-430.312a15.358,15.358,0,0,0,10.031,3.71A15.418,15.418,0,0,0-60.007-442.02a15.419,15.419,0,0,0-15.418-15.418A15.418,15.418,0,0,0-90.844-442.02a15.357,15.357,0,0,0,3.71,10.031" transform="translate(90.844 457.439)" fill="none" stroke="#000" stroke-linecap="round" stroke-linejoin="round" stroke-miterlimit="10" stroke-width="1"/>
          </g>
          <g id="g5668" transform="translate(4.309 4.309)">
            <path id="path5670" d="M-282.209,0a17.791,17.791,0,0,1,17.791,17.791,17.791,17.791,0,0,1-17.791,17.791A17.791,17.791,0,0,1-300,17.791,17.791,17.791,0,0,1-282.209,0Z" transform="translate(299.999)" fill="none" stroke="#000" stroke-linecap="round" stroke-linejoin="round" stroke-miterlimit="10" stroke-width="1"/>
          </g>
          <g id="g5672" transform="translate(0.593 0.593)">
            <path id="path5674" d="M-170-116.785a5.516,5.516,0,0,0,.315-1.846,5.516,5.516,0,0,0-5.516-5.516,5.516,5.516,0,0,0-5.516,5.516,5.516,5.516,0,0,0,5.516,5.516,5.514,5.514,0,0,0,1.846-.315l-3.579-3.579,3.355-3.355Z" transform="translate(180.717 124.148)" fill="none" stroke="#000" stroke-linecap="round" stroke-linejoin="round" stroke-miterlimit="10" stroke-width="1"/>
          </g>
        </g>
      </g>
    </g>
  </g>
</svg>
